<?xml version="1.0" standalone="no"?>
<!DOCTYPE svg PUBLIC "-//W3C//DTD SVG 1.1//EN" "http://www.w3.org/Graphics/SVG/1.1/DTD/svg11.dtd" >
<svg xmlns="http://www.w3.org/2000/svg" xmlns:xlink="http://www.w3.org/1999/xlink" version="1.1">
<metadata>
Created by FontForge 20200427 at Sat Jun 23 14:12:11 2018
 By www
Copyright (c) 2015 by Reza Bakhtiarifard / Bakh. All rights reserved.
</metadata>
<defs>
<font id="YekanBakh-Light" horiz-adv-x="0" >
  <font-face 
    font-family="Yekan Bakh Light"
    font-weight="300"
    font-stretch="normal"
    units-per-em="1000"
    panose-1="1 0 5 4 0 0 0 2 0 4"
    ascent="800"
    descent="-200"
    x-height="460"
    cap-height="647"
    bbox="-187 -485 1304 929"
    underline-thickness="25"
    underline-position="-130"
    unicode-range="U+000A-FFFC"
  />
<missing-glyph horiz-adv-x="533" 
d="M462 0h-396v610h396v-610zM115 558v-505h299v505h-299z" />
    <glyph glyph-name="allah" unicode="&#x627;&#xfedf;&#xfee0;&#xfeea;" horiz-adv-x="1219" arabic-form="isolated" 
d="M54 0zM346 463h49v-300q0 -25 4 -45t14 -34.5t27 -22.5t43 -8h74q45 0 68.5 21.5t23.5 58.5v260h49v-251q0 -24 7.5 -41t20.5 -27.5t29.5 -15.5t34.5 -5h35q42 0 66.5 21.5t24.5 58.5v352h50v-352q0 -63 -39 -98t-98 -35h-41q-35 0 -66 14t-50 52q-22 -38 -53 -52
t-63 -14h-75q-22 0 -41.5 4.5t-35.5 15.5t-28.5 29.5t-19.5 45.5q-12 -17 -30 -27t-38.5 -16t-41.5 -8t-39 -2q-75 0 -114 36t-39 117q0 37 10.5 72.5t31.5 63.5t53 45t75 17h122v70zM222 343q-57 0 -88.5 -39t-31.5 -103q0 -62 29.5 -85.5t85.5 -23.5q58 0 93.5 23t35.5 57
v171h-124zM655 929h34v-172h-34v172zM689 684v-146h50q28 0 46.5 15t18.5 56v75h34v-61q0 -39 -10 -62.5t-25 -36t-31.5 -16.5t-29.5 -4h-40q-9 0 -15.5 3t-14.5 10q-8 -7 -14 -10t-15 -3h-41q-13 0 -29.5 4t-31 16.5t-24.5 36t-10 62.5v61h35v-75q0 -41 18.5 -56t46.5 -15
h48v146h34zM1097 620h50v-620h-50v620z" />
    <glyph glyph-name="la.aa" unicode="&#xfedf;&#xfe82;" horiz-adv-x="487" arabic-form="isolated" 
d="M72 488h50v-435h151q42 0 67 21.5t25 58.5v487h50v-487q0 -31 -10.5 -55.5t-29 -42t-44 -26.5t-54.5 -9h-205v488zM55 601q-18 0 -30 -4t-21 -24l-20 -45l-34 15l24 54q8 18 15.5 28t17 15t21 6.5t26.5 1.5h176l-2 -47h-173z" />
    <glyph glyph-name="la.aa.fina" unicode="&#xfee0;&#xfe82;" horiz-adv-x="519" arabic-form="final" 
d="M72 0v488h50v-435h149q45 0 69.5 23t24.5 61v483h50v-483q0 -24 8 -40t21 -26t29.5 -14t33.5 -4h12q12 0 16.5 -7t4.5 -19q0 -14 -4.5 -20.5t-16.5 -6.5h-14q-38 0 -68.5 14t-49.5 52q-22 -38 -52.5 -52t-63.5 -14h-199zM56 601q-18 0 -30 -4t-21 -24l-20 -45l-34 15
l24 54q8 18 15.5 28t17 15t21 6.5t26.5 1.5h176l-2 -47h-173z" />
    <glyph glyph-name="la.thmz" unicode="&#xfedf;&#xfe84;" horiz-adv-x="487" arabic-form="isolated" 
d="M72 453h50v-400h151q42 0 67 21.5t25 58.5v487h50v-487q0 -31 -10.5 -55.5t-29 -42t-44 -26.5t-54.5 -9h-205v453zM207 609l-185 -94l-16 31l73 36q-35 7 -50.5 33t-15.5 53q0 42 26 68t68 26h47l-5 -35h-35q-32 0 -49.5 -18t-17.5 -43q0 -28 19.5 -44.5t42.5 -16.5
q15 0 36.5 10t48.5 24z" />
    <glyph glyph-name="la.thmz.fina" unicode="&#xfee0;&#xfe84;" horiz-adv-x="519" arabic-form="final" 
d="M72 0v453h50v-400h149q45 0 69.5 23t24.5 61v483h50v-483q0 -24 8 -40t21 -26t29.5 -14t33.5 -4h12q12 0 16.5 -7t4.5 -19q0 -14 -4.5 -20.5t-16.5 -6.5h-14q-38 0 -68.5 14t-49.5 52q-22 -38 -52.5 -52t-63.5 -14h-199zM207 609l-185 -94l-16 31l73 36q-35 7 -50.5 33
t-15.5 53q0 42 26 68t68 26h47l-5 -35h-35q-32 0 -49.5 -18t-17.5 -43q0 -28 19.5 -44.5t42.5 -16.5q15 0 36.5 10t48.5 24z" />
    <glyph glyph-name="la.bhmz" unicode="&#xfedf;&#xfe88;" horiz-adv-x="487" arabic-form="isolated" 
d="M46 0zM72 620h50v-567h151q42 0 67 21.5t25 58.5v487h50v-487q0 -31 -10.5 -55.5t-29 -42t-44 -26.5t-54.5 -9h-205v620zM247 -259l-185 -94l-16 31l73 36q-35 7 -50.5 33t-15.5 53q0 42 26 68t68 26h47l-5 -35h-35q-32 0 -49.5 -18t-17.5 -43q0 -28 19.5 -44.5
t42.5 -16.5q15 0 36.5 10t48.5 24z" />
    <glyph glyph-name="la.bhmz.fina" unicode="&#xfee0;&#xfe88;" horiz-adv-x="519" arabic-form="final" 
d="M46 0zM72 0v620h50v-567h149q45 0 69.5 23t24.5 61v483h50v-483q0 -24 8 -40t21 -26t29.5 -14t33.5 -4h12q12 0 16.5 -7t4.5 -19q0 -14 -4.5 -20.5t-16.5 -6.5h-14q-38 0 -68.5 14t-49.5 52q-22 -38 -52.5 -52t-63.5 -14h-199zM247 -259l-185 -94l-16 31l73 36
q-35 7 -50.5 33t-15.5 53q0 42 26 68t68 26h47l-5 -35h-35q-32 0 -49.5 -18t-17.5 -43q0 -28 19.5 -44.5t42.5 -16.5q15 0 36.5 10t48.5 24z" />
    <glyph glyph-name="la" unicode="&#xfedf;&#xfe8e;" horiz-adv-x="487" arabic-form="isolated" 
d="M72 620h50v-567h151q42 0 67 21.5t25 58.5v487h50v-487q0 -31 -10.5 -55.5t-29 -42t-44 -26.5t-54.5 -9h-205v620z" />
    <glyph glyph-name="la.fina" unicode="&#xfee0;&#xfe8e;" horiz-adv-x="519" arabic-form="final" 
d="M72 0v620h50v-567h149q45 0 69.5 23t24.5 61v483h50v-483q0 -24 8 -40t21 -26t29.5 -14t33.5 -4h12q12 0 16.5 -7t4.5 -19q0 -14 -4.5 -20.5t-16.5 -6.5h-14q-38 0 -68.5 14t-49.5 52q-22 -38 -52.5 -52t-63.5 -14h-199z" />
    <glyph glyph-name="la.tvasla" unicode="&#xfedf;&#xfb51;" horiz-adv-x="487" 
d="M72 465h50v-412h151q42 0 67 21.5t25 58.5v487h50v-487q0 -31 -10.5 -55.5t-29 -42t-44 -26.5t-54.5 -9h-205v465zM19 583q42 82 77 115t72 33q16 0 31 -7t26.5 -19t18 -28.5t6.5 -35.5q0 -15 -5 -32t-17.5 -31t-33 -23.5t-50.5 -9.5h-134l-22 20v99l31 5v-86zM143 578
q32 0 53.5 15.5t21.5 47.5q0 22 -14.5 39t-39.5 17q-32 0 -59 -34t-56 -85h94z" />
    <glyph glyph-name="la.tvasla.fina" unicode="&#xfee0;&#xfb51;" horiz-adv-x="519" 
d="M72 0v465h50v-412h149q45 0 69.5 23t24.5 61v483h50v-483q0 -24 8 -40t21 -26t29.5 -14t33.5 -4h12q12 0 16.5 -7t4.5 -19q0 -14 -4.5 -20.5t-16.5 -6.5h-14q-38 0 -68.5 14t-49.5 52q-22 -38 -52.5 -52t-63.5 -14h-199zM19 583q42 82 77 115t72 33q16 0 31 -7t26.5 -19
t18 -28.5t6.5 -35.5q0 -15 -5 -32t-17.5 -31t-33 -23.5t-50.5 -9.5h-134l-22 20v99l31 5v-86zM143 578q32 0 53.5 15.5t21.5 47.5q0 22 -14.5 39t-39.5 17q-32 0 -59 -34t-56 -85h94z" />
    <glyph glyph-name="lellah" unicode="&#xfedf;&#x650;&#xfee0;&#x654;&#xfeea;" horiz-adv-x="1030" 
d="M346 463h49v-300q0 -25 4 -45t14 -34.5t27 -22.5t43 -8h74q45 0 68.5 21.5t23.5 58.5v260h49v-251q0 -24 7.5 -41t20.5 -27.5t29.5 -15.5t34.5 -5h35q42 0 66.5 21.5t24.5 58.5v352h50v-352q0 -63 -39 -98t-98 -35h-41q-35 0 -66 14t-50 52q-22 -38 -53 -52t-63 -14h-75
q-22 0 -41.5 4.5t-35.5 15.5t-28.5 29.5t-19.5 45.5q-12 -17 -30 -27t-38.5 -16t-41.5 -8t-39 -2q-75 0 -114 36t-39 117q0 37 10.5 72.5t31.5 63.5t53 45t75 17h122v70zM222 343q-57 0 -88.5 -39t-31.5 -103q0 -62 29.5 -85.5t85.5 -23.5q58 0 93.5 23t35.5 57v171h-124z
M655 929h34v-172h-34v172zM689 684v-146h50q28 0 46.5 15t18.5 56v75h34v-61q0 -39 -10 -62.5t-25 -36t-31.5 -16.5t-29.5 -4h-40q-9 0 -15.5 3t-14.5 10q-8 -7 -14 -10t-15 -3h-41q-13 0 -29.5 4t-31 16.5t-24.5 36t-10 62.5v61h35v-75q0 -41 18.5 -56t46.5 -15h48v146h34z
" />
    <glyph glyph-name="hmz" unicode="&#x621;" horiz-adv-x="433" arabic-form="isolated" 
d="M63 40l121 61q-33 6 -57.5 19.5t-40 32.5t-23 42t-7.5 48q0 35 12.5 64t33.5 50t49 32.5t58 11.5q25 0 46.5 -6.5t41.5 -16.5l-17 -47q-12 5 -31.5 11t-38.5 6q-48 0 -77 -30.5t-29 -76.5q0 -42 30 -72t86 -30q25 0 57 13.5t86 42.5l23 -46l-300 -155z" />
    <glyph glyph-name="alef.aa" unicode="&#x622;" horiz-adv-x="194" arabic-form="isolated" 
d="M72 488h50v-488h-50v488zM50 601q-18 0 -30 -4t-21 -24l-20 -45l-34 15l24 54q8 18 15.5 28t17 15t21 6.5t26.5 1.5h176l-2 -47h-173z" />
    <glyph glyph-name="alef.thmz" unicode="&#x623;" horiz-adv-x="194" arabic-form="isolated" 
d="M72 453h50v-453h-50v453zM197 609l-185 -94l-16 31l73 36q-35 7 -50.5 33t-15.5 53q0 42 26 68t68 26h47l-5 -35h-35q-32 0 -49.5 -18t-17.5 -43q0 -28 19.5 -44.5t42.5 -16.5q15 0 36.5 10t48.5 24z" />
    <glyph glyph-name="vav.thmz" unicode="&#x624;" horiz-adv-x="450" arabic-form="isolated" 
d="M39 0zM147 -190q46 0 82 15t60.5 41t38 60.5t15.5 73.5h-113q-51 0 -84 11t-52 31.5t-26.5 50t-7.5 65.5q0 37 10.5 71.5t31.5 60t52 41t72 15.5q33 0 63 -11t53 -34.5t36.5 -60.5t13.5 -90v-134q0 -51 -16.5 -98t-47 -82.5t-75 -56.5t-100.5 -21h-108l-6 52h108z
M108 160q0 -29 6 -49t21.5 -33t41.5 -19t66 -6h100v86q0 82 -32.5 119t-89.5 37q-54 0 -83.5 -37t-29.5 -98zM309 506l-185 -94l-16 31l73 36q-35 7 -50.5 33t-15.5 53q0 42 26 68t68 26h47l-5 -35h-35q-32 0 -49.5 -18t-17.5 -43q0 -28 19.5 -44.5t42.5 -16.5q15 0 36.5 10
t48.5 24z" />
    <glyph glyph-name="alef.bhmz" unicode="&#x625;" horiz-adv-x="194" arabic-form="isolated" 
d="M4 0zM72 620h50v-620h-50v620zM205 -259l-185 -94l-16 31l73 36q-35 7 -50.5 33t-15.5 53q0 42 26 68t68 26h47l-5 -35h-35q-32 0 -49.5 -18t-17.5 -43q0 -28 19.5 -44.5t42.5 -16.5q15 0 36.5 10t48.5 24z" />
    <glyph glyph-name="ye.thmz" unicode="&#x626;" horiz-adv-x="676" arabic-form="isolated" 
d="M53 0zM365 -190q42 0 80 12.5t66.5 34t45.5 51t17 63.5q0 15 -3.5 28t-12.5 22.5t-25.5 15.5t-42.5 6h-175v165q0 75 44 121.5t120 46.5h115l5 -52h-125q-20 0 -39.5 -7t-35 -21t-25 -35t-9.5 -49v-118h135q37 0 61 -9.5t37.5 -25t19 -36.5t5.5 -43q0 -46 -20 -86.5
t-54 -70.5t-79.5 -47.5t-96.5 -17.5h-84q-112 0 -174 69t-62 189v173h49v-172q0 -46 12 -84t36 -65.5t60.5 -42.5t86.5 -15h68zM264 412l-185 -94l-16 31l73 36q-35 7 -50.5 33t-15.5 53q0 42 26 68t68 26h47l-5 -35h-35q-32 0 -49.5 -18t-17.5 -43q0 -28 19.5 -44.5
t42.5 -16.5q15 0 36.5 10t48.5 24z" />
    <glyph glyph-name="alef" unicode="&#x627;" horiz-adv-x="194" arabic-form="isolated" 
d="M72 620h50v-620h-50v620z" />
    <glyph glyph-name="be" unicode="&#x628;" horiz-adv-x="775" arabic-form="isolated" 
d="M58 0zM212 0q-41 0 -70.5 12.5t-48 33.5t-27 49t-8.5 59v131h49v-120q0 -51 26.5 -81.5t89.5 -30.5h351q43 0 68 23t25 61v147h51v-150q0 -32 -11 -56.5t-29.5 -42t-44 -26.5t-54.5 -9h-367zM418 -179h-74v61h74v-61z" />
    <glyph glyph-name="te.marbuta" unicode="&#x629;" horiz-adv-x="458" arabic-form="isolated" 
d="M53 0zM53 154q0 31 8 58.5t25.5 56t45 60t66.5 70.5l-46 47l35 37q62 -62 104 -106.5t67.5 -80.5t36.5 -66.5t11 -63.5q0 -36 -13.5 -66t-38 -52.5t-57.5 -35t-72 -12.5t-71 11.5t-54.5 32t-34.5 49t-12 61.5zM356 164q0 22 -6.5 43t-21 44.5t-39 50.5t-60.5 62
q-41 -40 -65.5 -69.5t-38.5 -53t-18.5 -43t-4.5 -38.5q0 -46 32.5 -76.5t90.5 -30.5q28 0 52.5 9t41.5 24t27 35t10 43zM309 568h-69v60h69v-60zM189 568h-69v60h69v-60z" />
    <glyph glyph-name="te" unicode="&#x62a;" horiz-adv-x="775" arabic-form="isolated" 
d="M58 0zM212 0q-41 0 -70.5 12.5t-48 33.5t-27 49t-8.5 59v131h49v-120q0 -51 26.5 -81.5t89.5 -30.5h351q43 0 68 23t25 61v147h51v-150q0 -32 -11 -56.5t-29.5 -42t-44 -26.5t-54.5 -9h-367zM482 374h-69v60h69v-60zM362 374h-69v60h69v-60z" />
    <glyph glyph-name="the" unicode="&#x62b;" horiz-adv-x="775" arabic-form="isolated" 
d="M58 0zM212 0q-41 0 -70.5 12.5t-48 33.5t-27 49t-8.5 59v131h49v-120q0 -51 26.5 -81.5t89.5 -30.5h351q43 0 68 23t25 61v147h51v-150q0 -32 -11 -56.5t-29.5 -42t-44 -26.5t-54.5 -9h-367zM423 485h-70v60h70v-60zM482 374h-69v60h69v-60zM362 374h-69v60h69v-60z" />
    <glyph glyph-name="jim" unicode="&#x62c;" horiz-adv-x="539" arabic-form="isolated" 
d="M47 0zM430 220q-8 24 -17 43t-23.5 31.5t-36.5 19.5t-55 7h-211l6 53h210q26 0 52.5 -4t51 -21.5t45 -53.5t34.5 -99l-198 -115q-51 -30 -87 -57.5t-59 -55t-34 -56t-11 -60.5q0 -91 49 -138t153 -47h186l-5 -52h-185q-69 0 -116 18.5t-76.5 50t-42.5 73t-13 88.5
q0 39 11 74t35.5 68t64 65.5t96.5 65.5zM377 -157h-74v61h74v-61z" />
    <glyph glyph-name="him" unicode="&#x62d;" horiz-adv-x="539" arabic-form="isolated" 
d="M430 220q-8 24 -17 43t-23.5 31.5t-36.5 19.5t-55 7h-211l6 53h210q26 0 52.5 -4t51 -21.5t45 -53.5t34.5 -99l-198 -115q-51 -30 -87 -57.5t-59 -55t-34 -56t-11 -60.5q0 -91 49 -138t153 -47h186l-5 -52h-185q-69 0 -116 18.5t-76.5 50t-42.5 73t-13 88.5q0 39 11 74
t35.5 68t64 65.5t96.5 65.5z" />
    <glyph glyph-name="khe" unicode="&#x62e;" horiz-adv-x="539" arabic-form="isolated" 
d="M47 0zM430 220q-8 24 -17 43t-23.5 31.5t-36.5 19.5t-55 7h-211l6 53h210q26 0 52.5 -4t51 -21.5t45 -53.5t34.5 -99l-198 -115q-51 -30 -87 -57.5t-59 -55t-34 -56t-11 -60.5q0 -91 49 -138t153 -47h186l-5 -52h-185q-69 0 -116 18.5t-76.5 50t-42.5 73t-13 88.5
q0 39 11 74t35.5 68t64 65.5t96.5 65.5zM287 490h-74v61h74v-61z" />
    <glyph glyph-name="dal" unicode="&#x62f;" horiz-adv-x="529" arabic-form="isolated" 
d="M430 233q25 -29 36 -56.5t11 -53.5q0 -54 -38.5 -88.5t-107.5 -34.5h-284l-5 53h284q45 0 70.5 21t25.5 55q0 17 -8.5 36.5t-24.5 36.5l-192 217l39 37z" />
    <glyph glyph-name="zal" unicode="&#x630;" horiz-adv-x="529" arabic-form="isolated" 
d="M42 0zM430 233q25 -29 36 -56.5t11 -53.5q0 -54 -38.5 -88.5t-107.5 -34.5h-284l-5 53h284q45 0 70.5 21t25.5 55q0 17 -8.5 36.5t-24.5 36.5l-192 217l39 37zM279 585h-74v61h74v-61z" />
    <glyph glyph-name="re" unicode="&#x631;" horiz-adv-x="218" arabic-form="isolated" 
d="M160 16q0 -60 -18.5 -107.5t-50.5 -81t-75.5 -51.5t-94.5 -18h-57l-5 52h51q52 0 90 17t62.5 45.5t36 66t11.5 77.5v268h50v-268v0z" />
    <glyph glyph-name="ze" unicode="&#x632;" horiz-adv-x="218" arabic-form="isolated" 
d="M0 0zM160 16q0 -60 -18.5 -107.5t-50.5 -81t-75.5 -51.5t-94.5 -18h-57l-5 52h51q52 0 90 17t62.5 45.5t36 66t11.5 77.5v268h50v-268v0zM165 416h-74v61h74v-61z" />
    <glyph glyph-name="sin" unicode="&#x633;" horiz-adv-x="1126" arabic-form="isolated" 
d="M838 137q0 -24 7.5 -40t20 -26t28 -14t32.5 -4q42 0 67 23t25 61v147h50v-145q0 -66 -38.5 -102.5t-101.5 -36.5q-36 0 -67 14t-50 52q-22 -38 -55.5 -52t-68.5 -14t-59.5 11t-38.5 31v-26q0 -51 -17 -98t-48.5 -82.5t-76.5 -56.5t-101 -21h-57q-112 0 -174 69t-62 189
v173h49v-172q0 -46 12 -84t36 -65.5t60.5 -42.5t86.5 -15h44q49 0 86.5 16.5t62.5 44.5t38 65.5t13 78.5v269h49v-151q0 -35 25.5 -57.5t70.5 -22.5q49 0 76 23t27 61v147h49v-147z" />
    <glyph glyph-name="shin" unicode="&#x634;" horiz-adv-x="1126" arabic-form="isolated" 
d="M53 0zM838 137q0 -24 7.5 -40t20 -26t28 -14t32.5 -4q42 0 67 23t25 61v147h50v-145q0 -66 -38.5 -102.5t-101.5 -36.5q-36 0 -67 14t-50 52q-22 -38 -55.5 -52t-68.5 -14t-59.5 11t-38.5 31v-26q0 -51 -17 -98t-48.5 -82.5t-76.5 -56.5t-101 -21h-57q-112 0 -174 69
t-62 189v173h49v-172q0 -46 12 -84t36 -65.5t60.5 -42.5t86.5 -15h44q49 0 86.5 16.5t62.5 44.5t38 65.5t13 78.5v269h49v-151q0 -35 25.5 -57.5t70.5 -22.5q49 0 76 23t27 61v147h49v-147zM850 527h-70v60h70v-60zM909 416h-69v60h69v-60zM789 416h-69v60h69v-60z" />
    <glyph glyph-name="sad" unicode="&#x635;" horiz-adv-x="1196" arabic-form="isolated" 
d="M1094 183q0 30 -9.5 56t-26.5 44.5t-39.5 29t-48.5 10.5q-60 0 -123.5 -64.5t-141.5 -205.5h263q23 0 45.5 7.5t40.5 23t29 40t11 59.5zM656 56q48 88 90 148.5t80.5 98.5t74.5 55t72 17q37 0 68.5 -15t54.5 -41.5t35.5 -61.5t12.5 -74q0 -33 -10.5 -66t-32.5 -59
t-55 -42t-79 -16h-273q-74 0 -105 44v-28q0 -51 -17 -98t-48.5 -82.5t-76.5 -56.5t-101 -21h-57q-112 0 -174 69t-62 189v173h49v-172q0 -46 12 -84t36 -65.5t60.5 -42.5t86.5 -15h44q49 0 86.5 16.5t62.5 44.5t38 65.5t13 78.5v269h49v-145q0 -31 17.5 -54t48.5 -29z" />
    <glyph glyph-name="zad" unicode="&#x636;" horiz-adv-x="1196" arabic-form="isolated" 
d="M53 0zM1094 183q0 30 -9.5 56t-26.5 44.5t-39.5 29t-48.5 10.5q-60 0 -123.5 -64.5t-141.5 -205.5h263q23 0 45.5 7.5t40.5 23t29 40t11 59.5zM656 56q48 88 90 148.5t80.5 98.5t74.5 55t72 17q37 0 68.5 -15t54.5 -41.5t35.5 -61.5t12.5 -74q0 -33 -10.5 -66t-32.5 -59
t-55 -42t-79 -16h-273q-74 0 -105 44v-28q0 -51 -17 -98t-48.5 -82.5t-76.5 -56.5t-101 -21h-57q-112 0 -174 69t-62 189v173h49v-172q0 -46 12 -84t36 -65.5t60.5 -42.5t86.5 -15h44q49 0 86.5 16.5t62.5 44.5t38 65.5t13 78.5v269h49v-145q0 -31 17.5 -54t48.5 -29z
M950 480h-74v61h74v-61z" />
    <glyph glyph-name="ta" unicode="&#x637;" horiz-adv-x="685" arabic-form="isolated" 
d="M143 620h50v-317v-82.5t-1 -81.5q76 127 142 181.5t128 54.5q37 0 68.5 -15t54.5 -41.5t35.5 -61.5t12.5 -74q0 -33 -10.5 -66t-32.5 -59t-55 -42t-79 -16h-403l-6 53h96v567zM583 183q0 30 -9.5 56t-26.5 44.5t-39.5 29t-48.5 10.5q-60 0 -123 -64t-144 -206h265
q23 0 45.5 7.5t40.5 23t29 40t11 59.5z" />
    <glyph glyph-name="za" unicode="&#x638;" horiz-adv-x="685" arabic-form="isolated" 
d="M47 0zM143 620h50v-317v-82.5t-1 -81.5q76 127 142 181.5t128 54.5q37 0 68.5 -15t54.5 -41.5t35.5 -61.5t12.5 -74q0 -33 -10.5 -66t-32.5 -59t-55 -42t-79 -16h-403l-6 53h96v567zM583 183q0 30 -9.5 56t-26.5 44.5t-39.5 29t-48.5 10.5q-60 0 -123 -64t-144 -206h265
q23 0 45.5 7.5t40.5 23t29 40t11 59.5zM498 501h-74v61h74v-61z" />
    <glyph glyph-name="ein" unicode="&#x639;" horiz-adv-x="522" arabic-form="isolated" 
d="M187 31q-23 18 -37.5 39.5t-22.5 43t-11.5 41t-3.5 34.5q0 36 12.5 67.5t34.5 54.5t53 36.5t69 13.5q34 0 66 -10.5t70 -35.5l-21 -41q-32 18 -59.5 26t-55.5 8q-27 0 -49 -10t-37.5 -26.5t-24 -38t-8.5 -44.5q0 -24 8.5 -48.5t23.5 -44t34 -31.5t40 -12h178l-6 -53h-177
q-39 0 -69.5 -14t-51.5 -37t-32.5 -52t-11.5 -59q0 -84 44.5 -127.5t149.5 -43.5h182l-5 -52h-182q-68 0 -114 17.5t-73.5 47.5t-39 70t-11.5 85q0 63 35 117t103 79z" />
    <glyph glyph-name="qein" unicode="&#x63a;" horiz-adv-x="522" arabic-form="isolated" 
d="M49 0zM187 31q-23 18 -37.5 39.5t-22.5 43t-11.5 41t-3.5 34.5q0 36 12.5 67.5t34.5 54.5t53 36.5t69 13.5q34 0 66 -10.5t70 -35.5l-21 -41q-32 18 -59.5 26t-55.5 8q-27 0 -49 -10t-37.5 -26.5t-24 -38t-8.5 -44.5q0 -24 8.5 -48.5t23.5 -44t34 -31.5t40 -12h178
l-6 -53h-177q-39 0 -69.5 -14t-51.5 -37t-32.5 -52t-11.5 -59q0 -84 44.5 -127.5t149.5 -43.5h182l-5 -52h-182q-68 0 -114 17.5t-73.5 47.5t-39 70t-11.5 85q0 63 35 117t103 79zM312 493h-74v61h74v-61z" />
    <glyph glyph-name="fe" unicode="&#x641;" horiz-adv-x="853" arabic-form="isolated" 
d="M458 236q0 28 11 57t32.5 53t53 39t72.5 15q38 0 69 -10.5t53.5 -34t34.5 -60.5t12 -90v-42q0 -76 -46.5 -119.5t-146.5 -43.5h-396q-41 0 -70.5 12.5t-48 33.5t-27 49t-8.5 59v131h49v-120q0 -51 26 -81.5t89 -30.5h340q29 0 48.5 1t40.5 3q-65 21 -102.5 40.5
t-56.5 40.5t-24 44.5t-5 53.5zM506 233q0 -21 4 -39t23.5 -36t60 -37.5t114.5 -43.5q17 14 27.5 35.5t10.5 51.5v35q0 70 -28.5 109t-94.5 39q-27 0 -49 -10t-37 -26t-23 -36.5t-8 -41.5zM662 506h-74v61h74v-61z" />
    <glyph glyph-name="qaf" unicode="&#x642;" horiz-adv-x="711" arabic-form="isolated" 
d="M405 -190q46 0 82 15t61.5 41t39.5 60.5t16 73.5h-113q-51 0 -84.5 11t-52.5 31.5t-26.5 50t-7.5 65.5q0 37 11 71.5t32 60t52.5 41t72.5 15.5q33 0 63 -11t52.5 -34.5t36 -60.5t13.5 -90v-134q0 -51 -17 -98t-48.5 -82.5t-76 -56.5t-100.5 -21h-122q-112 0 -174 69
t-62 189v173h49v-172q0 -46 12 -84t36 -65.5t60.5 -42.5t86.5 -15h108zM369 160q0 -29 6 -49t21.5 -33t41.5 -19t67 -6h100v86q0 82 -33 119t-90 37q-53 0 -83 -37t-30 -98zM585 464h-69v60h69v-60zM465 464h-69v60h69v-60z" />
    <glyph glyph-name="kaf.arab" unicode="&#x643;" horiz-adv-x="772" arabic-form="isolated" 
d="M420 209v92q0 9 -5.5 15.5t-21.5 6.5h-126v112q0 48 28 75.5t79 27.5h45l6 -42h-49q-33 0 -50.5 -15t-17.5 -48v-68h104q28 0 38.5 -16t10.5 -36v-104h-41zM212 0q-41 0 -70.5 12.5t-48 33.5t-27 49t-8.5 59v131h49v-120q0 -51 26.5 -81.5t89.5 -30.5h335q42 0 67.5 23
t25.5 61v483h50v-481q0 -66 -38.5 -102.5t-102.5 -36.5h-348z" />
    <glyph glyph-name="lam" unicode="&#x644;" horiz-adv-x="662" arabic-form="isolated" 
d="M590 19q0 -53 -17 -100.5t-48.5 -83t-77 -56.5t-101.5 -21h-57q-112 0 -174 69t-62 189v173h49v-172q0 -46 12 -84t36 -65.5t60.5 -42.5t86.5 -15h44q49 0 86.5 16.5t62.5 44.5t38 65.5t13 78.5v605h49v-601z" />
    <glyph glyph-name="mim" unicode="&#x645;" horiz-adv-x="630" arabic-form="isolated" 
d="M406 0q-68 0 -109.5 36.5t-41.5 106.5v66q0 34 8.5 58.5t32.5 45.5h-49q-69 0 -104.5 -36.5t-35.5 -90.5v-428h-49v429q0 35 12.5 67t36.5 56.5t60 39t84 14.5h181q39 0 66 -11.5t43.5 -30t24 -42.5t7.5 -48v-88q0 -38 -12.5 -65t-34.5 -44.5t-52.5 -26t-67.5 -8.5z
M412 53q51 0 81.5 22.5t30.5 70.5v75q0 36 -21.5 63.5t-68.5 27.5h-41q-47 0 -68.5 -28t-21.5 -68v-66q0 -48 29 -72.5t80 -24.5z" />
    <glyph glyph-name="nun" unicode="&#x646;" horiz-adv-x="648" arabic-form="isolated" 
d="M590 19q0 -53 -17 -100.5t-48.5 -83t-77 -56.5t-101.5 -21h-57q-112 0 -174 69t-62 189v173h49v-172q0 -46 12 -84t36 -65.5t60.5 -42.5t86.5 -15h44q49 0 86.5 16.5t62.5 44.5t38 65.5t13 78.5v269h49v-265zM348 308h-74v61h74v-61z" />
    <glyph glyph-name="he" unicode="&#x647;" horiz-adv-x="458" arabic-form="isolated" 
d="M53 154q0 31 8 58.5t25.5 56t45 60t66.5 70.5l-46 47l35 37q62 -62 104 -106.5t67.5 -80.5t36.5 -66.5t11 -63.5q0 -36 -13.5 -66t-38 -52.5t-57.5 -35t-72 -12.5t-71 11.5t-54.5 32t-34.5 49t-12 61.5zM356 164q0 22 -6.5 43t-21 44.5t-39 50.5t-60.5 62
q-41 -40 -65.5 -69.5t-38.5 -53t-18.5 -43t-4.5 -38.5q0 -46 32.5 -76.5t90.5 -30.5q28 0 52.5 9t41.5 24t27 35t10 43z" />
    <glyph glyph-name="vav" unicode="&#x648;" horiz-adv-x="450" arabic-form="isolated" 
d="M147 -190q46 0 82 15t60.5 41t38 60.5t15.5 73.5h-113q-51 0 -84 11t-52 31.5t-26.5 50t-7.5 65.5q0 37 10.5 71.5t31.5 60t52 41t72 15.5q33 0 63 -11t53 -34.5t36.5 -60.5t13.5 -90v-134q0 -51 -16.5 -98t-47 -82.5t-75 -56.5t-100.5 -21h-108l-6 52h108zM108 160
q0 -29 6 -49t21.5 -33t41.5 -19t66 -6h100v86q0 82 -32.5 119t-89.5 37q-54 0 -83.5 -37t-29.5 -98z" />
    <glyph glyph-name="alef.maksura" unicode="&#x649;" horiz-adv-x="676" arabic-form="isolated" 
d="M365 -190q42 0 80 12.5t66.5 34t45.5 51t17 63.5q0 15 -3.5 28t-12.5 22.5t-25.5 15.5t-42.5 6h-175v165q0 75 44 121.5t120 46.5h115l5 -52h-125q-20 0 -39.5 -7t-35 -21t-25 -35t-9.5 -49v-118h135q37 0 61 -9.5t37.5 -25t19 -36.5t5.5 -43q0 -46 -20 -86.5t-54 -70.5
t-79.5 -47.5t-96.5 -17.5h-84q-112 0 -174 69t-62 189v173h49v-172q0 -46 12 -84t36 -65.5t60.5 -42.5t86.5 -15h68z" />
    <glyph glyph-name="ye.arab" unicode="&#x64a;" horiz-adv-x="676" arabic-form="isolated" 
d="M53 0zM365 -190q42 0 80 12.5t66.5 34t45.5 51t17 63.5q0 15 -3.5 28t-12.5 22.5t-25.5 15.5t-42.5 6h-175v165q0 75 44 121.5t120 46.5h115l5 -52h-125q-20 0 -39.5 -7t-35 -21t-25 -35t-9.5 -49v-118h135q37 0 61 -9.5t37.5 -25t19 -36.5t5.5 -43q0 -46 -20 -86.5
t-54 -70.5t-79.5 -47.5t-96.5 -17.5h-84q-112 0 -174 69t-62 189v173h49v-172q0 -46 12 -84t36 -65.5t60.5 -42.5t86.5 -15h68zM411 -415h-65v60h65v-60zM288 -415h-66v60h66v-60z" />
    <glyph glyph-name="alef.vasla" unicode="&#x671;" horiz-adv-x="194" arabic-form="isolated" 
d="M72 465h50v-465h-50v465zM18 583q42 82 77 115t72 33q16 0 31 -7t26.5 -19t18 -28.5t6.5 -35.5q0 -15 -5 -32t-17.5 -31t-33 -23.5t-50.5 -9.5h-134l-22 20v99l31 5v-86zM142 578q32 0 53.5 15.5t21.5 47.5q0 22 -14.5 39t-39.5 17q-32 0 -59 -34t-56 -85h94z" />
    <glyph glyph-name="pe" unicode="&#x67e;" horiz-adv-x="775" arabic-form="isolated" 
d="M58 0zM212 0q-41 0 -70.5 12.5t-48 33.5t-27 49t-8.5 59v131h49v-120q0 -51 26.5 -81.5t89.5 -30.5h351q43 0 68 23t25 61v147h51v-150q0 -32 -11 -56.5t-29.5 -42t-44 -26.5t-54.5 -9h-367zM424 -290h-70v61h70v-61zM483 -178h-69v60h69v-60zM363 -178h-69v60h69v-60z
" />
    <glyph glyph-name="che" unicode="&#x686;" horiz-adv-x="539" arabic-form="isolated" 
d="M47 0zM430 220q-8 24 -17 43t-23.5 31.5t-36.5 19.5t-55 7h-211l6 53h210q26 0 52.5 -4t51 -21.5t45 -53.5t34.5 -99l-198 -115q-51 -30 -87 -57.5t-59 -55t-34 -56t-11 -60.5q0 -91 49 -138t153 -47h186l-5 -52h-185q-69 0 -116 18.5t-76.5 50t-42.5 73t-13 88.5
q0 39 11 74t35.5 68t64 65.5t96.5 65.5zM371.818 -228.194h-67.6367v58.9404h67.6367v-58.9404zM428.827 -119.975h-66.6709v57.9746h66.6709v-57.9746zM312.878 -119.975h-66.6719v57.9746h66.6719v-57.9746z" />
    <glyph glyph-name="re.bv.fina" unicode="&#x695;" horiz-adv-x="261" 
d="M0 0zM158 16q0 -60 -18 -107.5t-50 -81t-75 -51.5t-94 -18h-57l-5 52h51q52 0 90 17t62.5 45.5t36 66t11.5 77.5v268h50v-151q0 -35 24 -57.5t66 -22.5h11q22 0 22 -26q0 -27 -22 -27h-11q-26 0 -50.5 10t-41.5 33v-27zM131 -283l29 -17l-95 -185h-28l-95 185l29 17
l80 -161z" />
    <glyph glyph-name="je" unicode="&#x698;" horiz-adv-x="218" arabic-form="isolated" 
d="M0 0zM160 16q0 -60 -18.5 -107.5t-50.5 -81t-75.5 -51.5t-94.5 -18h-57l-5 52h51q52 0 90 17t62.5 45.5t36 66t11.5 77.5v268h50v-268v0zM153 527h-70v60h70v-60zM212 416h-69v60h69v-60zM92 416h-69v60h69v-60z" />
    <glyph glyph-name="veh" unicode="&#x6a4;" horiz-adv-x="858" arabic-form="isolated" 
d="M464 236q0 28 11 57t32 53t52.5 39t72.5 15q38 0 69 -10.5t53.5 -34t34.5 -60.5t12 -90v-42q0 -76 -46.5 -119.5t-146.5 -43.5h-396q-41 0 -70.5 12.5t-48 33.5t-27 49t-8.5 59v131h49v-120q0 -51 26.5 -81.5t89.5 -30.5h339q29 0 49 1t40 3q-65 21 -102.5 40.5t-56 40.5
t-23.5 44.5t-5 53.5zM511 233q0 -21 4 -39t23.5 -36t60.5 -37.5t114 -43.5q17 14 28 35.5t11 51.5v35q0 70 -29 109t-95 39q-27 0 -48.5 -10t-37 -26t-23.5 -36.5t-8 -41.5zM665 617h-70v60h70v-60zM724 506h-69v60h69v-60zM604 506h-69v60h69v-60z" />
    <glyph glyph-name="kaf" unicode="&#x6a9;" horiz-adv-x="797" arabic-form="isolated" 
d="M590 53q52 0 72 20.5t20 52.5q0 18 -6.5 41.5t-37.5 53.5l-226 227v53l331 133l14 -50l-295 -118l194 -193q25 -25 40.5 -45t24 -37.5t11.5 -34t3 -35.5q0 -31 -10.5 -54t-29.5 -38t-44.5 -22t-56.5 -7h-382q-41 0 -70.5 12.5t-48 33.5t-27 49t-8.5 59v131h49v-120
q0 -51 26.5 -81.5t89.5 -30.5h367z" />
    <glyph glyph-name="gaf" unicode="&#x6af;" horiz-adv-x="797" arabic-form="isolated" 
d="M409 632l300 124l11 -40l-310 -127zM590 53q52 0 72 20.5t20 52.5q0 18 -6.5 41.5t-37.5 53.5l-226 227v53l331 133l14 -50l-295 -118l194 -193q25 -25 40.5 -45t24 -37.5t11.5 -34t3 -35.5q0 -31 -10.5 -54t-29.5 -38t-44.5 -22t-56.5 -7h-382q-41 0 -70.5 12.5
t-48 33.5t-27 49t-8.5 59v131h49v-120q0 -51 26.5 -81.5t89.5 -30.5h367z" />
    <glyph glyph-name="lam.tv.init" unicode="&#x6b5;" horiz-adv-x="241" 
d="M27 53q42 0 67.5 23t25.5 61v316h49v-314q0 -66 -38 -102.5t-102 -36.5h-29q-13 0 -17.5 6.5t-4.5 18.5q0 14 4.5 21t17.5 7h27zM222 710l29 -17l-95 -185h-28l-95 185l29 17l80 -161z" />
    <glyph glyph-name="lam.tvmedi" unicode="&#x6b5;" horiz-adv-x="273" 
d="M27 53q45 0 69 23t24 61v316h49v-316q0 -24 8 -40t21 -26t29 -14t32 -4h14q13 0 17.5 -7t4.5 -19q0 -14 -4.5 -20.5t-17.5 -6.5h-15q-36 0 -67 14t-49 52q-21 -38 -52 -52t-63 -14h-27q-13 0 -17.5 6.5t-4.5 18.5q0 14 4.5 21t17.5 7h27zM222 710l29 -17l-95 -185h-28
l-95 185l29 17l80 -161z" />
    <glyph glyph-name="lam.tv.fina" unicode="&#x6b5;" horiz-adv-x="692" 
d="M53 0zM681 0q-26 0 -51 10t-41 33v-26q0 -52 -17 -99t-48.5 -82.5t-76.5 -56.5t-101 -21h-57q-112 0 -174 69t-62 189v173h49v-172q0 -46 12 -84t36 -65.5t60.5 -42.5t86.5 -15h44q49 0 86.5 16.5t62.5 44.5t38 65.5t13 78.5v605h49v-487q0 -35 25 -57.5t66 -22.5h11
q23 0 23 -26q0 -27 -23 -27h-11zM420 618l29 -17l-95 -185h-28l-95 185l29 17l80 -161z" />
    <glyph glyph-name="he.thmz" unicode="&#x6c0;" horiz-adv-x="458" arabic-form="isolated" 
d="M171 578q-42 0 -61 21t-19 48q0 9 2 19.5t8 23.5t16 31t26 42h117l-5 -41h-94q-17 -26 -24 -41t-7 -27q0 -13 9.5 -24t37.5 -11h198l-3 -41h-201zM53 154q0 31 8 58.5t25.5 56t45 60t66.5 70.5l-46 47l35 37q62 -62 104 -106.5t67.5 -80.5t36.5 -66.5t11 -63.5
q0 -36 -13.5 -66t-38 -52.5t-57.5 -35t-72 -12.5t-71 11.5t-54.5 32t-34.5 49t-12 61.5zM356 164q0 22 -6.5 43t-21 44.5t-39 50.5t-60.5 62q-41 -40 -65.5 -69.5t-38.5 -53t-18.5 -43t-4.5 -38.5q0 -46 32.5 -76.5t90.5 -30.5q28 0 52.5 9t41.5 24t27 35t10 43z" />
    <glyph glyph-name="he.thmz.goal.fina" unicode="&#x6c2;" horiz-adv-x="494" 
d="M54 0zM216 92q57 0 92 23t35 57v171h-121q-57 0 -88.5 -39t-31.5 -103q0 -62 29.5 -85.5t84.5 -23.5zM392 161q0 -47 18.5 -77.5t68.5 -30.5h15q12 0 16.5 -7t4.5 -19q0 -14 -4.5 -20.5t-16.5 -6.5h-15q-45 0 -78 20t-47 75q-12 -17 -30.5 -27t-39 -16t-41 -8t-38.5 -2
q-73 0 -112 36.5t-39 116.5q0 37 10.5 72.5t31.5 63.5t53 45t75 17h119v70h49v-302zM380 639l-185 -94l-16 31l73 36q-35 7 -50.5 33t-15.5 53q0 42 26 68t68 26h47l-5 -35h-35q-32 0 -49.5 -18t-17.5 -43q0 -28 19.5 -44.5t42.5 -16.5q15 0 36.5 10t48.5 24z" />
    <glyph glyph-name="vav.tv" unicode="&#x6c6;" horiz-adv-x="450" arabic-form="isolated" 
d="M39 0zM147 -190q46 0 82 15t60.5 41t38 60.5t15.5 73.5h-113q-51 0 -84 11t-52 31.5t-26.5 50t-7.5 65.5q0 37 10.5 71.5t31.5 60t52 41t72 15.5q33 0 63 -11t53 -34.5t36.5 -60.5t13.5 -90v-134q0 -51 -16.5 -98t-47 -82.5t-75 -56.5t-100.5 -21h-108l-6 52h108z
M108 160q0 -29 6 -49t21.5 -33t41.5 -19t66 -6h100v86q0 82 -32.5 119t-89.5 37q-54 0 -83.5 -37t-29.5 -98zM309 620l29 -17l-95 -185h-28l-95 185l29 17l80 -161z" />
    <glyph glyph-name="vav.t2p.fina" unicode="&#x6ca;" horiz-adv-x="494" 
d="M39 0zM147 -190q46 0 82 15t60.5 41t38 60.5t15.5 73.5h-113q-51 0 -84 11t-52 31.5t-26.5 50t-7.5 65.5q0 37 10.5 71.5t31.5 60t52 41t72 15.5q33 0 63 -11t53 -34.5t36.5 -60.5t13.5 -90v-97h102q12 0 16.5 -7t4.5 -19q0 -14 -4.5 -20.5t-16.5 -6.5h-104
q-2 -49 -19.5 -93t-48 -77t-73 -52.5t-96.5 -19.5h-108l-6 52h108zM108 160q0 -29 6 -49t21.5 -33t41.5 -19t66 -6h100v86q0 82 -32.5 119t-89.5 37q-54 0 -83.5 -37t-29.5 -98zM324 464h-69v60h69v-60zM204 464h-69v60h69v-60z" />
    <glyph glyph-name="ye" unicode="&#x6cc;" horiz-adv-x="676" arabic-form="isolated" 
d="M53 0zM365 -190q42 0 80 12.5t66.5 34t45.5 51t17 63.5q0 15 -3.5 28t-12.5 22.5t-25.5 15.5t-42.5 6h-175v165q0 75 44 121.5t120 46.5h115l5 -52h-125q-20 0 -39.5 -7t-35 -21t-25 -35t-9.5 -49v-118h135q37 0 61 -9.5t37.5 -25t19 -36.5t5.5 -43q0 -46 -20 -86.5
t-54 -70.5t-79.5 -47.5t-96.5 -17.5h-84q-112 0 -174 69t-62 189v173h49v-172q0 -46 12 -84t36 -65.5t60.5 -42.5t86.5 -15h68z" />
    <glyph glyph-name="ye.tv.init" unicode="&#x6ce;" horiz-adv-x="290" 
d="M0 0zM89 53q42 0 68 23t26 61v147h49v-145q0 -66 -38.5 -102.5t-101.5 -36.5h-92q-13 0 -17.5 6.5t-4.5 18.5q0 14 4.5 21t17.5 7h89zM200 -178h-65v60h65v-60zM77 -178h-66v60h66v-60zM197 575l29 -17l-95 -185h-28l-95 185l29 17l80 -161z" />
    <glyph glyph-name="ye.tv.medi" unicode="&#x6ce;" horiz-adv-x="344" 
d="M0 0zM78 53q45 0 69.5 23t24.5 61v147h50v-147q0 -24 8 -40t20.5 -26t28.5 -14t32 -4h33q23 0 23 -26q0 -27 -23 -27h-34q-35 0 -66 14t-50 52q-22 -38 -52 -52t-64 -14h-78q-13 0 -17.5 6.5t-4.5 18.5q0 14 4.5 21t17.5 7h78zM260 -178h-65v60h65v-60zM137 -178h-66v60
h66v-60zM274 575l29 -17l-95 -185h-28l-95 185l29 17l80 -161z" />
    <glyph glyph-name="ye.tv.fina" unicode="&#x6ce;" horiz-adv-x="704" 
d="M53 0zM379 -190q53 0 90 11.5t60.5 30t34 41.5t10.5 46q0 26 -12.5 43.5t-44.5 17.5h-177l5 53h359q22 0 22 -26q0 -27 -22 -27h-104q13 -12 17.5 -28t4.5 -34q0 -27 -11.5 -58.5t-39 -58.5t-73 -45t-112.5 -18h-97q-112 0 -174 69t-62 189v173h49v-172q0 -46 12 -84
t36 -65.5t60.5 -42.5t86.5 -15h82zM377 394l29 -17l-95 -185h-28l-95 185l29 17l80 -161z" />
    <glyph glyph-name="ae.fina" unicode="&#x6d5;" horiz-adv-x="494" 
d="M54 0zM216 92q57 0 92 23t35 57v171h-121q-57 0 -88.5 -39t-31.5 -103q0 -62 29.5 -85.5t84.5 -23.5zM392 161q0 -47 18.5 -77.5t68.5 -30.5h15q12 0 16.5 -7t4.5 -19q0 -14 -4.5 -20.5t-16.5 -6.5h-15q-45 0 -78 20t-47 75q-12 -17 -30.5 -27t-39 -16t-41 -8t-38.5 -2
q-73 0 -112 36.5t-39 116.5q0 37 10.5 72.5t31.5 63.5t53 45t75 17h119v70h49v-302z" />
    <glyph glyph-name="alef.vasla.fina" unicode="&#x671;" horiz-adv-x="223" arabic-form="final" 
d="M202 0q-26 0 -49.5 7.5t-41.5 25.5t-28.5 47.5t-10.5 73.5v311h50v-304q0 -46 20 -77t67 -31h14q22 0 22 -26q0 -27 -22 -27h-21zM18 583q42 82 77 115t72 33q16 0 31 -7t26.5 -19t18 -28.5t6.5 -35.5q0 -15 -5 -32t-17.5 -31t-33 -23.5t-50.5 -9.5h-134l-22 20v99l31 5
v-86zM142 578q32 0 53.5 15.5t21.5 47.5q0 22 -14.5 39t-39.5 17q-32 0 -59 -34t-56 -85h94z" />
    <glyph glyph-name="pe.fina" unicode="&#x67e;" horiz-adv-x="823" arabic-form="final" 
d="M58 0zM574 53q45 0 69 23t24 61v147h51v-147q0 -24 8 -40t21 -26t29 -14t32 -4h15q13 0 17.5 -7t4.5 -19q0 -14 -4.5 -20.5t-17.5 -6.5h-16q-36 0 -67 14t-50 52q-22 -38 -52.5 -52t-63.5 -14h-362q-41 0 -70.5 12.5t-48 33.5t-27 49t-8.5 59v131h49v-120
q0 -51 26.5 -81.5t89.5 -30.5h351zM424 -290h-70v61h70v-61zM483 -178h-69v60h69v-60zM363 -178h-69v60h69v-60z" />
    <glyph glyph-name="pe.init" unicode="&#x67e;" horiz-adv-x="290" arabic-form="initial" 
d="M0 0zM89 53q42 0 68 23t26 61v147h49v-145q0 -66 -38.5 -102.5t-101.5 -36.5h-92q-13 0 -17.5 6.5t-4.5 18.5q0 14 4.5 21t17.5 7h89zM146 -290h-70v61h70v-61zM205 -178h-69v60h69v-60zM85 -178h-69v60h69v-60z" />
    <glyph glyph-name="pe.medi" unicode="&#x67e;" horiz-adv-x="344" arabic-form="medial" 
d="M0 0zM78 53q45 0 69.5 23t24.5 61v147h50v-147q0 -24 8 -40t20.5 -26t28.5 -14t32 -4h33q23 0 23 -26q0 -27 -23 -27h-34q-35 0 -66 14t-50 52q-22 -38 -52 -52t-64 -14h-78q-13 0 -17.5 6.5t-4.5 18.5q0 14 4.5 21t17.5 7h78zM193 -290h-70v61h70v-61zM252 -178h-69v60
h69v-60zM132 -178h-69v60h69v-60z" />
    <glyph glyph-name="veh.fina" unicode="&#x6a4;" horiz-adv-x="893" arabic-form="final" 
d="M629 337q-28 0 -50.5 -10t-38.5 -26.5t-24.5 -39t-8.5 -47.5q0 -29 12.5 -53t32 -42.5t42.5 -32t44 -22.5q16 9 36 22.5t37 31.5t29 41t12 51q0 57 -33 92t-90 35zM635 390q42 0 73 -14.5t51.5 -37.5t31 -53t10.5 -60q0 -51 -26 -94.5t-81 -77.5h199q13 0 17.5 -7
t4.5 -19q0 -14 -4.5 -20.5t-17.5 -6.5h-114q-46 0 -82 2t-56 11q-15 -5 -35.5 -7.5t-42 -4t-42 -1.5h-34.5h-275q-41 0 -70.5 12.5t-48 33.5t-27 49t-8.5 59v131h49v-120q0 -51 26.5 -81.5t89.5 -30.5h354q-54 26 -86.5 69t-32.5 97q0 33 12 64t35 54.5t56 38t74 14.5z
M665 605h-70v60h70v-60zM724 494h-69v60h69v-60zM604 494h-69v60h69v-60z" />
    <glyph glyph-name="veh.init" unicode="&#x6a4;" horiz-adv-x="488" arabic-form="initial" 
d="M0 0zM201 53q23 0 41 1t38 3q-65 21 -102.5 40.5t-56 40.5t-23.5 44.5t-5 53.5q0 28 11 57t32.5 53t53 39t72.5 15q38 0 69 -10.5t53 -34t34 -60.5t12 -90v-42q0 -76 -46.5 -119.5t-146.5 -43.5h-237q-13 0 -17.5 6.5t-4.5 18.5q0 14 4.5 21t17.5 7h201zM257 347
q-27 0 -48.5 -10t-36.5 -26t-23.5 -36.5t-8.5 -41.5t4 -39t23.5 -36t60.5 -37.5t114 -43.5q17 14 28 35.5t11 51.5v35q0 70 -29 109t-95 39zM297 616h-70v60h70v-60zM356 505h-69v60h69v-60zM236 505h-69v60h69v-60z" />
    <glyph glyph-name="veh.medi" unicode="&#x6a4;" horiz-adv-x="528" arabic-form="medial" 
d="M0 0zM212 53q-54 26 -86.5 69t-32.5 97q0 33 12 64t35 54.5t56 38t74 14.5t72 -14.5t51.5 -37.5t31 -53t10.5 -60q0 -51 -25.5 -94.5t-81.5 -77.5h200q22 0 22 -26q0 -27 -22 -27h-115q-45 0 -81 2t-57 11q-14 -5 -34.5 -7.5t-42 -4t-42 -1.5h-34.5h-122q-13 0 -17.5 6.5
t-4.5 18.5q0 14 4.5 21t17.5 7h212zM264 337q-28 0 -50.5 -10t-38.5 -26.5t-24.5 -39t-8.5 -47.5q0 -29 12.5 -53t32 -42.5t42.5 -32t44 -22.5q16 9 35.5 22.5t37 31.5t29.5 41t12 51q0 57 -33 92t-90 35zM308 605h-70v60h70v-60zM367 494h-69v60h69v-60zM247 494h-69v60h69
v-60z" />
    <glyph glyph-name="che.fina" unicode="&#x686;" horiz-adv-x="566" arabic-form="final" 
d="M47 0zM430 220q-8 24 -17 43t-23.5 31.5t-36.5 19.5t-55 7h-211l6 53h210q26 0 52.5 -4t51 -21.5t45 -53.5t34.5 -99l-82 -48q20 -54 43.5 -74.5t65.5 -20.5h53q13 0 17.5 -7t4.5 -19q0 -14 -4.5 -20.5t-17.5 -6.5h-59q-33 0 -55 9.5t-37 26.5t-25.5 40t-20.5 51l-81 -46
q-51 -30 -87 -57.5t-59 -55t-34 -56t-11 -60.5q0 -91 49 -138t153 -47h186l-5 -52h-185q-69 0 -116 18.5t-76.5 50t-42.5 73t-13 88.5q0 39 11 74t35.5 68t64 65.5t96.5 65.5zM343.638 -237.389h-65.2754v56.8818h65.2754v-56.8818zM398.654 -132.949h-64.3418v55.9492
h64.3418v-55.9492zM286.755 -132.949h-64.3418v55.9492h64.3418v-55.9492z" />
    <glyph glyph-name="che.init" unicode="&#x686;" horiz-adv-x="565" arabic-form="initial" 
d="M0 0zM290 60q-25 -15 -48.5 -26.5t-50.5 -19t-60.5 -11t-76.5 -3.5h-54q-13 0 -17.5 6.5t-4.5 18.5q0 14 4.5 21t17.5 7h55q39 0 69 3t55 9t47.5 16t45.5 24l186 108q-8 24 -18 44t-25.5 34t-38 22t-55.5 8h-228l6 53h227q26 0 53.5 -5t52 -24t46 -55t35.5 -98zM317 -290
h-70v61h70v-61zM376 -178h-69v60h69v-60zM256 -178h-69v60h69v-60z" />
    <glyph glyph-name="che.medi" unicode="&#x686;" horiz-adv-x="606" arabic-form="medial" 
d="M0 0zM430 142q19 -49 41.5 -69t63.5 -20h71q13 0 17.5 -7t4.5 -19q0 -14 -4.5 -20.5t-17.5 -6.5h-76q-32 0 -54 9t-37.5 25.5t-26 38.5t-19.5 48l-103 -61q-25 -15 -48.5 -26.5t-50.5 -19t-60.5 -11t-76.5 -3.5h-54q-13 0 -17.5 6.5t-4.5 18.5q0 14 4.5 21t17.5 7h55
q39 0 69 3t55 9t47.5 16t45.5 24l186 108q-8 24 -18 44t-25.5 34t-38 22t-55.5 8h-228l6 53h227q26 0 53.5 -5t52 -24t46 -55t35.5 -98zM317 -290h-70v61h70v-61zM376 -178h-69v60h69v-60zM256 -178h-69v60h69v-60z" />
    <glyph glyph-name="je.fina" unicode="&#x698;" horiz-adv-x="261" arabic-form="final" 
d="M0 0zM158 16q0 -60 -18 -107.5t-50 -81t-75 -51.5t-94 -18h-57l-5 52h51q52 0 90 17t62.5 45.5t36 66t11.5 77.5v268h50v-151q0 -35 24 -57.5t66 -22.5h11q22 0 22 -26q0 -27 -22 -27h-11q-26 0 -50.5 10t-41.5 33v-27zM153 527h-70v60h70v-60zM212 416h-69v60h69v-60z
M92 416h-69v60h69v-60z" />
    <glyph glyph-name="kaf.fina" unicode="&#x6a9;" horiz-adv-x="944" arabic-form="final" 
d="M412 448v53l331 133l14 -50l-295 -118l194 -193q53 -53 90.5 -90t64.5 -61.5t45 -38.5t32.5 -20.5t27 -8t28.5 -1.5q13 0 17.5 -7t4.5 -19q0 -14 -4.5 -20.5t-17.5 -6.5q-27 0 -49 6t-45 21.5t-52 41.5t-71 67q5 -35 -3.5 -61t-27 -42.5t-45 -24.5t-57.5 -8h-382
q-41 0 -70.5 12.5t-48 33.5t-27 49t-8.5 59v131h49v-120q0 -51 26.5 -81.5t89.5 -30.5h367q51 0 71.5 20.5t20.5 52.5q0 18 -7 41.5t-37 53.5z" />
    <glyph glyph-name="kaf.init" unicode="&#x6a9;" horiz-adv-x="477" arabic-form="initial" 
d="M270 53q52 0 72 20.5t20 52.5q0 18 -6.5 41.5t-36.5 53.5l-227 227v53l332 133l14 -50l-295 -118l193 -193q25 -25 40 -44.5t23.5 -37.5t11.5 -34.5t3 -35.5q0 -63 -38.5 -92t-101.5 -29h-274q-13 0 -17.5 6.5t-4.5 18.5q0 14 4.5 21t17.5 7h270z" />
    <glyph glyph-name="kaf.medi" unicode="&#x6a9;" horiz-adv-x="623" arabic-form="medial" 
d="M270 53q52 0 72 20.5t20 52.5q0 18 -6.5 41.5t-36.5 53.5l-227 227v53l332 133l14 -50l-295 -118l193 -193q79 -80 125.5 -124.5t74.5 -65.5t46 -25.5t41 -4.5q13 0 17.5 -7t4.5 -19q0 -14 -4.5 -20.5t-17.5 -6.5q-27 0 -48.5 6t-44.5 21.5t-51.5 41.5t-70.5 67
q5 -35 -3.5 -61t-27 -42.5t-45.5 -24.5t-58 -8h-274q-13 0 -17.5 6.5t-4.5 18.5q0 14 4.5 21t17.5 7h270z" />
    <glyph glyph-name="gaf.fina" unicode="&#x6af;" horiz-adv-x="944" arabic-form="final" 
d="M409 632l300 124l11 -40l-310 -127zM412 448v53l331 133l14 -50l-295 -118l194 -193q53 -53 90.5 -90t64.5 -61.5t45 -38.5t32.5 -20.5t27 -8t28.5 -1.5q13 0 17.5 -7t4.5 -19q0 -14 -4.5 -20.5t-17.5 -6.5q-27 0 -49 6t-45 21.5t-52 41.5t-71 67q5 -35 -3.5 -61
t-27 -42.5t-45 -24.5t-57.5 -8h-382q-41 0 -70.5 12.5t-48 33.5t-27 49t-8.5 59v131h49v-120q0 -51 26.5 -81.5t89.5 -30.5h367q51 0 71.5 20.5t20.5 52.5q0 18 -7 41.5t-37 53.5z" />
    <glyph glyph-name="gaf.init" unicode="&#x6af;" horiz-adv-x="477" arabic-form="initial" 
d="M91 632l299 124l12 -40l-310 -127zM270 53q52 0 72 20.5t20 52.5q0 18 -6.5 41.5t-36.5 53.5l-227 227v53l332 133l14 -50l-295 -118l193 -193q25 -25 40 -44.5t23.5 -37.5t11.5 -34.5t3 -35.5q0 -63 -38.5 -92t-101.5 -29h-274q-13 0 -17.5 6.5t-4.5 18.5q0 14 4.5 21
t17.5 7h270z" />
    <glyph glyph-name="gaf.medi" unicode="&#x6af;" horiz-adv-x="623" arabic-form="medial" 
d="M91 632l299 124l12 -40l-310 -127zM270 53q52 0 72 20.5t20 52.5q0 18 -6.5 41.5t-36.5 53.5l-227 227v53l332 133l14 -50l-295 -118l193 -193q79 -80 125.5 -124.5t74.5 -65.5t46 -25.5t41 -4.5q13 0 17.5 -7t4.5 -19q0 -14 -4.5 -20.5t-17.5 -6.5q-27 0 -48.5 6
t-44.5 21.5t-51.5 41.5t-70.5 67q5 -35 -3.5 -61t-27 -42.5t-45.5 -24.5t-58 -8h-274q-13 0 -17.5 6.5t-4.5 18.5q0 14 4.5 21t17.5 7h270z" />
    <glyph glyph-name="he.thmz.fina" unicode="&#x6c0;" horiz-adv-x="497" arabic-form="final" 
d="M186 515q-43 0 -61.5 21t-18.5 47q0 10 2 20t7.5 23.5t15.5 31t26 41.5h118l-5 -40h-94q-17 -26 -24 -41t-7 -26q0 -14 9 -25t38 -11h197l-3 -41h-200zM220 92q57 0 92 23t35 57v171h-121q-57 0 -88.5 -39t-31.5 -103q0 -62 29.5 -85.5t84.5 -23.5zM396 161
q0 -47 18.5 -77.5t68.5 -30.5h14q13 0 17.5 -7t4.5 -19q0 -14 -4.5 -20.5t-17.5 -6.5h-14q-45 0 -78 20t-47 75q-12 -17 -30.5 -27t-39 -16t-41 -8t-38.5 -2q-73 0 -112 36.5t-39 116.5q0 37 10.5 72.5t31.5 63.5t52.5 45t74.5 17h169v-232z" />
    <glyph glyph-name="he.dochashmi.fina" unicode="&#x6be;" horiz-adv-x="629" arabic-form="final" 
d="M456 209q0 50 -25 81.5t-79 31.5t-84 -40t-30 -112v-247q0 -31 6 -52t17 -33.5t25.5 -19t31.5 -8.5l100 132q30 39 54.5 61t48 33.5t49.5 14t59 2.5q22 0 22 -26q0 -27 -22 -27q-32 0 -55.5 -2.5t-45 -12.5t-43 -31t-49.5 -58l-102 -138q-30 0 -55.5 8.5t-45 28
t-30.5 50.5t-11 76v248q0 35 7.5 71.5t26.5 66t49.5 48.5t77.5 19q37 0 65 -12t47 -33t28.5 -49t9.5 -61q0 -60 -38 -110t-101.5 -93t-145.5 -81t-170 -74l-17 48q87 35 164.5 71t135 73t91.5 75.5t34 80.5z" />
    <glyph glyph-name="he.dochashmi.init" unicode="&#x6be;" horiz-adv-x="719" arabic-form="initial" 
d="M0 0zM262 329q-28 0 -50.5 -10t-38.5 -26.5t-24.5 -39.5t-8.5 -48q0 -29 12.5 -51.5t32 -40t42.5 -29.5t44 -21q16 9 36 21t37.5 29t29.5 39t12 50q0 56 -33.5 91.5t-90.5 35.5zM0 0q-13 0 -17.5 6.5t-4.5 18.5q0 14 4.5 21t17.5 7h212q-53 26 -86 64.5t-33 92.5
q0 33 12 63.5t34.5 54.5t55.5 38t74 14t72 -14t51.5 -37.5t30.5 -53t10 -59.5q0 -51 -25.5 -90t-81.5 -73h192q45 0 70 21t25 55q0 17 -7.5 35.5t-24.5 38.5l-188 213l37 35l190 -216q26 -31 36 -58.5t10 -53.5q0 -54 -38 -88.5t-107 -34.5h-110q-46 0 -81.5 2t-56.5 11
q-14 -5 -34.5 -7.5t-42 -4t-42 -1.5h-34.5h-120z" />
    <glyph glyph-name="he.dochashmi.medi" unicode="&#x6be;" horiz-adv-x="539" arabic-form="medial" 
d="M0 0zM101 53v116q0 35 7.5 71.5t26.5 66t50 48.5t78 19q37 0 65.5 -12t47 -33t28 -49t9.5 -61q0 -45 -20.5 -84t-56 -68.5t-84 -47t-104.5 -18.5v-78q0 -31 6 -52t17 -33.5t26 -19t32 -8.5l99 132q30 39 54.5 61t48.5 33.5t49.5 14t58.5 2.5q13 0 17.5 -7t4.5 -19
q0 -14 -4.5 -20.5t-17.5 -6.5q-32 0 -55.5 -2.5t-44.5 -12.5t-43 -31t-50 -58l-102 -138q-30 0 -56 8.5t-45.5 28t-30.5 50.5t-11 76v79h-101q-13 0 -17.5 6.5t-4.5 18.5q0 14 4.5 21t17.5 7h101zM148 51q54 1 95 15t68 36.5t41 50t14 56.5q0 50 -25.5 81.5t-78.5 31.5
q-54 0 -84 -40t-30 -112v-119z" />
    <glyph glyph-name="vav.tv.fina" unicode="&#x6c6;" horiz-adv-x="494" arabic-form="final" 
d="M39 0zM147 -190q46 0 82 15t60.5 41t38 60.5t15.5 73.5h-113q-51 0 -84 11t-52 31.5t-26.5 50t-7.5 65.5q0 37 10.5 71.5t31.5 60t52 41t72 15.5q33 0 63 -11t53 -34.5t36.5 -60.5t13.5 -90v-97h102q12 0 16.5 -7t4.5 -19q0 -14 -4.5 -20.5t-16.5 -6.5h-104
q-2 -49 -19.5 -93t-48 -77t-73 -52.5t-96.5 -19.5h-108l-6 52h108zM108 160q0 -29 6 -49t21.5 -33t41.5 -19t66 -6h100v86q0 82 -32.5 119t-89.5 37q-54 0 -83.5 -37t-29.5 -98zM309 620l29 -17l-95 -185h-28l-95 185l29 17l80 -161z" />
    <glyph glyph-name="alef.maksura.init" unicode="&#x649;" horiz-adv-x="290" arabic-form="initial" 
d="M89 53q42 0 68 23t26 61v147h49v-145q0 -66 -38.5 -102.5t-101.5 -36.5h-92q-13 0 -17.5 6.5t-4.5 18.5q0 14 4.5 21t17.5 7h89z" />
    <glyph glyph-name="alef.maksura.medi" unicode="&#x649;" horiz-adv-x="344" arabic-form="medial" 
d="M78 53q45 0 69.5 23t24.5 61v147h50v-147q0 -24 8 -40t20.5 -26t28.5 -14t32 -4h33q23 0 23 -26q0 -27 -23 -27h-34q-35 0 -66 14t-50 52q-22 -38 -52 -52t-64 -14h-78q-13 0 -17.5 6.5t-4.5 18.5q0 14 4.5 21t17.5 7h78z" />
    <glyph glyph-name="ye.fina" unicode="&#x6cc;" horiz-adv-x="704" arabic-form="final" 
d="M53 0zM379 -190q53 0 90 11.5t60.5 30t34 41.5t10.5 46q0 26 -12.5 43.5t-44.5 17.5h-177l5 53h359q22 0 22 -26q0 -27 -22 -27h-104q13 -12 17.5 -28t4.5 -34q0 -27 -11.5 -58.5t-39 -58.5t-73 -45t-112.5 -18h-97q-112 0 -174 69t-62 189v173h49v-172q0 -46 12 -84
t36 -65.5t60.5 -42.5t86.5 -15h82z" />
    <glyph glyph-name="ye.init" unicode="&#x6cc;" horiz-adv-x="290" arabic-form="initial" 
d="M0 0zM89 53q42 0 68 23t26 61v147h49v-145q0 -66 -38.5 -102.5t-101.5 -36.5h-92q-13 0 -17.5 6.5t-4.5 18.5q0 14 4.5 21t17.5 7h89zM200 -178h-65v60h65v-60zM77 -178h-66v60h66v-60z" />
    <glyph glyph-name="ye.medi" unicode="&#x6cc;" horiz-adv-x="344" arabic-form="medial" 
d="M0 0zM78 53q45 0 69.5 23t24.5 61v147h50v-147q0 -24 8 -40t20.5 -26t28.5 -14t32 -4h33q23 0 23 -26q0 -27 -23 -27h-34q-35 0 -66 14t-50 52q-22 -38 -52 -52t-64 -14h-78q-13 0 -17.5 6.5t-4.5 18.5q0 14 4.5 21t17.5 7h78zM260 -178h-65v60h65v-60zM137 -178h-66v60
h66v-60z" />
    <glyph glyph-name=".shdd.on" unicode="&#xfc5e;" arabic-form="isolated" 
d="M0 0zM12 309q-31 17 -44 41.5t-13 46.5q0 19 7 37t20 31.5t30.5 21.5t38.5 8q42 0 68.5 -27.5t26.5 -67.5q0 -32 -20 -59.5t-72 -49.5l-155 -65l-14 30v89q0 22 -19 22h-43v33h52q18 0 29 -10t11 -35v-85zM-13 398q0 -23 16.5 -43.5t42.5 -31.5q26 10 46.5 28t20.5 45
q0 25 -16 45.5t-46 20.5q-33 0 -48.5 -21t-15.5 -43zM0 13q-14 -13 -30 -13h-28q-13 0 -29.5 4t-31 16.5t-24.5 36t-10 62.5v63h35v-76q0 -41 18.5 -56.5t46.5 -15.5h36v148h34v-148h36q28 0 46.5 15.5t18.5 56.5v76h34v-63q0 -39 -10 -62.5t-24.5 -36t-31 -16.5t-29.5 -4
h-27q-10 0 -16 3t-14 10z" />
    <glyph glyph-name=".shdd.en" unicode="&#xfc5f;" arabic-form="isolated" 
d="M0 0zM0 334q-14 -13 -30 -13h-28q-13 0 -29.5 4t-31 16.5t-24.5 36t-10 62.5v63h35v-76q0 -41 18.5 -56.5t46.5 -15.5h36v148h34v-148h36q28 0 46.5 15.5t18.5 56.5v76h34v-63q0 -39 -10 -62.5t-24.5 -36t-31 -16.5t-29.5 -4h-27q-10 0 -16 3t-14 10zM107 128l13 -32
l-227 -96l-13 32zM107 249l13 -32l-227 -96l-13 32z" />
    <glyph glyph-name=".shdd.a" unicode="&#xfc60;" arabic-form="isolated" 
d="M0 0zM107 355l13 -32l-227 -96l-13 32zM0 13q-14 -13 -30 -13h-28q-13 0 -29.5 4t-31 16.5t-24.5 36t-10 62.5v63h35v-76q0 -41 18.5 -56.5t46.5 -15.5h36v148h34v-148h36q28 0 46.5 15.5t18.5 56.5v76h34v-63q0 -39 -10 -62.5t-24.5 -36t-31 -16.5t-29.5 -4h-27
q-10 0 -16 3t-14 10z" />
    <glyph glyph-name=".shdd.o" unicode="&#xfc61;" arabic-form="isolated" 
d="M0 0zM-131 261l127 51q-31 17 -44 41.5t-13 46.5q0 19 7 37t20 31.5t30.5 21.5t38.5 8q42 0 68 -27.5t26 -67.5q0 -32 -19.5 -59.5t-71.5 -49.5l-155 -65zM-29 401q0 -23 16.5 -43.5t42.5 -31.5q26 10 46.5 28t20.5 45q0 25 -16 45.5t-46 20.5q-33 0 -48.5 -21t-15.5 -43
zM0 13q-14 -13 -30 -13h-28q-13 0 -29.5 4t-31 16.5t-24.5 36t-10 62.5v63h35v-76q0 -41 18.5 -56.5t46.5 -15.5h36v148h34v-148h36q28 0 46.5 15.5t18.5 56.5v76h34v-63q0 -39 -10 -62.5t-24.5 -36t-31 -16.5t-29.5 -4h-27q-10 0 -16 3t-14 10z" />
    <glyph glyph-name=".shdd.e" unicode="&#xfc62;" arabic-form="isolated" 
d="M0 0zM0 195q-14 -13 -30 -13h-28q-13 0 -29.5 4t-31 16.5t-24.5 36t-10 62.5v63h35v-76q0 -41 18.5 -56.5t46.5 -15.5h36v148h34v-148h36q28 0 46.5 15.5t18.5 56.5v76h34v-63q0 -39 -10 -62.5t-24.5 -36t-31 -16.5t-29.5 -4h-27q-10 0 -16 3t-14 10zM107 128l13 -32
l-227 -96l-13 32z" />
    <glyph glyph-name=".shdd.aa" unicode="&#xfc63;" arabic-form="isolated" 
d="M0 0zM1 13q-14 -13 -30 -13h-28q-13 0 -29.5 4t-31 16.5t-24.5 36t-10 62.5v63h35v-76q0 -41 18.5 -56.5t46.5 -15.5h36v148h34v-148h36q28 0 46.5 15.5t18.5 56.5v76h34v-63q0 -39 -10 -62.5t-24.5 -36t-31 -16.5t-29.5 -4h-27q-10 0 -16 3t-14 10zM-17 422h34v-171h-34
v171z" />
    <glyph glyph-name="rial" unicode="&#xfdfc;" horiz-adv-x="1348" arabic-form="isolated" 
d="M53 0zM1022 -190h21q52 0 89.5 17t61.5 45.5t35.5 66t11.5 77.5v268h50v-268q0 -60 -18.5 -107.5t-51 -81t-76 -51.5t-93.5 -18h-25zM959 53q42 0 68 23t26 61v147h49v-145q0 -66 -38.5 -102.5t-101.5 -36.5h-92q-13 0 -17.5 6.5t-4.5 18.5q0 14 4.5 21t17.5 7h89z
M921 -240h-65v60h65v-60zM798 -240h-66v60h66v-60zM848 0q-26 0 -49.5 7.5t-41.5 25.5t-28.5 47.5t-10.5 73.5v466h50v-459q0 -46 20 -77t67 -31h14q22 0 22 -26q0 -27 -22 -27h-21zM590 19q0 -53 -17 -100.5t-48.5 -83t-77 -56.5t-101.5 -21h-57q-112 0 -174 69t-62 189
v173h49v-172q0 -46 12 -84t36 -65.5t60.5 -42.5t86.5 -15h44q49 0 86.5 16.5t62.5 44.5t38 65.5t13 78.5v605h49v-601z" />
    <glyph glyph-name="alef.aa.fina" unicode="&#x622;" horiz-adv-x="223" arabic-form="final" 
d="M202 0q-26 0 -49.5 7.5t-41.5 25.5t-28.5 47.5t-10.5 73.5v334h50v-327q0 -46 20 -77t67 -31h14q22 0 22 -26q0 -27 -22 -27h-21zM50 601q-18 0 -30 -4t-21 -24l-20 -45l-34 15l24 54q8 18 15.5 28t17 15t21 6.5t26.5 1.5h176l-2 -47h-173z" />
    <glyph glyph-name="alef.thmz.fina" unicode="&#x623;" horiz-adv-x="223" arabic-form="final" 
d="M202 0q-26 0 -49.5 7.5t-41.5 25.5t-28.5 47.5t-10.5 73.5v299h50v-292q0 -46 20 -77t67 -31h14q22 0 22 -26q0 -27 -22 -27h-21zM197 609l-185 -94l-16 31l73 36q-35 7 -50.5 33t-15.5 53q0 42 26 68t68 26h47l-5 -35h-35q-32 0 -49.5 -18t-17.5 -43q0 -28 19.5 -44.5
t42.5 -16.5q15 0 36.5 10t48.5 24z" />
    <glyph glyph-name="vav.thmz.fina" unicode="&#x624;" horiz-adv-x="494" arabic-form="final" 
d="M39 0zM147 -190q46 0 82 15t60.5 41t38 60.5t15.5 73.5h-113q-51 0 -84 11t-52 31.5t-26.5 50t-7.5 65.5q0 37 10.5 71.5t31.5 60t52 41t72 15.5q33 0 63 -11t53 -34.5t36.5 -60.5t13.5 -90v-97h102q12 0 16.5 -7t4.5 -19q0 -14 -4.5 -20.5t-16.5 -6.5h-104
q-2 -49 -19.5 -93t-48 -77t-73 -52.5t-96.5 -19.5h-108l-6 52h108zM108 160q0 -29 6 -49t21.5 -33t41.5 -19t66 -6h100v86q0 82 -32.5 119t-89.5 37q-54 0 -83.5 -37t-29.5 -98zM309 506l-185 -94l-16 31l73 36q-35 7 -50.5 33t-15.5 53q0 42 26 68t68 26h47l-5 -35h-35
q-32 0 -49.5 -18t-17.5 -43q0 -28 19.5 -44.5t42.5 -16.5q15 0 36.5 10t48.5 24z" />
    <glyph glyph-name="alef.bhmz.fina" unicode="&#x625;" horiz-adv-x="223" arabic-form="final" 
d="M44 0zM202 0q-26 0 -49.5 7.5t-41.5 25.5t-28.5 47.5t-10.5 73.5v466h50v-459q0 -46 20 -77t67 -31h14q22 0 22 -26q0 -27 -22 -27h-21zM245 -259l-185 -94l-16 31l73 36q-35 7 -50.5 33t-15.5 53q0 42 26 68t68 26h47l-5 -35h-35q-32 0 -49.5 -18t-17.5 -43
q0 -28 19.5 -44.5t42.5 -16.5q15 0 36.5 10t48.5 24z" />
    <glyph glyph-name="ye.thmz.fina" unicode="&#x626;" horiz-adv-x="704" arabic-form="final" 
d="M53 0zM379 -190q53 0 90 11.5t60.5 30t34 41.5t10.5 46q0 26 -12.5 43.5t-44.5 17.5h-177l5 53h359q22 0 22 -26q0 -27 -22 -27h-104q13 -12 17.5 -28t4.5 -34q0 -27 -11.5 -58.5t-39 -58.5t-73 -45t-112.5 -18h-97q-112 0 -174 69t-62 189v173h49v-172q0 -46 12 -84
t36 -65.5t60.5 -42.5t86.5 -15h82zM433 263l-185 -94l-16 31l73 36q-35 7 -50.5 33t-15.5 53q0 42 26 68t68 26h47l-5 -35h-35q-32 0 -49.5 -18t-17.5 -43q0 -28 19.5 -44.5t42.5 -16.5q15 0 36.5 10t48.5 24z" />
    <glyph glyph-name="ye.thmz.init" unicode="&#x626;" horiz-adv-x="290" arabic-form="initial" 
d="M0 0zM89 53q42 0 68 23t26 61v147h49v-145q0 -66 -38.5 -102.5t-101.5 -36.5h-92q-13 0 -17.5 6.5t-4.5 18.5q0 14 4.5 21t17.5 7h89zM272 455l-185 -94l-16 31l73 36q-35 7 -50.5 33t-15.5 53q0 42 26 68t68 26h47l-5 -35h-35q-32 0 -49.5 -18t-17.5 -43
q0 -28 19.5 -44.5t42.5 -16.5q15 0 36.5 10t48.5 24z" />
    <glyph glyph-name="ye.thmz.medi" unicode="&#x626;" horiz-adv-x="344" arabic-form="medial" 
d="M0 0zM78 53q45 0 69.5 23t24.5 61v147h50v-147q0 -24 8 -40t20.5 -26t28.5 -14t32 -4h33q23 0 23 -26q0 -27 -23 -27h-34q-35 0 -66 14t-50 52q-22 -38 -52 -52t-64 -14h-78q-13 0 -17.5 6.5t-4.5 18.5q0 14 4.5 21t17.5 7h78zM277 455l-185 -94l-16 31l73 36
q-35 7 -50.5 33t-15.5 53q0 42 26 68t68 26h47l-5 -35h-35q-32 0 -49.5 -18t-17.5 -43q0 -28 19.5 -44.5t42.5 -16.5q15 0 36.5 10t48.5 24z" />
    <glyph glyph-name="alef.fina" unicode="&#x627;" horiz-adv-x="223" arabic-form="final" 
d="M202 0q-26 0 -49.5 7.5t-41.5 25.5t-28.5 47.5t-10.5 73.5v466h50v-459q0 -46 20 -77t67 -31h14q22 0 22 -26q0 -27 -22 -27h-21z" />
    <glyph glyph-name="be.fina" unicode="&#x628;" horiz-adv-x="823" arabic-form="final" 
d="M58 0zM574 53q45 0 69 23t24 61v147h51v-147q0 -24 8 -40t21 -26t29 -14t32 -4h15q13 0 17.5 -7t4.5 -19q0 -14 -4.5 -20.5t-17.5 -6.5h-16q-36 0 -67 14t-50 52q-22 -38 -52.5 -52t-63.5 -14h-362q-41 0 -70.5 12.5t-48 33.5t-27 49t-8.5 59v131h49v-120
q0 -51 26.5 -81.5t89.5 -30.5h351zM418 -179h-74v61h74v-61z" />
    <glyph glyph-name="be.init" unicode="&#x628;" horiz-adv-x="290" arabic-form="initial" 
d="M0 0zM89 53q42 0 68 23t26 61v147h49v-145q0 -66 -38.5 -102.5t-101.5 -36.5h-92q-13 0 -17.5 6.5t-4.5 18.5q0 14 4.5 21t17.5 7h89zM125 -179h-74v61h74v-61z" />
    <glyph glyph-name="be.medi" unicode="&#x628;" horiz-adv-x="344" arabic-form="medial" 
d="M0 0zM78 53q45 0 69.5 23t24.5 61v147h50v-147q0 -24 8 -40t20.5 -26t28.5 -14t32 -4h33q23 0 23 -26q0 -27 -23 -27h-34q-35 0 -66 14t-50 52q-22 -38 -52 -52t-64 -14h-78q-13 0 -17.5 6.5t-4.5 18.5q0 14 4.5 21t17.5 7h78zM209 -179h-74v61h74v-61z" />
    <glyph glyph-name="te.marbuta.fina" unicode="&#x629;" horiz-adv-x="494" arabic-form="final" 
d="M54 0zM216 92q57 0 92 23t35 57v171h-121q-57 0 -88.5 -39t-31.5 -103q0 -62 29.5 -85.5t84.5 -23.5zM392 161q0 -47 18.5 -77.5t68.5 -30.5h15q12 0 16.5 -7t4.5 -19q0 -14 -4.5 -20.5t-16.5 -6.5h-15q-45 0 -78 20t-47 75q-12 -17 -30.5 -27t-39 -16t-41 -8t-38.5 -2
q-73 0 -112 36.5t-39 116.5q0 37 10.5 72.5t31.5 63.5t53 45t75 17h119v70h49v-302zM373 551h-69v60h69v-60zM253 551h-69v60h69v-60z" />
    <glyph glyph-name="te.fina" unicode="&#x62a;" horiz-adv-x="823" arabic-form="final" 
d="M58 0zM574 53q45 0 69 23t24 61v147h51v-147q0 -24 8 -40t21 -26t29 -14t32 -4h15q13 0 17.5 -7t4.5 -19q0 -14 -4.5 -20.5t-17.5 -6.5h-16q-36 0 -67 14t-50 52q-22 -38 -52.5 -52t-63.5 -14h-362q-41 0 -70.5 12.5t-48 33.5t-27 49t-8.5 59v131h49v-120
q0 -51 26.5 -81.5t89.5 -30.5h351zM482 374h-69v60h69v-60zM362 374h-69v60h69v-60z" />
    <glyph glyph-name="te.init" unicode="&#x62a;" horiz-adv-x="290" arabic-form="initial" 
d="M0 0zM89 53q42 0 68 23t26 61v147h49v-145q0 -66 -38.5 -102.5t-101.5 -36.5h-92q-13 0 -17.5 6.5t-4.5 18.5q0 14 4.5 21t17.5 7h89zM244 416h-69v60h69v-60zM124 416h-69v60h69v-60z" />
    <glyph glyph-name="te.medi" unicode="&#x62a;" horiz-adv-x="344" arabic-form="medial" 
d="M0 0zM78 53q45 0 69.5 23t24.5 61v147h50v-147q0 -24 8 -40t20.5 -26t28.5 -14t32 -4h33q23 0 23 -26q0 -27 -23 -27h-34q-35 0 -66 14t-50 52q-22 -38 -52 -52t-64 -14h-78q-13 0 -17.5 6.5t-4.5 18.5q0 14 4.5 21t17.5 7h78zM282 416h-69v60h69v-60zM162 416h-69v60h69
v-60z" />
    <glyph glyph-name="the.fina" unicode="&#x62b;" horiz-adv-x="823" arabic-form="final" 
d="M58 0zM574 53q45 0 69 23t24 61v147h51v-147q0 -24 8 -40t21 -26t29 -14t32 -4h15q13 0 17.5 -7t4.5 -19q0 -14 -4.5 -20.5t-17.5 -6.5h-16q-36 0 -67 14t-50 52q-22 -38 -52.5 -52t-63.5 -14h-362q-41 0 -70.5 12.5t-48 33.5t-27 49t-8.5 59v131h49v-120
q0 -51 26.5 -81.5t89.5 -30.5h351zM423 485h-70v60h70v-60zM482 374h-69v60h69v-60zM362 374h-69v60h69v-60z" />
    <glyph glyph-name="the.init" unicode="&#x62b;" horiz-adv-x="290" arabic-form="initial" 
d="M0 0zM89 53q42 0 68 23t26 61v147h49v-145q0 -66 -38.5 -102.5t-101.5 -36.5h-92q-13 0 -17.5 6.5t-4.5 18.5q0 14 4.5 21t17.5 7h89zM185 527h-70v60h70v-60zM244 416h-69v60h69v-60zM124 416h-69v60h69v-60z" />
    <glyph glyph-name="the.medi" unicode="&#x62b;" horiz-adv-x="344" arabic-form="medial" 
d="M0 0zM78 53q45 0 69.5 23t24.5 61v147h50v-147q0 -24 8 -40t20.5 -26t28.5 -14t32 -4h33q23 0 23 -26q0 -27 -23 -27h-34q-35 0 -66 14t-50 52q-22 -38 -52 -52t-64 -14h-78q-13 0 -17.5 6.5t-4.5 18.5q0 14 4.5 21t17.5 7h78zM223 527h-70v60h70v-60zM282 416h-69v60h69
v-60zM162 416h-69v60h69v-60z" />
    <glyph glyph-name="jim.fina" unicode="&#x62c;" horiz-adv-x="566" arabic-form="final" 
d="M47 0zM430 220q-8 24 -17 43t-23.5 31.5t-36.5 19.5t-55 7h-211l6 53h210q26 0 52.5 -4t51 -21.5t45 -53.5t34.5 -99l-82 -48q20 -54 43.5 -74.5t65.5 -20.5h53q13 0 17.5 -7t4.5 -19q0 -14 -4.5 -20.5t-17.5 -6.5h-59q-33 0 -55 9.5t-37 26.5t-25.5 40t-20.5 51l-81 -46
q-51 -30 -87 -57.5t-59 -55t-34 -56t-11 -60.5q0 -91 49 -138t153 -47h186l-5 -52h-185q-69 0 -116 18.5t-76.5 50t-42.5 73t-13 88.5q0 39 11 74t35.5 68t64 65.5t96.5 65.5zM345 -172h-74v61h74v-61z" />
    <glyph glyph-name="jim.init" unicode="&#x62c;" horiz-adv-x="565" arabic-form="initial" 
d="M0 0zM290 60q-25 -15 -48.5 -26.5t-50.5 -19t-60.5 -11t-76.5 -3.5h-54q-13 0 -17.5 6.5t-4.5 18.5q0 14 4.5 21t17.5 7h55q39 0 69 3t55 9t47.5 16t45.5 24l186 108q-8 24 -18 44t-25.5 34t-38 22t-55.5 8h-228l6 53h227q26 0 53.5 -5t52 -24t46 -55t35.5 -98zM280 -179
h-74v61h74v-61z" />
    <glyph glyph-name="jim.medi" unicode="&#x62c;" horiz-adv-x="606" arabic-form="medial" 
d="M0 0zM430 142q19 -49 41.5 -69t63.5 -20h71q13 0 17.5 -7t4.5 -19q0 -14 -4.5 -20.5t-17.5 -6.5h-76q-32 0 -54 9t-37.5 25.5t-26 38.5t-19.5 48l-103 -61q-25 -15 -48.5 -26.5t-50.5 -19t-60.5 -11t-76.5 -3.5h-54q-13 0 -17.5 6.5t-4.5 18.5q0 14 4.5 21t17.5 7h55
q39 0 69 3t55 9t47.5 16t45.5 24l186 108q-8 24 -18 44t-25.5 34t-38 22t-55.5 8h-228l6 53h227q26 0 53.5 -5t52 -24t46 -55t35.5 -98zM280 -179h-74v61h74v-61z" />
    <glyph glyph-name="him.fina" unicode="&#x62d;" horiz-adv-x="566" arabic-form="final" 
d="M430 220q-8 24 -17 43t-23.5 31.5t-36.5 19.5t-55 7h-211l6 53h210q26 0 52.5 -4t51 -21.5t45 -53.5t34.5 -99l-82 -48q20 -54 43.5 -74.5t65.5 -20.5h53q13 0 17.5 -7t4.5 -19q0 -14 -4.5 -20.5t-17.5 -6.5h-59q-33 0 -55 9.5t-37 26.5t-25.5 40t-20.5 51l-81 -46
q-51 -30 -87 -57.5t-59 -55t-34 -56t-11 -60.5q0 -91 49 -138t153 -47h186l-5 -52h-185q-69 0 -116 18.5t-76.5 50t-42.5 73t-13 88.5q0 39 11 74t35.5 68t64 65.5t96.5 65.5z" />
    <glyph glyph-name="him.init" unicode="&#x62d;" horiz-adv-x="565" arabic-form="initial" 
d="M290 60q-25 -15 -48.5 -26.5t-50.5 -19t-60.5 -11t-76.5 -3.5h-54q-13 0 -17.5 6.5t-4.5 18.5q0 14 4.5 21t17.5 7h55q39 0 69 3t55 9t47.5 16t45.5 24l186 108q-8 24 -18 44t-25.5 34t-38 22t-55.5 8h-228l6 53h227q26 0 53.5 -5t52 -24t46 -55t35.5 -98z" />
    <glyph glyph-name="him.medi" unicode="&#x62d;" horiz-adv-x="606" arabic-form="medial" 
d="M430 142q19 -49 41.5 -69t63.5 -20h71q13 0 17.5 -7t4.5 -19q0 -14 -4.5 -20.5t-17.5 -6.5h-76q-32 0 -54 9t-37.5 25.5t-26 38.5t-19.5 48l-103 -61q-25 -15 -48.5 -26.5t-50.5 -19t-60.5 -11t-76.5 -3.5h-54q-13 0 -17.5 6.5t-4.5 18.5q0 14 4.5 21t17.5 7h55
q39 0 69 3t55 9t47.5 16t45.5 24l186 108q-8 24 -18 44t-25.5 34t-38 22t-55.5 8h-228l6 53h227q26 0 53.5 -5t52 -24t46 -55t35.5 -98z" />
    <glyph glyph-name="khe.fina" unicode="&#x62e;" horiz-adv-x="566" arabic-form="final" 
d="M47 0zM430 220q-8 24 -17 43t-23.5 31.5t-36.5 19.5t-55 7h-211l6 53h210q26 0 52.5 -4t51 -21.5t45 -53.5t34.5 -99l-82 -48q20 -54 43.5 -74.5t65.5 -20.5h53q13 0 17.5 -7t4.5 -19q0 -14 -4.5 -20.5t-17.5 -6.5h-59q-33 0 -55 9.5t-37 26.5t-25.5 40t-20.5 51l-81 -46
q-51 -30 -87 -57.5t-59 -55t-34 -56t-11 -60.5q0 -91 49 -138t153 -47h186l-5 -52h-185q-69 0 -116 18.5t-76.5 50t-42.5 73t-13 88.5q0 39 11 74t35.5 68t64 65.5t96.5 65.5zM287 490h-74v61h74v-61z" />
    <glyph glyph-name="khe.init" unicode="&#x62e;" horiz-adv-x="565" arabic-form="initial" 
d="M0 0zM290 60q-25 -15 -48.5 -26.5t-50.5 -19t-60.5 -11t-76.5 -3.5h-54q-13 0 -17.5 6.5t-4.5 18.5q0 14 4.5 21t17.5 7h55q39 0 69 3t55 9t47.5 16t45.5 24l186 108q-8 24 -18 44t-25.5 34t-38 22t-55.5 8h-228l6 53h227q26 0 53.5 -5t52 -24t46 -55t35.5 -98zM289 490
h-74v61h74v-61z" />
    <glyph glyph-name="khe.medi" unicode="&#x62e;" horiz-adv-x="606" arabic-form="medial" 
d="M0 0zM430 142q19 -49 41.5 -69t63.5 -20h71q13 0 17.5 -7t4.5 -19q0 -14 -4.5 -20.5t-17.5 -6.5h-76q-32 0 -54 9t-37.5 25.5t-26 38.5t-19.5 48l-103 -61q-25 -15 -48.5 -26.5t-50.5 -19t-60.5 -11t-76.5 -3.5h-54q-13 0 -17.5 6.5t-4.5 18.5q0 14 4.5 21t17.5 7h55
q39 0 69 3t55 9t47.5 16t45.5 24l186 108q-8 24 -18 44t-25.5 34t-38 22t-55.5 8h-228l6 53h227q26 0 53.5 -5t52 -24t46 -55t35.5 -98zM289 490h-74v61h74v-61z" />
    <glyph glyph-name="dal.fina" unicode="&#x62f;" horiz-adv-x="515" arabic-form="final" 
d="M258 53q24 0 40.5 6t27 15.5t15.5 20.5t5 20q0 11 -4.5 29t-16 53.5t-31.5 92.5t-52 145l48 20l108 -313q17 -49 39.5 -69t62.5 -20h15q22 0 22 -26q0 -27 -22 -27h-15q-17 0 -32.5 2.5t-30 10t-28.5 21t-26 35.5q-21 -43 -52.5 -56t-68.5 -13h-215l-5 53h216z" />
    <glyph glyph-name="zal.fina" unicode="&#x630;" horiz-adv-x="515" arabic-form="final" 
d="M42 0zM258 53q24 0 40.5 6t27 15.5t15.5 20.5t5 20q0 11 -4.5 29t-16 53.5t-31.5 92.5t-52 145l48 20l108 -313q17 -49 39.5 -69t62.5 -20h15q22 0 22 -26q0 -27 -22 -27h-15q-17 0 -32.5 2.5t-30 10t-28.5 21t-26 35.5q-21 -43 -52.5 -56t-68.5 -13h-215l-5 53h216z
M307 589h-74v61h74v-61z" />
    <glyph glyph-name="re.fina" unicode="&#x631;" horiz-adv-x="261" arabic-form="final" 
d="M158 16q0 -60 -18 -107.5t-50 -81t-75 -51.5t-94 -18h-57l-5 52h51q52 0 90 17t62.5 45.5t36 66t11.5 77.5v268h50v-151q0 -35 24 -57.5t66 -22.5h11q22 0 22 -26q0 -27 -22 -27h-11q-26 0 -50.5 10t-41.5 33v-27z" />
    <glyph glyph-name="ze.fina" unicode="&#x632;" horiz-adv-x="261" arabic-form="final" 
d="M0 0zM158 16q0 -60 -18 -107.5t-50 -81t-75 -51.5t-94 -18h-57l-5 52h51q52 0 90 17t62.5 45.5t36 66t11.5 77.5v268h50v-151q0 -35 24 -57.5t66 -22.5h11q22 0 22 -26q0 -27 -22 -27h-11q-26 0 -50.5 10t-41.5 33v-27zM165 416h-74v61h74v-61z" />
    <glyph glyph-name="sin.fina" unicode="&#x633;" horiz-adv-x="1173" arabic-form="final" 
d="M590 133q0 -35 25.5 -57.5t70.5 -22.5q49 0 76 23t27 61v147h49v-147q0 -24 7.5 -40t20 -26t28 -14t32.5 -4q45 0 68.5 23t23.5 61v147h50v-147q0 -24 8 -40t20.5 -26t28.5 -14t32 -4h16q22 0 22 -26q0 -27 -22 -27h-16q-36 0 -67 14t-50 52q-21 -38 -51.5 -52t-62.5 -14
q-35 0 -65.5 14t-49.5 52q-22 -38 -55.5 -52t-68.5 -14t-59.5 11t-38.5 31v-26q0 -51 -17 -98t-48.5 -82.5t-76.5 -56.5t-101 -21h-57q-112 0 -174 69t-62 189v173h49v-172q0 -46 12 -84t36 -65.5t60.5 -42.5t86.5 -15h44q49 0 86.5 16.5t62.5 44.5t38 65.5t13 78.5v269h49
v-151z" />
    <glyph glyph-name="sin.init" unicode="&#x633;" horiz-adv-x="714" arabic-form="initial" 
d="M33 53q45 0 71 23t26 61v147h50v-147q0 -24 8.5 -40t22 -26t30 -14t33.5 -4q50 0 77 23t27 61v147h50v-147q0 -24 7.5 -40t19.5 -26t28 -14t33 -4q41 0 66 23t25 61v147h50v-145q0 -66 -38.5 -102.5t-101.5 -36.5q-37 0 -68 14t-49 52q-22 -38 -55.5 -52t-70.5 -14
q-40 0 -72 14t-50 52q-22 -38 -55 -52t-69 -14h-28q-13 0 -17.5 6.5t-4.5 18.5q0 14 4.5 21t17.5 7h33z" />
    <glyph glyph-name="sin.medi" unicode="&#x633;" horiz-adv-x="763" arabic-form="medial" 
d="M33 53q45 0 71 23t26 61v147h50v-147q0 -24 8.5 -40t22 -26t30 -14t33.5 -4q50 0 77 23t27 61v147h50v-147q0 -24 7.5 -40t19.5 -26t28 -14t33 -4q43 0 67 23t24 61v147h50v-147q0 -24 8 -40t20.5 -26t28.5 -14t32 -4h17q22 0 22 -26q0 -27 -22 -27h-17q-36 0 -67 14
t-50 52q-22 -38 -52.5 -52t-60.5 -14q-37 0 -67.5 14t-48.5 52q-22 -38 -55.5 -52t-70.5 -14q-40 0 -72 14t-50 52q-22 -38 -55 -52t-69 -14h-28q-13 0 -17.5 6.5t-4.5 18.5q0 14 4.5 21t17.5 7h33z" />
    <glyph glyph-name="shin.fina" unicode="&#x634;" horiz-adv-x="1173" arabic-form="final" 
d="M53 0zM590 133q0 -35 25.5 -57.5t70.5 -22.5q49 0 76 23t27 61v147h49v-147q0 -24 7.5 -40t20 -26t28 -14t32.5 -4q45 0 68.5 23t23.5 61v147h50v-147q0 -24 8 -40t20.5 -26t28.5 -14t32 -4h16q22 0 22 -26q0 -27 -22 -27h-16q-36 0 -67 14t-50 52q-21 -38 -51.5 -52
t-62.5 -14q-35 0 -65.5 14t-49.5 52q-22 -38 -55.5 -52t-68.5 -14t-59.5 11t-38.5 31v-26q0 -51 -17 -98t-48.5 -82.5t-76.5 -56.5t-101 -21h-57q-112 0 -174 69t-62 189v173h49v-172q0 -46 12 -84t36 -65.5t60.5 -42.5t86.5 -15h44q49 0 86.5 16.5t62.5 44.5t38 65.5
t13 78.5v269h49v-151zM850 527h-70v60h70v-60zM909 416h-69v60h69v-60zM789 416h-69v60h69v-60z" />
    <glyph glyph-name="shin.init" unicode="&#x634;" horiz-adv-x="714" arabic-form="initial" 
d="M0 0zM33 53q45 0 71 23t26 61v147h50v-147q0 -24 8.5 -40t22 -26t30 -14t33.5 -4q50 0 77 23t27 61v147h50v-147q0 -24 7.5 -40t19.5 -26t28 -14t33 -4q41 0 66 23t25 61v147h50v-145q0 -66 -38.5 -102.5t-101.5 -36.5q-37 0 -68 14t-49 52q-22 -38 -55.5 -52t-70.5 -14
q-40 0 -72 14t-50 52q-22 -38 -55 -52t-69 -14h-28q-13 0 -17.5 6.5t-4.5 18.5q0 14 4.5 21t17.5 7h33zM439 527h-70v60h70v-60zM498 416h-69v60h69v-60zM378 416h-69v60h69v-60z" />
    <glyph glyph-name="shin.medi" unicode="&#x634;" horiz-adv-x="763" arabic-form="medial" 
d="M0 0zM33 53q45 0 71 23t26 61v147h50v-147q0 -24 8.5 -40t22 -26t30 -14t33.5 -4q50 0 77 23t27 61v147h50v-147q0 -24 7.5 -40t19.5 -26t28 -14t33 -4q43 0 67 23t24 61v147h50v-147q0 -24 8 -40t20.5 -26t28.5 -14t32 -4h17q22 0 22 -26q0 -27 -22 -27h-17
q-36 0 -67 14t-50 52q-22 -38 -52.5 -52t-60.5 -14q-37 0 -67.5 14t-48.5 52q-22 -38 -55.5 -52t-70.5 -14q-40 0 -72 14t-50 52q-22 -38 -55 -52t-69 -14h-28q-13 0 -17.5 6.5t-4.5 18.5q0 14 4.5 21t17.5 7h33zM439 527h-70v60h70v-60zM498 416h-69v60h69v-60zM378 416
h-69v60h69v-60z" />
    <glyph glyph-name="sad.fina" unicode="&#x635;" horiz-adv-x="1237" arabic-form="final" 
d="M656 56q48 88 90 148.5t80.5 98.5t74.5 55t72 17q37 0 68.5 -15t54.5 -41.5t35.5 -61.5t12.5 -74q0 -55 -29 -99q19 -21 45 -26t61 -5h16q22 0 22 -26q0 -27 -22 -27h-16q-17 0 -33.5 0.5t-33.5 5t-33 13.5t-31 26q-22 -20 -52.5 -32.5t-70.5 -12.5h-273q-74 0 -105 44
v-28q0 -51 -17 -98t-48.5 -82.5t-76.5 -56.5t-101 -21h-57q-112 0 -174 69t-62 189v173h49v-172q0 -46 12 -84t36 -65.5t60.5 -42.5t86.5 -15h44q49 0 86.5 16.5t62.5 44.5t38 65.5t13 78.5v269h49v-145q0 -31 17.5 -54t48.5 -29zM1094 183q0 30 -9.5 56t-26.5 44.5
t-39.5 29t-48.5 10.5q-60 0 -123.5 -64.5t-141.5 -205.5h263q23 0 45.5 7.5t40.5 23t29 40t11 59.5z" />
    <glyph glyph-name="sad.init" unicode="&#x635;" horiz-adv-x="783" arabic-form="initial" 
d="M243 56q48 88 89.5 148.5t80 98.5t74.5 55t72 17q38 0 69.5 -15t54.5 -41.5t35.5 -61.5t12.5 -74q0 -33 -10.5 -66t-32.5 -59t-55.5 -42t-79.5 -16h-282q-39 0 -71 14t-51 52q-21 -38 -54.5 -52t-68.5 -14h-26q-13 0 -17.5 6.5t-4.5 18.5q0 14 4.5 21t17.5 7h30
q45 0 71 23t26 61v147h50v-147q0 -32 18.5 -53.5t47.5 -27.5zM680 183q0 30 -9.5 56t-26 44.5t-39.5 29t-49 10.5q-59 0 -123 -64.5t-142 -205.5h263q24 0 46.5 7.5t40 23t28.5 40t11 59.5z" />
    <glyph glyph-name="sad.medi" unicode="&#x635;" horiz-adv-x="824" arabic-form="medial" 
d="M243 56q48 88 89.5 148.5t80 98.5t74.5 55t72 17q38 0 69.5 -15t54.5 -41.5t35.5 -61.5t12.5 -74q0 -26 -8 -51.5t-22 -47.5q20 -21 46 -26t61 -5h16q22 0 22 -26q0 -27 -22 -27h-16q-17 0 -34 0.5t-33.5 5t-32.5 13.5t-31 26q-23 -20 -53.5 -32.5t-70.5 -12.5h-282
q-39 0 -71 14t-51 52q-21 -38 -54.5 -52t-68.5 -14h-26q-13 0 -17.5 6.5t-4.5 18.5q0 14 4.5 21t17.5 7h30q45 0 71 23t26 61v147h50v-147q0 -32 18.5 -53.5t47.5 -27.5zM680 183q0 30 -9.5 56t-26 44.5t-39.5 29t-49 10.5q-59 0 -123 -64.5t-142 -205.5h263q24 0 46.5 7.5
t40 23t28.5 40t11 59.5z" />
    <glyph glyph-name="zad.fina" unicode="&#x636;" horiz-adv-x="1237" arabic-form="final" 
d="M53 0zM656 56q48 88 90 148.5t80.5 98.5t74.5 55t72 17q37 0 68.5 -15t54.5 -41.5t35.5 -61.5t12.5 -74q0 -55 -29 -99q19 -21 45 -26t61 -5h16q22 0 22 -26q0 -27 -22 -27h-16q-17 0 -33.5 0.5t-33.5 5t-33 13.5t-31 26q-22 -20 -52.5 -32.5t-70.5 -12.5h-273
q-74 0 -105 44v-28q0 -51 -17 -98t-48.5 -82.5t-76.5 -56.5t-101 -21h-57q-112 0 -174 69t-62 189v173h49v-172q0 -46 12 -84t36 -65.5t60.5 -42.5t86.5 -15h44q49 0 86.5 16.5t62.5 44.5t38 65.5t13 78.5v269h49v-145q0 -31 17.5 -54t48.5 -29zM1094 183q0 30 -9.5 56
t-26.5 44.5t-39.5 29t-48.5 10.5q-60 0 -123.5 -64.5t-141.5 -205.5h263q23 0 45.5 7.5t40.5 23t29 40t11 59.5zM950 480h-74v61h74v-61z" />
    <glyph glyph-name="zad.init" unicode="&#x636;" horiz-adv-x="783" arabic-form="initial" 
d="M0 0zM243 56q48 88 89.5 148.5t80 98.5t74.5 55t72 17q38 0 69.5 -15t54.5 -41.5t35.5 -61.5t12.5 -74q0 -33 -10.5 -66t-32.5 -59t-55.5 -42t-79.5 -16h-282q-39 0 -71 14t-51 52q-21 -38 -54.5 -52t-68.5 -14h-26q-13 0 -17.5 6.5t-4.5 18.5q0 14 4.5 21t17.5 7h30
q45 0 71 23t26 61v147h50v-147q0 -32 18.5 -53.5t47.5 -27.5zM680 183q0 30 -9.5 56t-26 44.5t-39.5 29t-49 10.5q-59 0 -123 -64.5t-142 -205.5h263q24 0 46.5 7.5t40 23t28.5 40t11 59.5zM537 480h-74v61h74v-61z" />
    <glyph glyph-name="zad.medi" unicode="&#x636;" horiz-adv-x="824" arabic-form="medial" 
d="M0 0zM243 56q48 88 89.5 148.5t80 98.5t74.5 55t72 17q38 0 69.5 -15t54.5 -41.5t35.5 -61.5t12.5 -74q0 -26 -8 -51.5t-22 -47.5q20 -21 46 -26t61 -5h16q22 0 22 -26q0 -27 -22 -27h-16q-17 0 -34 0.5t-33.5 5t-32.5 13.5t-31 26q-23 -20 -53.5 -32.5t-70.5 -12.5h-282
q-39 0 -71 14t-51 52q-21 -38 -54.5 -52t-68.5 -14h-26q-13 0 -17.5 6.5t-4.5 18.5q0 14 4.5 21t17.5 7h30q45 0 71 23t26 61v147h50v-147q0 -32 18.5 -53.5t47.5 -27.5zM680 183q0 30 -9.5 56t-26 44.5t-39.5 29t-49 10.5q-59 0 -123 -64.5t-142 -205.5h263q24 0 46.5 7.5
t40 23t28.5 40t11 59.5zM537 480h-74v61h74v-61z" />
    <glyph glyph-name="ta.fina" unicode="&#x637;" horiz-adv-x="726" arabic-form="final" 
d="M143 620h50v-317v-82.5t-1 -81.5q76 127 142 181.5t128 54.5q37 0 68.5 -15t54.5 -41.5t35.5 -61.5t12.5 -74q0 -55 -29 -99q20 -21 45.5 -26t61.5 -5h15q22 0 22 -26q0 -27 -22 -27h-15q-17 0 -34 0.5t-34 5t-33 13.5t-31 26q-22 -20 -52.5 -32.5t-70.5 -12.5h-403
l-6 53h96v567zM583 183q0 30 -9.5 56t-26.5 44.5t-39.5 29t-48.5 10.5q-60 0 -123 -64t-144 -206h265q23 0 45.5 7.5t40.5 23t29 40t11 59.5z" />
    <glyph glyph-name="ta.init" unicode="&#x637;" horiz-adv-x="644" arabic-form="initial" 
d="M103 620h49v-317v-82t-1 -82q63 104 118 158.5t109 70.5q14 4 28 5t28 0q35 -2 64 -18t50 -41.5t32.5 -59t11.5 -71.5q0 -33 -10.5 -66t-32.5 -59t-55 -42t-79 -16h-415q-13 0 -17.5 6.5t-4.5 18.5q0 14 4.5 21t17.5 7h103v567zM542 183q0 30 -9.5 56t-26.5 44.5
t-39.5 29t-48.5 10.5q-30 0 -60.5 -15.5t-63 -48.5t-68 -84t-75.5 -122h265q24 0 46.5 7.5t40 23t28.5 40t11 59.5z" />
    <glyph glyph-name="ta.medi" unicode="&#x637;" horiz-adv-x="685" arabic-form="medial" 
d="M103 620h49v-317v-82.5t-1 -81.5q67 111 125 166.5t115 66.5q11 2 20.5 2.5t20.5 -0.5q35 -2 64.5 -18t50.5 -41.5t33 -59.5t12 -72q0 -55 -29 -99q20 -21 45.5 -26t60.5 -5h16q22 0 22 -26q0 -27 -22 -27h-16q-17 0 -34 0.5t-33.5 5t-32.5 13.5t-31 26
q-22 -20 -52.5 -32.5t-70.5 -12.5h-415q-13 0 -17.5 6.5t-4.5 18.5q0 14 4.5 21t17.5 7h103v567zM542 183q0 30 -9.5 56t-26.5 44.5t-39.5 29t-48.5 10.5q-30 0 -60.5 -15.5t-63 -48.5t-68 -84t-75.5 -122h265q24 0 46.5 7.5t40 23t28.5 40t11 59.5z" />
    <glyph glyph-name="za.fina" unicode="&#x638;" horiz-adv-x="726" arabic-form="final" 
d="M47 0zM143 620h50v-317v-82.5t-1 -81.5q76 127 142 181.5t128 54.5q37 0 68.5 -15t54.5 -41.5t35.5 -61.5t12.5 -74q0 -55 -29 -99q20 -21 45.5 -26t61.5 -5h15q22 0 22 -26q0 -27 -22 -27h-15q-17 0 -34 0.5t-34 5t-33 13.5t-31 26q-22 -20 -52.5 -32.5t-70.5 -12.5
h-403l-6 53h96v567zM583 183q0 30 -9.5 56t-26.5 44.5t-39.5 29t-48.5 10.5q-60 0 -123 -64t-144 -206h265q23 0 45.5 7.5t40.5 23t29 40t11 59.5zM498 501h-74v61h74v-61z" />
    <glyph glyph-name="za.init" unicode="&#x638;" horiz-adv-x="644" arabic-form="initial" 
d="M0 0zM103 620h49v-317v-82t-1 -82q63 104 118 158.5t109 70.5q14 4 28 5t28 0q35 -2 64 -18t50 -41.5t32.5 -59t11.5 -71.5q0 -33 -10.5 -66t-32.5 -59t-55 -42t-79 -16h-415q-13 0 -17.5 6.5t-4.5 18.5q0 14 4.5 21t17.5 7h103v567zM542 183q0 30 -9.5 56t-26.5 44.5
t-39.5 29t-48.5 10.5q-30 0 -60.5 -15.5t-63 -48.5t-68 -84t-75.5 -122h265q24 0 46.5 7.5t40 23t28.5 40t11 59.5zM452 501h-74v61h74v-61z" />
    <glyph glyph-name="za.medi" unicode="&#x638;" horiz-adv-x="685" arabic-form="medial" 
d="M0 0zM103 620h49v-317v-82.5t-1 -81.5q67 111 125 166.5t115 66.5q11 2 20.5 2.5t20.5 -0.5q35 -2 64.5 -18t50.5 -41.5t33 -59.5t12 -72q0 -55 -29 -99q20 -21 45.5 -26t60.5 -5h16q22 0 22 -26q0 -27 -22 -27h-16q-17 0 -34 0.5t-33.5 5t-32.5 13.5t-31 26
q-22 -20 -52.5 -32.5t-70.5 -12.5h-415q-13 0 -17.5 6.5t-4.5 18.5q0 14 4.5 21t17.5 7h103v567zM542 183q0 30 -9.5 56t-26.5 44.5t-39.5 29t-48.5 10.5q-30 0 -60.5 -15.5t-63 -48.5t-68 -84t-75.5 -122h265q24 0 46.5 7.5t40 23t28.5 40t11 59.5zM452 501h-74v61h74v-61z
" />
    <glyph glyph-name="ein.fina" unicode="&#x639;" horiz-adv-x="533" arabic-form="final" 
d="M252 59q-42 -30 -70.5 -57.5t-46.5 -54.5t-25.5 -54.5t-7.5 -57.5q0 -82 45.5 -125t149.5 -43h183l-6 -52h-181q-69 0 -115 17.5t-73.5 47.5t-39.5 69.5t-12 83.5q0 37 9.5 70t29 64.5t50 61.5t73.5 62l-161 207l30 57h256q46 0 78 -21.5t32 -63.5q0 -14 -4 -29
t-19 -35.5t-44.5 -49t-80.5 -70.5q15 -12 31 -19t35 -10t41.5 -3.5t50.5 -0.5h73q13 0 17.5 -7t4.5 -19q0 -14 -4.5 -20.5t-17.5 -6.5h-80q-34 0 -62 1t-52 6.5t-45 17.5t-42 34zM397 258q0 21 -17.5 33.5t-53.5 12.5h-217l153 -196q40 33 66 56t41.5 40t21.5 29.5t6 24.5z
" />
    <glyph glyph-name="ein.init" unicode="&#x639;" horiz-adv-x="479" arabic-form="initial" 
d="M152 53q-18 16 -29.5 34.5t-18 37t-9 35.5t-2.5 29q0 36 12 67.5t34.5 54.5t54 36.5t69.5 13.5q34 0 65 -10.5t69 -35.5l-21 -41q-32 18 -59.5 26t-53.5 8q-27 0 -49 -10t-38 -26.5t-24.5 -38t-8.5 -44.5q0 -24 8.5 -48.5t23.5 -44t34 -31.5t40 -12h178l-5 -53h-422
q-13 0 -17.5 6.5t-4.5 18.5q0 14 4.5 21t17.5 7h152z" />
    <glyph glyph-name="ein.medi" unicode="&#x639;" horiz-adv-x="567" arabic-form="medial" 
d="M40 53q48 0 101 6.5t104 35.5l-157 203l30 57h256q43 0 74 -18.5t34 -58.5q0 -5 0.5 -10t-0.5 -10q-2 -13 -8.5 -27.5t-22 -34.5t-43 -47t-72.5 -63q15 -12 31 -19t34.5 -10t41 -3.5t50.5 -0.5h74q22 0 22 -26q0 -27 -22 -27h-81q-33 0 -61 1t-52 6.5t-45.5 17.5
t-42.5 34q-53 -36 -110.5 -47.5t-131.5 -11.5h-43q-13 0 -17.5 6.5t-4.5 18.5q0 14 4.5 21t17.5 7h40zM431 258q0 21 -17.5 33.5t-52.5 12.5h-218l152 -196q40 33 66.5 56t42 40t21.5 29.5t6 24.5z" />
    <glyph glyph-name="qein.fina" unicode="&#x63a;" horiz-adv-x="533" arabic-form="final" 
d="M53 0zM252 59q-42 -30 -70.5 -57.5t-46.5 -54.5t-25.5 -54.5t-7.5 -57.5q0 -82 45.5 -125t149.5 -43h183l-6 -52h-181q-69 0 -115 17.5t-73.5 47.5t-39.5 69.5t-12 83.5q0 37 9.5 70t29 64.5t50 61.5t73.5 62l-161 207l30 57h256q46 0 78 -21.5t32 -63.5q0 -14 -4 -29
t-19 -35.5t-44.5 -49t-80.5 -70.5q15 -12 31 -19t35 -10t41.5 -3.5t50.5 -0.5h73q13 0 17.5 -7t4.5 -19q0 -14 -4.5 -20.5t-17.5 -6.5h-80q-34 0 -62 1t-52 6.5t-45 17.5t-42 34zM397 258q0 21 -17.5 33.5t-53.5 12.5h-217l153 -196q40 33 66 56t41.5 40t21.5 29.5t6 24.5z
M299 505h-74v61h74v-61z" />
    <glyph glyph-name="qein.init" unicode="&#x63a;" horiz-adv-x="479" arabic-form="initial" 
d="M0 0zM152 53q-18 16 -29.5 34.5t-18 37t-9 35.5t-2.5 29q0 36 12 67.5t34.5 54.5t54 36.5t69.5 13.5q34 0 65 -10.5t69 -35.5l-21 -41q-32 18 -59.5 26t-53.5 8q-27 0 -49 -10t-38 -26.5t-24.5 -38t-8.5 -44.5q0 -24 8.5 -48.5t23.5 -44t34 -31.5t40 -12h178l-5 -53h-422
q-13 0 -17.5 6.5t-4.5 18.5q0 14 4.5 21t17.5 7h152zM274 493h-74v61h74v-61z" />
    <glyph glyph-name="qein.medi" unicode="&#x63a;" horiz-adv-x="567" arabic-form="medial" 
d="M0 0zM40 53q48 0 101 6.5t104 35.5l-157 203l30 57h256q43 0 74 -18.5t34 -58.5q0 -5 0.5 -10t-0.5 -10q-2 -13 -8.5 -27.5t-22 -34.5t-43 -47t-72.5 -63q15 -12 31 -19t34.5 -10t41 -3.5t50.5 -0.5h74q22 0 22 -26q0 -27 -22 -27h-81q-33 0 -61 1t-52 6.5t-45.5 17.5
t-42.5 34q-53 -36 -110.5 -47.5t-131.5 -11.5h-43q-13 0 -17.5 6.5t-4.5 18.5q0 14 4.5 21t17.5 7h40zM431 258q0 21 -17.5 33.5t-52.5 12.5h-218l152 -196q40 33 66.5 56t42 40t21.5 29.5t6 24.5zM335 505h-74v61h74v-61z" />
    <glyph glyph-name="fe.fina" unicode="&#x641;" horiz-adv-x="888" arabic-form="final" 
d="M624 337q-28 0 -51 -10t-39 -26.5t-24.5 -39t-8.5 -47.5q0 -29 12.5 -53t32 -42.5t43 -32t44.5 -22.5q16 9 35.5 22.5t37 31.5t29 41t11.5 51q0 57 -32.5 92t-89.5 35zM630 390q42 0 73 -14.5t51.5 -37.5t31 -53t10.5 -60q0 -51 -26.5 -94.5t-81.5 -77.5h200q22 0 22 -26
q0 -27 -22 -27h-114q-46 0 -82 2t-56 11q-15 -5 -35.5 -7.5t-42 -4t-42 -1.5h-34.5h-275q-41 0 -70.5 12.5t-48 33.5t-27 49t-8.5 59v131h49v-120q0 -51 26 -81.5t89 -30.5h355q-54 26 -86.5 69t-32.5 97q0 33 12 64t35 54.5t56 38t74 14.5zM662 494h-74v61h74v-61z" />
    <glyph glyph-name="fe.init" unicode="&#x641;" horiz-adv-x="488" arabic-form="initial" 
d="M0 0zM201 53q23 0 41 1t38 3q-65 21 -102.5 40.5t-56 40.5t-23.5 44.5t-5 53.5q0 28 11 57t32.5 53t53 39t72.5 15q38 0 69 -10.5t53 -34t34 -60.5t12 -90v-42q0 -76 -46.5 -119.5t-146.5 -43.5h-237q-13 0 -17.5 6.5t-4.5 18.5q0 14 4.5 21t17.5 7h201zM257 347
q-27 0 -48.5 -10t-36.5 -26t-23.5 -36.5t-8.5 -41.5t4 -39t23.5 -36t60.5 -37.5t114 -43.5q17 14 28 35.5t11 51.5v35q0 70 -29 109t-95 39zM299 505h-74v61h74v-61z" />
    <glyph glyph-name="fe.medi" unicode="&#x641;" horiz-adv-x="528" arabic-form="medial" 
d="M0 0zM212 53q-54 26 -86.5 69t-32.5 97q0 33 12 64t35 54.5t56 38t74 14.5t72 -14.5t51.5 -37.5t31 -53t10.5 -60q0 -51 -25.5 -94.5t-81.5 -77.5h200q22 0 22 -26q0 -27 -22 -27h-115q-45 0 -81 2t-57 11q-14 -5 -34.5 -7.5t-42 -4t-42 -1.5h-34.5h-122q-13 0 -17.5 6.5
t-4.5 18.5q0 14 4.5 21t17.5 7h212zM264 337q-28 0 -50.5 -10t-38.5 -26.5t-24.5 -39t-8.5 -47.5q0 -29 12.5 -53t32 -42.5t42.5 -32t44 -22.5q16 9 35.5 22.5t37 31.5t29.5 41t12 51q0 57 -33 92t-90 35zM310 494h-74v61h74v-61z" />
    <glyph glyph-name="qaf.fina" unicode="&#x642;" horiz-adv-x="755" arabic-form="final" 
d="M652 0q-2 -49 -20 -93t-49.5 -77t-75 -52.5t-96.5 -19.5h-122q-112 0 -174 69t-62 189v173h49v-172q0 -46 12 -84t36 -65.5t60.5 -42.5t86.5 -15h108q46 0 82 15t61.5 41t39.5 60.5t16 73.5h-113q-51 0 -84.5 11t-52.5 31.5t-26.5 50t-7.5 65.5q0 37 11 71.5t32 60
t52.5 41t72.5 15.5q33 0 63 -11t52.5 -34.5t36 -60.5t13.5 -90v-97h102q22 0 22 -26q0 -27 -22 -27h-103zM369 160q0 -29 6 -49t21.5 -33t41.5 -19t67 -6h100v86q0 82 -33 119t-90 37q-53 0 -83 -37t-30 -98zM585 464h-69v60h69v-60zM465 464h-69v60h69v-60z" />
    <glyph glyph-name="qaf.init" unicode="&#x642;" horiz-adv-x="488" arabic-form="initial" 
d="M0 0zM201 53q23 0 41 1t38 3q-65 21 -102.5 40.5t-56 40.5t-23.5 44.5t-5 53.5q0 28 11 57t32.5 53t53 39t72.5 15q38 0 69 -10.5t53 -34t34 -60.5t12 -90v-42q0 -76 -46.5 -119.5t-146.5 -43.5h-237q-13 0 -17.5 6.5t-4.5 18.5q0 14 4.5 21t17.5 7h201zM257 347
q-27 0 -48.5 -10t-36.5 -26t-23.5 -36.5t-8.5 -41.5t4 -39t23.5 -36t60.5 -37.5t114 -43.5q17 14 28 35.5t11 51.5v35q0 70 -29 109t-95 39zM354 506h-69v60h69v-60zM234 506h-69v60h69v-60z" />
    <glyph glyph-name="qaf.medi" unicode="&#x642;" horiz-adv-x="528" arabic-form="medial" 
d="M0 0zM212 53q-54 26 -86.5 69t-32.5 97q0 33 12 64t35 54.5t56 38t74 14.5t72 -14.5t51.5 -37.5t31 -53t10.5 -60q0 -51 -25.5 -94.5t-81.5 -77.5h200q22 0 22 -26q0 -27 -22 -27h-115q-45 0 -81 2t-57 11q-14 -5 -34.5 -7.5t-42 -4t-42 -1.5h-34.5h-122q-13 0 -17.5 6.5
t-4.5 18.5q0 14 4.5 21t17.5 7h212zM264 337q-28 0 -50.5 -10t-38.5 -26.5t-24.5 -39t-8.5 -47.5q0 -29 12.5 -53t32 -42.5t42.5 -32t44 -22.5q16 9 35.5 22.5t37 31.5t29.5 41t12 51q0 57 -33 92t-90 35zM358 491h-69v60h69v-60zM238 491h-69v60h69v-60z" />
    <glyph glyph-name="kaf.arab.fina" unicode="&#x643;" horiz-adv-x="805" arabic-form="final" 
d="M420 209v92q0 9 -5.5 15.5t-21.5 6.5h-126v112q0 48 28 75.5t79 27.5h45l6 -42h-49q-33 0 -50.5 -15t-17.5 -48v-68h104q28 0 38.5 -16t10.5 -36v-104h-41zM212 0q-41 0 -70.5 12.5t-48 33.5t-27 49t-8.5 59v131h49v-120q0 -51 26.5 -81.5t89.5 -30.5h335q45 0 69 23
t24 61v483h50v-483q0 -24 8 -40t21 -26t29 -14t32 -4h14q13 0 17.5 -7t4.5 -19q0 -14 -4.5 -20.5t-17.5 -6.5h-15q-36 0 -67 14t-49 52q-23 -38 -53 -52t-63 -14h-346z" />
    <glyph glyph-name="lam.fina" unicode="&#x644;" horiz-adv-x="692" arabic-form="final" 
d="M681 0q-26 0 -51 10t-41 33v-26q0 -52 -17 -99t-48.5 -82.5t-76.5 -56.5t-101 -21h-57q-112 0 -174 69t-62 189v173h49v-172q0 -46 12 -84t36 -65.5t60.5 -42.5t86.5 -15h44q49 0 86.5 16.5t62.5 44.5t38 65.5t13 78.5v605h49v-487q0 -35 25 -57.5t66 -22.5h11
q23 0 23 -26q0 -27 -23 -27h-11z" />
    <glyph glyph-name="lam.init" unicode="&#x644;" horiz-adv-x="241" arabic-form="initial" 
d="M27 53q42 0 67.5 23t25.5 61v483h49v-481q0 -66 -38 -102.5t-102 -36.5h-29q-13 0 -17.5 6.5t-4.5 18.5q0 14 4.5 21t17.5 7h27z" />
    <glyph glyph-name="lam.medi" unicode="&#x644;" horiz-adv-x="273" arabic-form="medial" 
d="M27 53q45 0 69 23t24 61v483h49v-483q0 -24 8 -40t21 -26t29 -14t32 -4h14q13 0 17.5 -7t4.5 -19q0 -14 -4.5 -20.5t-17.5 -6.5h-15q-36 0 -67 14t-49 52q-21 -38 -52 -52t-63 -14h-27q-13 0 -17.5 6.5t-4.5 18.5q0 14 4.5 21t17.5 7h27z" />
    <glyph glyph-name="mim.fina" unicode="&#x645;" horiz-adv-x="674" arabic-form="final" 
d="M573 149q0 -53 23.5 -74.5t57.5 -21.5h20q13 0 17.5 -7t4.5 -19q0 -14 -4.5 -20.5t-17.5 -6.5h-20q-16 0 -31 2.5t-28.5 9.5t-25.5 20.5t-21 34.5q-12 -21 -29.5 -34t-36.5 -20.5t-38.5 -10t-37.5 -2.5q-68 0 -109.5 36.5t-41.5 106.5v66q0 34 8.5 58.5t32.5 45.5h-49
q-69 0 -104.5 -36.5t-35.5 -90.5v-428h-49v429q0 35 12.5 67t36.5 56.5t60 39t84 14.5h181q39 0 66 -11.5t43.5 -30t24 -42.5t7.5 -48v-83zM412 53q51 0 81.5 22.5t30.5 70.5v75q0 36 -21.5 63.5t-68.5 27.5h-41q-47 0 -68.5 -28t-21.5 -68v-66q0 -48 29 -72.5t80 -24.5z
" />
    <glyph glyph-name="mim.init" unicode="&#x645;" horiz-adv-x="488" arabic-form="initial" 
d="M18 53q42 0 62.5 21t20.5 53v45q0 89 44 137.5t123 48.5q82 0 122 -49.5t40 -128.5q0 -85 -44 -132.5t-123 -47.5q-41 0 -77.5 15.5t-59.5 57.5q-9 -25 -22 -39.5t-27 -22t-29 -9.5t-30 -2h-18q-13 0 -17.5 6.5t-4.5 18.5q0 14 4.5 21t17.5 7h18zM381 173q0 60 -26 96.5
t-90 36.5q-57 0 -87 -34.5t-30 -103.5q0 -57 33 -86t82 -29q58 0 88 31.5t30 88.5z" />
    <glyph glyph-name="mim.medi" unicode="&#x645;" horiz-adv-x="530" arabic-form="medial" 
d="M18 53q42 0 62.5 21t20.5 53v45q0 89 44 137.5t123 48.5q82 0 122 -49.5t40 -127.5v-37q0 -51 22.5 -71t58.5 -20h19q13 0 17.5 -7t4.5 -19q0 -14 -4.5 -20.5t-17.5 -6.5h-19q-16 0 -31.5 2.5t-29.5 11t-26 23.5t-21 40q-14 -23 -30 -38t-34.5 -23.5t-38 -12t-38.5 -3.5
q-41 0 -77 15.5t-59 57.5q-9 -25 -22 -39.5t-27 -22t-29 -9.5t-30 -2h-18q-13 0 -17.5 6.5t-4.5 18.5q0 14 4.5 21t17.5 7h18zM381 173q0 60 -26 96.5t-90 36.5q-57 0 -87 -34.5t-30 -103.5q0 -57 33 -86t82 -29q58 0 88 31.5t30 88.5z" />
    <glyph glyph-name="nun.fina" unicode="&#x646;" horiz-adv-x="692" arabic-form="final" 
d="M681 0q-26 0 -51 10t-41 33v-26q0 -52 -17 -99t-48.5 -82.5t-76.5 -56.5t-101 -21h-57q-112 0 -174 69t-62 189v173h49v-172q0 -46 12 -84t36 -65.5t60.5 -42.5t86.5 -15h44q49 0 86.5 16.5t62.5 44.5t38 65.5t13 78.5v269h49v-151q0 -35 25 -57.5t66 -22.5h11
q23 0 23 -26q0 -27 -23 -27h-11zM348 308h-74v61h74v-61z" />
    <glyph glyph-name="nun.init" unicode="&#x646;" horiz-adv-x="290" arabic-form="initial" 
d="M0 0zM89 53q42 0 68 23t26 61v147h49v-145q0 -66 -38.5 -102.5t-101.5 -36.5h-92q-13 0 -17.5 6.5t-4.5 18.5q0 14 4.5 21t17.5 7h89zM208 416h-74v61h74v-61z" />
    <glyph glyph-name="nun.medi" unicode="&#x646;" horiz-adv-x="344" arabic-form="medial" 
d="M0 0zM78 53q45 0 69.5 23t24.5 61v147h50v-147q0 -24 8 -40t20.5 -26t28.5 -14t32 -4h33q23 0 23 -26q0 -27 -23 -27h-34q-35 0 -66 14t-50 52q-22 -38 -52 -52t-64 -14h-78q-13 0 -17.5 6.5t-4.5 18.5q0 14 4.5 21t17.5 7h78zM226 416h-74v61h74v-61z" />
    <glyph glyph-name="he.fina" unicode="&#x647;" horiz-adv-x="494" arabic-form="final" 
d="M216 92q57 0 92 23t35 57v171h-121q-57 0 -88.5 -39t-31.5 -103q0 -62 29.5 -85.5t84.5 -23.5zM392 161q0 -47 18.5 -77.5t68.5 -30.5h15q12 0 16.5 -7t4.5 -19q0 -14 -4.5 -20.5t-16.5 -6.5h-15q-45 0 -78 20t-47 75q-12 -17 -30.5 -27t-39 -16t-41 -8t-38.5 -2
q-73 0 -112 36.5t-39 116.5q0 37 10.5 72.5t31.5 63.5t53 45t75 17h119v70h49v-302z" />
    <glyph glyph-name="he.init" unicode="&#x647;" horiz-adv-x="719" arabic-form="initial" 
d="M262 329q-28 0 -50.5 -10t-38.5 -26.5t-24.5 -39.5t-8.5 -48q0 -29 12.5 -51.5t32 -40t42.5 -29.5t44 -21q16 9 36 21t37.5 29t29.5 39t12 50q0 56 -33.5 91.5t-90.5 35.5zM0 0q-13 0 -17.5 6.5t-4.5 18.5q0 14 4.5 21t17.5 7h212q-53 26 -86 64.5t-33 92.5q0 33 12 63.5
t34.5 54.5t55.5 38t74 14t72 -14t51.5 -37.5t30.5 -53t10 -59.5q0 -51 -25.5 -90t-81.5 -73h192q45 0 70 21t25 55q0 17 -7.5 35.5t-24.5 38.5l-188 213l37 35l190 -216q26 -31 36 -58.5t10 -53.5q0 -54 -38 -88.5t-107 -34.5h-110q-46 0 -81.5 2t-56.5 11
q-14 -5 -34.5 -7.5t-42 -4t-42 -1.5h-34.5h-120z" />
    <glyph glyph-name="he.medi" unicode="&#x647;" horiz-adv-x="539" arabic-form="medial" 
d="M101 53v116q0 35 7.5 71.5t26.5 66t50 48.5t78 19q37 0 65.5 -12t47 -33t28 -49t9.5 -61q0 -45 -20.5 -84t-56 -68.5t-84 -47t-104.5 -18.5v-78q0 -31 6 -52t17 -33.5t26 -19t32 -8.5l99 132q30 39 54.5 61t48.5 33.5t49.5 14t58.5 2.5q13 0 17.5 -7t4.5 -19
q0 -14 -4.5 -20.5t-17.5 -6.5q-32 0 -55.5 -2.5t-44.5 -12.5t-43 -31t-50 -58l-102 -138q-30 0 -56 8.5t-45.5 28t-30.5 50.5t-11 76v79h-101q-13 0 -17.5 6.5t-4.5 18.5q0 14 4.5 21t17.5 7h101zM148 51q54 1 95 15t68 36.5t41 50t14 56.5q0 50 -25.5 81.5t-78.5 31.5
q-54 0 -84 -40t-30 -112v-119z" />
    <glyph glyph-name="vav.fina" unicode="&#x648;" horiz-adv-x="494" arabic-form="final" 
d="M147 -190q46 0 82 15t60.5 41t38 60.5t15.5 73.5h-113q-51 0 -84 11t-52 31.5t-26.5 50t-7.5 65.5q0 37 10.5 71.5t31.5 60t52 41t72 15.5q33 0 63 -11t53 -34.5t36.5 -60.5t13.5 -90v-97h102q12 0 16.5 -7t4.5 -19q0 -14 -4.5 -20.5t-16.5 -6.5h-104q-2 -49 -19.5 -93
t-48 -77t-73 -52.5t-96.5 -19.5h-108l-6 52h108zM108 160q0 -29 6 -49t21.5 -33t41.5 -19t66 -6h100v86q0 82 -32.5 119t-89.5 37q-54 0 -83.5 -37t-29.5 -98z" />
    <glyph glyph-name="alef.maksura.fina" unicode="&#x649;" horiz-adv-x="704" arabic-form="final" 
d="M379 -190q53 0 90 11.5t60.5 30t34 41.5t10.5 46q0 26 -12.5 43.5t-44.5 17.5h-177l5 53h359q22 0 22 -26q0 -27 -22 -27h-104q13 -12 17.5 -28t4.5 -34q0 -27 -11.5 -58.5t-39 -58.5t-73 -45t-112.5 -18h-97q-112 0 -174 69t-62 189v173h49v-172q0 -46 12 -84t36 -65.5
t60.5 -42.5t86.5 -15h82z" />
    <glyph glyph-name="ye.arab.fina" unicode="&#x64a;" horiz-adv-x="704" arabic-form="final" 
d="M53 0zM379 -190q53 0 90 11.5t60.5 30t34 41.5t10.5 46q0 26 -12.5 43.5t-44.5 17.5h-177l5 53h359q22 0 22 -26q0 -27 -22 -27h-104q13 -12 17.5 -28t4.5 -34q0 -27 -11.5 -58.5t-39 -58.5t-73 -45t-112.5 -18h-97q-112 0 -174 69t-62 189v173h49v-172q0 -46 12 -84
t36 -65.5t60.5 -42.5t86.5 -15h82zM411 -415h-65v60h65v-60zM288 -415h-66v60h66v-60z" />
    <glyph glyph-name=".notdef" horiz-adv-x="533" 
d="M462 0h-396v610h396v-610zM115 558v-505h299v505h-299z" />
    <glyph glyph-name=".null" horiz-adv-x="957" 
 />
    <glyph glyph-name="nonmarkingreturn" horiz-adv-x="957" 
 />
    <glyph glyph-name="line_feed" unicode="&#xa;" 
 />
    <glyph glyph-name="carriage_return" unicode="&#xd;" 
 />
    <glyph glyph-name="space" unicode=" " horiz-adv-x="158" 
 />
    <glyph glyph-name="exclam" unicode="!" horiz-adv-x="202" 
d="M126 472q0 -51 -0.5 -88.5t-2 -69.5t-3 -62t-4.5 -67h-30q-3 36 -4.5 66.5t-3 62.5t-2 69.5t-0.5 88.5v126h50v-126zM101 0q-20 0 -28.5 10t-8.5 32q0 24 8.5 34t28.5 10t28.5 -10t8.5 -34q0 -22 -8.5 -32t-28.5 -10z" />
    <glyph glyph-name="quotedbl" unicode="&#x22;" horiz-adv-x="282" 
d="M61 374zM61 610h46v-236h-46v236zM175 610h46v-236h-46v236z" />
    <glyph glyph-name="numbersign" unicode="#" horiz-adv-x="694" 
d="M233 393h-158v45h165l28 161l39 -5l-26 -156h179l30 161l38 -5l-27 -156h141v-45h-148l-33 -187h159v-45h-166l-29 -161l-39 5l27 156h-179l-30 -161l-39 5l28 156h-140v45h147zM420 206l32 187h-179l-32 -187h179z" />
    <glyph glyph-name="dollar" unicode="$" horiz-adv-x="535" 
d="M276 35q72 5 110.5 44.5t38.5 99.5q0 30 -11.5 50.5t-30 34.5t-43.5 23t-52 18zM272 612q-68 -4 -101.5 -40t-33.5 -84q0 -28 10 -47.5t27 -33.5t39.5 -24t47.5 -19zM292 353q33 -11 65 -22t57.5 -29t41.5 -45t16 -68t-13.5 -75.5t-39 -60.5t-62.5 -42t-85 -18l-4 -95
q0 -16 -15 -16h-19l6 112q-60 2 -104.5 24t-76.5 60l15 21q6 8 14 8q7 0 17.5 -10.5t28.5 -23.5t44.5 -24.5t64.5 -13.5l14 280q-31 10 -61 22t-54 31t-38.5 47t-14.5 70q0 32 12 62t36 53.5t59 38t80 15.5l2 76q2 15 17 15h18l-4 -92q48 -4 82.5 -21t63.5 -47l-12 -18
q-5 -8 -15 -8q-5 0 -13.5 7.5t-23 16.5t-35.5 17t-51 10z" />
    <glyph glyph-name="percent" unicode="%" horiz-adv-x="723" 
d="M323 493q0 -40 -11.5 -70.5t-30.5 -51.5t-44 -31.5t-52 -10.5q-30 0 -55.5 10.5t-44.5 31.5t-30 51.5t-11 70.5q0 41 11 72t30 51.5t44.5 31t55.5 10.5q28 0 53.5 -10.5t44 -31t29.5 -51.5t11 -72zM282 493q0 70 -28.5 101t-68.5 31q-41 0 -70.5 -31t-29.5 -101
t29.5 -99.5t70.5 -29.5q20 0 37.5 7t31 22.5t21 40t7.5 59.5zM564 639q3 4 6.5 6t11.5 2h36l-466 -638q-6 -9 -18 -9h-37zM678 155q0 -40 -11 -70.5t-30 -50.5t-44 -30.5t-53 -10.5q-29 0 -54.5 10.5t-44.5 30.5t-30 50.5t-11 70.5q0 41 11 72t30 51.5t44.5 30.5t54.5 10
q28 0 53.5 -10t44 -30.5t29.5 -51.5t11 -72zM637 155q0 70 -28.5 101t-68.5 31q-42 0 -70.5 -31t-28.5 -101q0 -68 29 -99t70 -31q40 0 68.5 31t28.5 99z" />
    <glyph glyph-name="ampersand" unicode="&#x26;" horiz-adv-x="643" 
d="M228 333q-58 -23 -93 -67t-35 -97q0 -35 13 -60.5t34 -42.5t46.5 -25.5t51.5 -8.5q64 0 110 27.5t78 69.5zM629 0h-48q-9 0 -14.5 1.5t-13.5 9.5l-92 89q-40 -47 -95.5 -77t-127.5 -30q-35 0 -69 11t-61 33t-43.5 53.5t-16.5 73.5q0 34 12 64t32.5 55.5t49 45t61.5 31.5
q-32 37 -48 69.5t-16 71.5q0 33 11.5 61t33.5 48.5t52 32t68 11.5q33 0 61 -11t49 -29t33.5 -42t13.5 -50l-30 -6q-5 -1 -9.5 1.5t-6.5 10.5q-2 12 -10 27t-21.5 28.5t-33 22.5t-46.5 9q-53 0 -85 -32t-32 -81q0 -38 18 -69.5t58 -70.5l199 -196q20 33 32 68.5t16 68.5
q3 13 13 13h31q-2 -45 -17.5 -91t-44.5 -90z" />
    <glyph glyph-name="quotesingle" unicode="'" horiz-adv-x="168" 
d="M61 610h46v-236h-46v236z" />
    <glyph glyph-name="parenleft" unicode="(" horiz-adv-x="290" 
d="M53 0zM102 214q0 -65 7.5 -116.5t24 -94t42.5 -80t62 -75.5l-30 -30q-35 35 -64 73.5t-49 85t-31 103.5t-11 129t11 129t31 103.5t49 84.5t64 73l30 -30q-36 -38 -62 -75t-42.5 -78.5t-24 -91t-7.5 -110.5z" />
    <glyph glyph-name="parenright" unicode=")" horiz-adv-x="290" 
d="M52 0zM188.006 204.013q0 64.9961 -7.49902 116.493q-7.5 51.4971 -23.999 93.9941q-16.499 42.498 -42.4971 79.9951q-25.998 37.498 -61.9961 75.4951l29.998 29.999q34.998 -34.998 63.9961 -73.4961q28.998 -38.4971 48.9971 -84.9941
q19.999 -46.498 30.998 -103.494t10.999 -128.992q0 -71.9951 -10.999 -128.992q-10.999 -56.9961 -30.998 -103.493q-19.999 -46.498 -48.9971 -84.4951q-28.998 -37.998 -63.9961 -72.9961l-29.998 29.999q35.998 37.9971 61.9961 74.9951t42.4971 78.4951t23.999 90.9941
q7.49902 49.4971 7.49902 110.493z" />
    <glyph glyph-name="asterisk" unicode="*" horiz-adv-x="393" 
d="M240 535q-7 -5 -12.5 -6.5t-13.5 -3.5q29 -7 56.5 -25.5t54.5 -33.5l-13 -24l-74 44q-11 5 -18 10.5t-15 14.5l3.5 -14t1.5 -13v-97h-28v84q0 10 0.5 19t4.5 19q-6 -6 -10 -8.5l-12 -7.5l-85 -49l-12 22l73 44l18 9t19 6q-9 2 -14.5 3.5t-11.5 6.5l-85 50l13 22l75 -43
q10 -6 16 -11t17 -13q-4 8 -5 14t-1 13v97h28v-84q0 -12 -0.5 -20.5t-4.5 -19.5l10 10t11 7l86 49l13 -22z" />
    <glyph glyph-name="plus" unicode="+" horiz-adv-x="507" 
d="M53 172v47h180v173h46v-173h176v-47h-176v-172h-46v172h-180z" />
    <glyph glyph-name="comma" unicode="," horiz-adv-x="203" 
d="M64 -109q-3 1 -3 7q0 2 1 3.5t2 3.5q10 11 27.5 36.5t22.5 60.5q-8 -5 -17 -3q-17 2 -27.5 13t-10.5 29q0 17 12 29t31 12q21 0 32.5 -14.5t11.5 -37.5q0 -38 -19.5 -78.5t-54.5 -69.5z" />
    <glyph glyph-name="hyphen_minus" unicode="-" horiz-adv-x="507" 
d="M53 172v48h402v-48h-402z" />
    <glyph glyph-name="period" unicode="." horiz-adv-x="207" 
d="M104 0q-22 0 -31 11.5t-9 34.5q0 24 9 35t31 11q21 0 30 -11t9 -35q0 -23 -9 -34.5t-30 -11.5z" />
    <glyph glyph-name="slash" unicode="/" horiz-adv-x="539" 
d="M447 572l39 -25l-394 -624l-39 26z" />
    <glyph glyph-name="zero" unicode="0" horiz-adv-x="556" 
d="M502 311q0 -82 -17.5 -142t-48 -99t-71.5 -58t-88 -19t-87.5 19t-70.5 58t-47.5 99t-17.5 142t17.5 142.5t47.5 100t70.5 58.5t87.5 19t88 -19t71.5 -58.5t48 -100t17.5 -142.5zM451 311q0 76 -14 129t-38 86.5t-55.5 49t-66.5 15.5t-66.5 -15.5t-55.5 -49t-38 -86.5
t-14 -129q0 -75 14 -128t38 -86.5t55.5 -48.5t66.5 -15t66.5 15t55.5 48.5t38 86.5t14 128z" />
    <glyph glyph-name="one" unicode="1" horiz-adv-x="333" 
d="M236 625v-625h-47v530v17.5t1 17.5l-125 -113q-7 -5 -15.5 -5.5t-13.5 6.5l-14 16l176 156h38z" />
    <glyph glyph-name="two" unicode="2" horiz-adv-x="489" 
d="M426 44q17 0 17 -16v-28h-406v16q0 12 10 22l210 212q26 26 48.5 51t39 50.5t25.5 52t9 56.5q0 34 -11 58.5t-29.5 40.5t-42.5 23.5t-51 7.5q-57 0 -94.5 -32.5t-47.5 -84.5q-8 -19 -25 -15l-25 3q11 81 64 125.5t130 44.5q37 0 70 -11t57.5 -32t39 -52.5t14.5 -73.5
q0 -36 -11 -66t-29 -58t-42 -53.5t-51 -52.5l-190 -194q28 6 62 6h259z" />
    <glyph glyph-name="three" unicode="3" horiz-adv-x="505" 
d="M65 461q11 81 63 125.5t130 44.5q37 0 69.5 -10t56.5 -30t38 -49.5t14 -68.5q0 -62 -36 -98.5t-87 -50.5q69 -11 103.5 -51t34.5 -100q0 -39 -15.5 -72t-42.5 -57t-64 -37.5t-79 -13.5q-53 0 -89 14t-59 36.5t-36 51.5t-21 58l18 8q9 3 17.5 2t12.5 -11q4 -9 11.5 -28.5
t24 -40t45 -36t74.5 -15.5q39 0 67.5 13t48 33t29 44.5t9.5 48.5q0 28 -8.5 52.5t-29 42t-54 27.5t-84.5 10v34q81 2 121.5 37t40.5 92q0 32 -10.5 55.5t-28.5 38.5t-41.5 22.5t-50.5 7.5q-58 0 -95.5 -32.5t-47.5 -84.5q-6 -19 -25 -15z" />
    <glyph glyph-name="four" unicode="4" horiz-adv-x="526" 
d="M336 215v316q0 15 3 33l-263 -349h260zM489 215v-26q0 -12 -12 -12h-98v-177h-43v177h-291q-13 0 -16 10l-5 24l311 413h44v-409h110z" />
    <glyph glyph-name="five" unicode="5" horiz-adv-x="469" 
d="M119 378q59 14 103 14q49 0 86 -14t62 -39t37.5 -59.5t12.5 -74.5q0 -50 -17 -89.5t-46.5 -66.5t-68.5 -41.5t-84 -14.5q-54 0 -96.5 17.5t-68.5 38.5l14 20q5 7 15 7q6 0 17 -6.5t27.5 -14.5t39.5 -14.5t54 -6.5q36 0 66 11.5t52 33t34.5 53t12.5 71.5q0 66 -38.5 108
t-119.5 42q-25 0 -52.5 -4t-58.5 -14l-31 10l49 278h283v-20q0 -10 -6.5 -16.5t-21.5 -6.5h-220z" />
    <glyph glyph-name="six" unicode="6" horiz-adv-x="510" 
d="M254 32q75 0 117.5 43t42.5 110q0 72 -42 112t-109 40q-37 0 -66.5 -13t-49.5 -34t-31 -47.5t-11 -53.5q0 -34 10.5 -63t29.5 -50t46.5 -32.5t62.5 -11.5zM139 310q23 30 60 46.5t79 16.5q40 0 73.5 -13t58.5 -37t39 -58t14 -76q0 -43 -15 -79t-42.5 -62t-66 -40.5
t-84.5 -14.5q-45 0 -81.5 14t-62.5 41t-40 65.5t-14 86.5q0 37 18.5 82.5t60.5 102.5l168 227q6 11 26 11h43l-186 -242q-16 -20 -28 -37t-20 -34z" />
    <glyph glyph-name="seven" unicode="7" horiz-adv-x="458" 
d="M442 623v-21q0 -8 -2 -14t-4 -11l-281 -560q-8 -17 -28 -17h-34l284 557q4 7 7.5 12.5t8.5 10.5h-354q-13 0 -13 13v30h416z" />
    <glyph glyph-name="eight" unicode="8" horiz-adv-x="511" 
d="M255 30q71 0 113 37t42 100q0 39 -14.5 65.5t-37 42.5t-50 23t-53.5 7t-53.5 -7t-50 -23t-37 -42.5t-14.5 -65.5q0 -63 42.5 -100t112.5 -37zM255 594q-64 0 -99.5 -36t-35.5 -88q0 -25 8 -48t24.5 -40.5t42 -28t60.5 -10.5t60.5 10.5t42 28t24.5 40.5t8 48q0 52 -35 88
t-100 36zM323 325q30 -7 55 -20t43 -32.5t28 -46t10 -60.5q0 -40 -15 -72t-42 -54.5t-64.5 -34.5t-82.5 -12t-82.5 12t-64.5 34.5t-42 54.5t-15 72q0 34 10 60.5t28 46t43 32.5t55 20q-56 16 -85 54t-29 92q0 34 12.5 63t36.5 50.5t57.5 34t75.5 12.5t75.5 -12.5t57.5 -34
t36.5 -50.5t12.5 -63q0 -54 -29.5 -92t-84.5 -54z" />
    <glyph glyph-name="nine" unicode="9" horiz-adv-x="468" 
d="M82 446q0 -69 39 -107.5t103 -38.5q36 0 65 12.5t48.5 32.5t30 45.5t10.5 51.5q0 33 -11 60.5t-30 47t-46 30.5t-58 11q-34 0 -61.5 -10.5t-47.5 -30t-31 -46t-11 -58.5zM303 256q15 21 26.5 38t20.5 34q-24 -30 -61 -47.5t-79 -17.5q-38 0 -70 13t-55.5 36t-37 56
t-13.5 74q0 40 15 74.5t41 60t62.5 40t80.5 14.5q42 0 77.5 -14.5t60.5 -40t39 -62t14 -79.5q0 -50 -20 -92.5t-56 -94.5l-162 -237q-8 -11 -24 -11h-45z" />
    <glyph glyph-name="colon" unicode=":" horiz-adv-x="207" 
d="M64 0zM104 242q-22 0 -31 11.5t-9 34.5q0 24 9 35t31 11q21 0 30 -11t9 -35q0 -23 -9 -34.5t-30 -11.5zM104 0q-22 0 -31 11.5t-9 34.5q0 24 9 35t31 11q21 0 30 -11t9 -35q0 -23 -9 -34.5t-30 -11.5z" />
    <glyph glyph-name="semicolon" unicode=";" horiz-adv-x="233" 
d="M79 -109q-3 1 -3 7q0 4 3 7q4 5 12 14.5t15.5 22t13.5 28t8 32.5q-8 -5 -19 -3q-16 2 -25.5 13.5t-9.5 28.5t11 29t31 12q21 0 33 -14.5t12 -37.5q0 -38 -19.5 -78.5t-54.5 -69.5zM72 402q0 20 12 32.5t32 12.5t33 -12.5t13 -32.5q0 -19 -13 -31.5t-33 -12.5t-32 12.5
t-12 31.5z" />
    <glyph glyph-name="less" unicode="&#x3c;" horiz-adv-x="455" 
d="M402 33l-21 -46l-328 178v52l328 179l21 -47l-299 -158z" />
    <glyph glyph-name="equal" unicode="=" horiz-adv-x="507" 
d="M53 80zM53 80v48h402v-48h-402zM53 265v48h402v-48h-402z" />
    <glyph glyph-name="greater" unicode="&#x3e;" horiz-adv-x="455" 
d="M53 0zM53.0244 33l20.999 -46l327.979 178v52l-327.979 179l-20.999 -47l298.981 -158z" />
    <glyph glyph-name="question" unicode="?" horiz-adv-x="402" 
d="M42 585q26 26 63.5 45t90.5 19q33 0 62.5 -9.5t51 -28t34.5 -44.5t13 -59q0 -35 -11 -60.5t-27.5 -45t-36 -33.5t-36.5 -27t-29 -26t-13 -29l-5 -74h-34l-4 79q-1 19 9.5 34t26.5 28.5t35.5 27.5t36.5 31t28 39.5t11 53.5q0 24 -9.5 43t-25.5 32.5t-37 20.5t-44 7
q-30 0 -51.5 -8t-36.5 -18t-24 -18t-13 -8q-8 0 -10 8zM135 36q0 20 12.5 33t32.5 13t32.5 -13t12.5 -33q0 -19 -12.5 -31t-32.5 -12t-32.5 12t-12.5 31z" />
    <glyph glyph-name="at" unicode="@" horiz-adv-x="766" 
d="M499 389q-11 3 -21.5 4.5t-27.5 1.5q-40 0 -73 -16.5t-56 -43.5t-36 -60.5t-13 -67.5q0 -36 17.5 -60.5t53.5 -24.5q16 0 33 5.5t33 19.5t29.5 38t23.5 62zM503 250q-11 -41 -10.5 -67t8.5 -40t21.5 -19t29.5 -5q26 0 49.5 13.5t41 39t28 61.5t10.5 81q0 68 -22 118.5
t-60 84t-88.5 50t-107.5 16.5q-63 0 -119.5 -24.5t-99 -68t-67 -103.5t-24.5 -132q0 -82 26 -144t70 -103.5t103.5 -62.5t126.5 -21q69 0 125 16t101 45q14 8 18 -5l8 -19q-52 -34 -114 -52.5t-138 -18.5q-77 0 -143.5 24.5t-116 71t-77.5 114.5t-28 155q0 77 27.5 143
t74.5 115t111 76.5t136 27.5q62 0 119 -19.5t101 -58t70 -95t26 -130.5q0 -51 -13.5 -93t-37 -72t-55.5 -46.5t-68 -16.5q-41 0 -61.5 23t-20.5 65q-26 -45 -59 -65t-71 -20q-52 0 -77.5 33.5t-25.5 83.5q0 39 15 79t44 71.5t71 51.5t97 20q50 0 87 -17z" />
    <glyph glyph-name="A" unicode="A" horiz-adv-x="608" 
d="M447 238l-87 214q-14 34 -29 71.5t-26 73.5q-11 -38 -27 -74.5t-30 -70.5l-87 -214h286zM599 0h-43q-6 0 -12.5 9t-12.5 21t-11 25t-8 22l-50 123h-316l-48 -123q-4 -9 -9.5 -22t-11.5 -25t-12.5 -21t-12.5 -9h-42l268 647h54z" />
    <glyph glyph-name="B" unicode="B" horiz-adv-x="585" 
d="M309 43q85 0 127 35t42 102q0 59 -42 94t-127 35h-160v-266h160zM149 607v-259h103q36 0 72 4t64.5 18t46.5 40t18 70q0 127 -167 127h-137zM286 647q113 0 166.5 -40t53.5 -121q0 -26 -9.5 -50.5t-27 -45t-42 -35.5t-55.5 -22q77 -10 119 -49t42 -104q0 -85 -59 -132.5
t-165 -47.5h-215v647h192z" />
    <glyph glyph-name="C" unicode="C" horiz-adv-x="623" 
d="M559 111q3 1 5 1.5t4 0.5q1 0 2.5 -1t3.5 -2l21 -22q-41 -45 -97 -70t-137 -25q-68 0 -125 22t-98 64t-63.5 102.5t-22.5 137.5q0 73 22.5 134.5t64 106t100.5 69.5t131 25q66 0 117.5 -20.5t95.5 -59.5q-13 -20 -18.5 -25.5t-10.5 -5.5q-4 0 -14 6q-47 34 -85 47t-85 13
q-62 0 -111 -22.5t-82.5 -61.5t-51 -92t-17.5 -114q0 -67 19.5 -119.5t53.5 -88.5t80.5 -54.5t101.5 -18.5q48 0 83.5 9t67.5 32q12 7 23 15.5t22 16.5z" />
    <glyph glyph-name="D" unicode="D" horiz-adv-x="701" 
d="M648 325q0 -74 -22 -133.5t-63 -102.5t-99 -66t-130 -23h-240v647h240q70 0 128 -22t99 -63.5t64 -101t23 -135.5zM592 325q0 66 -18.5 118t-52 88t-81.5 55t-106 19h-185v-562h154q57 0 109 12.5t92 44t64 86t24 139.5z" />
    <glyph glyph-name="E" unicode="E" horiz-adv-x="534" 
d="M149 604v-254h281v-42h-281v-265h340v-43h-395v647h395v-43h-340z" />
    <glyph glyph-name="F" unicode="F" horiz-adv-x="523" 
d="M149 604v-266h293v-44h-293v-294h-55v647h395v-43h-340z" />
    <glyph glyph-name="G" unicode="G" horiz-adv-x="684" 
d="M434 300h184v-236q-48 -34 -103.5 -52.5t-124.5 -18.5q-78 0 -140.5 23.5t-107 66.5t-68 104t-23.5 137t23 137t66 104t104 66t137 23q77 0 130.5 -20.5t96.5 -59.5l-16 -23q-6 -13 -21 -6q-8 4 -21.5 14.5t-36 21.5t-55 19.5t-78.5 8.5q-62 0 -112.5 -19.5t-86 -56
t-54.5 -89.5t-19 -120q0 -68 19.5 -122t56 -91t88.5 -56.5t117 -19.5q56 0 97 14t83 37v173h-121q-14 0 -14 12v29z" />
    <glyph glyph-name="H" unicode="H" horiz-adv-x="699" 
d="M604 647v-647h-55v309h-400v-309h-55v647h55v-298h400v298h55z" />
    <glyph glyph-name="I" unicode="I" horiz-adv-x="243" 
d="M149 0h-55v647h55v-647z" />
    <glyph glyph-name="J" unicode="J" horiz-adv-x="384" 
d="M296 219q0 -110 -52 -168t-145 -58q-21 0 -43 3.5t-45 9.5l4 30q2 4 4 7.5t9 3.5q10 0 25 -5t41 -5q69 0 107.5 44t38.5 137v429h56v-428z" />
    <glyph glyph-name="K" unicode="K" horiz-adv-x="591" 
d="M149 352h40q17 0 26.5 4t19.5 15l251 263q8 8 15 10.5t18 2.5h45l-276 -286q-8 -10 -14.5 -15t-16.5 -8q11 -4 19 -9.5t17 -16.5l293 -312h-46q-14 0 -20 3t-11 10l-266 278q-10 11 -19 16t-32 5h-43v-312h-55v647h55v-295z" />
    <glyph glyph-name="L" unicode="L" horiz-adv-x="468" 
d="M454 45v-45h-360v647h55v-602h305z" />
    <glyph glyph-name="M" unicode="M" horiz-adv-x="842" 
d="M748 647v-647h-48v541v11.5t1 14.5l-252 -445q-8 -13 -20 -13h-9q-12 0 -22 13l-257 446q1 -8 1.5 -15t0.5 -12v-541h-49v647h39q8 0 12 -1t8 -8l258 -443q4 -7 7 -14.5t6 -15.5q4 8 6.5 15.5t7.5 15.5l251 442q4 7 8.5 8t12.5 1h38z" />
    <glyph glyph-name="N" unicode="N" horiz-adv-x="699" 
d="M604 647v-647h-26q-11 0 -20 9l-417 552q1 -8 1.5 -15t0.5 -13v-533h-49v647h27q8 0 12 -1t9 -8l416 -549q-1 7 -1.5 14.5t-0.5 13.5v530h48z" />
    <glyph glyph-name="O" unicode="O" horiz-adv-x="733" 
d="M681 323q0 -76 -23 -137t-64.5 -104t-100 -66t-128.5 -23q-69 0 -127 23t-99.5 66t-64.5 104t-23 137q0 75 23 136t64.5 104.5t99.5 67t127 23.5q70 0 128.5 -23.5t100 -66.5t64.5 -104.5t23 -136.5zM623 323q0 67 -18.5 120.5t-52 90t-81.5 56t-106 19.5
q-57 0 -104.5 -19.5t-81 -56t-52.5 -90t-19 -120.5q0 -68 19 -120.5t52.5 -89t81 -55.5t104.5 -19q58 0 106 19t81.5 55.5t52 89t18.5 120.5z" />
    <glyph glyph-name="P" unicode="P" horiz-adv-x="537" 
d="M267 302q43 0 76.5 11.5t56.5 32.5t35.5 49.5t12.5 62.5q0 149 -181 149h-118v-305h118zM267 647q236 0 236 -189q0 -44 -16 -80.5t-46.5 -62.5t-74.5 -41t-99 -15h-118v-259h-55v647h173z" />
    <glyph glyph-name="Q" unicode="Q" horiz-adv-x="734" 
d="M108 323q0 -68 19 -120.5t52.5 -89t81 -55.5t104.5 -19q58 0 106 19t81.5 55.5t52 89t18.5 120.5q0 67 -18.5 120.5t-52 90t-81.5 56t-106 19.5q-57 0 -104.5 -19.5t-81 -56t-52.5 -90t-19 -120.5zM708 -143h-46q-22 0 -34 13l-137 147q-54 -24 -126 -24q-69 0 -127 23
t-99 66t-64 104t-23 137q0 75 23 136t64 104.5t99 67t127 23.5q70 0 128.5 -23.5t100 -66.5t64.5 -104.5t23 -136.5q0 -100 -38 -171t-106 -112z" />
    <glyph glyph-name="R" unicode="R" horiz-adv-x="565" 
d="M259 331q86 0 133 38.5t47 104.5q0 69 -44 101t-129 32h-117v-276h110zM551 0h-48q-16 0 -24 12l-203 261q-8 10 -16.5 14t-27.5 4h-83v-291h-55v647h172q227 0 227 -170q0 -74 -50 -120.5t-135 -57.5q7 -4 13 -8.5t11 -12.5z" />
    <glyph glyph-name="S" unicode="S" horiz-adv-x="495" 
d="M415 563q-5 -8 -13 -8q-6 0 -16 8.5t-26 18.5t-40.5 18.5t-59.5 8.5t-61 -10t-43 -26.5t-26 -39t-9 -47.5q0 -43 24 -66.5t60.5 -39t78.5 -27.5t78.5 -30.5t60.5 -49.5t24 -84q0 -42 -14.5 -78t-41.5 -62.5t-66.5 -41t-89.5 -14.5q-65 0 -113 22.5t-83 62.5l16 23
q5 8 14 8q7 0 18 -11.5t30.5 -25t48.5 -24.5t71 -11q75 0 116.5 40t41.5 103q0 45 -24 69.5t-60.5 39.5t-78.5 26.5t-78.5 30t-60.5 50.5t-24 88q0 33 12.5 63.5t37 54.5t60 38t81.5 14q53 0 94 -16.5t75 -49.5z" />
    <glyph glyph-name="T" unicode="T" horiz-adv-x="536" 
d="M523 603h-227v-603h-55v603h-228v44h510v-44z" />
    <glyph glyph-name="U" unicode="U" horiz-adv-x="673" 
d="M336 39q46 0 82.5 16t61.5 44.5t38 67.5t13 84v396h56v-396q0 -55 -17.5 -102t-50 -82t-79 -55t-104.5 -20t-104.5 20t-78.5 55t-49.5 82t-17.5 102v396h55v-395q0 -45 13 -84t38 -67.5t61.5 -45t82.5 -16.5z" />
    <glyph glyph-name="V" unicode="V" horiz-adv-x="608" 
d="M596 647l-267 -647h-49l-267 647h43q14 0 19 -13l215 -525q4 -11 7.5 -23.5t7.5 -24.5q3 12 6.5 24.5t8.5 23.5l212 525q5 13 20 13h44z" />
    <glyph glyph-name="W" unicode="W" horiz-adv-x="943" 
d="M920 647l-203 -647h-50l-189 552q-2 5 -3.5 11.5t-3.5 13.5q-2 -7 -3 -13.5t-4 -11.5l-189 -552h-49l-205 647h46q17 0 20 -13l157 -519q4 -10 6.5 -21t4.5 -23q2 13 5 23.5t6 20.5l179 519q5 13 20 13h15q15 0 20 -13l179 -519l6 -20t5 -23q3 13 5 23t5 20l159 519
q2 13 19 13h42z" />
    <glyph glyph-name="X" unicode="X" horiz-adv-x="585" 
d="M562 0h-54q-8 0 -11.5 3.5t-6.5 8.5l-203 294q-1 -5 -1.5 -7t-3.5 -4l-197 -283q-3 -5 -7 -8.5t-10 -3.5h-52l236 334l-224 313h53q7 0 10.5 -2.5t6.5 -5.5l193 -278q3 4 4.5 7.5t3.5 5.5l186 264q4 4 7 6.5t9 2.5h52l-225 -309z" />
    <glyph glyph-name="Y" unicode="Y" horiz-adv-x="554" 
d="M304 267v-267h-54v267l-242 380h47q14 0 20 -12l181 -290q6 -10 12 -20.5t10 -20.5q6 22 21 41l178 290q10 12 21 12h49z" />
    <glyph glyph-name="Z" unicode="Z" horiz-adv-x="552" 
d="M517 630q0 -5 -1 -10t-5 -10l-409 -567h412v-43h-484v19q0 10 6 19l410 566h-402v43h473v-17z" />
    <glyph glyph-name="bracketleft" unicode="[" horiz-adv-x="303" 
d="M252 594v-48h-143v-675h143v-47h-191v770h191z" />
    <glyph glyph-name="backslash" unicode="\" horiz-adv-x="539" 
d="M53 0zM92.0273 572l-38.998 -25l393.977 -624l38.9971 26z" />
    <glyph glyph-name="bracketright" unicode="]" horiz-adv-x="303" 
d="M51 0zM51.0156 594v-48h142.991v-675h-142.991v-47h190.988v770h-190.988z" />
    <glyph glyph-name="underscore" unicode="_" horiz-adv-x="488" 
d="M53 40h383v-42h-383v42z" />
    <glyph glyph-name="a" unicode="a" horiz-adv-x="449" 
d="M329 221q-127 -5 -185 -32t-58 -76q0 -23 7.5 -39t20 -26.5t29 -15.5t33.5 -5q53 0 88 22t65 54v118zM60 396q37 35 77.5 53.5t91.5 18.5q76 0 113 -45.5t37 -123.5v-299h-20q-8 0 -12.5 2.5t-6.5 10.5l-6 59q-19 -18 -37.5 -33t-38.5 -25t-43.5 -15.5t-52.5 -5.5
q-24 0 -46.5 7t-40 21t-27.5 36.5t-10 54.5q0 28 16.5 53t51.5 44t90 30.5t133 13.5v46q0 63 -26.5 96.5t-78.5 33.5q-33 0 -55.5 -9t-38.5 -20t-26 -20t-18 -9q-10 0 -17 9z" />
    <glyph glyph-name="b" unicode="b" horiz-adv-x="511" 
d="M125 102q26 -38 57 -54t71 -16q79 0 118.5 55.5t39.5 153.5q0 95 -36 141.5t-104 46.5q-48 0 -83 -23t-63 -64v-240zM125 380q30 42 68.5 65t92.5 23q83 0 130 -59t47 -166q0 -56 -13.5 -102t-39 -78.5t-62.5 -50.5t-85 -18t-82 18.5t-59 53.5l-2 -54q-3 -12 -15 -12h-31
v661h51v-281z" />
    <glyph glyph-name="c" unicode="c" horiz-adv-x="435" 
d="M385 396q-4 -6 -10 -6q-5 0 -13.5 6t-22 13.5t-33 13.5t-47.5 6q-78 0 -119 -53t-41 -145q0 -97 42 -148t113 -51q33 0 54.5 8t35.5 17t22.5 17t14.5 8q3 0 6 -1t5 -5l13 -16q-23 -29 -65.5 -47.5t-94.5 -18.5q-44 0 -80.5 16t-62.5 46.5t-40.5 74.5t-14.5 100
q0 52 14 95.5t40.5 75t65.5 49t90 17.5q46 0 81 -15t61 -39z" />
    <glyph glyph-name="d" unicode="d" horiz-adv-x="511" 
d="M386 359q-27 40 -57.5 55t-70.5 15q-79 0 -118.5 -55t-39.5 -145q0 -102 36 -148.5t104 -46.5q45 0 81 22.5t65 64.5v238zM437 661l-1 -661h-27q-15 0 -16 12l-5 71q-30 -42 -70.5 -65.5t-92.5 -23.5q-84 0 -131 58.5t-47 176.5q0 51 13 94.5t38.5 75.5t63 50.5
t85.5 18.5q46 0 79.5 -16.5t59.5 -49.5l1 259h50z" />
    <glyph glyph-name="e" unicode="e" horiz-adv-x="482" 
d="M394 277q0 72 -38 113.5t-99 41.5q-70 0 -110 -41.5t-48 -113.5h295zM98 242q-2 -40 7 -77.5t29 -67t52 -47t76 -17.5q34 0 59 7.5t42.5 17t27.5 17t15 7.5q8 0 12 -6l12 -16q-12 -15 -30.5 -27t-41 -20.5t-48.5 -13.5t-52 -5q-48 0 -86.5 16.5t-66.5 48t-43 77
t-15 104.5q0 49 14 91t41 72.5t65.5 47.5t87.5 17q40 0 73.5 -13.5t58.5 -39.5t39 -64.5t14 -88.5q0 -12 -3 -16t-10 -4h-329z" />
    <glyph glyph-name="f" unicode="f" horiz-adv-x="317" 
d="M101 0v398l-62 4q-7 2 -11 4t-4 10v19h77v56q0 80 39.5 119.5t105.5 39.5q14 0 28 -1.5t27 -6.5l-1 -24q-1 -9 -12.5 -6.5t-34.5 2.5q-44 0 -73 -28t-29 -96v-55h147v-36h-145v-399h-52z" />
    <glyph glyph-name="g" unicode="g" horiz-adv-x="473" 
d="M226 206q59 0 89 31t30 82t-31 82.5t-88 31.5t-88 -31.5t-31 -82.5t31 -82t88 -31zM393 -31q0 32 -23.5 45.5t-59 18.5t-76.5 6t-77 7q-34 -14 -56 -35.5t-22 -52.5q0 -40 39.5 -66t114.5 -26q35 0 64.5 7.5t50.5 21t33 32.5t12 42zM448 442v-18q0 -13 -14 -14l-72 -4
q30 -35 30 -86q0 -33 -12 -60.5t-34 -46.5t-52.5 -29.5t-67.5 -10.5q-39 0 -69 12q-19 -11 -30 -25.5t-11 -28.5q0 -26 24 -36t60 -13.5t78.5 -4.5t78.5 -9.5t60 -28.5t24 -62q0 -29 -14.5 -55.5t-41.5 -47t-66 -33t-88 -12.5t-86 10t-61.5 26.5t-37 39t-12.5 47.5
q0 36 24 62t66 41q-23 8 -37.5 23t-14.5 41q0 19 15 41t42 36q-33 19 -51 50.5t-18 73.5q0 67 45.5 107.5t120.5 40.5q60 0 101 -26h121z" />
    <glyph glyph-name="h" unicode="h" horiz-adv-x="510" 
d="M125 384q31 38 71.5 61t90.5 23q77 0 115 -46.5t38 -127.5v-294h-51v294q0 63 -28.5 99t-87.5 36q-44 0 -81 -23t-67 -62v-344h-51v661h51v-277z" />
    <glyph glyph-name="i" unicode="i" horiz-adv-x="208" 
d="M130 460v-460h-52v460h52zM148 610q0 -18 -13 -30.5t-30 -12.5q-19 0 -32 12.5t-13 30.5q0 17 13 29.5t32 12.5q17 0 30 -12.5t13 -29.5z" />
    <glyph glyph-name="j" unicode="j" horiz-adv-x="208" 
d="M130 460v-515q0 -49 -28 -82t-87 -33q-26 0 -46 8l3 28q2 7 9 4t25 -3q38 0 55 20t17 58v515h52zM148 610q0 -18 -13.5 -30.5t-30.5 -12.5q-18 0 -31 12.5t-13 30.5q0 17 13 29.5t31 12.5q17 0 30.5 -12.5t13.5 -29.5z" />
    <glyph glyph-name="k" unicode="k" horiz-adv-x="445" 
d="M125 661v-397h21q8 0 13.5 2t12.5 9l178 173q5 6 10 9t14 3h47l-198 -191q-10 -10 -20 -17q8 -3 13.5 -8.5t11.5 -12.5l208 -231h-45q-8 0 -13.5 2t-11.5 9l-185 205q-8 9 -14.5 12t-20.5 3h-21v-231h-51v661h51z" />
    <glyph glyph-name="l" unicode="l" horiz-adv-x="205" 
d="M128 661v-661h-51v661h51z" />
    <glyph glyph-name="m" unicode="m" horiz-adv-x="746" 
d="M74 0v460h28q13 0 16 -12l3 -65q27 38 61 61.5t77 23.5q51 0 81.5 -29.5t41.5 -81.5q16 57 57 84t89 27q70 0 109.5 -44.5t39.5 -129.5v-294h-51v294q0 67 -28 101t-82 34q-23 0 -44 -8.5t-37 -25.5t-25.5 -42t-9.5 -59v-294h-51v294q0 66 -26 100.5t-76 34.5
q-37 0 -67.5 -22.5t-54.5 -60.5v-346h-51z" />
    <glyph glyph-name="n" unicode="n" horiz-adv-x="510" 
d="M121 380q32 41 73 64.5t93 23.5q77 0 115 -46.5t38 -127.5v-294h-51v294q0 63 -28.5 99t-87.5 36q-44 0 -81 -23t-67 -62v-344h-51v460h28q13 0 16 -12z" />
    <glyph glyph-name="o" unicode="o" horiz-adv-x="516" 
d="M258 468q50 0 89.5 -17t66.5 -47.5t41.5 -74.5t14.5 -98q0 -109 -56 -173t-156 -64t-155.5 64t-55.5 173q0 54 14.5 98t41.5 74.5t66 47.5t89 17zM258 33q80 0 120 53t40 144q0 92 -40 145.5t-120 53.5q-81 0 -120 -53.5t-39 -145.5q0 -90 39.5 -143.5t119.5 -53.5z" />
    <glyph glyph-name="p" unicode="p" horiz-adv-x="511" 
d="M125 102q26 -38 56 -54t72 -16q77 0 117.5 55.5t40.5 145.5q0 103 -36.5 149.5t-105.5 46.5q-45 0 -80.5 -23t-63.5 -64v-240zM122 379q30 42 70.5 65.5t91.5 23.5q85 0 132 -58.5t47 -176.5q0 -50 -13.5 -94t-39 -76t-62.5 -50.5t-85 -18.5q-47 0 -80 17t-58 49v-222
h-51v622h28q13 0 16 -12z" />
    <glyph glyph-name="q" unicode="q" horiz-adv-x="510" 
d="M386 359q-26 38 -57 54t-71 16q-79 0 -118.5 -55t-39.5 -145q0 -102 36 -148.5t104 -46.5q45 0 81 22.5t65 64.5v238zM436 460v-622h-50v243q-31 -41 -70.5 -64t-90.5 -23q-84 0 -131 58.5t-47 176.5q0 51 13 94.5t38.5 75.5t63 50.5t85.5 18.5t82 -18t60 -53l4 51
q1 12 16 12h27z" />
    <glyph glyph-name="r" unicode="r" horiz-adv-x="328" 
d="M122 350q20 57 54 87.5t88 30.5q15 0 29 -2t25 -10l-6 -34q-3 -8 -9 -8t-17 3.5t-29 3.5q-53 0 -82.5 -31.5t-49.5 -93.5v-296h-51v460h27q9 0 12.5 -3.5t4.5 -10.5z" />
    <glyph glyph-name="s" unicode="s" horiz-adv-x="395" 
d="M330 400q-5 -6 -12 -6q-6 0 -14 5.5t-20.5 12.5t-31.5 12.5t-46 5.5q-50 0 -78.5 -25t-28.5 -60q0 -28 18.5 -44t46.5 -27t61 -20t61 -23t46.5 -36t18.5 -60q0 -30 -10.5 -56t-31.5 -45t-51.5 -30t-70.5 -11q-48 0 -84 15t-64 40l12 19q3 3 6 5t9 2t15 -7t23 -15.5
t34.5 -15.5t50.5 -7q58 0 86 28.5t28 69.5q0 30 -18.5 47t-47 28t-61 20t-61 23t-47 36.5t-18.5 60.5q0 25 10.5 47.5t30.5 40t49 28t65 10.5q42 0 75.5 -12.5t60.5 -36.5z" />
    <glyph glyph-name="t" unicode="t" horiz-adv-x="319" 
d="M202 -7q-48 0 -74.5 26t-26.5 80v307h-64q-14 0 -14 11v19l80 6l11 163q2 10 14 10h24v-173h142v-36h-142v-304q0 -36 17.5 -52.5t43.5 -16.5q16 0 28 4.5t20 10t13.5 10t8.5 4.5q5 0 9 -5l14 -21q-19 -20 -47 -31.5t-57 -11.5z" />
    <glyph glyph-name="u" unicode="u" horiz-adv-x="509" 
d="M435 460v-460h-27q-14 0 -17 12l-3 69q-32 -41 -73 -64.5t-92 -23.5q-77 0 -115 46.5t-38 126.5v294h50v-294q0 -63 28 -98.5t88 -35.5q44 0 81.5 22t67.5 62v344h50z" />
    <glyph glyph-name="v" unicode="v" horiz-adv-x="466" 
d="M450 460l-195 -460h-45l-193 460h40q8 0 11.5 -3.5t5.5 -7.5l146 -353q5 -12 8.5 -23t5.5 -22q2 11 5 22t7 23l146 353q5 11 18 11h40z" />
    <glyph glyph-name="w" unicode="w" horiz-adv-x="710" 
d="M688 460l-152 -460h-40q-8 0 -11 11l-122 364q-2 8 -4 15t-3 14q-2 -7 -4.5 -14t-4.5 -15l-122 -364q-4 -11 -14 -11h-35l-155 460h39q7 0 12 -3.5t6 -7.5l112 -353q2 -12 4.5 -22.5t4.5 -21.5q3 11 6 21.5t7 22.5l118 355q5 12 15 12h22q12 0 14 -12l119 -355
q2 -12 5 -22.5t6 -21.5q2 11 4.5 21.5t5.5 22.5l111 353q9 11 18 11h38z" />
    <glyph glyph-name="x" unicode="x" horiz-adv-x="438" 
d="M420 0h-49q-8 0 -12 3.5t-6 8.5l-136 199q-2 -5 -3 -8t-3 -8l-130 -183q-3 -5 -7 -8.5t-11 -3.5h-45l166 235l-160 225h50q6 0 9.5 -3t6.5 -6l131 -191q3 10 8 16l122 174q3 4 6.5 7t9.5 3h46l-159 -222z" />
    <glyph glyph-name="y" unicode="y" horiz-adv-x="466" 
d="M451 460l-264 -607q-4 -7 -8 -11t-14 -4h-36l81 181l-194 441h43q8 0 12.5 -3.5t6.5 -7.5l149 -348q3 -9 5 -16t4 -15q3 8 5 15t6 16l146 348q2 5 7.5 8t10.5 3h40z" />
    <glyph glyph-name="z" unicode="z" horiz-adv-x="410" 
d="M379 441q0 -13 -8 -20l-281 -382h278v-39h-339v19q0 9 8 20l282 383h-275v38h335v-19z" />
    <glyph glyph-name="braceleft" unicode="{" horiz-adv-x="348" 
d="M53 229q30 3 47 16.5t25.5 37.5t10.5 58t2 77q0 39 3.5 71.5t15.5 56t36 36t66 12.5h36v-48h-26q-25 0 -41 -6.5t-25.5 -21.5t-13 -40t-3.5 -62q0 -45 -2 -78.5t-9 -58.5t-21 -42.5t-38 -29.5q24 -12 38 -30t21 -43.5t9 -59.5t2 -79q0 -37 3.5 -61t13 -38t25.5 -19.5
t41 -5.5h26v-47h-36q-42 0 -66 11.5t-36 33.5t-15.5 53.5t-3.5 71.5q0 43 -2 77.5t-10.5 58.5t-25.5 37.5t-47 15.5v46z" />
    <glyph glyph-name="bar" unicode="|" horiz-adv-x="172" 
d="M111 -176h-50v770h50v-770z" />
    <glyph glyph-name="braceright" unicode="}" horiz-adv-x="348" 
d="M53 0zM295.003 229q-29.998 3 -46.9971 16.5t-25.498 37.5q-8.5 24 -10.5 58q-1.99902 34 -1.99902 77q0 39 -3.5 71.5t-15.499 56t-35.998 36q-23.998 12.5 -65.9961 12.5h-35.998v-48h25.999q24.998 0 40.9971 -6.5t25.499 -21.5q9.49902 -15 12.999 -40t3.5 -62
q0 -45 2 -78.5q1.99902 -33.5 8.99902 -58.5q6.99902 -25 20.999 -42.5q13.999 -17.5 37.9971 -29.5q-23.998 -12 -37.9971 -30q-14 -18 -20.999 -43.5q-7 -25.5 -8.99902 -59.5q-2 -34 -2 -79q0 -37 -3.5 -61t-12.999 -38q-9.5 -14 -25.499 -19.5t-40.9971 -5.5h-25.999
v-47h35.998q41.998 0 65.9961 11.5q23.999 11.5 35.998 33.5t15.499 53.5t3.5 71.5q0 43 1.99902 77.5q2 34.5 10.5 58.5q8.49902 24 25.498 37.5t46.9971 15.5v46z" />
    <glyph glyph-name="nonbreakingspace" unicode="&#xa0;" horiz-adv-x="153" 
 />
    <glyph glyph-name="cent" unicode="&#xa2;" horiz-adv-x="534" 
d="M294 429q-82 -4 -126 -56.5t-44 -142.5q0 -88 40.5 -138t111.5 -57zM465 60q-21 -27 -63.5 -45.5t-96.5 -20.5l-4 -94q-2 -17 -15 -17h-20l5 112q-44 3 -80 20.5t-62 47.5t-40.5 72t-14.5 95q0 52 15 95t43.5 74.5t70 49.5t94.5 19l6 94q0 5 4 10t10 5h19l-5 -111
q40 -3 71.5 -17t54.5 -35l-14 -18q-2 -5 -9 -5q-5 0 -12.5 5t-20 11t-30.5 12t-43 8l-20 -395q33 1 56 9t38.5 17t24.5 16.5t14 7.5q7 0 10 -6z" />
    <glyph glyph-name="sterling" unicode="&#xa3;" horiz-adv-x="535" 
d="M26 304q0 18 20 18h73v129q0 43 12 80.5t36 64.5t60.5 42.5t84.5 15.5q35 0 62 -8.5t47.5 -23.5t35 -35t24.5 -42l-20 -11q-16 -10 -28 6q-9 14 -19 27t-24 23t-32.5 16t-45.5 6q-70 0 -105.5 -44.5t-35.5 -116.5v-129h219v-20q0 -14 -16 -14h-203v-134q0 -42 -17 -69
t-46 -46q11 2 23 3t23 1h355v-20q0 -9 -6.5 -16t-17.5 -7h-447v32q16 6 30.5 15.5t25.5 22.5t18 30.5t7 41.5v146h-93v16z" />
    <glyph glyph-name="currency" unicode="&#xa4;" horiz-adv-x="534" 
d="M268 188q25 0 47 9.5t38.5 26t26 39t9.5 47.5t-9.5 47.5t-26 39t-38.5 26t-47 9.5t-47 -9.5t-38.5 -26t-26.5 -39t-10 -47.5t10 -47.5t26.5 -39t38.5 -26t47 -9.5zM438 116l-70 69q-21 -17 -46 -26t-54 -9q-28 0 -53 9t-45 25l-73 -70l-25 25l71 72q-17 20 -26 45t-9 54
q0 28 9 53t25 46l-71 70l26 26l71 -71q21 17 46 26t54 9t54 -9t45 -25l70 71l26 -26l-70 -70q16 -21 25 -46t9 -54q0 -57 -34 -99l71 -71z" />
    <glyph glyph-name="yen" unicode="&#xa5;" horiz-adv-x="535" 
d="M303 282h157v-28h-168v-54h168v-31h-168v-169h-50v169h-166v31h166v54h-166v28h157l-194 365h41q15 0 20 -12l154 -295q5 -11 8.5 -19t5.5 -17q2 9 5.5 17t7.5 19l154 295q5 12 20 12h42z" />
    <glyph glyph-name="brokenbar" unicode="&#xa6;" horiz-adv-x="172" 
d="M111 280h-50v314h50v-314zM111 -176h-50v313h50v-313z" />
    <glyph glyph-name="copyright" unicode="&#xa9;" horiz-adv-x="776" 
d="M519 200q5 1 9 -3l17 -18q-27 -28 -63.5 -44t-90.5 -16q-45 0 -82 14t-64 40t-41.5 63t-14.5 84t15.5 84.5t43.5 64t66.5 41t83.5 14.5q49 0 82 -14t62 -40l-14 -16q-2 -2 -3.5 -4t-6.5 -2t-12.5 6t-20.5 13t-33.5 13t-51.5 6q-74 0 -119.5 -42.5t-45.5 -123.5
q0 -41 12 -71.5t33 -50.5t50 -30.5t63 -10.5q25 0 43 3t32.5 9t26.5 14t24 17zM53 320q0 69 26.5 130t72 106t106.5 71t130 26t129.5 -26t106 -71t71.5 -106t26 -130t-26 -129t-71.5 -104t-106 -69t-129.5 -25t-130 25t-106.5 69t-72 104t-26.5 129zM84 320
q0 -64 23.5 -118.5t64.5 -94.5t96.5 -63t119.5 -23q63 0 118.5 23t97 63t65 94.5t23.5 118.5t-23.5 119.5t-65 96.5t-97 65t-118.5 24q-64 0 -119.5 -24t-96.5 -65t-64.5 -96.5t-23.5 -119.5z" />
    <glyph glyph-name="guillemotleft" unicode="&#xab;" horiz-adv-x="396" 
d="M53 0zM101 205q0 -36 3.5 -67.5t13.5 -62t28 -62.5t48 -68l-30 -28q-36 39 -57.5 76.5t-33.5 74t-16 71.5t-4 70t4 70t16 71.5t33.5 74t57.5 76.5l30 -28q-30 -36 -48 -68t-28 -63.5t-13.5 -64.5t-3.5 -72zM250 205q0 -36 3.5 -67.5t13.5 -62t28 -62.5t48 -68l-30 -28
q-36 39 -57.5 76.5t-33.5 74t-16 71.5t-4 70t4 70t16 71.5t33.5 74t57.5 76.5l30 -28q-30 -36 -48 -68t-28 -63.5t-13.5 -64.5t-3.5 -72z" />
    <glyph glyph-name="logicalnot" unicode="&#xac;" horiz-adv-x="507" 
d="M408 275h-355v47h402v-261h-47v214z" />
    <glyph glyph-name="softHyphen" unicode="&#xad;" horiz-adv-x="446" 
d="M53 154zM53 154v49h341v-49h-341z" />
    <glyph glyph-name="registered" unicode="&#xae;" horiz-adv-x="776" 
d="M372 332q107 0 107 80q0 42 -23 59t-77 17h-73v-156h66zM560 124h-43q-9 0 -16 7l-119 157q-4 5 -9.5 8.5t-17.5 3.5h-49v-176h-45v400h118q146 0 146 -107q0 -46 -29.5 -73t-83.5 -34q7 -3 11 -8.5t9 -12.5zM53 320q0 69 26.5 130t72 106t106.5 71t130 26t129.5 -26
t106 -71t71.5 -106t26 -130t-26 -129t-71.5 -104t-106 -69t-129.5 -25t-130 25t-106.5 69t-72 104t-26.5 129zM84 320q0 -64 23.5 -118.5t64.5 -94.5t96.5 -63t119.5 -23q63 0 118.5 23t97 63t65 94.5t23.5 118.5t-23.5 119.5t-65 96.5t-97 65t-118.5 24q-64 0 -119.5 -24
t-96.5 -65t-64.5 -96.5t-23.5 -119.5z" />
    <glyph glyph-name="degree" unicode="&#xb0;" horiz-adv-x="358" 
d="M53 473q0 26 10 49t27 40t40 27t49 10t49 -10t40 -27t27 -40t10 -49t-10 -49t-27 -40t-40 -27t-49 -10t-49 10t-40 27t-27 40t-10 49zM93 473q0 -18 7 -33.5t18.5 -27t27 -18t33.5 -6.5q35 0 60 25t25 60q0 36 -25 60.5t-60 24.5t-60.5 -24.5t-25.5 -60.5z" />
    <glyph glyph-name="plusminus" unicode="&#xb1;" horiz-adv-x="507" 
d="M53 1zM53 1v48h402v-48h-402zM53 318v47h180v173h46v-173h176v-47h-176v-172h-46v172h-180z" />
    <glyph glyph-name="paragraph" unicode="&#xb6;" horiz-adv-x="426" 
d="M365 0h-47v555h-98v-555h-45v342q-35 0 -58.5 4t-37.5 16.5t-20 37t-6 66.5q0 41 6 66.5t20 39t38 18t59 4.5h189v-594z" />
    <glyph glyph-name="periodcentered" unicode="&#xb7;" horiz-adv-x="286" 
d="M86 198zM126 198q-22 0 -31 11.5t-9 34.5q0 24 9 35t31 11q21 0 30 -11t9 -35q0 -23 -9 -34.5t-30 -11.5z" />
    <glyph glyph-name="guillemotright" unicode="&#xbb;" horiz-adv-x="396" 
d="M53 0zM146.006 205q0 -36 -3.49902 -67.5q-3.5 -31.5 -13.5 -62q-9.99902 -30.5 -27.998 -62.5t-47.9971 -68l29.998 -28q35.998 39 57.4971 76.5q21.498 37.5 33.498 74q11.999 36.5 15.999 71.5q3.99902 35 3.99902 70t-3.99902 70q-4 35 -15.999 71.5
q-12 36.5 -33.498 74q-21.499 37.5 -57.4971 76.5l-29.998 -28q29.998 -36 47.9971 -68t27.998 -63.5q10 -31.5 13.5 -64.5q3.49902 -33 3.49902 -72zM295.006 205q0 -36 -3.49902 -67.5q-3.5 -31.5 -13.5 -62q-9.99902 -30.5 -27.998 -62.5t-47.9971 -68l29.998 -28
q35.998 39 57.4971 76.5q21.498 37.5 33.498 74q11.999 36.5 15.999 71.5q3.99902 35 3.99902 70t-3.99902 70q-4 35 -15.999 71.5q-12 36.5 -33.498 74q-21.499 37.5 -57.4971 76.5l-29.998 -28q29.998 -36 47.9971 -68t27.998 -63.5q10 -31.5 13.5 -64.5
q3.49902 -33 3.49902 -72z" />
    <glyph glyph-name="multiply" unicode="&#xd7;" horiz-adv-x="464" 
d="M53 347l32 34l147 -146l144 145l33 -33l-145 -145l147 -146l-34 -34l-147 147l-145 -146l-32 33l145 145z" />
    <glyph glyph-name="divide" unicode="&#xf7;" horiz-adv-x="507" 
d="M217 70h73v-70h-73v70zM217 460h73v-70h-73v70zM53 206v48h402v-48h-402z" />
    <glyph glyph-name="darhezar" unicode="&#x609;" horiz-adv-x="1036" 
d="M856 210q25 0 48 -11t40.5 -28.5t28 -40t10.5 -45.5q0 -24 -10.5 -46.5t-28 -40t-40.5 -28t-48 -10.5t-47.5 10.5t-40 28t-28 40t-10.5 46.5q0 23 10.5 45.5t28 40t40 28.5t47.5 11zM856 4q16 0 31 6.5t27 18t19 26t7 30.5q0 15 -7 30t-19 26.5t-27 18.5t-31 7
q-15 0 -30 -7t-27 -18.5t-19.5 -26.5t-7.5 -30q0 -16 7.5 -30.5t19.5 -26t27 -18t30 -6.5zM535 210q25 0 48 -11t40.5 -28.5t28 -40t10.5 -45.5q0 -24 -10.5 -46.5t-28 -40t-40.5 -28t-48 -10.5t-47.5 10.5t-40 28t-28 40t-10.5 46.5q0 23 10.5 45.5t28 40t40 28.5t47.5 11z
M535 4q15 0 30 6.5t27 18t19 26t7 30.5q0 15 -7 30t-19 26.5t-27 18.5t-30 7t-30 -7t-27 -18.5t-19.5 -26.5t-7.5 -30q0 -16 7.5 -30.5t19.5 -26t27 -18t30 -6.5zM179 286q-24 0 -47 10.5t-40.5 28t-28 40t-10.5 46.5q0 23 10.5 45.5t28 40t40.5 28t47 10.5q25 0 48 -10.5
t40.5 -28t28 -40t10.5 -45.5q0 -24 -10.5 -46.5t-28 -40t-40.5 -28t-48 -10.5zM179 492q-15 0 -30 -7t-27 -18t-19.5 -26t-7.5 -30q0 -16 7.5 -30.5t19.5 -26t27 -18.5t30 -7q16 0 31 7t27 18.5t19 26t7 30.5q0 15 -7 30t-19 26t-27 18t-31 7zM535 572l39 -25l-394 -624
l-39 26z" />
    <glyph glyph-name="darDahezar" unicode="&#x60a;" horiz-adv-x="1357" 
d="M1177 210q25 0 48 -11t40.5 -28.5t28 -40t10.5 -45.5q0 -24 -10.5 -46.5t-28 -40t-40.5 -28t-48 -10.5q-24 0 -47 10.5t-40.5 28t-28 40t-10.5 46.5q0 23 10.5 45.5t28 40t40.5 28.5t47 11zM1177 4q16 0 31 6.5t27 18t19 26t7 30.5q0 15 -7 30t-19 26.5t-27 18.5t-31 7
q-15 0 -30 -7t-27 -18.5t-19 -26.5t-7 -30q0 -16 7 -30.5t19 -26t27 -18t30 -6.5zM856 210q25 0 48 -11t40.5 -28.5t28 -40t10.5 -45.5q0 -24 -10.5 -46.5t-28 -40t-40.5 -28t-48 -10.5t-47.5 10.5t-40 28t-28 40t-10.5 46.5q0 23 10.5 45.5t28 40t40 28.5t47.5 11zM856 4
q16 0 31 6.5t27 18t19 26t7 30.5q0 15 -7 30t-19 26.5t-27 18.5t-31 7q-15 0 -30 -7t-27 -18.5t-19.5 -26.5t-7.5 -30q0 -16 7.5 -30.5t19.5 -26t27 -18t30 -6.5zM535 210q25 0 48 -11t40.5 -28.5t28 -40t10.5 -45.5q0 -24 -10.5 -46.5t-28 -40t-40.5 -28t-48 -10.5
t-47.5 10.5t-40 28t-28 40t-10.5 46.5q0 23 10.5 45.5t28 40t40 28.5t47.5 11zM535 4q15 0 30 6.5t27 18t19 26t7 30.5q0 15 -7 30t-19 26.5t-27 18.5t-30 7t-30 -7t-27 -18.5t-19.5 -26.5t-7.5 -30q0 -16 7.5 -30.5t19.5 -26t27 -18t30 -6.5zM179 286q-24 0 -47 10.5
t-40.5 28t-28 40t-10.5 46.5q0 23 10.5 45.5t28 40t40.5 28t47 10.5q25 0 48 -10.5t40.5 -28t28 -40t10.5 -45.5q0 -24 -10.5 -46.5t-28 -40t-40.5 -28t-48 -10.5zM179 492q-15 0 -30 -7t-27 -18t-19.5 -26t-7.5 -30q0 -16 7.5 -30.5t19.5 -26t27 -18.5t30 -7q16 0 31 7
t27 18.5t19 26t7 30.5q0 15 -7 30t-19 26t-27 18t-31 7zM535 572l39 -25l-394 -624l-39 26z" />
    <glyph glyph-name="virgul" unicode="&#x60c;" horiz-adv-x="207" 
d="M104 0q-22 0 -31 11.5t-9 36.5q0 46 2 74.5t9.5 44.5t23 23.5t42.5 13.5v-37q-15 -4 -23.5 -8t-12.5 -11.5t-5 -20.5t-1 -35q25 0 34.5 -10.5t9.5 -35.5q0 -23 -9 -34.5t-30 -11.5z" />
    <glyph glyph-name="tarikh.sep" unicode="&#x60d;" horiz-adv-x="392" 
d="M291 281l40 -27l-230 -364l-40 27z" />
    <glyph glyph-name="noqte_virgul" unicode="&#x61b;" horiz-adv-x="207" 
d="M64 0zM104 242q-22 0 -31 11.5t-9 36.5q0 46 2 74.5t9.5 44.5t23 23.5t42.5 13.5v-37q-15 -4 -23.5 -8t-12.5 -11.5t-5 -20.5t-1 -35q25 0 34.5 -10.5t9.5 -35.5q0 -23 -9 -34.5t-30 -11.5zM104 0q-22 0 -31 11.5t-9 34.5q0 24 9 35t31 11q21 0 30 -11t9 -35
q0 -23 -9 -34.5t-30 -11.5z" />
    <glyph glyph-name="soal" unicode="&#x61f;" horiz-adv-x="417" 
d="M305 422q0 26 -5 49.5t-16.5 41t-30.5 28t-47 10.5q-20 0 -37 -7.5t-30 -20t-20 -29.5t-7 -36q0 -32 16 -55t41 -48q22 -22 35.5 -38t20.5 -34t9.5 -42t2.5 -63h-49q0 33 -1.5 52t-7.5 33.5t-17.5 27.5t-30.5 33q-26 27 -46.5 58t-20.5 75q0 33 12 59.5t31.5 45t45.5 29
t53 10.5q38 0 65.5 -13t45.5 -36.5t26.5 -56.5t8.5 -73h-47zM209 0q-20 0 -28.5 10t-8.5 32q0 24 8.5 34t28.5 10t29 -10t9 -34q0 -42 -38 -42z" />
    <glyph glyph-name="kashidas" unicode="&#x640;" horiz-adv-x="165" 
d="M165 53q13 0 17.5 -7t4.5 -19q0 -14 -4.5 -20.5t-17.5 -6.5h-165q-13 0 -17.5 6.5t-4.5 18.5q0 14 4.5 21t17.5 7h165z" />
    <glyph glyph-name=".an" unicode="&#x64b;" 
d="M0 0zM108 128l13 -32l-227 -96l-13 32zM107 251l13 -32l-227 -96l-13 32z" />
    <glyph glyph-name=".on" unicode="&#x64c;" 
d="M2 83q-31 17 -44 41.5t-13 46.5q0 19 7 37t20 31.5t30.5 21.5t38.5 8q42 0 68.5 -27.5t26.5 -67.5q0 -32 -20 -59.5t-72 -49.5l-155 -65l-14 30v89q0 22 -19 22h-43v33h52q18 0 29 -10t11 -35v-85zM-23 172q0 -23 16.5 -43.5t42.5 -31.5q26 10 46.5 28t20.5 45
q0 25 -16 45.5t-46 20.5q-33 0 -48.5 -21t-15.5 -43z" />
    <glyph glyph-name=".en" unicode="&#x64d;" 
d="M0 0zM108 -123l13 -32l-227 -96l-13 32zM107 1l13 -32l-227 -96l-13 32z" />
    <glyph glyph-name=".a" unicode="&#x64e;" 
d="M107 128l13 -32l-227 -96l-13 32z" />
    <glyph glyph-name=".o" unicode="&#x64f;" 
d="M-131 32l127 51q-31 17 -44 41.5t-13 46.5q0 19 7 37t20 31.5t30.5 21.5t38.5 8q42 0 68 -27.5t26 -67.5q0 -32 -19.5 -59.5t-71.5 -49.5l-155 -65zM-29 172q0 -23 16.5 -43.5t42.5 -31.5q26 10 46.5 28t20.5 45q0 25 -16 45.5t-46 20.5q-33 0 -48.5 -21t-15.5 -43z" />
    <glyph glyph-name=".e" unicode="&#x650;" 
d="M0 0zM107 1l13 -32l-227 -96l-13 32z" />
    <glyph glyph-name=".shdd" unicode="&#x651;" 
d="M0 13q-14 -13 -30 -13h-28q-13 0 -29.5 4t-31 16.5t-24.5 36t-10 62.5v63h35v-76q0 -41 18.5 -56.5t46.5 -15.5h36v148h34v-148h36q28 0 46.5 15.5t18.5 56.5v76h34v-63q0 -39 -10 -62.5t-24.5 -36t-31 -16.5t-29.5 -4h-27q-10 0 -16 3t-14 10z" />
    <glyph glyph-name=".skn" unicode="&#x652;" 
d="M-105 104q0 22 8.5 41t22.5 33t33.5 22t40.5 8q22 0 41 -8t33 -22t22.5 -33t8.5 -41t-8.5 -41t-22.5 -33t-33 -22t-41 -8q-21 0 -40.5 8t-33.5 22t-22.5 33t-8.5 41zM-71 104q0 -29 21 -49.5t50 -20.5t49.5 20.5t20.5 49.5t-20.5 50t-49.5 21t-50 -21t-21 -50z" />
    <glyph glyph-name=".mad" unicode="&#x653;" 
d="M-15 75q-18 0 -30 -2t-22.5 -9.5t-22 -22.5t-29.5 -41l-24 16q20 32 34 51t27.5 28.5t29 12t39.5 2.5h155l-5 -35h-152z" />
    <glyph glyph-name=".thmz" unicode="&#x654;" 
d="M101 88l-185 -94l-16 31l73 36q-35 7 -50.5 33t-15.5 53q0 42 26 68t68 26h47l-5 -35h-35q-32 0 -49.5 -18t-17.5 -43q0 -28 19.5 -44.5t42.5 -16.5q15 0 36.5 10t48.5 24z" />
    <glyph glyph-name=".bhmz" unicode="&#x655;" 
d="M0 0zM101 -152l-185 -94l-16 31l73 36q-35 7 -50.5 33t-15.5 53q0 42 26 68t68 26h47l-5 -35h-35q-32 0 -49.5 -18t-17.5 -43q0 -28 19.5 -44.5t42.5 -16.5q15 0 36.5 10t48.5 24z" />
    <glyph glyph-name=".i" unicode="&#x656;" 
d="M0 0zM-17 0h34v-171h-34v171z" />
    <glyph glyph-name="sefr.arab" unicode="&#x660;" horiz-adv-x="455" 
d="M53 49zM227 390q33 0 64.5 -14.5t56 -38t39.5 -54.5t15 -64t-15 -63.5t-39.5 -54.5t-56 -38t-64.5 -14t-64.5 14t-55.5 38t-39 54.5t-15 63.5t15 64t39 54.5t55.5 38t64.5 14.5zM227 97q23 0 45.5 10t40.5 26.5t29.5 38.5t11.5 47q0 23 -11.5 45t-29.5 39t-40.5 27.5
t-45.5 10.5t-45.5 -10.5t-40.5 -27.5t-29 -39t-11 -45q0 -25 11 -47t29 -38.5t40.5 -26.5t45.5 -10z" />
    <glyph glyph-name="yek.arab" unicode="&#x661;" horiz-adv-x="203" 
d="M44 0zM93 -61v243q0 60 -4 105.5t-10.5 84t-15.5 73t-19 70.5l48 18q13 -41 22.5 -78t15.5 -77t9 -86.5t3 -104.5v-248h-49z" />
    <glyph glyph-name="do.arab" unicode="&#x662;" horiz-adv-x="415" 
d="M44 0zM228 247q-28 0 -52 10.5t-38 35.5q2 -24 3 -53t1 -57v-244h-49v243q0 60 -4 105.5t-10.5 84t-15.5 73t-19 70.5l48 18q7 -27 12.5 -47.5t10 -38t8.5 -34t10 -35.5q11 -37 32.5 -58t58.5 -21q17 0 33 5.5t29 15.5t20.5 25t7.5 35q0 26 -4.5 63.5t-12.5 79.5l49 10
q8 -37 12.5 -75.5t4.5 -73.5q0 -31 -10.5 -56.5t-29 -43.5t-43 -27.5t-52.5 -9.5z" />
    <glyph glyph-name="se.arab" unicode="&#x663;" horiz-adv-x="622" 
d="M44 0zM346 533q8 -37 12.5 -75.5t4.5 -73.5q0 -8 -1 -18.5t-5 -23.5q14 -20 35.5 -31.5t42.5 -11.5q18 0 33.5 6.5t27.5 17.5t19 24.5t7 28.5q0 29 -4 67t-12 80l48 10q8 -37 12 -76.5t4 -77.5q0 -27 -10.5 -51t-28 -42t-41.5 -28.5t-51 -10.5q-28 0 -53.5 12t-51.5 40
q-17 -24 -44 -38t-62 -14q-28 0 -52 10.5t-38 35.5q2 -24 3 -53t1 -57v-244h-49v243q0 60 -4 105.5t-10.5 84t-15.5 73t-19 70.5l48 18q7 -27 12.5 -47.5t10 -38t8.5 -34t10 -35.5q11 -37 32.5 -58t58.5 -21q17 0 33 5.5t29 15.5t20.5 25t7.5 35q0 26 -4.5 63.5t-12.5 79.5
l49 10v0z" />
    <glyph glyph-name="char.arab" unicode="&#x664;" horiz-adv-x="403" 
d="M53 56q0 16 5.5 34.5t20.5 39.5t42 45t70 51q-36 5 -62.5 18.5t-43 33t-24.5 43t-8 48.5q0 33 13 63.5t35.5 54.5t53.5 38t67 14q30 0 53 -7.5t48 -19.5l-15 -47q-20 10 -41.5 16t-41.5 6q-26 0 -48.5 -9.5t-39 -25.5t-26 -37t-9.5 -43q0 -49 36 -76t100 -27h43v-39
q-54 -31 -89 -55t-54.5 -43.5t-27 -35.5t-7.5 -31q0 -28 22 -48t70 -20h166l-6 -52h-163q-71 0 -105 31.5t-34 79.5z" />
    <glyph glyph-name="panj.arab" unicode="&#x665;" horiz-adv-x="520" 
d="M53 104q0 29 8 62t27.5 72.5t53 86.5t85.5 104l-42 41l34 36q71 -67 119 -122t77 -102.5t41 -88t12 -77.5q0 -44 -15.5 -78t-43.5 -57t-66.5 -35t-84.5 -12h-12q-96 0 -144.5 46t-48.5 124zM418 115q0 26 -8 56t-26.5 65t-49.5 74.5t-76 84.5q-82 -85 -119 -155t-37 -129
q0 -56 35.5 -90.5t109.5 -34.5h11q77 0 118.5 35t41.5 94z" />
    <glyph glyph-name="shish.arab" unicode="&#x666;" horiz-adv-x="447" 
d="M357 280q0 -60 3 -106t9.5 -85t15.5 -73.5t21 -69.5l-47 -18q-13 39 -22.5 75t-16 76t-10 87t-3.5 109v186q0 16 -15 16q-4 0 -21 -1.5t-40 -4t-49.5 -4t-48.5 -1.5q-29 0 -55.5 5.5t-43.5 31.5l21 40q13 -15 30 -20t52 -5q54 0 98 5.5t73 5.5q26 0 37.5 -12t11.5 -38
v-199z" />
    <glyph glyph-name="haft.arab" unicode="&#x667;" horiz-adv-x="552" 
d="M35 0zM276 53q25 126 73.5 248t126.5 243l41 -29q-36 -56 -69 -117.5t-61.5 -131.5t-52 -151t-40.5 -176h-36q-17 95 -40.5 176t-52 151t-61.5 131.5t-69 117.5l41 29q78 -121 126.5 -243t73.5 -248z" />
    <glyph glyph-name="hasht.arab" unicode="&#x668;" horiz-adv-x="552" 
d="M35 0zM276 420q-25 -126 -73.5 -248.5t-126.5 -243.5l-41 30q36 56 69 117.5t61.5 131.5t52 150.5t40.5 175.5h36q17 -95 40.5 -175.5t52 -150.5t61.5 -131.5t69 -117.5l-41 -30q-78 121 -126.5 243.5t-73.5 248.5z" />
    <glyph glyph-name="noh.arab" unicode="&#x669;" horiz-adv-x="442" 
d="M48 0zM332 -61v292q-35 -18 -70 -23.5t-65 -5.5q-39 0 -67.5 11t-46.5 30t-26.5 45t-8.5 56q0 36 11.5 71t33 62.5t53 44.5t71.5 17q45 0 76 -19.5t50.5 -53t28.5 -78.5t9 -96v-353h-49zM332 287q0 44 -6.5 81t-21.5 63.5t-38 41.5t-56 15q-27 0 -48 -12.5t-35.5 -32.5
t-22.5 -45t-8 -50q0 -43 28 -68t82 -25q69 0 126 32z" />
    <glyph glyph-name="darsad" unicode="&#x66a;" horiz-adv-x="714" 
d="M535 210q25 0 48 -11t40.5 -28.5t28 -40t10.5 -45.5q0 -24 -10.5 -46.5t-28 -40t-40.5 -28t-48 -10.5t-47.5 10.5t-40 28t-28 40t-10.5 46.5q0 23 10.5 45.5t28 40t40 28.5t47.5 11zM535 4q15 0 30 6.5t27 18t19 26t7 30.5q0 15 -7 30t-19 26.5t-27 18.5t-30 7t-30 -7
t-27 -18.5t-19.5 -26.5t-7.5 -30q0 -16 7.5 -30.5t19.5 -26t27 -18t30 -6.5zM179 286q-24 0 -47 10.5t-40.5 28t-28 40t-10.5 46.5q0 23 10.5 45.5t28 40t40.5 28t47 10.5q25 0 48 -10.5t40.5 -28t28 -40t10.5 -45.5q0 -24 -10.5 -46.5t-28 -40t-40.5 -28t-48 -10.5z
M179 492q-15 0 -30 -7t-27 -18t-19.5 -26t-7.5 -30q0 -16 7.5 -30.5t19.5 -26t27 -18.5t30 -7q16 0 31 7t27 18.5t19 26t7 30.5q0 15 -7 30t-19 26t-27 18t-31 7zM535 572l39 -25l-394 -624l-39 26z" />
    <glyph glyph-name="sad.sep" unicode="&#x66b;" horiz-adv-x="392" 
d="M61 0zM291 281l40 -27l-230 -364l-40 27z" />
    <glyph glyph-name="hezar.sep" unicode="&#x66c;" horiz-adv-x="202" 
d="M61 0zM100.006 131q21.999 0 30.999 -11.499q8.99902 -11.5 8.99902 -36.498q0 -45.9971 -2 -74.4951q-2 -28.499 -9.49902 -44.498q-7.5 -15.999 -22.999 -23.498q-15.499 -7.5 -42.4971 -13.499v36.9971q14.999 4 23.498 8q8.5 4 12.5 11.499
q3.99902 7.5 4.99902 20.499t1 34.998q-24.998 0 -34.498 10.499q-9.49902 10.499 -9.49902 35.498q0 22.998 8.99902 34.498q9 11.499 29.998 11.499z" />
    <glyph glyph-name="setare" unicode="&#x66d;" horiz-adv-x="507" 
d="M149 0l-36 30l106 140l-166 59l16 42l163 -61l-1 179h45l-2 -179l164 61l16 -42l-167 -59l106 -140l-36 -30l-103 146z" />
    <glyph glyph-name=".aa" unicode="&#x670;" 
d="M-17 171h34v-171h-34v171z" />
    <glyph glyph-name="re.bv" unicode="&#x695;" horiz-adv-x="218" 
d="M0 0zM160 16q0 -60 -18.5 -107.5t-50.5 -81t-75.5 -51.5t-94.5 -18h-57l-5 52h51q52 0 90 17t62.5 45.5t36 66t11.5 77.5v268h50v-268v0zM131 -283l29 -17l-95 -185h-28l-95 185l29 17l80 -161z" />
    <glyph glyph-name="lam.tv" unicode="&#x6b5;" horiz-adv-x="662" 
d="M53 0zM590 19q0 -53 -17 -100.5t-48.5 -83t-77 -56.5t-101.5 -21h-57q-112 0 -174 69t-62 189v173h49v-172q0 -46 12 -84t36 -65.5t60.5 -42.5t86.5 -15h44q49 0 86.5 16.5t62.5 44.5t38 65.5t13 78.5v605h49v-601zM420 618l29 -17l-95 -185h-28l-95 185l29 17l80 -161z
" />
    <glyph glyph-name="he.dochashmi" unicode="&#x6be;" horiz-adv-x="681" 
d="M54 0zM54 207q0 34 12 65.5t35 55.5t56 38t74 14t72 -14t51.5 -37.5t30.5 -53t10 -59.5q0 -51 -24 -90t-70 -73h179q45 0 70 21t25 55q0 17 -7.5 35.5t-24.5 38.5l-188 213l37 35l190 -216q26 -31 36 -58.5t10 -53.5q0 -54 -38 -88.5t-107 -34.5h-115q-35 0 -64 0.5
t-50 4.5q-34 -29 -72 -60t-86 -63l-31 41q37 23 72.5 48.5t63.5 49.5q-73 28 -110 78.5t-37 107.5zM225 329q-28 0 -51 -10t-39 -26.5t-25 -39.5t-9 -48q0 -29 12.5 -54t33 -43.5t46.5 -31t54 -17.5q14 10 31.5 24.5t33 32.5t26 39.5t10.5 46.5q0 56 -33.5 91.5t-89.5 35.5z
" />
    <glyph glyph-name="he.thmz.goal" unicode="&#x6c2;" horiz-adv-x="458" 
d="M53 0zM53 154q0 31 8 58.5t25.5 56t45 60t66.5 70.5l-46 47l35 37q62 -62 104 -106.5t67.5 -80.5t36.5 -66.5t11 -63.5q0 -36 -13.5 -66t-38 -52.5t-57.5 -35t-72 -12.5t-71 11.5t-54.5 32t-34.5 49t-12 61.5zM356 164q0 22 -6.5 43t-21 44.5t-39 50.5t-60.5 62
q-41 -40 -65.5 -69.5t-38.5 -53t-18.5 -43t-4.5 -38.5q0 -46 32.5 -76.5t90.5 -30.5q28 0 52.5 9t41.5 24t27 35t10 43zM316 656l-185 -94l-16 31l73 36q-35 7 -50.5 33t-15.5 53q0 42 26 68t68 26h47l-5 -35h-35q-32 0 -49.5 -18t-17.5 -43q0 -28 19.5 -44.5t42.5 -16.5
q15 0 36.5 10t48.5 24z" />
    <glyph glyph-name="vav.t2p" unicode="&#x6ca;" horiz-adv-x="450" 
d="M39 0zM147 -190q46 0 82 15t60.5 41t38 60.5t15.5 73.5h-113q-51 0 -84 11t-52 31.5t-26.5 50t-7.5 65.5q0 37 10.5 71.5t31.5 60t52 41t72 15.5q33 0 63 -11t53 -34.5t36.5 -60.5t13.5 -90v-134q0 -51 -16.5 -98t-47 -82.5t-75 -56.5t-100.5 -21h-108l-6 52h108z
M108 160q0 -29 6 -49t21.5 -33t41.5 -19t66 -6h100v86q0 82 -32.5 119t-89.5 37q-54 0 -83.5 -37t-29.5 -98zM324 464h-69v60h69v-60zM204 464h-69v60h69v-60z" />
    <glyph glyph-name="ye.tv" unicode="&#x6ce;" horiz-adv-x="676" 
d="M53 0zM365 -190q42 0 80 12.5t66.5 34t45.5 51t17 63.5q0 15 -3.5 28t-12.5 22.5t-25.5 15.5t-42.5 6h-175v165q0 75 44 121.5t120 46.5h115l5 -52h-125q-20 0 -39.5 -7t-35 -21t-25 -35t-9.5 -49v-118h135q37 0 61 -9.5t37.5 -25t19 -36.5t5.5 -43q0 -46 -20 -86.5
t-54 -70.5t-79.5 -47.5t-96.5 -17.5h-84q-112 0 -174 69t-62 189v173h49v-172q0 -46 12 -84t36 -65.5t60.5 -42.5t86.5 -15h68zM245 516l29 -17l-95 -185h-28l-95 185l29 17l80 -161z" />
    <glyph glyph-name="ae" unicode="&#x6d5;" horiz-adv-x="458" 
d="M53 0zM53 154q0 31 8 58.5t25.5 56t45 60t66.5 70.5l-46 47l35 37q62 -62 104 -106.5t67.5 -80.5t36.5 -66.5t11 -63.5q0 -36 -13.5 -66t-38 -52.5t-57.5 -35t-72 -12.5t-71 11.5t-54.5 32t-34.5 49t-12 61.5zM356 164q0 22 -6.5 43t-21 44.5t-39 50.5t-60.5 62
q-41 -40 -65.5 -69.5t-38.5 -53t-18.5 -43t-4.5 -38.5q0 -46 32.5 -76.5t90.5 -30.5q28 0 52.5 9t41.5 24t27 35t10 43z" />
    <glyph glyph-name="sefr" unicode="&#x6f0;" horiz-adv-x="455" 
d="M227 390q33 0 64.5 -14.5t56 -38t39.5 -54.5t15 -64t-15 -63.5t-39.5 -54.5t-56 -38t-64.5 -14t-64.5 14t-55.5 38t-39 54.5t-15 63.5t15 64t39 54.5t55.5 38t64.5 14.5zM227 97q23 0 45.5 10t40.5 26.5t29.5 38.5t11.5 47q0 23 -11.5 45t-29.5 39t-40.5 27.5t-45.5 10.5
t-45.5 -10.5t-40.5 -27.5t-29 -39t-11 -45q0 -25 11 -47t29 -38.5t40.5 -26.5t45.5 -10z" />
    <glyph glyph-name="yek" unicode="&#x6f1;" horiz-adv-x="199" 
d="M89 -61v243q0 60 -4 105.5t-10.5 84t-15.5 73t-19 70.5l48 18q13 -41 22.5 -78t15.5 -77t9 -86.5t3 -104.5v-248h-49z" />
    <glyph glyph-name="do" unicode="&#x6f2;" horiz-adv-x="411" 
d="M224 247q-28 0 -52 10.5t-38 35.5q2 -24 3 -53t1 -57v-244h-49v243q0 60 -4 105.5t-10.5 84t-15.5 73t-19 70.5l48 18q7 -27 12.5 -47.5t10 -38t8.5 -34t10 -35.5q11 -37 32.5 -58t58.5 -21q17 0 33 5.5t29 15.5t20.5 25t7.5 35q0 26 -4.5 63.5t-12.5 79.5l49 10
q8 -37 12.5 -75.5t4.5 -73.5q0 -31 -10.5 -56.5t-29 -43.5t-43 -27.5t-52.5 -9.5z" />
    <glyph glyph-name="se" unicode="&#x6f3;" horiz-adv-x="617" 
d="M342 533q8 -37 12.5 -75.5t4.5 -73.5q0 -8 -1 -18.5t-5 -23.5q14 -20 35.5 -31.5t42.5 -11.5q18 0 33.5 6.5t27.5 17.5t19 24.5t7 28.5q0 29 -4 67t-12 80l48 10q8 -37 12 -76.5t4 -77.5q0 -27 -10.5 -51t-28 -42t-41.5 -28.5t-51 -10.5q-28 0 -53.5 12t-51.5 40
q-17 -24 -44 -38t-62 -14q-28 0 -52 10.5t-38 35.5q2 -24 3 -53t1 -57v-244h-49v243q0 60 -4 105.5t-10.5 84t-15.5 73t-19 70.5l48 18q7 -27 12.5 -47.5t10 -38t8.5 -34t10 -35.5q11 -37 32.5 -58t58.5 -21q17 0 33 5.5t29 15.5t20.5 25t7.5 35q0 26 -4.5 63.5t-12.5 79.5
l49 10v0z" />
    <glyph glyph-name="char" unicode="&#x6f4;" horiz-adv-x="529" 
d="M298 209q-47 0 -91.5 15t-70.5 40q2 -17 2 -37.5v-43.5v-244h-49v243q0 60 -4 105.5t-10.5 84t-15.5 73t-19 70.5l48 18q13 -45 22.5 -84.5t19.5 -89.5q3 -12 7 -24.5t13.5 -23.5t25.5 -21.5t43 -19.5q-14 13 -22.5 28t-13 30t-5.5 29t-1 25q0 32 12.5 60.5t35 50
t52.5 34t65 12.5q25 0 51 -5.5t59 -20.5l-16 -47q-32 13 -53 17.5t-41 4.5q-52 0 -84.5 -33t-32.5 -83q0 -24 8 -44.5t20.5 -35.5t29 -24t33.5 -9q41 0 79 11.5t69 26.5l16 -45q-54 -24 -97 -33.5t-85 -9.5z" />
    <glyph glyph-name="panj" unicode="&#x6f5;" horiz-adv-x="611" 
d="M53 83q0 33 8.5 70t32.5 82t66.5 101.5t110.5 130.5l-48 42l31 36q96 -80 155.5 -144.5t93 -117.5t45 -97.5t11.5 -85.5q0 -44 -13 -75t-34 -51.5t-47 -30t-52 -9.5q-38 0 -65.5 14t-44.5 35q-21 -25 -51 -37t-59 -12q-64 0 -102 39.5t-38 109.5zM511 98q0 31 -8.5 66.5
t-31.5 76.5t-63.5 89t-103.5 104q-105 -104 -154 -189t-49 -151q0 -55 27 -81.5t69 -26.5q16 0 33 5.5t31 17t22.5 29t8.5 42.5v72h47v-69q0 -20 -3.5 -34t-8.5 -25q33 -38 85 -38q39 0 69 28t30 84z" />
    <glyph glyph-name="shish" unicode="&#x6f6;" horiz-adv-x="431" 
d="M302 469q-22 11 -44 15t-41 4q-25 0 -46 -9.5t-36.5 -25.5t-24 -37t-8.5 -44q0 -53 31.5 -80.5t82.5 -27.5q37 0 75 10.5t75 30.5l25 -35q-36 -32 -71 -72t-67.5 -84.5t-62.5 -92t-56 -93.5l-42 28q18 31 40.5 67t48 72t52 70t52.5 63q-26 -7 -48.5 -9t-44.5 -1
q-35 3 -61.5 15.5t-43.5 32.5t-25.5 46t-8.5 55q0 31 11.5 62t32.5 55.5t51 39.5t66 15q26 0 49.5 -5.5t55.5 -21.5z" />
    <glyph glyph-name="haft" unicode="&#x6f7;" horiz-adv-x="540" 
d="M270 53q25 126 73.5 248t126.5 243l41 -29q-36 -56 -69 -117.5t-61.5 -131.5t-52 -151t-40.5 -176h-36q-17 95 -40.5 176t-52 151t-61.5 131.5t-69 117.5l41 29q78 -121 126.5 -243t73.5 -248z" />
    <glyph glyph-name="hasht" unicode="&#x6f8;" horiz-adv-x="540" 
d="M270 420q-25 -126 -73.5 -248.5t-126.5 -243.5l-41 30q36 56 69 117.5t61.5 131.5t52 150.5t40.5 175.5h36q17 -95 40.5 -175.5t52 -150.5t61.5 -131.5t69 -117.5l-41 -30q-78 121 -126.5 243.5t-73.5 248.5z" />
    <glyph glyph-name="noh" unicode="&#x6f9;" horiz-adv-x="442" 
d="M331 -61v292q-35 -18 -70 -23.5t-65 -5.5q-39 0 -67.5 11t-46.5 30t-26.5 45t-8.5 56q0 36 11.5 71t33 62.5t53 44.5t71.5 17q45 0 76 -19.5t50.5 -53t28.5 -78.5t9 -96v-353h-49zM331 287q0 44 -6.5 81t-21.5 63.5t-38 41.5t-56 15q-27 0 -48 -12.5t-35.5 -32.5
t-22.5 -45t-8 -50q0 -43 28 -68t82 -25q69 0 126 32z" />
    <glyph glyph-name="enQuad_Space" unicode="&#x2000;" horiz-adv-x="550" 
 />
    <glyph glyph-name="enQuad_Space" unicode="&#x2002;" horiz-adv-x="550" 
 />
    <glyph glyph-name="emQuad_Space" unicode="&#x2001;" horiz-adv-x="1100" 
 />
    <glyph glyph-name="emQuad_Space" unicode="&#x2003;" horiz-adv-x="1100" 
 />
    <glyph glyph-name="3_Mspace" unicode="&#x2004;" horiz-adv-x="330" 
 />
    <glyph glyph-name="4_Mspace" unicode="&#x2005;" horiz-adv-x="275" 
 />
    <glyph glyph-name="6_Mspace" unicode="&#x2006;" horiz-adv-x="165" 
 />
    <glyph glyph-name="figureSpace" unicode="&#x2007;" horiz-adv-x="605" 
 />
    <glyph glyph-name="punctuationSpace" unicode="&#x2008;" horiz-adv-x="165" 
 />
    <glyph glyph-name="thin_hairSpace" unicode="&#x2009;" horiz-adv-x="165" 
 />
    <glyph glyph-name="thin_hairSpace" unicode="&#x200a;" horiz-adv-x="165" 
 />
    <glyph glyph-name="zwspace" unicode="&#x200b;" 
 />
    <glyph glyph-name="zwNONjoiner" unicode="&#x200c;" 
d="M22 490v-600h-44v600h44z" />
    <glyph glyph-name="zwjoiner" unicode="&#x200d;" 
d="M22 -109h-44v448l-59 -60l-29 29l79 79l-79 77l31 31l79 -80l79 80l31 -31l-79 -77l79 -79l-29 -29l-59 60v-448z" />
    <glyph glyph-name="LTR_mark" unicode="&#x200e;" horiz-adv-x="385" 
d="M77 0zM199.012 599l-26.999 -28l58.9971 -57h-153.991v-624h39.998v580h113.993l-58.9971 -59l26.999 -28l108.993 109z" />
    <glyph glyph-name="RTL_mark" unicode="&#x200f;" horiz-adv-x="385" 
d="M186 599l27 -28l-59 -57h154v-624h-40v580h-114l59 -59l-27 -28l-109 109z" />
    <glyph glyph-name="hyphen" unicode="&#x2010;" horiz-adv-x="446" 
d="M53 154v49h341v-49h-341z" />
    <glyph glyph-name="nb_hyphen" unicode="&#x2011;" horiz-adv-x="446" 
d="M53 154zM53 154v49h341v-49h-341z" />
    <glyph glyph-name="figuredash" unicode="&#x2012;" horiz-adv-x="471" 
d="M10 154zM10 154v49h451v-49h-451z" />
    <glyph glyph-name="endash" unicode="&#x2013;" horiz-adv-x="471" 
d="M10 154v49h451v-49h-451z" />
    <glyph glyph-name="emdash" unicode="&#x2014;" horiz-adv-x="933" 
d="M10 154v49h913v-49h-913z" />
    <glyph glyph-name="horizontal_bar" unicode="&#x2015;" horiz-adv-x="1018" 
d="M53 154zM53 154v49h913v-49h-913z" />
    <glyph glyph-name="quoteleft" unicode="&#x2018;" horiz-adv-x="202" 
d="M63 411zM103 411q-22 0 -31 11.5t-9 36.5q0 46 2 74.5t9.5 44.5t23 23.5t42.5 13.5v-37q-15 -4 -23.5 -8t-12.5 -11.5t-5 -20.5t-1 -35q25 0 34.5 -10.5t9.5 -35.5q0 -23 -9 -34.5t-30 -11.5z" />
    <glyph glyph-name="quoteright" unicode="&#x2019;" horiz-adv-x="202" 
d="M61 406zM100.006 610q21.999 0 30.999 -11.499q8.99902 -11.5 8.99902 -36.498q0 -45.9971 -2 -74.4951q-2 -28.499 -9.49902 -44.498q-7.5 -15.999 -22.999 -23.498q-15.499 -7.5 -42.4971 -13.499v36.9971q14.999 4 23.498 8q8.5 4 12.5 11.499
q3.99902 7.5 4.99902 20.499t1 34.998q-24.998 0 -34.498 10.499q-9.49902 10.499 -9.49902 35.498q0 22.998 8.99902 34.498q9 11.499 29.998 11.499z" />
    <glyph glyph-name="quotedblleft" unicode="&#x201c;" horiz-adv-x="334" 
d="M63 411zM103 411q-22 0 -31 11.5t-9 36.5q0 46 2 74.5t9.5 44.5t23 23.5t42.5 13.5v-37q-15 -4 -23.5 -8t-12.5 -11.5t-5 -20.5t-1 -35q25 0 34.5 -10.5t9.5 -35.5q0 -23 -9 -34.5t-30 -11.5zM234 411q-22 0 -31 11.5t-9 36.5q0 46 2 74.5t9.5 44.5t23 23.5t42.5 13.5
v-37q-15 -4 -23.5 -8t-12.5 -11.5t-5 -20.5t-1 -35q25 0 34.5 -10.5t9.5 -35.5q0 -23 -9 -34.5t-30 -11.5z" />
    <glyph glyph-name="quotedblright" unicode="&#x201d;" horiz-adv-x="334" 
d="M61 406zM100.006 610q21.999 0 30.999 -11.499q8.99902 -11.5 8.99902 -36.498q0 -45.9971 -2 -74.4951q-2 -28.499 -9.49902 -44.498q-7.5 -15.999 -22.999 -23.498q-15.499 -7.5 -42.4971 -13.499v36.9971q14.999 4 23.498 8q8.5 4 12.5 11.499
q3.99902 7.5 4.99902 20.499t1 34.998q-24.998 0 -34.498 10.499q-9.49902 10.499 -9.49902 35.498q0 22.998 8.99902 34.498q9 11.499 29.998 11.499zM233.006 610q21.999 0 30.999 -11.499q8.99902 -11.5 8.99902 -36.498q0 -45.9971 -2 -74.4951
q-2 -28.499 -9.49902 -44.498q-7.5 -15.999 -22.999 -23.498q-15.499 -7.5 -42.4971 -13.499v36.9971q14.999 4 23.498 8q8.5 4 12.5 11.499q3.99902 7.5 4.99902 20.499t1 34.998q-24.998 0 -34.498 10.499q-9.49902 10.499 -9.49902 35.498q0 22.998 8.99902 34.498
q9 11.499 29.998 11.499z" />
    <glyph glyph-name="bullet" unicode="&#x2022;" horiz-adv-x="399" 
d="M199 0q-30 0 -57 11.5t-46.5 31t-31 46.5t-11.5 57t11.5 57t31 47t46.5 31.5t57 11.5t57 -11.5t47.5 -31.5t32 -47t11.5 -57t-11.5 -57t-32 -46.5t-47.5 -31t-57 -11.5z" />
    <glyph glyph-name="ellipsis" unicode="&#x2026;" horiz-adv-x="642" 
d="M63 0zM322 0q-22 0 -31 11.5t-9 34.5q0 24 9 35t31 11q21 0 30 -11t9 -35q0 -23 -9 -34.5t-30 -11.5zM542 0q-22 0 -31 11.5t-9 34.5q0 24 9 35t31 11q21 0 30 -11t9 -35q0 -23 -9 -34.5t-30 -11.5zM103 0q-22 0 -31 11.5t-9 34.5q0 24 9 35t31 11q21 0 30 -11t9 -35
q0 -23 -9 -34.5t-30 -11.5z" />
    <glyph glyph-name="line_seperator" unicode="&#x2028;" 
 />
    <glyph glyph-name="paragraph_seperator" unicode="&#x2029;" 
 />
    <glyph glyph-name="LTRembedding" unicode="&#x202a;" 
d="M-32 516h-62v27h62v-27zM-6 543h46l-37 37l19 19l72 -71l-72 -70l-19 21l37 37h-46v27z" />
    <glyph glyph-name="RTLembedding" unicode="&#x202b;" 
d="M0 458zM31.998 516h61.9961v27h-61.9961v-27zM6 543h-45.998l36.998 37l-18.999 19l-71.9951 -71l71.9951 -70l18.999 21l-36.998 37h45.998v27z" />
    <glyph glyph-name="pop.directional.formatting_PDF" unicode="&#x202c;" 
d="M-51 509l-21 19l72 71l71 -71l-20 -19l-37 37v-95h-28v93z" />
    <glyph glyph-name="LTRoverride" unicode="&#x202d;" 
d="M-52 580l20 19l70 -71l-70 -70l-20 21l38 37h-102v27h102zM25 580l19 19l72 -71l-72 -70l-19 21l51 49z" />
    <glyph glyph-name="RTLoverride" unicode="&#x202e;" 
d="M0 458zM51.9971 580l-19.999 19l-69.9961 -71l69.9961 -70l19.999 21l-37.998 37h101.994v27h-101.994zM-24.998 580l-18.999 19l-71.9961 -71l71.9961 -70l18.999 21l-50.9971 49z" />
    <glyph glyph-name="narrow_nbspace" unicode="&#x202f;" horiz-adv-x="55" 
 />
    <glyph glyph-name="guilsinglleft" unicode="&#x2039;" horiz-adv-x="247" 
d="M101 205q0 -36 3.5 -67.5t13.5 -62t28 -62.5t48 -68l-30 -28q-36 39 -57.5 76.5t-33.5 74t-16 71.5t-4 70t4 70t16 71.5t33.5 74t57.5 76.5l30 -28q-30 -36 -48 -68t-28 -63.5t-13.5 -64.5t-3.5 -72z" />
    <glyph glyph-name="guilsinglright" unicode="&#x203a;" horiz-adv-x="247" 
d="M53 0zM146.006 205q0 -36 -3.49902 -67.5q-3.5 -31.5 -13.5 -62q-9.99902 -30.5 -27.998 -62.5t-47.9971 -68l29.998 -28q35.998 39 57.4971 76.5q21.498 37.5 33.498 74q11.999 36.5 15.999 71.5q3.99902 35 3.99902 70t-3.99902 70q-4 35 -15.999 71.5
q-12 36.5 -33.498 74q-21.499 37.5 -57.4971 76.5l-29.998 -28q29.998 -36 47.9971 -68t27.998 -63.5q10 -31.5 13.5 -64.5q3.49902 -33 3.49902 -72z" />
    <glyph glyph-name="fraction" unicode="&#x2044;" horiz-adv-x="539" 
d="M53 0zM447 572l39 -25l-394 -624l-39 26z" />
    <glyph glyph-name="reversed_pilcrow_paragraph" unicode="&#x204b;" horiz-adv-x="426" 
d="M61 0zM61.0225 0h46.9971v555h97.9941v-555h44.9971v342q34.998 0 58.4961 4q23.499 4 37.498 16.5t19.999 37q5.99902 24.5 5.99902 66.5q0 41 -5.99902 66.5q-6 25.5 -19.999 39t-37.998 18q-23.998 4.5 -58.9961 4.5h-188.988v-594z" />
    <glyph glyph-name="word_joiner" unicode="&#x2060;" horiz-adv-x="880" 
 />
    <glyph glyph-name="Euro" unicode="&#x20ac;" horiz-adv-x="535" 
d="M8 394h75q17 122 81.5 191t167.5 69q60 0 102 -20.5t76 -60.5l-16 -18q-6 -8 -12 -8t-15.5 10t-26 22t-42 22t-64.5 10q-81 0 -133 -55.5t-65 -161.5h273v-16q0 -6 -4 -10.5t-12 -4.5h-260q-1 -10 -2 -21t-1 -22v-18t2 -17h234v-16q0 -6 -4 -10.5t-12 -4.5h-215
q11 -112 63 -165.5t133 -53.5q42 0 69.5 11.5t44.5 26t27 26t18 11.5q4 0 9 -5l20 -17q-32 -44 -78 -69.5t-112 -25.5q-106 0 -169.5 66.5t-78.5 194.5h-73v31h71v35v22t1 21h-72v31z" />
    <glyph glyph-name="trademark" unicode="&#x2122;" horiz-adv-x="686" 
d="M44 647h218v-29h-90v-236h-38v236h-90v29zM608 647v-265h-32v199l1 21l-97 -172q-4 -7 -13 -7h-6q-9 0 -13 7l-100 172l3 -21v-199h-34v265h31q5 0 7.5 -0.5t6.5 -5.5l97 -163q1 -5 2 -8t3 -7q2 4 2.5 7t2.5 8l96 163q4 6 13 6h30z" />
    <glyph glyph-name="estimated" unicode="&#x212e;" horiz-adv-x="769" 
d="M656 366q0 55 -18.5 102t-53 81t-83 53t-108.5 19q-57 0 -105 -19t-83.5 -53t-55.5 -81t-22 -102h529zM127 291q0 -48 19.5 -95.5t56 -84.5t89.5 -60t121 -23q78 0 138.5 30t105.5 87l28 -20q-46 -61 -115.5 -96.5t-168.5 -35.5q-80 0 -144 26t-109 71t-69 104.5
t-24 127.5q0 71 24.5 132t69 105.5t106.5 69.5t137 25q76 0 136.5 -24.5t103 -67.5t65.5 -101.5t25 -125.5h-595v-44z" />
    <glyph glyph-name="infinity" unicode="&#x221e;" horiz-adv-x="876" 
d="M438 161q-29 -41 -55 -69.5t-51.5 -47t-52.5 -27t-57 -8.5q-35 0 -65.5 11.5t-53.5 34.5t-36.5 57.5t-13.5 80.5q0 45 13.5 79.5t36.5 57.5t53.5 34.5t65.5 11.5q30 0 57 -8.5t52.5 -27t51.5 -47.5t55 -69q29 40 55.5 69t52 47.5t52 27t56.5 8.5q34 0 65 -11.5t54 -34.5
t36.5 -57.5t13.5 -79.5q0 -46 -13.5 -80.5t-36.5 -57.5t-54 -34.5t-65 -11.5q-30 0 -56.5 8.5t-52 27t-52 47t-55.5 69.5zM465 193q41 -63 87 -99t93 -36q62 0 96 35t34 100q0 64 -34 98.5t-96 34.5q-47 0 -93 -35.5t-87 -97.5zM411 193q-41 62 -87 97.5t-94 35.5
q-61 0 -95 -34.5t-34 -98.5q0 -65 34 -100t95 -35q48 0 94 36t87 99z" />
    <glyph glyph-name="approxequal" unicode="&#x2248;" horiz-adv-x="507" 
d="M153 347q33 0 55.5 -10.5t44 -23t45.5 -23t59 -10.5q23 0 47 7.5t46 16.5l5 -43q-24 -11 -50.5 -19.5t-50.5 -8.5q-35 0 -59 10.5t-45 23t-44 23t-56 10.5q-23 0 -47 -8t-47 -17l-3 44q23 11 49 19.5t51 8.5zM153 163q33 0 55.5 -10.5t44 -23.5t45.5 -23.5t59 -10.5
q23 0 47 7.5t46 16.5l5 -43q-23 -10 -49.5 -19t-51.5 -9q-35 0 -59 10.5t-45 23.5t-44 23.5t-56 10.5q-23 0 -47 -8t-47 -18l-3 45q23 10 49.5 19t50.5 9z" />
    <glyph glyph-name="notequal" unicode="&#x2260;" horiz-adv-x="507" 
d="M230 80l-57 -149l-40 17l49 132h-129v46h147l54 139h-201v47h219l59 150l40 -17l-53 -133h137v-47h-154l-54 -139h208v-46h-225z" />
    <glyph glyph-name="lessequal" unicode="&#x2264;" horiz-adv-x="507" 
d="M53 1zM423 189l-21 -46l-328 178v52l328 179l21 -47l-299 -158zM53 1v48h402v-48h-402z" />
    <glyph glyph-name="greaterequal" unicode="&#x2265;" horiz-adv-x="507" 
d="M53 1zM67.0244 189l20.999 -46l327.979 178v52l-327.979 179l-20.999 -47l298.981 -158zM53 1v48h402v-48h-402z" />
    <glyph glyph-name="black_small_square" unicode="&#x25aa;" horiz-adv-x="365" 
d="M313 260v-260h-260v260h260z" />
    <glyph glyph-name="white_small_square" unicode="&#x25ab;" horiz-adv-x="365" 
d="M313 260v-260h-260v260h260zM98 46h169v164h-169v-164z" />
    <glyph glyph-name="black_upsmall_triangle" unicode="&#x25b4;" horiz-adv-x="444" 
d="M392 0h-339l169 294z" />
    <glyph glyph-name="white_upsmall_triangle" unicode="&#x25b5;" horiz-adv-x="444" 
d="M392 0h-339l169 294zM121 41h199l-99 177z" />
    <glyph glyph-name="black_rightsmall_triangle" unicode="&#x25b8;" horiz-adv-x="400" 
d="M53 -7v339l295 -169z" />
    <glyph glyph-name="white_rightsmall_triangle" unicode="&#x25b9;" horiz-adv-x="399" 
d="M347 163l-294 -170v339zM268 163l-175 99v-199z" />
    <glyph glyph-name="black_downsmall_triangle" unicode="&#x25be;" horiz-adv-x="444" 
d="M53 287h339l-170 -294z" />
    <glyph glyph-name="white_downsmall_triangle" unicode="&#x25bf;" horiz-adv-x="444" 
d="M392 287l-170 -294l-169 294h339zM221 70l99 176h-199z" />
    <glyph glyph-name="black_leftsmall_triangle" unicode="&#x25c2;" horiz-adv-x="399" 
d="M347 332v-339l-294 170z" />
    <glyph glyph-name="white_leftsmall_triangle" unicode="&#x25c3;" horiz-adv-x="399" 
d="M347 332v-339l-294 170zM305 63v199l-175 -99z" />
    <glyph glyph-name="dotted.ring" unicode="&#x25cc;" horiz-adv-x="636" 
d="M181 87h87v-87h-87v87zM368 87h87v-87h-87v87zM181 484h87v-87h-87v87zM368 484h87v-87h-87v87zM496 285h87v-86h-87v86zM53 285h86v-86h-86v86z" />
    <glyph glyph-name="white_bullet" unicode="&#x25e6;" horiz-adv-x="397" 
d="M53 145q0 30 11.5 57t31 46.5t46 31t56.5 11.5t56.5 -11.5t46.5 -31t31.5 -46.5t11.5 -57t-11.5 -56.5t-31.5 -46t-46.5 -31t-56.5 -11.5t-56.5 11.5t-46 31t-31 46t-11.5 56.5zM99 145q0 -42 28.5 -70t70.5 -28t70.5 28t28.5 70t-28.5 71t-70.5 29t-70.5 -29t-28.5 -71z
" />
    <glyph glyph-name="t1p" unicode="&#xfbb2;" 
d="M37 0h-74v61h74v-61z" />
    <glyph glyph-name="b1p" unicode="&#xfbb3;" 
d="M37 -61h-74v61h74v-61z" />
    <glyph glyph-name="t2p" unicode="&#xfbb4;" 
d="M94 0h-69v60h69v-60zM-26 0h-69v60h69v-60z" />
    <glyph glyph-name="b2p" unicode="&#xfbb5;" 
d="M94 -60h-65v60h65v-60zM-29 -60h-66v60h66v-60z" />
    <glyph glyph-name="t3p" unicode="&#xfbb6;" 
d="M35 111h-70v60h70v-60zM94 0h-69v60h69v-60zM-26 0h-69v60h69v-60z" />
    <glyph glyph-name="b3p" unicode="&#xfbb9;" 
d="M35 -172h-70v61h70v-61zM94 -60h-69v60h69v-60zM-26 -60h-69v60h69v-60z" />
    <glyph glyph-name="parantez_left" unicode="&#xfd3e;" horiz-adv-x="290" 
d="M102 214q0 -65 7.5 -116.5t24 -94t42.5 -80t62 -75.5l-30 -30q-35 35 -64 73.5t-49 85t-31 103.5t-11 129t11 129t31 103.5t49 84.5t64 73l30 -30q-36 -38 -62 -75t-42.5 -78.5t-24 -91t-7.5 -110.5z" />
    <glyph glyph-name="parantez_right" unicode="&#xfd3f;" horiz-adv-x="290" 
d="M52 0zM188.006 204.013q0 64.9961 -7.49902 116.493q-7.5 51.4971 -23.999 93.9941q-16.499 42.498 -42.4971 79.9951q-25.998 37.498 -61.9961 75.4951l29.998 29.999q34.998 -34.998 63.9961 -73.4961q28.998 -38.4971 48.9971 -84.9941
q19.999 -46.498 30.998 -103.494t10.999 -128.992q0 -71.9951 -10.999 -128.992q-10.999 -56.9961 -30.998 -103.493q-19.999 -46.498 -48.9971 -84.4951q-28.998 -37.998 -63.9961 -72.9961l-29.998 29.999q35.998 37.9971 61.9961 74.9951t42.4971 78.4951t23.999 90.9941
q7.49902 49.4971 7.49902 110.493z" />
    <glyph glyph-name="zwnbspace" unicode="&#xfeff;" 
 />
    <glyph glyph-name="obj" unicode="&#xfffc;" horiz-adv-x="869" 
d="M847 555h-132v39h132v-39zM616 555h-129v39h129v-39zM847 342h-40v130h40v-130zM704 253q0 -50 -21 -74t-60 -24h-26v44h26q20 0 29 11t9 40v189h43v-186zM385 555h-131v39h131v-39zM847 0h-132v40h132v-40zM563 239q0 -38 -19.5 -61t-74.5 -23h-78v284h83q50 0 65.5 -21
t15.5 -54q0 -18 -8 -34.5t-25 -24.5q23 -9 32 -27t9 -39zM154 555h-132v39h132v-39zM616 0h-129v40h129v-40zM341 297q0 -72 -19.5 -109.5t-77.5 -37.5q-29 0 -47 9.5t-28 28t-13.5 46t-3.5 63.5q0 35 3.5 62.5t13.5 46t28 28.5t47 10q31 0 50 -10t29.5 -28.5t14 -46
t3.5 -62.5zM63 342h-41v130h41v-130zM385 0h-131v40h131v-40zM154 0h-132v40h132v-40zM517 361q0 19 -8.5 29t-42.5 10h-40v-79h39q32 0 42 9.5t10 30.5zM524 239q0 22 -12 33t-47 11h-39v-92h43q37 0 46 12.5t9 35.5zM297 297q0 27 -1 47.5t-6.5 34t-16 20t-29.5 6.5
q-36 0 -43.5 -26.5t-7.5 -81.5q0 -53 7.5 -80.5t43.5 -27.5q19 0 29.5 7t16 20.5t6.5 34t1 46.5zM847 122h-40v131h40v-131zM63 122h-41v131h41v-131z" />
    <glyph glyph-name="kashidas.Narrow" horiz-adv-x="82" 
d="M-22 25q0 14 4.5 21t17.5 7h82q23 0 23 -26q0 -27 -23 -27h-82q-13 0 -17.5 6.5t-4.5 18.5z" />
    <glyph glyph-name="kashidas.Wide" horiz-adv-x="248" 
d="M248 53q12 0 16.5 -7t4.5 -19q0 -14 -4.5 -20.5t-16.5 -6.5h-248q-13 0 -17.5 6.5t-4.5 18.5q0 14 4.5 21t17.5 7h248z" />
    <glyph glyph-name="he.arab.isol" horiz-adv-x="681" 
d="M54 207q0 34 12 65.5t35 55.5t56 38t74 14t72 -14t51.5 -37.5t30.5 -53t10 -59.5q0 -51 -24 -90t-70 -73h179q45 0 70 21t25 55q0 17 -7.5 35.5t-24.5 38.5l-188 213l37 35l190 -216q26 -31 36 -58.5t10 -53.5q0 -54 -38 -88.5t-107 -34.5h-115q-35 0 -64 0.5t-50 4.5
q-34 -29 -72 -60t-86 -63l-31 41q37 23 72.5 48.5t63.5 49.5q-73 28 -110 78.5t-37 107.5zM225 329q-28 0 -51 -10t-39 -26.5t-25 -39.5t-9 -48q0 -29 12.5 -54t33 -43.5t46.5 -31t54 -17.5q14 10 31.5 24.5t33 32.5t26 39.5t10.5 46.5q0 56 -33.5 91.5t-89.5 35.5z" />
    <glyph glyph-name=".seperator" horiz-adv-x="523" 
d="M411 476l-299 -423h299v423zM411 558h-299v-433zM460 0h-396v610h396v-610z" />
    <glyph glyph-name="sefr.tnum" horiz-adv-x="605" 
d="M128 49zM302 390q33 0 64.5 -14.5t56 -38t39.5 -54.5t15 -64t-15 -63.5t-39.5 -54.5t-56 -38t-64.5 -14t-64.5 14t-55.5 38t-39 54.5t-15 63.5t15 64t39 54.5t55.5 38t64.5 14.5zM302 97q23 0 45.5 10t40.5 26.5t29.5 38.5t11.5 47q0 23 -11.5 45t-29.5 39t-40.5 27.5
t-45.5 10.5t-45.5 -10.5t-40.5 -27.5t-29 -39t-11 -45q0 -25 11 -47t29 -38.5t40.5 -26.5t45.5 -10z" />
    <glyph glyph-name="yek.tnum" horiz-adv-x="605" 
d="M253 0zM302 -61v243q0 60 -4 105.5t-10.5 84t-15.5 73t-19 70.5l48 18q13 -41 22.5 -78t15.5 -77t9 -86.5t3 -104.5v-248h-49z" />
    <glyph glyph-name="do.tnum" horiz-adv-x="605" 
d="M143 0zM327 247q-28 0 -52 10.5t-38 35.5q2 -24 3 -53t1 -57v-244h-49v243q0 60 -4 105.5t-10.5 84t-15.5 73t-19 70.5l48 18q7 -27 12.5 -47.5t10 -38t8.5 -34t10 -35.5q11 -37 32.5 -58t58.5 -21q17 0 33 5.5t29 15.5t20.5 25t7.5 35q0 26 -4.5 63.5t-12.5 79.5l49 10
q8 -37 12.5 -75.5t4.5 -73.5q0 -31 -10.5 -56.5t-29 -43.5t-43 -27.5t-52.5 -9.5z" />
    <glyph glyph-name="se.tnum" horiz-adv-x="605" 
d="M39 0zM341 533q8 -37 12.5 -75.5t4.5 -73.5q0 -8 -1 -18.5t-5 -23.5q14 -20 35.5 -31.5t42.5 -11.5q18 0 33.5 6.5t27.5 17.5t19 24.5t7 28.5q0 29 -4 67t-12 80l48 10q8 -37 12 -76.5t4 -77.5q0 -27 -10.5 -51t-28 -42t-41.5 -28.5t-51 -10.5q-28 0 -53.5 12t-51.5 40
q-17 -24 -44 -38t-62 -14q-28 0 -52 10.5t-38 35.5q2 -24 3 -53t1 -57v-244h-49v243q0 60 -4 105.5t-10.5 84t-15.5 73t-19 70.5l48 18q7 -27 12.5 -47.5t10 -38t8.5 -34t10 -35.5q11 -37 32.5 -58t58.5 -21q17 0 33 5.5t29 15.5t20.5 25t7.5 35q0 26 -4.5 63.5t-12.5 79.5
l49 10v0z" />
    <glyph glyph-name="char.tnum" horiz-adv-x="605" 
d="M82 0zM340 209q-47 0 -91.5 15t-70.5 40q2 -17 2 -37.5v-43.5v-244h-49v243q0 60 -4 105.5t-10.5 84t-15.5 73t-19 70.5l48 18q13 -45 22.5 -84.5t19.5 -89.5q3 -12 7 -24.5t13.5 -23.5t25.5 -21.5t43 -19.5q-14 13 -22.5 28t-13 30t-5.5 29t-1 25q0 32 12.5 60.5t35 50
t52.5 34t65 12.5q25 0 51 -5.5t59 -20.5l-16 -47q-32 13 -53 17.5t-41 4.5q-52 0 -84.5 -33t-32.5 -83q0 -24 8 -44.5t20.5 -35.5t29 -24t33.5 -9q41 0 79 11.5t69 26.5l16 -45q-54 -24 -97 -33.5t-85 -9.5z" />
    <glyph glyph-name="panj.tnum" horiz-adv-x="605" 
d="M50 0zM50 83q0 33 8.5 70t32.5 82t66.5 101.5t110.5 130.5l-48 42l31 36q96 -80 155.5 -144.5t93 -117.5t45 -97.5t11.5 -85.5q0 -44 -13 -75t-34 -51.5t-47 -30t-52 -9.5q-38 0 -65.5 14t-44.5 35q-21 -25 -51 -37t-59 -12q-64 0 -102 39.5t-38 109.5zM508 98
q0 31 -8.5 66.5t-31.5 76.5t-63.5 89t-103.5 104q-105 -104 -154 -189t-49 -151q0 -55 27 -81.5t69 -26.5q16 0 33 5.5t31 17t22.5 29t8.5 42.5v72h47v-69q0 -20 -3.5 -34t-8.5 -25q33 -38 85 -38q39 0 69 28t30 84z" />
    <glyph glyph-name="shish.tnum" horiz-adv-x="605" 
d="M134 0zM383 469q-22 11 -44 15t-41 4q-25 0 -46 -9.5t-36.5 -25.5t-24 -37t-8.5 -44q0 -53 31.5 -80.5t82.5 -27.5q37 0 75 10.5t75 30.5l25 -35q-36 -32 -71 -72t-67.5 -84.5t-62.5 -92t-56 -93.5l-42 28q18 31 40.5 67t48 72t52 70t52.5 63q-26 -7 -48.5 -9t-44.5 -1
q-35 3 -61.5 15.5t-43.5 32.5t-25.5 46t-8.5 55q0 31 11.5 62t32.5 55.5t51 39.5t66 15q26 0 49.5 -5.5t55.5 -21.5z" />
    <glyph glyph-name="haft.tnum" horiz-adv-x="605" 
d="M62 0zM303 53q25 126 73.5 248t126.5 243l41 -29q-36 -56 -69 -117.5t-61.5 -131.5t-52 -151t-40.5 -176h-36q-17 95 -40.5 176t-52 151t-61.5 131.5t-69 117.5l41 29q78 -121 126.5 -243t73.5 -248z" />
    <glyph glyph-name="hasht.tnum" horiz-adv-x="605" 
d="M62 0zM303 420q-25 -126 -73.5 -248.5t-126.5 -243.5l-41 30q36 56 69 117.5t61.5 131.5t52 150.5t40.5 175.5h36q17 -95 40.5 -175.5t52 -150.5t61.5 -131.5t69 -117.5l-41 -30q-78 121 -126.5 243.5t-73.5 248.5z" />
    <glyph glyph-name="noh.tnum" horiz-adv-x="605" 
d="M136 0zM420 -61v292q-35 -18 -70 -23.5t-65 -5.5q-39 0 -67.5 11t-46.5 30t-26.5 45t-8.5 56q0 36 11.5 71t33 62.5t53 44.5t71.5 17q45 0 76 -19.5t50.5 -53t28.5 -78.5t9 -96v-353h-49zM420 287q0 44 -6.5 81t-21.5 63.5t-38 41.5t-56 15q-27 0 -48 -12.5t-35.5 -32.5
t-22.5 -45t-8 -50q0 -43 28 -68t82 -25q69 0 126 32z" />
    <glyph glyph-name="sefr.arab.tnum" horiz-adv-x="605" 
d="M128 49zM302 390q33 0 64.5 -14.5t56 -38t39.5 -54.5t15 -64t-15 -63.5t-39.5 -54.5t-56 -38t-64.5 -14t-64.5 14t-55.5 38t-39 54.5t-15 63.5t15 64t39 54.5t55.5 38t64.5 14.5zM302 97q23 0 45.5 10t40.5 26.5t29.5 38.5t11.5 47q0 23 -11.5 45t-29.5 39t-40.5 27.5
t-45.5 10.5t-45.5 -10.5t-40.5 -27.5t-29 -39t-11 -45q0 -25 11 -47t29 -38.5t40.5 -26.5t45.5 -10z" />
    <glyph glyph-name="yek.arab.tnum" horiz-adv-x="605" 
d="M253 0zM302 -61v243q0 60 -4 105.5t-10.5 84t-15.5 73t-19 70.5l48 18q13 -41 22.5 -78t15.5 -77t9 -86.5t3 -104.5v-248h-49z" />
    <glyph glyph-name="do.arab.tnum" horiz-adv-x="605" 
d="M143 0zM327 247q-28 0 -52 10.5t-38 35.5q2 -24 3 -53t1 -57v-244h-49v243q0 60 -4 105.5t-10.5 84t-15.5 73t-19 70.5l48 18q7 -27 12.5 -47.5t10 -38t8.5 -34t10 -35.5q11 -37 32.5 -58t58.5 -21q17 0 33 5.5t29 15.5t20.5 25t7.5 35q0 26 -4.5 63.5t-12.5 79.5l49 10
q8 -37 12.5 -75.5t4.5 -73.5q0 -31 -10.5 -56.5t-29 -43.5t-43 -27.5t-52.5 -9.5z" />
    <glyph glyph-name="se.arab.tnum" horiz-adv-x="605" 
d="M39 0zM341 533q8 -37 12.5 -75.5t4.5 -73.5q0 -8 -1 -18.5t-5 -23.5q14 -20 35.5 -31.5t42.5 -11.5q18 0 33.5 6.5t27.5 17.5t19 24.5t7 28.5q0 29 -4 67t-12 80l48 10q8 -37 12 -76.5t4 -77.5q0 -27 -10.5 -51t-28 -42t-41.5 -28.5t-51 -10.5q-28 0 -53.5 12t-51.5 40
q-17 -24 -44 -38t-62 -14q-28 0 -52 10.5t-38 35.5q2 -24 3 -53t1 -57v-244h-49v243q0 60 -4 105.5t-10.5 84t-15.5 73t-19 70.5l48 18q7 -27 12.5 -47.5t10 -38t8.5 -34t10 -35.5q11 -37 32.5 -58t58.5 -21q17 0 33 5.5t29 15.5t20.5 25t7.5 35q0 26 -4.5 63.5t-12.5 79.5
l49 10v0z" />
    <glyph glyph-name="char.arab.tnum" horiz-adv-x="605" 
d="M149 0zM149 56q0 16 5.5 34.5t20.5 39.5t42 45t70 51q-36 5 -62.5 18.5t-43 33t-24.5 43t-8 48.5q0 33 13 63.5t35.5 54.5t53.5 38t67 14q30 0 53 -7.5t48 -19.5l-15 -47q-20 10 -41.5 16t-41.5 6q-26 0 -48.5 -9.5t-39 -25.5t-26 -37t-9.5 -43q0 -49 36 -76t100 -27h43
v-39q-54 -31 -89 -55t-54.5 -43.5t-27 -35.5t-7.5 -31q0 -28 22 -48t70 -20h166l-6 -52h-163q-71 0 -105 31.5t-34 79.5z" />
    <glyph glyph-name="panj.arab.tnum" horiz-adv-x="605" 
d="M95 0zM95 104q0 29 8 62t27.5 72.5t53 86.5t85.5 104l-42 41l34 36q71 -67 119 -122t77 -102.5t41 -88t12 -77.5q0 -44 -15.5 -78t-43.5 -57t-66.5 -35t-84.5 -12h-12q-96 0 -144.5 46t-48.5 124zM460 115q0 26 -8 56t-26.5 65t-49.5 74.5t-76 84.5q-82 -85 -119 -155
t-37 -129q0 -56 35.5 -90.5t109.5 -34.5h11q77 0 118.5 35t41.5 94z" />
    <glyph glyph-name="shish.arab.tnum" horiz-adv-x="605" 
d="M116 0zM439 280q0 -60 3 -106t9.5 -85t15.5 -73.5t21 -69.5l-47 -18q-13 39 -22.5 75t-16 76t-10 87t-3.5 109v186q0 16 -15 16q-4 0 -21 -1.5t-40 -4t-49.5 -4t-48.5 -1.5q-29 0 -55.5 5.5t-43.5 31.5l21 40q13 -15 30 -20t52 -5q54 0 98 5.5t73 5.5q26 0 37.5 -12
t11.5 -38v-199z" />
    <glyph glyph-name="haft.arab.tnum" horiz-adv-x="605" 
d="M62 0zM303 53q25 126 73.5 248t126.5 243l41 -29q-36 -56 -69 -117.5t-61.5 -131.5t-52 -151t-40.5 -176h-36q-17 95 -40.5 176t-52 151t-61.5 131.5t-69 117.5l41 29q78 -121 126.5 -243t73.5 -248z" />
    <glyph glyph-name="hasht.arab.tnum" horiz-adv-x="605" 
d="M62 0zM303 420q-25 -126 -73.5 -248.5t-126.5 -243.5l-41 30q36 56 69 117.5t61.5 131.5t52 150.5t40.5 175.5h36q17 -95 40.5 -175.5t52 -150.5t61.5 -131.5t69 -117.5l-41 -30q-78 121 -126.5 243.5t-73.5 248.5z" />
    <glyph glyph-name="noh.arab.tnum" horiz-adv-x="605" 
d="M136 0zM420 -61v292q-35 -18 -70 -23.5t-65 -5.5q-39 0 -67.5 11t-46.5 30t-26.5 45t-8.5 56q0 36 11.5 71t33 62.5t53 44.5t71.5 17q45 0 76 -19.5t50.5 -53t28.5 -78.5t9 -96v-353h-49zM420 287q0 44 -6.5 81t-21.5 63.5t-38 41.5t-56 15q-27 0 -48 -12.5t-35.5 -32.5
t-22.5 -45t-8 -50q0 -43 28 -68t82 -25q69 0 126 32z" />
    <glyph glyph-name="Tvasla" 
d="M-100 38q42 82 77 115t72 33q16 0 31 -7t26.5 -19t18 -28.5t6.5 -35.5q0 -15 -5 -32t-17.5 -31t-33 -23.5t-50.5 -9.5h-134l-22 20v99l31 5v-86zM24 33q32 0 53.5 15.5t21.5 47.5q0 22 -14.5 39t-39.5 17q-32 0 -59 -34t-56 -85h94z" />
    <glyph glyph-name=".kolah" 
d="M-32 71q-18 0 -30 -4t-21 -24l-20 -45l-34 15l24 54q8 18 15.5 28t17 15t21 6.5t26.5 1.5h176l-2 -47h-173z" />
    <glyph glyph-name=".shdd.an" 
d="M0 0zM0 13q-14 -13 -30 -13h-28q-13 0 -29.5 4t-31 16.5t-24.5 36t-10 62.5v63h35v-76q0 -41 18.5 -56.5t46.5 -15.5h36v148h34v-148h36q28 0 46.5 15.5t18.5 56.5v76h34v-63q0 -39 -10 -62.5t-24.5 -36t-31 -16.5t-29.5 -4h-27q-10 0 -16 3t-14 10zM107 355l13 -32
l-227 -96l-13 32zM107 478l13 -32l-227 -96l-13 32z" />
    <glyph glyph-name="be.dls" horiz-adv-x="775" 
d="M212 0q-41 0 -70.5 12.5t-48 33.5t-27 49t-8.5 59v131h49v-120q0 -51 26.5 -81.5t89.5 -30.5h351q43 0 68 23t25 61v147h51v-150q0 -32 -11 -56.5t-29.5 -42t-44 -26.5t-54.5 -9h-367z" />
    <glyph glyph-name="be.dls.fina" horiz-adv-x="823" 
d="M574 53q45 0 69 23t24 61v147h51v-147q0 -24 8 -40t21 -26t29 -14t32 -4h15q13 0 17.5 -7t4.5 -19q0 -14 -4.5 -20.5t-17.5 -6.5h-16q-36 0 -67 14t-50 52q-22 -38 -52.5 -52t-63.5 -14h-362q-41 0 -70.5 12.5t-48 33.5t-27 49t-8.5 59v131h49v-120q0 -51 26.5 -81.5
t89.5 -30.5h351z" />
    <glyph glyph-name="fe.dls.medi" horiz-adv-x="528" 
d="M212 53q-54 26 -86.5 69t-32.5 97q0 33 12 64t35 54.5t56 38t74 14.5t72 -14.5t51.5 -37.5t31 -53t10.5 -60q0 -51 -25.5 -94.5t-81.5 -77.5h200q22 0 22 -26q0 -27 -22 -27h-115q-45 0 -81 2t-57 11q-14 -5 -34.5 -7.5t-42 -4t-42 -1.5h-34.5h-122q-13 0 -17.5 6.5
t-4.5 18.5q0 14 4.5 21t17.5 7h212zM264 337q-28 0 -50.5 -10t-38.5 -26.5t-24.5 -39t-8.5 -47.5q0 -29 12.5 -53t32 -42.5t42.5 -32t44 -22.5q16 9 35.5 22.5t37 31.5t29.5 41t12 51q0 57 -33 92t-90 35z" />
    <glyph glyph-name="fe.dls.init" horiz-adv-x="488" 
d="M201 53q23 0 41 1t38 3q-65 21 -102.5 40.5t-56 40.5t-23.5 44.5t-5 53.5q0 28 11 57t32.5 53t53 39t72.5 15q38 0 69 -10.5t53 -34t34 -60.5t12 -90v-42q0 -76 -46.5 -119.5t-146.5 -43.5h-237q-13 0 -17.5 6.5t-4.5 18.5q0 14 4.5 21t17.5 7h201zM257 347
q-27 0 -48.5 -10t-36.5 -26t-23.5 -36.5t-8.5 -41.5t4 -39t23.5 -36t60.5 -37.5t114 -43.5q17 14 28 35.5t11 51.5v35q0 70 -29 109t-95 39z" />
    <glyph glyph-name="hezar.sep.up" horiz-adv-x="202" 
d="M61 406zM100.006 610q21.999 0 30.999 -11.499q8.99902 -11.5 8.99902 -36.498q0 -45.9971 -2 -74.4951q-2 -28.499 -9.49902 -44.498q-7.5 -15.999 -22.999 -23.498q-15.499 -7.5 -42.4971 -13.499v36.9971q14.999 4 23.498 8q8.5 4 12.5 11.499
q3.99902 7.5 4.99902 20.499t1 34.998q-24.998 0 -34.498 10.499q-9.49902 10.499 -9.49902 35.498q0 22.998 8.99902 34.498q9 11.499 29.998 11.499z" />
    <glyph glyph-name="asteris" horiz-adv-x="507" 
d="M53 222zM149 222l-36 30l106 140l-166 59l16 42l163 -61l-1 179h45l-2 -179l164 61l16 -42l-167 -59l106 -140l-36 -30l-103 146z" />
    <glyph glyph-name="tooth.k.medi" horiz-adv-x="461" 
d="M0 0q-13 0 -17.5 6.5t-4.5 18.5q0 14 4.5 21t17.5 7h182q45 0 69 23t24 61v147h50v-147q0 -24 8 -40t21 -26t29 -14t32 -4h46q22 0 22 -26q0 -27 -22 -27h-47q-35 0 -66.5 14t-50.5 52q-21 -38 -51.5 -52t-63.5 -14h-182z" />
    <glyph glyph-name="be.k.medi" horiz-adv-x="461" 
d="M0 0zM0 0q-13 0 -17.5 6.5t-4.5 18.5q0 14 4.5 21t17.5 7h182q45 0 69 23t24 61v147h50v-147q0 -24 8 -40t21 -26t29 -14t32 -4h46q22 0 22 -26q0 -27 -22 -27h-47q-35 0 -66.5 14t-50.5 52q-21 -38 -51.5 -52t-63.5 -14h-182zM224 -179h-74v61h74v-61z" />
    <glyph glyph-name="pe.k.medi" horiz-adv-x="461" 
d="M0 0zM0 0q-13 0 -17.5 6.5t-4.5 18.5q0 14 4.5 21t17.5 7h182q45 0 69 23t24 61v147h50v-147q0 -24 8 -40t21 -26t29 -14t32 -4h46q22 0 22 -26q0 -27 -22 -27h-47q-35 0 -66.5 14t-50.5 52q-21 -38 -51.5 -52t-63.5 -14h-182zM250 -290h-70v61h70v-61zM309 -178h-69v60
h69v-60zM189 -178h-69v60h69v-60z" />
    <glyph glyph-name="te.k.medi" horiz-adv-x="461" 
d="M0 0zM0 0q-13 0 -17.5 6.5t-4.5 18.5q0 14 4.5 21t17.5 7h182q45 0 69 23t24 61v147h50v-147q0 -24 8 -40t21 -26t29 -14t32 -4h46q22 0 22 -26q0 -27 -22 -27h-47q-35 0 -66.5 14t-50.5 52q-21 -38 -51.5 -52t-63.5 -14h-182zM319 416h-69v60h69v-60zM199 416h-69v60h69
v-60z" />
    <glyph glyph-name="the.k.medi" horiz-adv-x="461" 
d="M0 0zM0 0q-13 0 -17.5 6.5t-4.5 18.5q0 14 4.5 21t17.5 7h182q45 0 69 23t24 61v147h50v-147q0 -24 8 -40t21 -26t29 -14t32 -4h46q22 0 22 -26q0 -27 -22 -27h-47q-35 0 -66.5 14t-50.5 52q-21 -38 -51.5 -52t-63.5 -14h-182zM260 527h-70v60h70v-60zM319 416h-69v60h69
v-60zM199 416h-69v60h69v-60z" />
    <glyph glyph-name="nun.k.medi" horiz-adv-x="461" 
d="M0 0zM0 0q-13 0 -17.5 6.5t-4.5 18.5q0 14 4.5 21t17.5 7h182q45 0 69 23t24 61v147h50v-147q0 -24 8 -40t21 -26t29 -14t32 -4h46q22 0 22 -26q0 -27 -22 -27h-47q-35 0 -66.5 14t-50.5 52q-21 -38 -51.5 -52t-63.5 -14h-182zM295 416h-74v61h74v-61z" />
    <glyph glyph-name="ye.k.medi" horiz-adv-x="461" 
d="M0 0zM0 0q-13 0 -17.5 6.5t-4.5 18.5q0 14 4.5 21t17.5 7h182q45 0 69 23t24 61v147h50v-147q0 -24 8 -40t21 -26t29 -14t32 -4h46q22 0 22 -26q0 -27 -22 -27h-47q-35 0 -66.5 14t-50.5 52q-21 -38 -51.5 -52t-63.5 -14h-182zM322 -178h-65v60h65v-60zM199 -178h-66v60
h66v-60z" />
    <glyph glyph-name="ie.k.medi" horiz-adv-x="461" 
d="M0 0zM0 0q-13 0 -17.5 6.5t-4.5 18.5q0 14 4.5 21t17.5 7h182q45 0 69 23t24 61v147h50v-147q0 -24 8 -40t21 -26t29 -14t32 -4h46q22 0 22 -26q0 -27 -22 -27h-47q-35 0 -66.5 14t-50.5 52q-21 -38 -51.5 -52t-63.5 -14h-182zM331 438l-185 -94l-16 31l73 36
q-35 7 -50.5 33t-15.5 53q0 42 26 68t68 26h47l-5 -35h-35q-32 0 -49.5 -18t-17.5 -43q0 -28 19.5 -44.5t42.5 -16.5q15 0 36.5 10t48.5 24z" />
    <glyph glyph-name="tooth.k.init" horiz-adv-x="428" 
d="M0 0q-13 0 -17.5 6.5t-4.5 18.5q0 14 4.5 21t17.5 7h227q42 0 67.5 23t25.5 61v147h50v-145q0 -66 -38.5 -102.5t-101.5 -36.5h-230z" />
    <glyph glyph-name="be.k.init" horiz-adv-x="424" 
d="M0 0zM0 0q-13 0 -17.5 6.5t-4.5 18.5q0 14 4.5 21t17.5 7h227q42 0 67.5 23t25.5 61v147h50v-145q0 -66 -38.5 -102.5t-101.5 -36.5h-230zM156 -179h-74v61h74v-61z" />
    <glyph glyph-name="pe.k.init" horiz-adv-x="424" 
d="M0 0zM0 0q-13 0 -17.5 6.5t-4.5 18.5q0 14 4.5 21t17.5 7h227q42 0 67.5 23t25.5 61v147h50v-145q0 -66 -38.5 -102.5t-101.5 -36.5h-230zM187 -290h-70v61h70v-61zM246 -178h-69v60h69v-60zM126 -178h-69v60h69v-60z" />
    <glyph glyph-name="te.k.init" horiz-adv-x="424" 
d="M0 0zM0 0q-13 0 -17.5 6.5t-4.5 18.5q0 14 4.5 21t17.5 7h227q42 0 67.5 23t25.5 61v147h50v-145q0 -66 -38.5 -102.5t-101.5 -36.5h-230zM330 416h-69v60h69v-60zM210 416h-69v60h69v-60z" />
    <glyph glyph-name="the.k.init" horiz-adv-x="424" 
d="M0 0zM0 0q-13 0 -17.5 6.5t-4.5 18.5q0 14 4.5 21t17.5 7h227q42 0 67.5 23t25.5 61v147h50v-145q0 -66 -38.5 -102.5t-101.5 -36.5h-230zM271 527h-70v60h70v-60zM330 416h-69v60h69v-60zM210 416h-69v60h69v-60z" />
    <glyph glyph-name="nun.k.init" horiz-adv-x="424" 
d="M0 0zM0 0q-13 0 -17.5 6.5t-4.5 18.5q0 14 4.5 21t17.5 7h227q42 0 67.5 23t25.5 61v147h50v-145q0 -66 -38.5 -102.5t-101.5 -36.5h-230zM310 416h-74v61h74v-61z" />
    <glyph glyph-name="ye.k.init" horiz-adv-x="424" 
d="M0 0zM0 0q-13 0 -17.5 6.5t-4.5 18.5q0 14 4.5 21t17.5 7h227q42 0 67.5 23t25.5 61v147h50v-145q0 -66 -38.5 -102.5t-101.5 -36.5h-230zM249 -178h-65v60h65v-60zM126 -178h-66v60h66v-60z" />
    <glyph glyph-name="ie.k.init" horiz-adv-x="424" 
d="M0 0zM0 0q-13 0 -17.5 6.5t-4.5 18.5q0 14 4.5 21t17.5 7h227q42 0 67.5 23t25.5 61v147h50v-145q0 -66 -38.5 -102.5t-101.5 -36.5h-230zM363 438l-185 -94l-16 31l73 36q-35 7 -50.5 33t-15.5 53q0 42 26 68t68 26h47l-5 -35h-35q-32 0 -49.5 -18t-17.5 -43
q0 -28 19.5 -44.5t42.5 -16.5q15 0 36.5 10t48.5 24z" />
    <glyph glyph-name="re.c.fina" horiz-adv-x="261" 
d="M160 133q0 -35 24 -57.5t66 -22.5h11q22 0 22 -26q0 -27 -22 -27h-11q-26 0 -51 10t-41 33v-27q0 -60 -18 -107.5t-50 -81t-75.5 -51.5t-93.5 -18h-25l-6 52h22q52 0 89.5 17t61.5 45.5t35.5 66t11.5 77.5v268h50v-151z" />
    <glyph glyph-name="re.c" horiz-adv-x="217" 
d="M-109 -190h21q52 0 89.5 17t61.5 45.5t35.5 66t11.5 77.5v268h50v-268q0 -60 -18.5 -107.5t-51 -81t-76 -51.5t-93.5 -18h-25z" />
    <glyph glyph-name="ze.c.fina" horiz-adv-x="261" 
d="M0 0zM160 133q0 -35 24 -57.5t66 -22.5h11q22 0 22 -26q0 -27 -22 -27h-11q-26 0 -51 10t-41 33v-27q0 -60 -18 -107.5t-50 -81t-75.5 -51.5t-93.5 -18h-25l-6 52h22q52 0 89.5 17t61.5 45.5t35.5 66t11.5 77.5v268h50v-151zM161 416h-74v61h74v-61z" />
    <glyph glyph-name="ze.c" horiz-adv-x="217" 
d="M0 0zM-109 -190h21q52 0 89.5 17t61.5 45.5t35.5 66t11.5 77.5v268h50v-268q0 -60 -18.5 -107.5t-51 -81t-76 -51.5t-93.5 -18h-25zM161 416h-74v61h74v-61z" />
    <glyph glyph-name="je.c.fina" horiz-adv-x="261" 
d="M0 0zM160 133q0 -35 24 -57.5t66 -22.5h11q22 0 22 -26q0 -27 -22 -27h-11q-26 0 -51 10t-41 33v-27q0 -60 -18 -107.5t-50 -81t-75.5 -51.5t-93.5 -18h-25l-6 52h22q52 0 89.5 17t61.5 45.5t35.5 66t11.5 77.5v268h50v-151zM157 527h-70v60h70v-60zM216 416h-69v60h69
v-60zM96 416h-69v60h69v-60z" />
    <glyph glyph-name="je.c" horiz-adv-x="217" 
d="M0 0zM-109 -190h21q52 0 89.5 17t61.5 45.5t35.5 66t11.5 77.5v268h50v-268q0 -60 -18.5 -107.5t-51 -81t-76 -51.5t-93.5 -18h-25zM157 527h-70v60h70v-60zM216 416h-69v60h69v-60zM96 416h-69v60h69v-60z" />
    <glyph glyph-name=".tv" 
d="M80 202l29 -17l-95 -185h-28l-95 185l29 17l80 -161z" />
    <glyph glyph-name="la.tv" horiz-adv-x="479" 
d="M69 0zM69 620h50v-567h151q42 0 67 21.5t25 58.5v487h50v-487q0 -31 -10.5 -55.5t-29 -42t-44 -26.5t-54.5 -9h-205v620zM321 845l29 -17l-95 -185h-28l-95 185l29 17l80 -161z" />
    <glyph glyph-name="la.tv.fina" horiz-adv-x="515" 
d="M69 0zM69 0v620h50v-567h149q45 0 69.5 23t24.5 61v483h50v-483q0 -24 8 -40t21 -26t29.5 -14t33.5 -4h12q12 0 16.5 -7t4.5 -19q0 -14 -4.5 -20.5t-16.5 -6.5h-14q-38 0 -68.5 14t-49.5 52q-22 -38 -52.5 -52t-63.5 -14h-199zM321 845l29 -17l-95 -185h-28l-95 185
l29 17l80 -161z" />
    <glyph glyph-name="ye.tv.k.medi" horiz-adv-x="461" 
d="M0 0zM0 0q-13 0 -17.5 6.5t-4.5 18.5q0 14 4.5 21t17.5 7h182q45 0 69 23t24 61v147h50v-147q0 -24 8 -40t21 -26t29 -14t32 -4h46q22 0 22 -26q0 -27 -22 -27h-47q-35 0 -66.5 14t-50.5 52q-21 -38 -51.5 -52t-63.5 -14h-182zM322 -178h-65v60h65v-60zM199 -178h-66v60
h66v-60zM305 575l29 -17l-95 -185h-28l-95 185l29 17l80 -161z" />
    <glyph glyph-name="ye.tv.k.init" horiz-adv-x="424" 
d="M0 0zM0 0q-13 0 -17.5 6.5t-4.5 18.5q0 14 4.5 21t17.5 7h227q42 0 67.5 23t25.5 61v147h50v-145q0 -66 -38.5 -102.5t-101.5 -36.5h-230zM249 -178h-65v60h65v-60zM126 -178h-66v60h66v-60zM305 575l29 -17l-95 -185h-28l-95 185l29 17l80 -161z" />
    <glyph glyph-name="re.bv.c.fina" horiz-adv-x="261" 
d="M0 0zM160 133q0 -35 24 -57.5t66 -22.5h11q22 0 22 -26q0 -27 -22 -27h-11q-26 0 -51 10t-41 33v-27q0 -60 -18 -107.5t-50 -81t-75.5 -51.5t-93.5 -18h-25l-6 52h22q52 0 89.5 17t61.5 45.5t35.5 66t11.5 77.5v268h50v-151zM128 -283l29 -17l-95 -185h-28l-95 185l29 17
l80 -161z" />
    <glyph glyph-name="re.bv.c" horiz-adv-x="217" 
d="M0 0zM-109 -190h21q52 0 89.5 17t61.5 45.5t35.5 66t11.5 77.5v268h50v-268q0 -60 -18.5 -107.5t-51 -81t-76 -51.5t-93.5 -18h-25zM128 -283l29 -17l-95 -185h-28l-95 185l29 17l80 -161z" />
    <glyph glyph-name="zero.onum" horiz-adv-x="586" 
d="M531 254q0 -63 -19 -111t-51.5 -81t-76 -50t-92.5 -17t-92 17t-75.5 50t-51 81t-18.5 111q0 62 18.5 110t51 81t75.5 50t92 17t92.5 -17t76 -50t51.5 -81t19 -110zM479 254q0 55 -15 95.5t-41 67.5t-60 40.5t-71 13.5t-70.5 -13.5t-59 -40.5t-41 -67.5t-15.5 -95.5
q0 -56 15.5 -97.5t41 -68.5t59 -40.5t70.5 -13.5t71 13.5t60 40.5t41 68.5t15 97.5z" />
    <glyph glyph-name="one.onum" horiz-adv-x="345" 
d="M251 507v-507h-50v417q0 8 0.5 16t0.5 16l-134 -95q-15 -11 -26 3l-15 22l185 128h39z" />
    <glyph glyph-name="two.onum" horiz-adv-x="499" 
d="M434 44q21 0 21 -18v-26h-411v29l216 161q53 41 83 80.5t30 88.5t-32.5 80t-86.5 31q-32 0 -56 -9.5t-41 -25.5t-27.5 -36.5t-15.5 -42.5q-4 -12 -16 -12q-4 0 -7 2l-27 4q6 32 20.5 61t38 51.5t57 35.5t76.5 13q37 0 67 -11t51.5 -31t33.5 -48t12 -61q0 -56 -34.5 -102
t-88.5 -88l-181 -133q17 4 34 5.5t33 1.5h251z" />
    <glyph glyph-name="three.onum" horiz-adv-x="486" 
d="M62 350q6 32 19.5 61t36.5 51.5t55.5 35.5t75.5 13q35 0 66 -10t53.5 -29t35.5 -47t13 -64q0 -55 -32 -91t-83 -49q66 -11 98 -50t32 -99q0 -33 -13.5 -63t-38.5 -53t-60.5 -36.5t-78.5 -13.5q-50 0 -83.5 12.5t-56 33.5t-36 48t-21.5 55l24 9q17 7 24 -7q6 -20 16.5 -40
t27.5 -36t42.5 -26t61.5 -10q33 0 59.5 10t45.5 27.5t29.5 40.5t10.5 50q0 28 -8.5 51t-28.5 39.5t-52 25.5t-78 10v34q69 2 111 33.5t42 88.5q0 30 -10 51.5t-27 35.5t-39 21t-47 7q-32 0 -55 -9.5t-39.5 -25t-26.5 -36.5t-16 -43q-4 -12 -14 -12q-5 0 -7 2z" />
    <glyph glyph-name="four.onum" horiz-adv-x="527" 
d="M338 112v301q0 6 0.5 15t2.5 17l-262 -333h259zM493 112v-26q0 -13 -15 -13h-96v-161h-44v161h-294q-5 0 -10 4t-6 9l-3 22l313 399h44v-395h111z" />
    <glyph glyph-name="five.onum" horiz-adv-x="457" 
d="M118 271q27 6 52 9.5t48 3.5q46 0 81.5 -13t59 -36.5t35.5 -55.5t12 -71q0 -47 -16.5 -84.5t-45 -63.5t-66 -40t-80.5 -14q-51 0 -92 16.5t-67 37.5l14 19q5 5 11 7t14 -3q22 -15 52.5 -26t68.5 -11q34 0 63.5 11t51 31.5t34 50t12.5 67.5q0 63 -37.5 101t-115.5 38
q-49 0 -106 -16l-31 9l48 266h280v-24q0 -8 -5 -14t-16 -6h-224z" />
    <glyph glyph-name="six.onum" horiz-adv-x="498" 
d="M250 32q37 0 66.5 12t49.5 32.5t31 48t11 59.5q0 70 -41 110t-107 40q-38 0 -68 -13t-50.5 -34t-31.5 -47t-11 -52q0 -34 10.5 -62.5t30.5 -49.5t47.5 -32.5t62.5 -11.5zM135 307q23 29 58.5 45.5t77.5 16.5q40 0 73.5 -12.5t58.5 -36.5t39 -58t14 -77q0 -41 -15.5 -76.5
t-43 -61t-65.5 -40t-83 -14.5q-89 0 -143 54t-54 151q0 35 18 81t60 102l164 219q11 16 31 16h42l-185 -239q-32 -39 -47 -70z" />
    <glyph glyph-name="seven.onum" horiz-adv-x="449" 
d="M433 504v-22q0 -13 -5 -24l-265 -531q-7 -15 -25 -15h-36l265 523q5 8 9 14t8 11h-340q-7 0 -12 4t-5 12v28h406z" />
    <glyph glyph-name="eight.onum" horiz-adv-x="507" 
d="M254 31q66 0 106.5 36t40.5 96q0 39 -13.5 65t-35 42t-47.5 22.5t-51 6.5t-51 -6.5t-47 -22.5t-34.5 -42t-13.5 -65q0 -60 39.5 -96t106.5 -36zM254 582q-30 0 -54 -9.5t-40.5 -26t-25.5 -38.5t-9 -47q0 -24 7.5 -46t23 -39.5t40 -28t58.5 -10.5q33 0 57.5 10.5t40 28
t23.5 39.5t8 46q0 25 -9 47t-25.5 38.5t-40.5 26t-54 9.5zM321 319q57 -14 93 -51t36 -105q0 -39 -14.5 -70.5t-40.5 -53.5t-62 -34t-79 -12q-44 0 -80 12t-61.5 34t-40 53.5t-14.5 70.5q0 68 36 105t92 51q-52 16 -80 54t-28 90q0 32 12.5 60.5t35.5 49.5t55.5 33.5
t72.5 12.5t72.5 -12.5t55.5 -33.5t35.5 -49.5t12.5 -60.5q0 -52 -28 -90t-81 -54z" />
    <glyph glyph-name="nine.onum" horiz-adv-x="465" 
d="M87 335q0 -64 37 -100.5t100 -36.5q35 0 62.5 12.5t46 32t28.5 44t10 48.5q0 31 -10.5 56.5t-29 43t-43.5 27t-55 9.5q-33 0 -60 -10.5t-46 -28.5t-29.5 -43t-10.5 -54zM300 155q16 22 29 40.5t21 37.5q-23 -33 -60 -52.5t-81 -19.5q-36 0 -67 12t-54.5 34t-36.5 53.5
t-13 70.5q0 38 14.5 71t41 57.5t62 38.5t77.5 14q41 0 75 -13t58.5 -37t38 -57.5t13.5 -74.5q0 -47 -20 -91.5t-57 -98.5l-150 -215q-6 -6 -12.5 -9.5t-16.5 -3.5h-41z" />
    <glyph glyph-name="zero.tnum" horiz-adv-x="535" 
d="M503 327q0 -86 -18.5 -149t-50 -104t-74.5 -61t-92 -20t-92 20t-74.5 61t-50 104t-18.5 149t18.5 149t50 104.5t74.5 61.5t92 20t92 -20t74.5 -61.5t50 -104.5t18.5 -149zM451 327q0 79 -15 134.5t-40 91t-58.5 51.5t-69.5 16q-37 0 -70.5 -16t-58.5 -51.5t-39.5 -91
t-14.5 -134.5t14.5 -134.5t39.5 -90.5t58.5 -51t70.5 -16q36 0 69.5 16t58.5 51t40 90.5t15 134.5z" />
    <glyph glyph-name="one.tnum" horiz-adv-x="535" 
d="M462 38v-38h-341v38h149v519q0 16 3 36l-140 -125q-8 -8 -15.5 -6t-11.5 7l-15 20l191 168h39v-619h141z" />
    <glyph glyph-name="two.tnum" horiz-adv-x="535" 
d="M459 46q17 0 17 -16v-30h-425v17q0 11 11 22l221 223q27 28 50 54.5t40 53t26.5 54.5t9.5 59q0 35 -11.5 61t-30.5 43t-44.5 25t-53.5 8q-61 0 -99.5 -34t-49.5 -89q-6 -20 -26 -17l-26 4q11 85 66.5 131.5t136.5 46.5q39 0 73.5 -11t61 -33.5t41.5 -55.5t15 -77
q0 -38 -11.5 -69.5t-31 -60.5t-44.5 -56t-53 -55l-200 -204q30 6 65 6h272z" />
    <glyph glyph-name="three.tnum" horiz-adv-x="535" 
d="M70 484q12 85 67.5 131.5t137.5 46.5q38 0 71.5 -10.5t58.5 -31.5t39.5 -52t14.5 -72q0 -64 -37 -102.5t-92 -52.5q72 -12 109 -54.5t37 -105.5q0 -41 -16.5 -75.5t-45 -59.5t-67 -39t-82.5 -14q-56 0 -93.5 14.5t-62 38.5t-38.5 54t-22 61l20 8q8 4 17.5 2.5t13.5 -12.5
q4 -9 12 -29.5t25 -42t47.5 -37.5t79.5 -16q40 0 70.5 13.5t50.5 34.5t30.5 47t10.5 50q0 30 -9 55t-30.5 43.5t-57.5 29t-89 11.5v36q85 2 127 38.5t42 96.5q0 34 -11 58.5t-29.5 40.5t-43.5 24t-53 8q-60 0 -99.5 -34t-50.5 -89q-7 -20 -26 -17z" />
    <glyph glyph-name="four.tnum" horiz-adv-x="535" 
d="M347 225v332v17.5t1 17.5l-277 -367h276zM507 225v-27q0 -12 -13 -12h-104v-186h-43v186h-308q-14 0 -17 11l-5 24l328 434h45v-430h117z" />
    <glyph glyph-name="five.tnum" horiz-adv-x="535" 
d="M147 397q30 8 57.5 11t51.5 3q51 0 90 -14.5t65 -41t39.5 -62.5t13.5 -78q0 -52 -18 -93.5t-49 -70t-73 -43.5t-89 -15q-55 0 -99.5 18t-73.5 41l17 21q3 7 14 7q7 0 18.5 -7t29 -15t42 -15t56.5 -7q37 0 68.5 12t54.5 34.5t36 55.5t13 75q0 70 -40.5 113.5t-124.5 43.5
q-26 0 -55 -4t-61 -14l-34 10l51 292h299v-21q0 -11 -7 -17.5t-23 -6.5h-232z" />
    <glyph glyph-name="six.tnum" horiz-adv-x="535" 
d="M267 34q78 0 123 45t45 116q0 75 -44.5 117t-114.5 42q-39 0 -70 -13.5t-52.5 -36t-33 -50.5t-11.5 -56q0 -36 11 -66t31.5 -52t50 -34t65.5 -12zM146 326q24 31 62.5 48.5t83.5 17.5q42 0 77.5 -13.5t61.5 -39t41 -61.5t15 -80q0 -45 -16 -82.5t-45 -64.5t-69.5 -42.5
t-88.5 -15.5q-47 0 -85.5 15t-65.5 42.5t-42 68t-15 91.5q0 39 19.5 86.5t62.5 107.5l177 239q3 5 10.5 8t16.5 3h46l-196 -253q-17 -22 -29 -40t-21 -35z" />
    <glyph glyph-name="seven.tnum" horiz-adv-x="535" 
d="M493 654v-22q0 -9 -2 -15t-4 -10l-295 -589q-8 -18 -31 -18h-34l297 584q5 8 8.5 14t9.5 11h-372q-14 0 -14 13v32h437z" />
    <glyph glyph-name="eight.tnum" horiz-adv-x="535" 
d="M268 32q74 0 118 38.5t44 104.5q0 41 -15 69t-38.5 45t-52.5 24t-56 7t-56 -7t-53 -24t-39 -45t-15 -69q0 -66 45 -104.5t118 -38.5zM268 623q-68 0 -105 -37.5t-37 -92.5q0 -26 8.5 -49.5t26 -42t44 -29.5t63.5 -11t63.5 11t43.5 29.5t25.5 42t8.5 49.5q0 55 -36.5 92.5
t-104.5 37.5zM339 342q63 -15 103 -55.5t40 -112.5q0 -42 -15.5 -75.5t-44 -57t-67.5 -36t-87 -12.5t-87.5 12.5t-68 36t-44 57t-15.5 75.5q0 72 40 112.5t103 55.5q-58 16 -88.5 56t-30.5 96q0 36 13 66.5t38 53t60.5 35.5t79.5 13t79 -13t60 -35.5t38 -53t13 -66.5
q0 -56 -31 -96t-88 -56z" />
    <glyph glyph-name="nine.tnum" horiz-adv-x="535" 
d="M109 468q0 -73 41 -113t108 -40q39 0 69 13t50.5 34t31.5 48t11 54q0 35 -11.5 64t-32 49.5t-48 31.5t-60.5 11q-36 0 -65 -11t-50 -31.5t-32.5 -48.5t-11.5 -61zM341 269q16 23 28 40.5t22 34.5q-26 -31 -64.5 -49.5t-83.5 -18.5q-39 0 -73 13.5t-59 38t-39 59t-14 77.5
q0 42 15.5 78t43.5 63t66.5 42t84.5 15q44 0 81 -15t63.5 -42t41 -65t14.5 -83q0 -52 -21 -97.5t-59 -99.5l-169 -249q-5 -5 -11 -8t-15 -3h-47z" />
    <glyph glyph-name=".ttfautohint" horiz-adv-x="769" 
d="M0 0z" />
  </font>
</defs>
</svg>
