<?xml version="1.0" standalone="no"?>
<!DOCTYPE svg PUBLIC "-//W3C//DTD SVG 1.1//EN" "http://www.w3.org/Graphics/SVG/1.1/DTD/svg11.dtd" >
<svg xmlns="http://www.w3.org/2000/svg" xmlns:xlink="http://www.w3.org/1999/xlink" version="1.1">
<metadata>
Created by FontForge 20200427 at Sat Jun 23 14:13:34 2018
 By www
Copyright (c) 2015 by Reza Bakhtiarifard / Bakh. All rights reserved.
</metadata>
<defs>
<font id="YekanBakh-Heavy" horiz-adv-x="0" >
  <font-face 
    font-family="Yekan Bakh Heavy"
    font-weight="900"
    font-stretch="normal"
    units-per-em="1000"
    panose-1="1 0 5 4 0 0 0 2 0 4"
    ascent="800"
    descent="-200"
    x-height="478"
    cap-height="672"
    bbox="-196 -494 1398 924"
    underline-thickness="25"
    underline-position="-130"
    unicode-range="U+000A-FFFC"
  />
<missing-glyph horiz-adv-x="550" 
d="M462 0h-396v610h396v-610zM187 473v-336h154v336h-154z" />
    <glyph glyph-name="allah" unicode="&#x627;&#xfedf;&#xfee0;&#xfeea;" horiz-adv-x="1257" arabic-form="isolated" 
d="M50 0zM286 468h122v-275q0 -34 8 -45t41 -11h71q25 0 34.5 9t9.5 30v226h127v-187q0 -17 2.5 -31t10.5 -24.5t22 -16.5t37 -6h16q25 0 34.5 9t9.5 30v314h127v-336q0 -39 -12.5 -68t-33.5 -48t-49 -28.5t-59 -9.5h-39q-33 0 -67.5 11.5t-59.5 49.5q-25 -38 -55.5 -49.5
t-59.5 -11.5h-71q-54 0 -85 17t-48 54q-25 -25 -57.5 -31.5t-62.5 -6.5q-75 0 -112 41.5t-37 129.5q0 37 10.5 72.5t31 63.5t51.5 45t72 17h71v66zM229 275q-35 0 -46.5 -17.5t-11.5 -44.5q0 -23 11 -35.5t43 -12.5t46.5 13.5t14.5 37.5v59h-57zM583 924h77v-176h-77v176z
M660 675v-103h15q15 0 25 5.5t10 27.5v70h77v-61q0 -39 -10 -62.5t-25 -36t-31.5 -16.5t-29.5 -4h-32q-11 0 -21 7.5t-16 14.5q-6 -7 -16 -14.5t-21 -7.5h-38q-13 0 -28.5 4t-29 16.5t-23 36t-9.5 62.5v61h77v-70q0 -22 10 -27.5t25 -5.5h14v103h77zM1070 620h127v-620h-127
v620z" />
    <glyph glyph-name="la.aa" unicode="&#xfedf;&#xfe82;" horiz-adv-x="489" arabic-form="isolated" 
d="M60 462h127v-325h71q25 0 34.5 9t9.5 30v444h127v-466q0 -39 -12.5 -68t-34 -48t-49.5 -28.5t-59 -9.5h-214v462zM64 561q-21 0 -31.5 -4.5t-18.5 -23.5l-22 -47l-78 38l34 76q10 21 19 35.5t21 24t28.5 13.5t41.5 4h215l-6 -116h-203z" />
    <glyph glyph-name="la.aa.fina" unicode="&#xfee0;&#xfe82;" horiz-adv-x="511" arabic-form="final" 
d="M60 0v462h127v-325h60q55 0 55 56v427h127v-427q0 -29 18.5 -42.5t47.5 -13.5h16q22 0 22 -66q0 -71 -22 -71h-22q-37 0 -69 11.5t-57 49.5q-26 -38 -54.5 -49.5t-61.5 -11.5h-187zM64 561q-21 0 -31.5 -4.5t-18.5 -23.5l-22 -47l-78 38l34 76q10 21 19 35.5t21 24
t28.5 13.5t41.5 4h215l-6 -116h-203z" />
    <glyph glyph-name="la.thmz" unicode="&#xfedf;&#xfe84;" horiz-adv-x="489" arabic-form="isolated" 
d="M60 462h127v-325h71q25 0 34.5 9t9.5 30v444h127v-466q0 -39 -12.5 -68t-34 -48t-49.5 -28.5t-59 -9.5h-214v462zM225 583l-188 -94l-32 67l55 25q-35 31 -35 73t28.5 68t70.5 26h46l-5 -77h-29q-17 0 -25 -7.5t-8 -18.5q0 -10 7 -16.5t18 -6.5q10 0 27 7t40 20z" />
    <glyph glyph-name="la.thmz.fina" unicode="&#xfee0;&#xfe84;" horiz-adv-x="511" arabic-form="final" 
d="M60 0v462h127v-325h60q55 0 55 56v427h127v-427q0 -29 18.5 -42.5t47.5 -13.5h16q22 0 22 -66q0 -71 -22 -71h-22q-37 0 -69 11.5t-57 49.5q-26 -38 -54.5 -49.5t-61.5 -11.5h-187zM225 583l-188 -94l-32 67l55 25q-35 31 -35 73t28.5 68t70.5 26h46l-5 -77h-29
q-17 0 -25 -7.5t-8 -18.5q0 -10 7 -16.5t18 -6.5q10 0 27 7t40 20z" />
    <glyph glyph-name="la.bhmz" unicode="&#xfedf;&#xfe88;" horiz-adv-x="489" arabic-form="isolated" 
d="M16 0zM60 620h127v-483h71q25 0 34.5 9t9.5 30v444h127v-466q0 -39 -12.5 -68t-34 -48t-49.5 -28.5t-59 -9.5h-214v620zM236 -263l-188 -94l-32 67l55 25q-35 31 -35 73t28.5 68t70.5 26h46l-5 -77h-29q-17 0 -25 -7.5t-8 -18.5q0 -10 7 -16.5t18 -6.5q10 0 27 7t40 20z
" />
    <glyph glyph-name="la.bhmz.fina" unicode="&#xfee0;&#xfe88;" horiz-adv-x="511" arabic-form="final" 
d="M16 0zM60 0v620h127v-483h60q55 0 55 56v427h127v-427q0 -29 18.5 -42.5t47.5 -13.5h16q22 0 22 -66q0 -71 -22 -71h-22q-37 0 -69 11.5t-57 49.5q-26 -38 -54.5 -49.5t-61.5 -11.5h-187zM236 -263l-188 -94l-32 67l55 25q-35 31 -35 73t28.5 68t70.5 26h46l-5 -77h-29
q-17 0 -25 -7.5t-8 -18.5q0 -10 7 -16.5t18 -6.5q10 0 27 7t40 20z" />
    <glyph glyph-name="la" unicode="&#xfedf;&#xfe8e;" horiz-adv-x="489" arabic-form="isolated" 
d="M60 620h127v-483h71q25 0 34.5 9t9.5 30v444h127v-466q0 -39 -12.5 -68t-34 -48t-49.5 -28.5t-59 -9.5h-214v620z" />
    <glyph glyph-name="la.fina" unicode="&#xfee0;&#xfe8e;" horiz-adv-x="511" arabic-form="final" 
d="M60 0v620h127v-483h60q55 0 55 56v427h127v-427q0 -29 18.5 -42.5t47.5 -13.5h16q22 0 22 -66q0 -71 -22 -71h-22q-37 0 -69 11.5t-57 49.5q-26 -38 -54.5 -49.5t-61.5 -11.5h-187z" />
    <glyph glyph-name="la.tvasla" unicode="&#xfedf;&#xfb51;" horiz-adv-x="489" 
d="M60 465h127v-328h71q25 0 34.5 9t9.5 30v444h127v-466q0 -39 -12.5 -68t-34 -48t-49.5 -28.5t-59 -9.5h-214v465zM53 599q35 68 67.5 97.5t69.5 29.5q33 0 57.5 -26t24.5 -67q0 -17 -6 -35t-19 -34t-34 -26t-51 -10h-131l-39 33v86l61 5v-53zM168 599q39 0 39 30
q0 11 -6.5 18.5t-18.5 7.5q-13 0 -29.5 -11t-37.5 -45h53z" />
    <glyph glyph-name="la.tvasla.fina" unicode="&#xfee0;&#xfb51;" horiz-adv-x="511" 
d="M60 0v465h127v-328h60q55 0 55 56v427h127v-427q0 -29 18.5 -42.5t47.5 -13.5h16q22 0 22 -66q0 -71 -22 -71h-22q-37 0 -69 11.5t-57 49.5q-26 -38 -54.5 -49.5t-61.5 -11.5h-187zM53 599q35 68 67.5 97.5t69.5 29.5q33 0 57.5 -26t24.5 -67q0 -17 -6 -35t-19 -34
t-34 -26t-51 -10h-131l-39 33v86l61 5v-53zM168 599q39 0 39 30q0 11 -6.5 18.5t-18.5 7.5q-13 0 -29.5 -11t-37.5 -45h53z" />
    <glyph glyph-name="lellah" unicode="&#xfedf;&#x650;&#xfee0;&#x654;&#xfeea;" horiz-adv-x="1018" 
d="M286 468h122v-275q0 -34 8 -45t41 -11h71q25 0 34.5 9t9.5 30v226h127v-187q0 -17 2.5 -31t10.5 -24.5t22 -16.5t37 -6h16q25 0 34.5 9t9.5 30v314h127v-336q0 -39 -12.5 -68t-33.5 -48t-49 -28.5t-59 -9.5h-39q-33 0 -67.5 11.5t-59.5 49.5q-25 -38 -55.5 -49.5
t-59.5 -11.5h-71q-54 0 -85 17t-48 54q-25 -25 -57.5 -31.5t-62.5 -6.5q-75 0 -112 41.5t-37 129.5q0 37 10.5 72.5t31 63.5t51.5 45t72 17h71v66zM229 275q-35 0 -46.5 -17.5t-11.5 -44.5q0 -23 11 -35.5t43 -12.5t46.5 13.5t14.5 37.5v59h-57zM583 924h77v-176h-77v176z
M660 675v-103h15q15 0 25 5.5t10 27.5v70h77v-61q0 -39 -10 -62.5t-25 -36t-31.5 -16.5t-29.5 -4h-32q-11 0 -21 7.5t-16 14.5q-6 -7 -16 -14.5t-21 -7.5h-38q-13 0 -28.5 4t-29 16.5t-23 36t-9.5 62.5v61h77v-70q0 -22 10 -27.5t25 -5.5h14v103h77z" />
    <glyph glyph-name="hmz" unicode="&#x621;" horiz-adv-x="446" arabic-form="isolated" 
d="M44 110l73 36q-26 23 -41 53t-15 65t12.5 66t34.5 54.5t52.5 37t65.5 13.5q24 0 44 -5.5t49 -22.5l-39 -121q-12 4 -24 7.5t-25 3.5q-24 0 -38 -10t-14 -30q0 -17 11 -27t30 -10q12 0 24 2.5t27 8t34.5 15t46.5 23.5l55 -115l-308 -160z" />
    <glyph glyph-name="alef.aa" unicode="&#x622;" horiz-adv-x="247" arabic-form="isolated" 
d="M60 462h127v-462h-127v462zM64 561q-21 0 -31.5 -4.5t-18.5 -23.5l-22 -47l-78 38l34 76q10 21 19 35.5t21 24t28.5 13.5t41.5 4h215l-6 -116h-203z" />
    <glyph glyph-name="alef.thmz" unicode="&#x623;" horiz-adv-x="247" arabic-form="isolated" 
d="M60 462h127v-462h-127v462zM225 583l-188 -94l-32 67l55 25q-35 31 -35 73t28.5 68t70.5 26h46l-5 -77h-29q-17 0 -25 -7.5t-8 -18.5q0 -10 7 -16.5t18 -6.5q10 0 27 7t40 20z" />
    <glyph glyph-name="vav.thmz" unicode="&#x624;" horiz-adv-x="446" arabic-form="isolated" 
d="M44 0zM143 -105q67 0 96 30.5t34 74.5h-47q-52 0 -85 11t-52 33t-26.5 53.5t-7.5 72.5q0 39 11 74.5t32.5 61.5t54 41.5t75.5 15.5q34 0 64.5 -11t53.5 -35t36.5 -63t13.5 -95v-143q0 -51 -17 -98t-49 -82.5t-78 -56.5t-104 -21h-98l-6 137h99zM176 180q0 -24 10.5 -33.5
t39.5 -9.5h49v28q0 38 -12.5 52t-38.5 14q-48 0 -48 -51zM330 506l-188 -94l-32 67l55 25q-35 31 -35 73t28.5 68t70.5 26h46l-5 -77h-29q-17 0 -25 -7.5t-8 -18.5q0 -10 7 -16.5t18 -6.5q10 0 27 7t40 20z" />
    <glyph glyph-name="alef.bhmz" unicode="&#x625;" horiz-adv-x="247" arabic-form="isolated" 
d="M16 0zM60 620h127v-620h-127v620zM236 -263l-188 -94l-32 67l55 25q-35 31 -35 73t28.5 68t70.5 26h46l-5 -77h-29q-17 0 -25 -7.5t-8 -18.5q0 -10 7 -16.5t18 -6.5q10 0 27 7t40 20z" />
    <glyph glyph-name="ye.thmz" unicode="&#x626;" horiz-adv-x="676" arabic-form="isolated" 
d="M44 0zM352 -105q79 0 116.5 19.5t37.5 52.5t-33 33h-171v204q0 39 12 72t35 57.5t56 38t74 13.5h115l5 -137h-120q-50 0 -50 -50v-61h66q78 0 107.5 -39t29.5 -109q0 -50 -19.5 -92t-54.5 -73t-83.5 -48.5t-105.5 -17.5h-89q-112 0 -174 69t-62 189v182h126v-176
q0 -29 6 -52.5t20.5 -40t39 -25.5t61.5 -9h55zM286 374l-188 -94l-32 67l55 25q-35 31 -35 73t28.5 68t70.5 26h46l-5 -77h-29q-17 0 -25 -7.5t-8 -18.5q0 -10 7 -16.5t18 -6.5q10 0 27 7t40 20z" />
    <glyph glyph-name="alef" unicode="&#x627;" horiz-adv-x="247" arabic-form="isolated" 
d="M60 620h127v-620h-127v620z" />
    <glyph glyph-name="be" unicode="&#x628;" horiz-adv-x="760" arabic-form="isolated" 
d="M50 0zM204 0q-41 0 -70.5 12.5t-48 33.5t-27 49t-8.5 59v148h126v-115q0 -12 1.5 -21.5t7.5 -16t17 -9.5t30 -3h296q33 0 44 13.5t11 42.5v104h127v-138q0 -41 -14 -71t-37 -49.5t-51.5 -29t-57.5 -9.5h-346zM452 -230h-132v121h132v-121z" />
    <glyph glyph-name="te.marbuta" unicode="&#x629;" horiz-adv-x="446" arabic-form="isolated" 
d="M44 0zM44 154q0 29 7 54.5t20.5 49.5t32.5 48.5t44 51.5l-46 46l85 91q62 -60 103.5 -105t66 -82t35 -70t10.5 -68q0 -37 -14 -68.5t-38 -54t-57.5 -35t-72.5 -12.5t-71.5 11t-55.5 31t-36 48.5t-13 63.5zM275 183q0 7 -1.5 14t-6.5 16.5t-15.5 23t-29.5 32.5
q-35 -35 -43.5 -54.5t-8.5 -32.5q0 -17 12.5 -31t40.5 -14t40 14t12 32zM352 555h-121v116h121v-116zM198 555h-121v116h121v-116z" />
    <glyph glyph-name="te" unicode="&#x62a;" horiz-adv-x="760" arabic-form="isolated" 
d="M50 0zM204 0q-41 0 -70.5 12.5t-48 33.5t-27 49t-8.5 59v148h126v-115q0 -12 1.5 -21.5t7.5 -16t17 -9.5t30 -3h296q33 0 44 13.5t11 42.5v104h127v-138q0 -41 -14 -71t-37 -49.5t-51.5 -29t-57.5 -9.5h-346zM517 374h-121v116h121v-116zM363 374h-121v116h121v-116z" />
    <glyph glyph-name="the" unicode="&#x62b;" horiz-adv-x="760" arabic-form="isolated" 
d="M50 0zM204 0q-41 0 -70.5 12.5t-48 33.5t-27 49t-8.5 59v148h126v-115q0 -12 1.5 -21.5t7.5 -16t17 -9.5t30 -3h296q33 0 44 13.5t11 42.5v104h127v-138q0 -41 -14 -71t-37 -49.5t-51.5 -29t-57.5 -9.5h-346zM441 528h-122v115h122v-115zM517 374h-121v116h121v-116z
M363 374h-121v116h121v-116z" />
    <glyph glyph-name="jim" unicode="&#x62c;" horiz-adv-x="539" arabic-form="isolated" 
d="M38 0zM352 226q-6 8 -11 13.5t-12 8.5t-17 4t-26 1h-204l6 138h220q29 0 56.5 -9t51.5 -33.5t44.5 -67.5t34.5 -111l-198 -115q-43 -25 -69 -49t-40 -46.5t-18.5 -44t-4.5 -42.5q0 -54 32.5 -87.5t110.5 -33.5h182l-6 -137h-176q-70 0 -121 19t-84 52.5t-49 78.5t-16 97
q0 48 10.5 88.5t34.5 77t63 70.5t96 67zM440 -153h-132v121h132v-121z" />
    <glyph glyph-name="him" unicode="&#x62d;" horiz-adv-x="539" arabic-form="isolated" 
d="M352 226q-6 8 -11 13.5t-12 8.5t-17 4t-26 1h-204l6 138h220q29 0 56.5 -9t51.5 -33.5t44.5 -67.5t34.5 -111l-198 -115q-43 -25 -69 -49t-40 -46.5t-18.5 -44t-4.5 -42.5q0 -54 32.5 -87.5t110.5 -33.5h182l-6 -137h-176q-70 0 -121 19t-84 52.5t-49 78.5t-16 97
q0 48 10.5 88.5t34.5 77t63 70.5t96 67z" />
    <glyph glyph-name="khe" unicode="&#x62e;" horiz-adv-x="539" arabic-form="isolated" 
d="M38 0zM352 226q-6 8 -11 13.5t-12 8.5t-17 4t-26 1h-204l6 138h220q29 0 56.5 -9t51.5 -33.5t44.5 -67.5t34.5 -111l-198 -115q-43 -25 -69 -49t-40 -46.5t-18.5 -44t-4.5 -42.5q0 -54 32.5 -87.5t110.5 -33.5h182l-6 -137h-176q-70 0 -121 19t-84 52.5t-49 78.5t-16 97
q0 48 10.5 88.5t34.5 77t63 70.5t96 67zM324 490h-132v121h132v-121z" />
    <glyph glyph-name="dal" unicode="&#x62f;" horiz-adv-x="495" arabic-form="isolated" 
d="M396 258q28 -32 41.5 -64t13.5 -62q0 -27 -9.5 -51t-29 -42t-48.5 -28.5t-67 -10.5h-259l-5 137h242q26 0 26 19q0 10 -10 20l-159 182l99 93z" />
    <glyph glyph-name="zal" unicode="&#x630;" horiz-adv-x="495" arabic-form="isolated" 
d="M33 0zM396 258q28 -32 41.5 -64t13.5 -62q0 -27 -9.5 -51t-29 -42t-48.5 -28.5t-67 -10.5h-259l-5 137h242q26 0 26 19q0 10 -10 20l-159 182l99 93zM286 501h-132v121h132v-121z" />
    <glyph glyph-name="re" unicode="&#x631;" horiz-adv-x="254" arabic-form="isolated" 
d="M204 16q0 -51 -18.5 -98t-51 -82.5t-77 -56.5t-96.5 -21h-66l-5 137h38q42 0 70.5 10.5t46 27.5t25 38.5t7.5 44.5v281h127v-281v0z" />
    <glyph glyph-name="ze" unicode="&#x632;" horiz-adv-x="254" arabic-form="isolated" 
d="M0 0zM204 16q0 -51 -18.5 -98t-51 -82.5t-77 -56.5t-96.5 -21h-66l-5 137h38q42 0 70.5 10.5t46 27.5t25 38.5t7.5 44.5v281h127v-281v0zM204 407h-132v121h132v-121z" />
    <glyph glyph-name="sin" unicode="&#x633;" horiz-adv-x="1122" arabic-form="isolated" 
d="M847 193q0 -29 14.5 -42.5t35.5 -13.5q49 0 49 56v104h126v-115q0 -91 -43.5 -136.5t-126.5 -45.5q-33 0 -64.5 11.5t-56.5 49.5q-25 -38 -56 -49.5t-60 -11.5q-47 0 -71 26v-10q0 -51 -17 -98t-49 -82.5t-78 -56.5t-104 -21h-66q-112 0 -174 69t-62 189v182h126v-176
q0 -29 6 -52.5t20.5 -40t39 -25.5t61.5 -9h44q39 0 64.5 10.5t40.5 29t21 42.5t6 51v269h126v-104q0 -29 18 -42.5t43 -13.5q33 0 47 13.5t14 42.5v104h126v-104z" />
    <glyph glyph-name="shin" unicode="&#x634;" horiz-adv-x="1122" arabic-form="isolated" 
d="M44 0zM847 193q0 -29 14.5 -42.5t35.5 -13.5q49 0 49 56v104h126v-115q0 -91 -43.5 -136.5t-126.5 -45.5q-33 0 -64.5 11.5t-56.5 49.5q-25 -38 -56 -49.5t-60 -11.5q-47 0 -71 26v-10q0 -51 -17 -98t-49 -82.5t-78 -56.5t-104 -21h-66q-112 0 -174 69t-62 189v182h126
v-176q0 -29 6 -52.5t20.5 -40t39 -25.5t61.5 -9h44q39 0 64.5 10.5t40.5 29t21 42.5t6 51v269h126v-104q0 -29 18 -42.5t43 -13.5q33 0 47 13.5t14 42.5v104h126v-104zM842 561h-122v115h122v-115zM918 407h-121v116h121v-116zM764 407h-121v116h121v-116z" />
    <glyph glyph-name="sad" unicode="&#x635;" horiz-adv-x="1149" arabic-form="isolated" 
d="M979 187q0 8 -3 17.5t-10.5 18t-19 14t-27.5 5.5q-25 0 -55 -23t-72 -82h138q25 0 37 14.5t12 35.5zM665 137q70 124 134.5 183.5t130.5 59.5q41 0 73.5 -14.5t55 -40.5t34.5 -61.5t12 -76.5q0 -35 -10.5 -68.5t-32.5 -60t-56.5 -42.5t-81.5 -16h-242q-25 0 -49.5 7.5
t-38.5 25.5v-17q0 -51 -17 -98t-49 -82.5t-78 -56.5t-104 -21h-66q-112 0 -174 69t-62 189v182h126v-176q0 -29 6 -52.5t20.5 -40t39 -25.5t61.5 -9h44q39 0 64.5 10.5t40.5 29t21 42.5t6 51v269h126v-77q0 -36 12.5 -59.5t53.5 -23.5z" />
    <glyph glyph-name="zad" unicode="&#x636;" horiz-adv-x="1149" arabic-form="isolated" 
d="M44 0zM979 187q0 8 -3 17.5t-10.5 18t-19 14t-27.5 5.5q-25 0 -55 -23t-72 -82h138q25 0 37 14.5t12 35.5zM665 137q70 124 134.5 183.5t130.5 59.5q41 0 73.5 -14.5t55 -40.5t34.5 -61.5t12 -76.5q0 -35 -10.5 -68.5t-32.5 -60t-56.5 -42.5t-81.5 -16h-242
q-25 0 -49.5 7.5t-38.5 25.5v-17q0 -51 -17 -98t-49 -82.5t-78 -56.5t-104 -21h-66q-112 0 -174 69t-62 189v182h126v-176q0 -29 6 -52.5t20.5 -40t39 -25.5t61.5 -9h44q39 0 64.5 10.5t40.5 29t21 42.5t6 51v269h126v-77q0 -36 12.5 -59.5t53.5 -23.5zM979 484h-132v121
h132v-121z" />
    <glyph glyph-name="ta" unicode="&#x637;" horiz-adv-x="621" arabic-form="isolated" 
d="M127 620h126v-257q0 -21 -0.5 -39t-4.5 -37q38 48 75 70.5t79 22.5q41 0 73.5 -14.5t55 -40.5t34.5 -61.5t12 -76.5q0 -35 -10.5 -68.5t-32.5 -60t-56.5 -42.5t-81.5 -16h-352l-6 137h89v483zM451 187q0 8 -3 17.5t-10.5 18t-19 14t-27.5 5.5q-12 0 -24.5 -4.5t-28 -16.5
t-36 -32.5t-49.5 -51.5h149q25 0 37 14.5t12 35.5z" />
    <glyph glyph-name="za" unicode="&#x638;" horiz-adv-x="621" arabic-form="isolated" 
d="M38 0zM127 620h126v-257q0 -21 -0.5 -39t-4.5 -37q38 48 75 70.5t79 22.5q41 0 73.5 -14.5t55 -40.5t34.5 -61.5t12 -76.5q0 -35 -10.5 -68.5t-32.5 -60t-56.5 -42.5t-81.5 -16h-352l-6 137h89v483zM451 187q0 8 -3 17.5t-10.5 18t-19 14t-27.5 5.5q-12 0 -24.5 -4.5
t-28 -16.5t-36 -32.5t-49.5 -51.5h149q25 0 37 14.5t12 35.5zM484 484h-132v121h132v-121z" />
    <glyph glyph-name="ein" unicode="&#x639;" horiz-adv-x="501" arabic-form="isolated" 
d="M148 66q-29 29 -39 65t-10 67q0 41 13.5 76t38.5 61t59.5 41t75.5 15q37 0 71.5 -12.5t71.5 -37.5l-55 -110q-29 13 -48.5 17.5t-39.5 4.5q-28 0 -44 -17t-16 -40q0 -32 21.5 -45.5t54.5 -13.5h144l-6 -137h-127q-35 0 -61.5 -10.5t-44.5 -28.5t-27.5 -42t-9.5 -51
q0 -23 7 -44t23.5 -37t44 -25.5t68.5 -9.5h166l-6 -137h-160q-70 0 -120.5 18.5t-83.5 50.5t-49 76.5t-16 96.5q0 62 23 114.5t81 94.5z" />
    <glyph glyph-name="qein" unicode="&#x63a;" horiz-adv-x="501" arabic-form="isolated" 
d="M44 0zM148 66q-29 29 -39 65t-10 67q0 41 13.5 76t38.5 61t59.5 41t75.5 15q37 0 71.5 -12.5t71.5 -37.5l-55 -110q-29 13 -48.5 17.5t-39.5 4.5q-28 0 -44 -17t-16 -40q0 -32 21.5 -45.5t54.5 -13.5h144l-6 -137h-127q-35 0 -61.5 -10.5t-44.5 -28.5t-27.5 -42t-9.5 -51
q0 -23 7 -44t23.5 -37t44 -25.5t68.5 -9.5h166l-6 -137h-160q-70 0 -120.5 18.5t-83.5 50.5t-49 76.5t-16 96.5q0 62 23 114.5t81 94.5zM341 484h-132v121h132v-121z" />
    <glyph glyph-name="fe" unicode="&#x641;" horiz-adv-x="837" arabic-form="isolated" 
d="M446 269q0 27 10.5 55.5t31 51.5t51 38t71.5 15q39 0 72 -10t56 -33t36 -61t13 -94v-55q0 -83 -46.5 -129.5t-146.5 -46.5h-396q-41 0 -70.5 12.5t-48 33.5t-27 49t-8.5 59v148h126v-115q0 -12 1.5 -21.5t7.5 -16t17 -9.5t30 -3h148q31 0 50.5 -0.5t33.5 -2t25.5 -4.5
t28.5 -9q-41 25 -53.5 60t-12.5 88zM561 242q0 -10 3 -19.5t13 -20.5t29.5 -24t51.5 -30q5 8 6 23.5t1 26.5v22q0 14 -2.5 27t-9 22.5t-17.5 15.5t-28 6q-27 0 -37 -16t-10 -33zM682 506h-132v121h132v-121z" />
    <glyph glyph-name="qaf" unicode="&#x642;" horiz-adv-x="699" arabic-form="isolated" 
d="M396 -105q67 0 96 30.5t34 74.5h-47q-52 0 -85 11t-52 33t-26.5 53.5t-7.5 72.5q0 39 11 74.5t32.5 61.5t54 41.5t75.5 15.5q34 0 64.5 -11t53.5 -35t36.5 -63t13.5 -95v-143q0 -51 -17 -98t-49 -82.5t-78 -56.5t-103 -21h-122q-112 0 -174 69t-62 189v182h126v-176
q0 -29 6 -52.5t20.5 -40t39 -25.5t61.5 -9h99zM429 180q0 -24 10.5 -33.5t39.5 -9.5h49v28q0 38 -12.5 52t-38.5 14q-48 0 -48 -51zM616 451h-121v116h121v-116zM462 451h-121v116h121v-116z" />
    <glyph glyph-name="kaf.arab" unicode="&#x643;" horiz-adv-x="753" arabic-form="isolated" 
d="M391 209v66q0 12 -3 17t-16 5h-129v138q0 58 28.5 89t86.5 31h66l6 -93h-66q-34 0 -34 -38v-33h83q19 0 31.5 -6.5t20 -17.5t11 -25t3.5 -29v-104h-88zM204 0q-41 0 -70.5 12.5t-48 33.5t-27 49t-8.5 59v148h126v-115q0 -12 1.5 -21.5t7.5 -16t17 -9.5t30 -3h280
q55 0 55 56v427h126v-438q0 -91 -43.5 -136.5t-126.5 -45.5h-319z" />
    <glyph glyph-name="lam" unicode="&#x644;" horiz-adv-x="659" arabic-form="isolated" 
d="M599 28q0 -58 -17.5 -107.5t-50.5 -85.5t-80 -56.5t-105 -20.5h-66q-112 0 -174 69t-62 189v182h126v-176q0 -29 6 -52.5t20.5 -40t39 -25.5t61.5 -9h44q39 0 64.5 10.5t40.5 29t21 42.5t6 51v592h126v-592z" />
    <glyph glyph-name="mim" unicode="&#x645;" horiz-adv-x="628" arabic-form="isolated" 
d="M402 0q-71 0 -115 36.5t-44 106.5v44q0 50 16 66h-11q-37 0 -54.5 -13t-17.5 -42v-440h-126v446q0 35 12.5 67.5t36.5 58t60 40.5t84 15h181q43 0 72.5 -11.5t47.5 -31.5t26 -47t8 -58v-89q0 -39 -14.5 -67t-38.5 -46t-56 -26.5t-67 -8.5zM411 137q26 0 36 11t10 28v28
q0 20 -9.5 32t-32.5 12h-11q-22 0 -31 -12t-9 -32v-28q0 -17 9 -28t38 -11z" />
    <glyph glyph-name="nun" unicode="&#x646;" horiz-adv-x="649" arabic-form="isolated" 
d="M599 28q0 -58 -17.5 -107.5t-50.5 -85.5t-80 -56.5t-105 -20.5h-66q-112 0 -174 69t-62 189v182h126v-176q0 -29 6 -52.5t20.5 -40t39 -25.5t61.5 -9h44q39 0 64.5 10.5t40.5 29t21 42.5t6 51v269h126v-269zM368 308h-132v121h132v-121z" />
    <glyph glyph-name="he" unicode="&#x647;" horiz-adv-x="446" arabic-form="isolated" 
d="M44 154q0 29 7 54.5t20.5 49.5t32.5 48.5t44 51.5l-46 46l85 91q62 -60 103.5 -105t66 -82t35 -70t10.5 -68q0 -37 -14 -68.5t-38 -54t-57.5 -35t-72.5 -12.5t-71.5 11t-55.5 31t-36 48.5t-13 63.5zM275 183q0 7 -1.5 14t-6.5 16.5t-15.5 23t-29.5 32.5
q-35 -35 -43.5 -54.5t-8.5 -32.5q0 -17 12.5 -31t40.5 -14t40 14t12 32z" />
    <glyph glyph-name="vav" unicode="&#x648;" horiz-adv-x="446" arabic-form="isolated" 
d="M143 -105q67 0 96 30.5t34 74.5h-47q-52 0 -85 11t-52 33t-26.5 53.5t-7.5 72.5q0 39 11 74.5t32.5 61.5t54 41.5t75.5 15.5q34 0 64.5 -11t53.5 -35t36.5 -63t13.5 -95v-143q0 -51 -17 -98t-49 -82.5t-78 -56.5t-104 -21h-98l-6 137h99zM176 180q0 -24 10.5 -33.5
t39.5 -9.5h49v28q0 38 -12.5 52t-38.5 14q-48 0 -48 -51z" />
    <glyph glyph-name="alef.maksura" unicode="&#x649;" horiz-adv-x="676" arabic-form="isolated" 
d="M352 -105q79 0 116.5 19.5t37.5 52.5t-33 33h-171v204q0 39 12 72t35 57.5t56 38t74 13.5h115l5 -137h-120q-50 0 -50 -50v-61h66q78 0 107.5 -39t29.5 -109q0 -50 -19.5 -92t-54.5 -73t-83.5 -48.5t-105.5 -17.5h-89q-112 0 -174 69t-62 189v182h126v-176q0 -29 6 -52.5
t20.5 -40t39 -25.5t61.5 -9h55z" />
    <glyph glyph-name="ye.arab" unicode="&#x64a;" horiz-adv-x="676" arabic-form="isolated" 
d="M44 0zM352 -105q79 0 116.5 19.5t37.5 52.5t-33 33h-171v204q0 39 12 72t35 57.5t56 38t74 13.5h115l5 -137h-120q-50 0 -50 -50v-61h66q78 0 107.5 -39t29.5 -109q0 -50 -19.5 -92t-54.5 -73t-83.5 -48.5t-105.5 -17.5h-89q-112 0 -174 69t-62 189v182h126v-176
q0 -29 6 -52.5t20.5 -40t39 -25.5t61.5 -9h55zM467 -445h-121v116h121v-116zM313 -445h-121v116h121v-116z" />
    <glyph glyph-name="alef.vasla" unicode="&#x671;" horiz-adv-x="247" arabic-form="isolated" 
d="M60 465h127v-465h-127v465zM53 599q35 68 67.5 97.5t69.5 29.5q33 0 57.5 -26t24.5 -67q0 -17 -6 -35t-19 -34t-34 -26t-51 -10h-131l-39 33v86l61 5v-53zM168 599q39 0 39 30q0 11 -6.5 18.5t-18.5 7.5q-13 0 -29.5 -11t-37.5 -45h53z" />
    <glyph glyph-name="pe" unicode="&#x67e;" horiz-adv-x="760" arabic-form="isolated" 
d="M50 0zM204 0q-41 0 -70.5 12.5t-48 33.5t-27 49t-8.5 59v148h126v-115q0 -12 1.5 -21.5t7.5 -16t17 -9.5t30 -3h296q33 0 44 13.5t11 42.5v104h127v-138q0 -41 -14 -71t-37 -49.5t-51.5 -29t-57.5 -9.5h-346zM447 -379h-122v116h122v-116zM523 -225h-121v116h121v-116z
M369 -225h-121v116h121v-116z" />
    <glyph glyph-name="che" unicode="&#x686;" horiz-adv-x="539" arabic-form="isolated" 
d="M38 0zM352 226q-6 8 -11 13.5t-12 8.5t-17 4t-26 1h-204l6 138h220q29 0 56.5 -9t51.5 -33.5t44.5 -67.5t34.5 -111l-198 -115q-43 -25 -69 -49t-40 -46.5t-18.5 -44t-4.5 -42.5q0 -54 32.5 -87.5t110.5 -33.5h182l-6 -137h-176q-70 0 -121 19t-84 52.5t-49 78.5t-16 97
q0 48 10.5 88.5t34.5 77t63 70.5t96 67zM437.849 -208.493h-103.697v98.5967h103.697v-98.5967zM502.446 -77.5977h-102.847v98.5977h102.847v-98.5977zM371.551 -77.5977h-102.848v98.5977h102.848v-98.5977z" />
    <glyph glyph-name="re.bv.fina" unicode="&#x695;" horiz-adv-x="275" 
d="M0 0zM198 16q0 -51 -17.5 -98t-49 -82.5t-75 -56.5t-95.5 -21h-66l-5 137h38q42 0 70.5 10.5t46 27.5t25 38.5t7.5 44.5v281h127v-104q0 -29 17.5 -42.5t42.5 -13.5h11q22 0 22 -66q0 -71 -22 -71h-11q-17 0 -34.5 5.5t-31.5 22.5v-12zM160 -279l60 -39l-88 -176h-66
l-88 176l60 39l61 -127z" />
    <glyph glyph-name="je" unicode="&#x698;" horiz-adv-x="254" arabic-form="isolated" 
d="M0 0zM204 16q0 -51 -18.5 -98t-51 -82.5t-77 -56.5t-96.5 -21h-66l-5 137h38q42 0 70.5 10.5t46 27.5t25 38.5t7.5 44.5v281h127v-281v0zM193 561h-122v115h122v-115zM269 407h-121v116h121v-116zM115 407h-121v116h121v-116z" />
    <glyph glyph-name="veh" unicode="&#x6a4;" horiz-adv-x="843" arabic-form="isolated" 
d="M452 269q0 27 10.5 55.5t31 51.5t51 38t71.5 15q39 0 72 -10t56 -33t36 -61t13 -94v-55q0 -83 -46.5 -129.5t-146.5 -46.5h-396q-41 0 -70.5 12.5t-48 33.5t-27 49t-8.5 59v148h126v-115q0 -12 1.5 -21.5t7.5 -16t17 -9.5t30 -3h148q31 0 50.5 -0.5t33.5 -2t25.5 -4.5
t28.5 -9q-41 25 -53.5 60t-12.5 88zM567 242q0 -10 3 -19.5t13 -20.5t29.5 -24t51.5 -30q5 8 6 23.5t1 26.5v22q0 14 -2.5 27t-9 22.5t-17.5 15.5t-28 6q-27 0 -37 -16t-10 -33zM683 660h-122v115h122v-115zM759 506h-121v116h121v-116zM605 506h-121v116h121v-116z" />
    <glyph glyph-name="kaf" unicode="&#x6a9;" horiz-adv-x="776" arabic-form="isolated" 
d="M561 137q17 0 22.5 7t5.5 15q0 13 -4.5 23t-17.5 22l-171 170v143l331 121l27 -126l-236 -83l126 -127q24 -25 40 -46t25.5 -40.5t13.5 -38.5t4 -40q0 -37 -12 -63t-32 -42.5t-47 -24t-58 -7.5h-374q-41 0 -70.5 12.5t-48 33.5t-27 49t-8.5 59v148h126v-115
q0 -12 1.5 -21.5t7.5 -16t17 -9.5t30 -3h329z" />
    <glyph glyph-name="gaf" unicode="&#x6af;" horiz-adv-x="776" arabic-form="isolated" 
d="M385 682l302 110l17 -88l-313 -116zM561 137q17 0 22.5 7t5.5 15q0 13 -4.5 23t-17.5 22l-171 170v143l331 121l27 -126l-236 -83l126 -127q24 -25 40 -46t25.5 -40.5t13.5 -38.5t4 -40q0 -37 -12 -63t-32 -42.5t-47 -24t-58 -7.5h-374q-41 0 -70.5 12.5t-48 33.5t-27 49
t-8.5 59v148h126v-115q0 -12 1.5 -21.5t7.5 -16t17 -9.5t30 -3h329z" />
    <glyph glyph-name="lam.tv.init" unicode="&#x6b5;" horiz-adv-x="264" 
d="M22 137q29 0 42 13.5t13 42.5v269h127v-280q0 -91 -44 -136.5t-127 -45.5h-33q-13 0 -17.5 16.5t-4.5 49.5q0 38 4.5 54.5t17.5 16.5h22zM198 732l60 -39l-88 -176h-66l-88 176l60 39l61 -127z" />
    <glyph glyph-name="lam.tvmedi" unicode="&#x6b5;" horiz-adv-x="286" 
d="M22 137q29 0 42 13.5t13 42.5v269h127v-269q0 -29 18 -42.5t47 -13.5h17q22 0 22 -66q0 -71 -22 -71h-22q-37 0 -69.5 11.5t-57.5 49.5q-24 -38 -53 -49.5t-62 -11.5h-22q-13 0 -17.5 16.5t-4.5 49.5q0 38 4.5 54.5t17.5 16.5h22zM198 732l60 -39l-88 -176h-66l-88 176
l60 39l61 -127z" />
    <glyph glyph-name="lam.tv.fina" unicode="&#x6b5;" horiz-adv-x="671" 
d="M44 0zM660 0q-17 0 -34.5 5.5t-31.5 22.5v-6q0 -56 -17 -104t-49.5 -83.5t-78.5 -56t-103 -20.5h-66q-112 0 -174 69t-62 189v182h126v-176q0 -29 6 -52.5t20.5 -40t39 -25.5t61.5 -9h44q39 0 64.5 10.5t40.5 29t21 42.5t6 51v592h126v-427q0 -29 18 -42.5t43 -13.5h11
q22 0 22 -66q0 -71 -22 -71h-11zM358 622l60 -39l-88 -176h-66l-88 176l60 39l61 -127z" />
    <glyph glyph-name="he.thmz" unicode="&#x6c0;" horiz-adv-x="446" arabic-form="isolated" 
d="M176 561q-50 0 -72 22t-22 55q0 29 16 60.5t45 77.5h126l-5 -89h-88q-8 -11 -10.5 -16t-2.5 -10q0 -12 19 -12h184l-3 -88h-187zM44 154q0 29 7 54.5t20.5 49.5t32.5 48.5t44 51.5l-46 46l85 91q62 -60 103.5 -105t66 -82t35 -70t10.5 -68q0 -37 -14 -68.5t-38 -54
t-57.5 -35t-72.5 -12.5t-71.5 11t-55.5 31t-36 48.5t-13 63.5zM275 183q0 7 -1.5 14t-6.5 16.5t-15.5 23t-29.5 32.5q-35 -35 -43.5 -54.5t-8.5 -32.5q0 -17 12.5 -31t40.5 -14t40 14t12 32z" />
    <glyph glyph-name="he.thmz.goal.fina" unicode="&#x6c2;" horiz-adv-x="468" 
d="M50 0zM219 165q30 0 43 13.5t13 37.5v59h-46q-35 0 -46.5 -17.5t-11.5 -44.5q0 -23 10 -35.5t38 -12.5zM397 187q0 -50 44 -50h27q13 0 17.5 -16t4.5 -50q0 -37 -4.5 -54t-17.5 -17h-27q-54 0 -85 17t-48 54q-25 -25 -55.5 -31.5t-59.5 -6.5q-70 0 -106.5 44t-36.5 127
q0 37 10.5 72.5t31 63.5t51.5 45t72 17h60v66h122v-281zM364 627l-188 -94l-32 67l55 25q-35 31 -35 73t28.5 68t70.5 26h46l-5 -77h-29q-17 0 -25 -7.5t-8 -18.5q0 -10 7 -16.5t18 -6.5q10 0 27 7t40 20z" />
    <glyph glyph-name="vav.tv" unicode="&#x6c6;" horiz-adv-x="446" arabic-form="isolated" 
d="M44 0zM143 -105q67 0 96 30.5t34 74.5h-47q-52 0 -85 11t-52 33t-26.5 53.5t-7.5 72.5q0 39 11 74.5t32.5 61.5t54 41.5t75.5 15.5q34 0 64.5 -11t53.5 -35t36.5 -63t13.5 -95v-143q0 -51 -17 -98t-49 -82.5t-78 -56.5t-104 -21h-98l-6 137h99zM176 180q0 -24 10.5 -33.5
t39.5 -9.5h49v28q0 38 -12.5 52t-38.5 14q-48 0 -48 -51zM281 633l60 -39l-88 -176h-66l-88 176l60 39l61 -127z" />
    <glyph glyph-name="vav.t2p.fina" unicode="&#x6ca;" horiz-adv-x="468" 
d="M44 0zM143 -105q67 0 96 30.5t34 74.5h-47q-52 0 -85 11t-52 33t-26.5 53.5t-7.5 72.5q0 39 11 74.5t32.5 61.5t54 41.5t75.5 15.5q34 0 64.5 -11t53.5 -35t36.5 -63t13.5 -95v-22h72q22 0 22 -66q0 -71 -22 -71h-73q-3 -49 -21 -93t-49.5 -77t-76.5 -52.5t-100 -19.5
h-98l-6 137h99zM176 180q0 -24 10.5 -33.5t39.5 -9.5h49v28q0 38 -12.5 52t-38.5 14q-48 0 -48 -51zM363 451h-121v116h121v-116zM209 451h-121v116h121v-116z" />
    <glyph glyph-name="ye" unicode="&#x6cc;" horiz-adv-x="676" arabic-form="isolated" 
d="M44 0zM352 -105q79 0 116.5 19.5t37.5 52.5t-33 33h-171v204q0 39 12 72t35 57.5t56 38t74 13.5h115l5 -137h-120q-50 0 -50 -50v-61h66q78 0 107.5 -39t29.5 -109q0 -50 -19.5 -92t-54.5 -73t-83.5 -48.5t-105.5 -17.5h-89q-112 0 -174 69t-62 189v182h126v-176
q0 -29 6 -52.5t20.5 -40t39 -25.5t61.5 -9h55z" />
    <glyph glyph-name="ye.tv.init" unicode="&#x6ce;" horiz-adv-x="325" 
d="M0 0zM94 137q29 0 41.5 13.5t12.5 42.5v104h127v-115q0 -91 -43.5 -136.5t-126.5 -45.5h-105q-13 0 -17.5 16.5t-4.5 49.5q0 38 4.5 54.5t17.5 16.5h94zM269 -225h-121v116h121v-116zM115 -225h-121v116h121v-116zM204 600l60 -39l-88 -176h-66l-88 176l60 39l61 -127z
" />
    <glyph glyph-name="ye.tv.medi" unicode="&#x6ce;" horiz-adv-x="335" 
d="M0 0zM66 137q29 0 42 13.5t13 42.5v104h127v-104q0 -29 18 -42.5t47 -13.5h22q23 0 23 -66q0 -71 -23 -71h-27q-38 0 -69.5 11.5t-56.5 49.5q-26 -38 -54.5 -49.5t-61.5 -11.5h-66q-13 0 -17.5 16.5t-4.5 49.5q0 38 4.5 54.5t17.5 16.5h66zM307 -225h-121v116h121v-116z
M153 -225h-121v116h121v-116zM243 600l60 -39l-88 -176h-66l-88 176l60 39l61 -127z" />
    <glyph glyph-name="ye.tv.fina" unicode="&#x6ce;" horiz-adv-x="682" 
d="M44 0zM374 -105q39 0 64.5 3.5t40.5 10.5t21 18.5t6 28.5t-9.5 30.5t-34.5 13.5h-127l6 137h341q22 0 22 -66q0 -71 -22 -71h-77q22 -15 22 -66q0 -27 -12.5 -58t-40 -57t-72.5 -43.5t-111 -17.5h-111q-112 0 -174 69t-62 189v182h126v-176q0 -29 6 -52.5t20.5 -40
t39 -25.5t61.5 -9h77zM358 424l60 -39l-88 -176h-66l-88 176l60 39l61 -127z" />
    <glyph glyph-name="ae.fina" unicode="&#x6d5;" horiz-adv-x="468" 
d="M50 0zM219 165q30 0 43 13.5t13 37.5v59h-46q-35 0 -46.5 -17.5t-11.5 -44.5q0 -23 10 -35.5t38 -12.5zM397 187q0 -50 44 -50h27q13 0 17.5 -16t4.5 -50q0 -37 -4.5 -54t-17.5 -17h-27q-54 0 -85 17t-48 54q-25 -25 -55.5 -31.5t-59.5 -6.5q-70 0 -106.5 44t-36.5 127
q0 37 10.5 72.5t31 63.5t51.5 45t72 17h60v66h122v-281z" />
    <glyph glyph-name="alef.vasla.fina" unicode="&#x671;" horiz-adv-x="258" arabic-form="final" 
d="M203 0q-29 0 -55 7.5t-45.5 25.5t-31 47.5t-11.5 73.5v311h127v-278q0 -50 44 -50h27q22 0 22 -66q0 -71 -22 -71h-55zM53 599q35 68 67.5 97.5t69.5 29.5q33 0 57.5 -26t24.5 -67q0 -17 -6 -35t-19 -34t-34 -26t-51 -10h-131l-39 33v86l61 5v-53zM168 599q39 0 39 30
q0 11 -6.5 18.5t-18.5 7.5q-13 0 -29.5 -11t-37.5 -45h53z" />
    <glyph glyph-name="pe.fina" unicode="&#x67e;" horiz-adv-x="798" arabic-form="final" 
d="M50 0zM528 137q29 0 42 13.5t13 42.5v104h127v-104q0 -29 18.5 -42.5t47.5 -13.5h22q13 0 17.5 -16t4.5 -50q0 -37 -4.5 -54t-17.5 -17h-27q-38 0 -70 11.5t-57 49.5q-25 -38 -54 -49.5t-62 -11.5h-324q-41 0 -70.5 12.5t-48 33.5t-27 49t-8.5 59v148h126v-115
q0 -12 1.5 -21.5t7.5 -16t17 -9.5t30 -3h296zM447 -379h-122v116h122v-116zM523 -225h-121v116h121v-116zM369 -225h-121v116h121v-116z" />
    <glyph glyph-name="pe.init" unicode="&#x67e;" horiz-adv-x="325" arabic-form="initial" 
d="M0 0zM94 137q29 0 41.5 13.5t12.5 42.5v104h127v-115q0 -91 -43.5 -136.5t-126.5 -45.5h-105q-13 0 -17.5 16.5t-4.5 49.5q0 38 4.5 54.5t17.5 16.5h94zM193 -379h-122v116h122v-116zM269 -225h-121v116h121v-116zM115 -225h-121v116h121v-116z" />
    <glyph glyph-name="pe.medi" unicode="&#x67e;" horiz-adv-x="335" arabic-form="medial" 
d="M0 0zM66 137q29 0 42 13.5t13 42.5v104h127v-104q0 -29 18 -42.5t47 -13.5h22q23 0 23 -66q0 -71 -23 -71h-27q-38 0 -69.5 11.5t-56.5 49.5q-26 -38 -54.5 -49.5t-61.5 -11.5h-66q-13 0 -17.5 16.5t-4.5 49.5q0 38 4.5 54.5t17.5 16.5h66zM215 -379h-122v116h122v-116z
M291 -225h-121v116h121v-116zM137 -225h-121v116h121v-116z" />
    <glyph glyph-name="veh.fina" unicode="&#x6a4;" horiz-adv-x="864" arabic-form="final" 
d="M620 286q-23 0 -38 -15t-15 -40q0 -20 13 -40t42 -37q29 17 39 37t10 40q0 25 -14.5 40t-36.5 15zM627 424q42 0 73 -15t51.5 -39t31 -53.5t10.5 -58.5q0 -41 -11 -68.5t-28 -52.5h110q13 0 17.5 -16t4.5 -50q0 -37 -4.5 -54t-17.5 -17h-93q-46 0 -82.5 4.5t-55.5 17.5
q-15 -8 -35 -12.5t-42 -6.5t-42 -2.5t-35 -0.5h-275q-41 0 -70.5 12.5t-48 33.5t-27 49t-8.5 59v148h126v-115q0 -12 1.5 -21.5t7.5 -16t17 -9.5t30 -3h253q-25 34 -32 60.5t-7 55.5q0 33 13 64t36.5 54.5t57 38t74.5 14.5zM683 644h-122v115h122v-115zM759 490h-121v116
h121v-116zM605 490h-121v116h121v-116z" />
    <glyph glyph-name="veh.init" unicode="&#x6a4;" horiz-adv-x="463" arabic-form="initial" 
d="M0 0zM38 137q19 0 31.5 -0.5t23 -2.5t20.5 -5t24 -8q-41 25 -53.5 60t-12.5 88q0 27 10.5 55.5t31.5 51.5t52 38t72 15q39 0 71.5 -10t55.5 -33t36 -61t13 -94v-55q0 -83 -46.5 -129.5t-146.5 -46.5h-220q-13 0 -17.5 16.5t-4.5 49.5q0 38 4.5 54.5t17.5 16.5h38z
M234 291q-27 0 -37 -16t-10 -33q0 -10 3 -19.5t13 -20.5t29.5 -24t51.5 -30q5 8 6 23.5t1 26.5v22q0 14 -2.5 27t-9 22.5t-17.5 15.5t-28 6zM298 655h-122v115h122v-115zM374 501h-121v116h121v-116zM220 501h-121v116h121v-116z" />
    <glyph glyph-name="veh.medi" unicode="&#x6a4;" horiz-adv-x="490" arabic-form="medial" 
d="M0 0zM110 137q-25 34 -32 60.5t-7 55.5q0 33 13 64t37 54.5t57.5 38t74.5 14.5t72 -15t51.5 -39t31 -53.5t10.5 -58.5q0 -41 -10.5 -68.5t-27.5 -52.5h110q22 0 22 -66q0 -71 -22 -71h-94q-46 0 -82 4.5t-56 17.5q-14 -8 -34.5 -12.5t-42 -6.5t-42 -2.5t-34.5 -0.5h-105
q-13 0 -17.5 16.5t-4.5 49.5q0 38 4.5 54.5t17.5 16.5h110zM245 286q-23 0 -37.5 -15t-14.5 -40q0 -20 13 -40t42 -37q29 17 39 37t10 40q0 25 -14.5 40t-37.5 15zM309 644h-122v115h122v-115zM385 490h-121v116h121v-116zM231 490h-121v116h121v-116z" />
    <glyph glyph-name="che.fina" unicode="&#x686;" horiz-adv-x="566" arabic-form="final" 
d="M38 0zM352 226q-6 8 -11 13.5t-12 8.5t-17 4t-26 1h-204l6 138h220q29 0 56.5 -9t51.5 -33.5t44.5 -67.5t34.5 -111l-40 -23q12 -8 27.5 -9t34.5 -1h49q13 0 17.5 -16t4.5 -50q0 -37 -4.5 -54t-17.5 -17h-54q-34 0 -58 7t-41 20t-28 30.5t-18 38.5l-70 -41
q-43 -25 -69 -49t-40 -46.5t-18.5 -44t-4.5 -42.5q0 -54 32.5 -87.5t110.5 -33.5h182l-6 -137h-176q-70 0 -121 19t-84 52.5t-49 78.5t-16 97q0 48 10.5 88.5t34.5 77t63 70.5t96 67zM383.701 -210.003h-85.4023v81.2012h85.4023v-81.2012zM436.901 -102.201h-84.7012
v81.2012h84.7012v-81.2012zM329.1 -102.201h-84.7012v81.2012h84.7012v-81.2012z" />
    <glyph glyph-name="che.init" unicode="&#x686;" horiz-adv-x="522" arabic-form="initial" 
d="M0 0zM286 55q-29 -17 -56 -27.5t-57 -16.5t-65 -8.5t-80 -2.5h-28q-13 0 -17.5 16.5t-4.5 49.5q0 38 4.5 54.5t17.5 16.5h33q37 0 66.5 0.5t54 3.5t46 10t43.5 19l98 56q-6 8 -11 13.5t-12 8.5t-17 4t-26 1h-204l6 138h220q29 0 56.5 -9t51.5 -33.5t44.5 -67.5t34.5 -111
zM330 -379h-122v116h122v-116zM406 -225h-121v116h121v-116zM252 -225h-121v116h121v-116z" />
    <glyph glyph-name="che.medi" unicode="&#x686;" horiz-adv-x="555" arabic-form="medial" 
d="M0 0zM444 147q12 -8 27.5 -9t34.5 -1h49q13 0 17.5 -16t4.5 -50q0 -37 -4.5 -54t-17.5 -17h-54q-34 0 -58 7t-41 20t-28 30.5t-18 38.5l-70 -41q-29 -17 -56 -27.5t-57 -16.5t-65 -8.5t-80 -2.5h-28q-13 0 -17.5 16.5t-4.5 49.5q0 38 4.5 54.5t17.5 16.5h33
q37 0 66.5 0.5t54 3.5t46 10t43.5 19l98 56q-6 8 -11 13.5t-12 8.5t-17 4t-26 1h-204l6 138h220q29 0 56.5 -9t51.5 -33.5t44.5 -67.5t34.5 -111zM330 -379h-122v116h122v-116zM406 -225h-121v116h121v-116zM252 -225h-121v116h121v-116z" />
    <glyph glyph-name="je.fina" unicode="&#x698;" horiz-adv-x="275" arabic-form="final" 
d="M0 0zM198 16q0 -51 -17.5 -98t-49 -82.5t-75 -56.5t-95.5 -21h-66l-5 137h38q42 0 70.5 10.5t46 27.5t25 38.5t7.5 44.5v281h127v-104q0 -29 17.5 -42.5t42.5 -13.5h11q22 0 22 -66q0 -71 -22 -71h-11q-17 0 -34.5 5.5t-31.5 22.5v-12zM193 561h-122v115h122v-115z
M269 407h-121v116h121v-116zM115 407h-121v116h121v-116z" />
    <glyph glyph-name="kaf.fina" unicode="&#x6a9;" horiz-adv-x="919" arabic-form="final" 
d="M396 374v143l331 121l27 -126l-236 -83l126 -127q62 -62 100 -95.5t66 -49t52 -18t57 -2.5q13 0 17.5 -16t4.5 -50q0 -37 -4.5 -54t-17.5 -17q-32 0 -57.5 1t-49.5 8.5t-48 23.5t-53 46q-15 -44 -51.5 -61.5t-81.5 -17.5h-374q-41 0 -70.5 12.5t-48 33.5t-27 49t-8.5 59
v148h126v-115q0 -12 1.5 -21.5t7.5 -16t17 -9.5t30 -3h329q17 0 22.5 7t5.5 15q0 13 -5 22.5t-17 22.5z" />
    <glyph glyph-name="kaf.init" unicode="&#x6a9;" horiz-adv-x="451" arabic-form="initial" 
d="M237 137q16 0 21.5 7t5.5 15q0 13 -4.5 23t-17.5 22l-171 170v143l331 121l27 -126l-236 -83l126 -127q24 -25 40 -46t25.5 -40.5t13.5 -38.5t4 -40q0 -37 -12 -63t-32 -42.5t-47 -24t-58 -7.5h-253q-13 0 -17.5 16.5t-4.5 49.5q0 38 4.5 54.5t17.5 16.5h237z" />
    <glyph glyph-name="kaf.medi" unicode="&#x6a9;" horiz-adv-x="594" arabic-form="medial" 
d="M237 137q16 0 21.5 7t5.5 15q0 13 -4.5 23t-17.5 22l-171 170v143l331 121l27 -126l-236 -83l126 -127q62 -62 100.5 -95.5t66 -49t51.5 -18t57 -2.5q22 0 22 -66q0 -71 -22 -71q-32 0 -57.5 1t-49.5 8.5t-48 23.5t-53 46q-15 -44 -51.5 -61.5t-81.5 -17.5h-253
q-13 0 -17.5 16.5t-4.5 49.5q0 38 4.5 54.5t17.5 16.5h237z" />
    <glyph glyph-name="gaf.fina" unicode="&#x6af;" horiz-adv-x="919" arabic-form="final" 
d="M385 682l302 110l17 -88l-313 -116zM396 374v143l331 121l27 -126l-236 -83l126 -127q62 -62 100 -95.5t66 -49t52 -18t57 -2.5q13 0 17.5 -16t4.5 -50q0 -37 -4.5 -54t-17.5 -17q-32 0 -57.5 1t-49.5 8.5t-48 23.5t-53 46q-15 -44 -51.5 -61.5t-81.5 -17.5h-374
q-41 0 -70.5 12.5t-48 33.5t-27 49t-8.5 59v148h126v-115q0 -12 1.5 -21.5t7.5 -16t17 -9.5t30 -3h329q17 0 22.5 7t5.5 15q0 13 -5 22.5t-17 22.5z" />
    <glyph glyph-name="gaf.init" unicode="&#x6af;" horiz-adv-x="451" arabic-form="initial" 
d="M65 682l302 110l17 -88l-313 -116zM237 137q16 0 21.5 7t5.5 15q0 13 -4.5 23t-17.5 22l-171 170v143l331 121l27 -126l-236 -83l126 -127q24 -25 40 -46t25.5 -40.5t13.5 -38.5t4 -40q0 -37 -12 -63t-32 -42.5t-47 -24t-58 -7.5h-253q-13 0 -17.5 16.5t-4.5 49.5
q0 38 4.5 54.5t17.5 16.5h237z" />
    <glyph glyph-name="gaf.medi" unicode="&#x6af;" horiz-adv-x="594" arabic-form="medial" 
d="M65 682l302 110l17 -88l-313 -116zM237 137q16 0 21.5 7t5.5 15q0 13 -4.5 23t-17.5 22l-171 170v143l331 121l27 -126l-236 -83l126 -127q62 -62 100.5 -95.5t66 -49t51.5 -18t57 -2.5q22 0 22 -66q0 -71 -22 -71q-32 0 -57.5 1t-49.5 8.5t-48 23.5t-53 46
q-15 -44 -51.5 -61.5t-81.5 -17.5h-253q-13 0 -17.5 16.5t-4.5 49.5q0 38 4.5 54.5t17.5 16.5h237z" />
    <glyph glyph-name="he.thmz.fina" unicode="&#x6c0;" horiz-adv-x="468" arabic-form="final" 
d="M204 490q-50 0 -71.5 21.5t-21.5 54.5q0 29 15.5 60.5t44.5 77.5h126l-5 -88h-88q-8 -11 -10.5 -16t-2.5 -10q0 -13 19 -13h184l-3 -87h-187zM219 165q30 0 43 13.5t13 37.5v59h-46q-35 0 -46.5 -17.5t-11.5 -44.5q0 -23 10 -35.5t38 -12.5zM397 187q0 -50 44 -50h27
q13 0 17.5 -16t4.5 -50q0 -37 -4.5 -54t-17.5 -17h-27q-54 0 -85 17t-48 54q-25 -25 -55.5 -31.5t-59.5 -6.5q-70 0 -106.5 44t-36.5 127q0 37 10.5 72.5t31 63.5t51.5 45t72 17h182v-215z" />
    <glyph glyph-name="he.dochashmi.fina" unicode="&#x6be;" horiz-adv-x="638" arabic-form="final" 
d="M396 209q0 21 -11.5 35t-32.5 14q-25 0 -37.5 -16.5t-12.5 -52.5v-244q0 -42 38 -50l78 94q45 54 72.5 83.5t49.5 44t43.5 17.5t54.5 3q22 0 22 -66q0 -71 -22 -71t-39 -2t-36 -13t-42.5 -36t-58.5 -70l-93 -121q-39 0 -72.5 11t-58 33.5t-38 55t-13.5 76.5v248
q0 37 7.5 74t26.5 67t52 49t85 19q37 0 66 -12.5t48.5 -34.5t29.5 -51t10 -62q0 -74 -41 -129t-106.5 -97t-145.5 -73.5t-158 -58.5l-39 121q74 21 142 46.5t119.5 53t82 57t30.5 58.5z" />
    <glyph glyph-name="he.dochashmi.init" unicode="&#x6be;" horiz-adv-x="693" arabic-form="initial" 
d="M0 0zM240 286q-23 0 -38 -15t-15 -40q0 -20 13 -43t42 -40q29 17 39 40t10 43q0 25 -14.5 40t-36.5 15zM0 0q-13 0 -17.5 16.5t-4.5 49.5q0 38 4.5 54.5t17.5 16.5h110q-21 29 -30 58t-9 58q0 33 12 63t35 52.5t55.5 36t74.5 13.5q41 0 71 -14t49.5 -37t29 -51.5
t9.5 -57.5q0 -37 -10.5 -66.5t-27.5 -54.5h115q26 0 26 19q0 5 -2.5 10t-10.5 16l-156 198l94 88l159 -204q30 -38 42.5 -70t12.5 -62q0 -27 -9.5 -51t-29 -42t-48.5 -28.5t-67 -10.5h-110q-46 0 -81.5 4.5t-55.5 17.5q-15 -8 -35.5 -12.5t-42 -6.5t-42 -2.5t-34.5 -0.5h-94
z" />
    <glyph glyph-name="he.dochashmi.medi" unicode="&#x6be;" horiz-adv-x="522" arabic-form="medial" 
d="M0 0zM71 137v45q0 37 7.5 74t26.5 67t52.5 49t84.5 19q37 0 66 -12.5t48.5 -34.5t29.5 -51t10 -62q0 -50 -18 -89t-47.5 -67.5t-67 -46t-76.5 -23.5v-60q0 -41 37 -50l78 94q45 54 73 83.5t49.5 44t43 17.5t54.5 3q13 0 17.5 -16t4.5 -50q0 -37 -4.5 -54t-17.5 -17
q-22 0 -39 -2t-35.5 -13t-42.5 -36t-59 -70l-93 -121q-39 0 -72.5 11t-58 33.5t-38 55t-13.5 76.5v66h-71q-13 0 -17.5 16.5t-4.5 49.5q0 38 4.5 54.5t17.5 16.5h71zM187 132q53 8 73 30t20 47q0 21 -11.5 35t-31.5 14q-25 0 -37.5 -16.5t-12.5 -52.5v-57z" />
    <glyph glyph-name="vav.tv.fina" unicode="&#x6c6;" horiz-adv-x="468" arabic-form="final" 
d="M44 0zM143 -105q67 0 96 30.5t34 74.5h-47q-52 0 -85 11t-52 33t-26.5 53.5t-7.5 72.5q0 39 11 74.5t32.5 61.5t54 41.5t75.5 15.5q34 0 64.5 -11t53.5 -35t36.5 -63t13.5 -95v-22h72q22 0 22 -66q0 -71 -22 -71h-73q-3 -49 -21 -93t-49.5 -77t-76.5 -52.5t-100 -19.5
h-98l-6 137h99zM176 180q0 -24 10.5 -33.5t39.5 -9.5h49v28q0 38 -12.5 52t-38.5 14q-48 0 -48 -51zM281 633l60 -39l-88 -176h-66l-88 176l60 39l61 -127z" />
    <glyph glyph-name="alef.maksura.init" unicode="&#x649;" horiz-adv-x="325" arabic-form="initial" 
d="M94 137q29 0 41.5 13.5t12.5 42.5v104h127v-115q0 -91 -43.5 -136.5t-126.5 -45.5h-105q-13 0 -17.5 16.5t-4.5 49.5q0 38 4.5 54.5t17.5 16.5h94z" />
    <glyph glyph-name="alef.maksura.medi" unicode="&#x649;" horiz-adv-x="335" arabic-form="medial" 
d="M66 137q29 0 42 13.5t13 42.5v104h127v-104q0 -29 18 -42.5t47 -13.5h22q23 0 23 -66q0 -71 -23 -71h-27q-38 0 -69.5 11.5t-56.5 49.5q-26 -38 -54.5 -49.5t-61.5 -11.5h-66q-13 0 -17.5 16.5t-4.5 49.5q0 38 4.5 54.5t17.5 16.5h66z" />
    <glyph glyph-name="ye.fina" unicode="&#x6cc;" horiz-adv-x="682" arabic-form="final" 
d="M44 0zM374 -105q39 0 64.5 3.5t40.5 10.5t21 18.5t6 28.5t-9.5 30.5t-34.5 13.5h-127l6 137h341q22 0 22 -66q0 -71 -22 -71h-77q22 -15 22 -66q0 -27 -12.5 -58t-40 -57t-72.5 -43.5t-111 -17.5h-111q-112 0 -174 69t-62 189v182h126v-176q0 -29 6 -52.5t20.5 -40
t39 -25.5t61.5 -9h77z" />
    <glyph glyph-name="ye.init" unicode="&#x6cc;" horiz-adv-x="325" arabic-form="initial" 
d="M0 0zM94 137q29 0 41.5 13.5t12.5 42.5v104h127v-115q0 -91 -43.5 -136.5t-126.5 -45.5h-105q-13 0 -17.5 16.5t-4.5 49.5q0 38 4.5 54.5t17.5 16.5h94zM269 -225h-121v116h121v-116zM115 -225h-121v116h121v-116z" />
    <glyph glyph-name="ye.medi" unicode="&#x6cc;" horiz-adv-x="335" arabic-form="medial" 
d="M0 0zM66 137q29 0 42 13.5t13 42.5v104h127v-104q0 -29 18 -42.5t47 -13.5h22q23 0 23 -66q0 -71 -23 -71h-27q-38 0 -69.5 11.5t-56.5 49.5q-26 -38 -54.5 -49.5t-61.5 -11.5h-66q-13 0 -17.5 16.5t-4.5 49.5q0 38 4.5 54.5t17.5 16.5h66zM307 -225h-121v116h121v-116z
M153 -225h-121v116h121v-116z" />
    <glyph glyph-name=".shdd.on" unicode="&#xfc5e;" arabic-form="isolated" 
d="M0 0zM9 325q-8 8 -16 23.5t-8 36.5t7.5 38t20.5 29t29 18.5t34 6.5q42 0 68 -26.5t26 -71.5q0 -30 -18.5 -55.5t-57.5 -44.5l-175 -70l-31 61v49q0 13 -5 17.5t-13 4.5h-30v72h59q21 0 32.5 -11.5t11.5 -37.5v-64zM53 379q0 -18 23 -33q14 7 19.5 16t5.5 19
q0 8 -5.5 15.5t-19.5 7.5q-13 0 -18 -8t-5 -17zM0 22q-6 -7 -16 -14.5t-21 -7.5h-38q-13 0 -28.5 4t-29 16.5t-23 36t-9.5 62.5v61h77v-70q0 -22 10 -27.5t25 -5.5h14v103h77v-103h15q15 0 25 5.5t10 27.5v70h77v-61q0 -39 -10 -62.5t-25 -36t-31.5 -16.5t-29.5 -4h-32
q-11 0 -21 7.5t-16 14.5z" />
    <glyph glyph-name=".shdd.en" unicode="&#xfc5f;" arabic-form="isolated" 
d="M0 0zM0 352q-6 -7 -16 -14.5t-21 -7.5h-38q-13 0 -28.5 4t-29 16.5t-23 36t-9.5 62.5v61h77v-70q0 -22 10 -27.5t25 -5.5h14v103h77v-103h15q15 0 25 5.5t10 27.5v70h77v-61q0 -39 -10 -62.5t-25 -36t-31.5 -16.5t-29.5 -4h-32q-11 0 -21 7.5t-16 14.5zM107 170l28 -71
l-242 -99l-28 71zM107 291l28 -71l-242 -99l-28 71z" />
    <glyph glyph-name=".shdd.a" unicode="&#xfc60;" arabic-form="isolated" 
d="M0 0zM107 385l28 -71l-242 -99l-28 71zM0 22q-6 -7 -16 -14.5t-21 -7.5h-38q-13 0 -28.5 4t-29 16.5t-23 36t-9.5 62.5v61h77v-70q0 -22 10 -27.5t25 -5.5h14v103h77v-103h15q15 0 25 5.5t10 27.5v70h77v-61q0 -39 -10 -62.5t-25 -36t-31.5 -16.5t-29.5 -4h-32
q-11 0 -21 7.5t-16 14.5z" />
    <glyph glyph-name=".shdd.o" unicode="&#xfc61;" arabic-form="isolated" 
d="M0 0zM-143 291l120 45q-8 8 -16 23.5t-8 36.5t7.5 38t20.5 29t29 18.5t34 6.5q42 0 67.5 -26.5t25.5 -71.5q0 -30 -18.5 -55.5t-56.5 -44.5l-175 -70zM21 390q0 -18 23 -33q14 7 19 16t5 19q0 8 -5 15.5t-19 7.5t-18.5 -8t-4.5 -17zM0 22q-6 -7 -16 -14.5t-21 -7.5h-38
q-13 0 -28.5 4t-29 16.5t-23 36t-9.5 62.5v61h77v-70q0 -22 10 -27.5t25 -5.5h14v103h77v-103h15q15 0 25 5.5t10 27.5v70h77v-61q0 -39 -10 -62.5t-25 -36t-31.5 -16.5t-29.5 -4h-32q-11 0 -21 7.5t-16 14.5z" />
    <glyph glyph-name=".shdd.e" unicode="&#xfc62;" arabic-form="isolated" 
d="M0 0zM0 226q-6 -7 -16 -14.5t-21 -7.5h-38q-13 0 -28.5 4t-29 16.5t-23 36t-9.5 62.5v61h77v-70q0 -22 10 -27.5t25 -5.5h14v103h77v-103h15q15 0 25 5.5t10 27.5v70h77v-61q0 -39 -10 -62.5t-25 -36t-31.5 -16.5t-29.5 -4h-32q-11 0 -21 7.5t-16 14.5zM107 170l28 -71
l-242 -99l-28 71z" />
    <glyph glyph-name=".shdd.aa" unicode="&#xfc63;" arabic-form="isolated" 
d="M0 0zM1 22q-6 -7 -16 -14.5t-21 -7.5h-38q-13 0 -28.5 4t-29 16.5t-23 36t-9.5 62.5v61h77v-70q0 -22 10 -27.5t25 -5.5h14v103h77v-103h15q15 0 25 5.5t10 27.5v70h77v-61q0 -39 -10 -62.5t-25 -36t-31.5 -16.5t-29.5 -4h-32q-11 0 -21 7.5t-16 14.5zM-39 418h77v-176
h-77v176z" />
    <glyph glyph-name="rial" unicode="&#xfdfc;" horiz-adv-x="1448" arabic-form="isolated" 
d="M46 0zM1122 -105h11q37 0 63.5 10.5t43 27.5t24 38.5t7.5 44.5v281h127v-281q0 -51 -18.5 -98t-51 -82.5t-77 -56.5t-96.5 -21h-27zM1004 137q29 0 41.5 13.5t12.5 42.5v104h127v-115q0 -91 -43.5 -136.5t-126.5 -45.5h-105q-13 0 -17.5 16.5t-4.5 49.5q0 38 4.5 54.5
t17.5 16.5h94zM970 -236h-121v116h121v-116zM816 -236h-121v116h121v-116zM854 0q-29 0 -55 7.5t-45.5 25.5t-31 47.5t-11.5 73.5v466h127v-433q0 -50 44 -50h27q22 0 22 -66q0 -71 -22 -71h-55zM601 28q0 -58 -17.5 -107.5t-50.5 -85.5t-80 -56.5t-105 -20.5h-66
q-112 0 -174 69t-62 189v182h126v-176q0 -29 6 -52.5t20.5 -40t39 -25.5t61.5 -9h44q39 0 64.5 10.5t40.5 29t21 42.5t6 51v592h126v-592z" />
    <glyph glyph-name="alef.aa.fina" unicode="&#x622;" horiz-adv-x="258" arabic-form="final" 
d="M203 0q-29 0 -55 7.5t-45.5 25.5t-31 47.5t-11.5 73.5v308h127v-275q0 -50 44 -50h27q22 0 22 -66q0 -71 -22 -71h-55zM64 561q-21 0 -31.5 -4.5t-18.5 -23.5l-22 -47l-78 38l34 76q10 21 19 35.5t21 24t28.5 13.5t41.5 4h215l-6 -116h-203z" />
    <glyph glyph-name="alef.thmz.fina" unicode="&#x623;" horiz-adv-x="258" arabic-form="final" 
d="M203 0q-29 0 -55 7.5t-45.5 25.5t-31 47.5t-11.5 73.5v308h127v-275q0 -50 44 -50h27q22 0 22 -66q0 -71 -22 -71h-55zM225 583l-188 -94l-32 67l55 25q-35 31 -35 73t28.5 68t70.5 26h46l-5 -77h-29q-17 0 -25 -7.5t-8 -18.5q0 -10 7 -16.5t18 -6.5q10 0 27 7t40 20z
" />
    <glyph glyph-name="vav.thmz.fina" unicode="&#x624;" horiz-adv-x="468" arabic-form="final" 
d="M44 0zM143 -105q67 0 96 30.5t34 74.5h-47q-52 0 -85 11t-52 33t-26.5 53.5t-7.5 72.5q0 39 11 74.5t32.5 61.5t54 41.5t75.5 15.5q34 0 64.5 -11t53.5 -35t36.5 -63t13.5 -95v-22h72q22 0 22 -66q0 -71 -22 -71h-73q-3 -49 -21 -93t-49.5 -77t-76.5 -52.5t-100 -19.5
h-98l-6 137h99zM176 180q0 -24 10.5 -33.5t39.5 -9.5h49v28q0 38 -12.5 52t-38.5 14q-48 0 -48 -51zM330 506l-188 -94l-32 67l55 25q-35 31 -35 73t28.5 68t70.5 26h46l-5 -77h-29q-17 0 -25 -7.5t-8 -18.5q0 -10 7 -16.5t18 -6.5q10 0 27 7t40 20z" />
    <glyph glyph-name="alef.bhmz.fina" unicode="&#x625;" horiz-adv-x="258" arabic-form="final" 
d="M43 0zM203 0q-29 0 -55 7.5t-45.5 25.5t-31 47.5t-11.5 73.5v466h127v-433q0 -50 44 -50h27q22 0 22 -66q0 -71 -22 -71h-55zM263 -263l-188 -94l-32 67l55 25q-35 31 -35 73t28.5 68t70.5 26h46l-5 -77h-29q-17 0 -25 -7.5t-8 -18.5q0 -10 7 -16.5t18 -6.5q10 0 27 7
t40 20z" />
    <glyph glyph-name="ye.thmz.fina" unicode="&#x626;" horiz-adv-x="682" arabic-form="final" 
d="M44 0zM374 -105q39 0 64.5 3.5t40.5 10.5t21 18.5t6 28.5t-9.5 30.5t-34.5 13.5h-127l6 137h341q22 0 22 -66q0 -71 -22 -71h-77q22 -15 22 -66q0 -27 -12.5 -58t-40 -57t-72.5 -43.5t-111 -17.5h-111q-112 0 -174 69t-62 189v182h126v-176q0 -29 6 -52.5t20.5 -40
t39 -25.5t61.5 -9h77zM451 281l-188 -94l-32 67l55 25q-35 31 -35 73t28.5 68t70.5 26h46l-5 -77h-29q-17 0 -25 -7.5t-8 -18.5q0 -10 7 -16.5t18 -6.5q10 0 27 7t40 20z" />
    <glyph glyph-name="ye.thmz.init" unicode="&#x626;" horiz-adv-x="325" arabic-form="initial" 
d="M0 0zM94 137q29 0 41.5 13.5t12.5 42.5v104h127v-115q0 -91 -43.5 -136.5t-126.5 -45.5h-105q-13 0 -17.5 16.5t-4.5 49.5q0 38 4.5 54.5t17.5 16.5h94zM264 429l-188 -94l-32 67l55 25q-35 31 -35 73t28.5 68t70.5 26h46l-5 -77h-29q-17 0 -25 -7.5t-8 -18.5
q0 -10 7 -16.5t18 -6.5q10 0 27 7t40 20z" />
    <glyph glyph-name="ye.thmz.medi" unicode="&#x626;" horiz-adv-x="335" arabic-form="medial" 
d="M0 0zM66 137q29 0 42 13.5t13 42.5v104h127v-104q0 -29 18 -42.5t47 -13.5h22q23 0 23 -66q0 -71 -23 -71h-27q-38 0 -69.5 11.5t-56.5 49.5q-26 -38 -54.5 -49.5t-61.5 -11.5h-66q-13 0 -17.5 16.5t-4.5 49.5q0 38 4.5 54.5t17.5 16.5h66zM264 429l-188 -94l-32 67
l55 25q-35 31 -35 73t28.5 68t70.5 26h46l-5 -77h-29q-17 0 -25 -7.5t-8 -18.5q0 -10 7 -16.5t18 -6.5q10 0 27 7t40 20z" />
    <glyph glyph-name="alef.fina" unicode="&#x627;" horiz-adv-x="258" arabic-form="final" 
d="M203 0q-29 0 -55 7.5t-45.5 25.5t-31 47.5t-11.5 73.5v466h127v-433q0 -50 44 -50h27q22 0 22 -66q0 -71 -22 -71h-55z" />
    <glyph glyph-name="be.fina" unicode="&#x628;" horiz-adv-x="798" arabic-form="final" 
d="M50 0zM528 137q29 0 42 13.5t13 42.5v104h127v-104q0 -29 18.5 -42.5t47.5 -13.5h22q13 0 17.5 -16t4.5 -50q0 -37 -4.5 -54t-17.5 -17h-27q-38 0 -70 11.5t-57 49.5q-25 -38 -54 -49.5t-62 -11.5h-324q-41 0 -70.5 12.5t-48 33.5t-27 49t-8.5 59v148h126v-115
q0 -12 1.5 -21.5t7.5 -16t17 -9.5t30 -3h296zM452 -230h-132v121h132v-121z" />
    <glyph glyph-name="be.init" unicode="&#x628;" horiz-adv-x="325" arabic-form="initial" 
d="M0 0zM94 137q29 0 41.5 13.5t12.5 42.5v104h127v-115q0 -91 -43.5 -136.5t-126.5 -45.5h-105q-13 0 -17.5 16.5t-4.5 49.5q0 38 4.5 54.5t17.5 16.5h94zM154 -230h-132v121h132v-121z" />
    <glyph glyph-name="be.medi" unicode="&#x628;" horiz-adv-x="335" arabic-form="medial" 
d="M0 0zM66 137q29 0 42 13.5t13 42.5v104h127v-104q0 -29 18 -42.5t47 -13.5h22q23 0 23 -66q0 -71 -23 -71h-27q-38 0 -69.5 11.5t-56.5 49.5q-26 -38 -54.5 -49.5t-61.5 -11.5h-66q-13 0 -17.5 16.5t-4.5 49.5q0 38 4.5 54.5t17.5 16.5h66zM225 -230h-132v121h132v-121z
" />
    <glyph glyph-name="te.marbuta.fina" unicode="&#x629;" horiz-adv-x="468" arabic-form="final" 
d="M50 0zM219 165q30 0 43 13.5t13 37.5v59h-46q-35 0 -46.5 -17.5t-11.5 -44.5q0 -23 10 -35.5t38 -12.5zM397 187q0 -50 44 -50h27q13 0 17.5 -16t4.5 -50q0 -37 -4.5 -54t-17.5 -17h-27q-54 0 -85 17t-48 54q-25 -25 -55.5 -31.5t-59.5 -6.5q-70 0 -106.5 44t-36.5 127
q0 37 10.5 72.5t31 63.5t51.5 45t72 17h60v66h122v-281zM391 539h-121v116h121v-116zM237 539h-121v116h121v-116z" />
    <glyph glyph-name="te.fina" unicode="&#x62a;" horiz-adv-x="798" arabic-form="final" 
d="M50 0zM528 137q29 0 42 13.5t13 42.5v104h127v-104q0 -29 18.5 -42.5t47.5 -13.5h22q13 0 17.5 -16t4.5 -50q0 -37 -4.5 -54t-17.5 -17h-27q-38 0 -70 11.5t-57 49.5q-25 -38 -54 -49.5t-62 -11.5h-324q-41 0 -70.5 12.5t-48 33.5t-27 49t-8.5 59v148h126v-115
q0 -12 1.5 -21.5t7.5 -16t17 -9.5t30 -3h296zM517 374h-121v116h121v-116zM363 374h-121v116h121v-116z" />
    <glyph glyph-name="te.init" unicode="&#x62a;" horiz-adv-x="325" arabic-form="initial" 
d="M0 0zM94 137q29 0 41.5 13.5t12.5 42.5v104h127v-115q0 -91 -43.5 -136.5t-126.5 -45.5h-105q-13 0 -17.5 16.5t-4.5 49.5q0 38 4.5 54.5t17.5 16.5h94zM274 407h-121v116h121v-116zM120 407h-121v116h121v-116z" />
    <glyph glyph-name="te.medi" unicode="&#x62a;" horiz-adv-x="335" arabic-form="medial" 
d="M0 0zM66 137q29 0 42 13.5t13 42.5v104h127v-104q0 -29 18 -42.5t47 -13.5h22q23 0 23 -66q0 -71 -23 -71h-27q-38 0 -69.5 11.5t-56.5 49.5q-26 -38 -54.5 -49.5t-61.5 -11.5h-66q-13 0 -17.5 16.5t-4.5 49.5q0 38 4.5 54.5t17.5 16.5h66zM307 407h-121v116h121v-116z
M153 407h-121v116h121v-116z" />
    <glyph glyph-name="the.fina" unicode="&#x62b;" horiz-adv-x="798" arabic-form="final" 
d="M50 0zM528 137q29 0 42 13.5t13 42.5v104h127v-104q0 -29 18.5 -42.5t47.5 -13.5h22q13 0 17.5 -16t4.5 -50q0 -37 -4.5 -54t-17.5 -17h-27q-38 0 -70 11.5t-57 49.5q-25 -38 -54 -49.5t-62 -11.5h-324q-41 0 -70.5 12.5t-48 33.5t-27 49t-8.5 59v148h126v-115
q0 -12 1.5 -21.5t7.5 -16t17 -9.5t30 -3h296zM441 528h-122v115h122v-115zM517 374h-121v116h121v-116zM363 374h-121v116h121v-116z" />
    <glyph glyph-name="the.init" unicode="&#x62b;" horiz-adv-x="325" arabic-form="initial" 
d="M0 0zM94 137q29 0 41.5 13.5t12.5 42.5v104h127v-115q0 -91 -43.5 -136.5t-126.5 -45.5h-105q-13 0 -17.5 16.5t-4.5 49.5q0 38 4.5 54.5t17.5 16.5h94zM198 561h-122v115h122v-115zM274 407h-121v116h121v-116zM120 407h-121v116h121v-116z" />
    <glyph glyph-name="the.medi" unicode="&#x62b;" horiz-adv-x="335" arabic-form="medial" 
d="M0 0zM66 137q29 0 42 13.5t13 42.5v104h127v-104q0 -29 18 -42.5t47 -13.5h22q23 0 23 -66q0 -71 -23 -71h-27q-38 0 -69.5 11.5t-56.5 49.5q-26 -38 -54.5 -49.5t-61.5 -11.5h-66q-13 0 -17.5 16.5t-4.5 49.5q0 38 4.5 54.5t17.5 16.5h66zM231 561h-122v115h122v-115z
M307 407h-121v116h121v-116zM153 407h-121v116h121v-116z" />
    <glyph glyph-name="jim.fina" unicode="&#x62c;" horiz-adv-x="566" arabic-form="final" 
d="M38 0zM352 226q-6 8 -11 13.5t-12 8.5t-17 4t-26 1h-204l6 138h220q29 0 56.5 -9t51.5 -33.5t44.5 -67.5t34.5 -111l-40 -23q12 -8 27.5 -9t34.5 -1h49q13 0 17.5 -16t4.5 -50q0 -37 -4.5 -54t-17.5 -17h-54q-34 0 -58 7t-41 20t-28 30.5t-18 38.5l-70 -41
q-43 -25 -69 -49t-40 -46.5t-18.5 -44t-4.5 -42.5q0 -54 32.5 -87.5t110.5 -33.5h182l-6 -137h-176q-70 0 -121 19t-84 52.5t-49 78.5t-16 97q0 48 10.5 88.5t34.5 77t63 70.5t96 67zM412 -164h-132v121h132v-121z" />
    <glyph glyph-name="jim.init" unicode="&#x62c;" horiz-adv-x="522" arabic-form="initial" 
d="M0 0zM286 55q-29 -17 -56 -27.5t-57 -16.5t-65 -8.5t-80 -2.5h-28q-13 0 -17.5 16.5t-4.5 49.5q0 38 4.5 54.5t17.5 16.5h33q37 0 66.5 0.5t54 3.5t46 10t43.5 19l98 56q-6 8 -11 13.5t-12 8.5t-17 4t-26 1h-204l6 138h220q29 0 56.5 -9t51.5 -33.5t44.5 -67.5t34.5 -111
zM314 -230h-132v121h132v-121z" />
    <glyph glyph-name="jim.medi" unicode="&#x62c;" horiz-adv-x="555" arabic-form="medial" 
d="M0 0zM444 147q12 -8 27.5 -9t34.5 -1h49q13 0 17.5 -16t4.5 -50q0 -37 -4.5 -54t-17.5 -17h-54q-34 0 -58 7t-41 20t-28 30.5t-18 38.5l-70 -41q-29 -17 -56 -27.5t-57 -16.5t-65 -8.5t-80 -2.5h-28q-13 0 -17.5 16.5t-4.5 49.5q0 38 4.5 54.5t17.5 16.5h33
q37 0 66.5 0.5t54 3.5t46 10t43.5 19l98 56q-6 8 -11 13.5t-12 8.5t-17 4t-26 1h-204l6 138h220q29 0 56.5 -9t51.5 -33.5t44.5 -67.5t34.5 -111zM314 -230h-132v121h132v-121z" />
    <glyph glyph-name="him.fina" unicode="&#x62d;" horiz-adv-x="566" arabic-form="final" 
d="M352 226q-6 8 -11 13.5t-12 8.5t-17 4t-26 1h-204l6 138h220q29 0 56.5 -9t51.5 -33.5t44.5 -67.5t34.5 -111l-40 -23q12 -8 27.5 -9t34.5 -1h49q13 0 17.5 -16t4.5 -50q0 -37 -4.5 -54t-17.5 -17h-54q-34 0 -58 7t-41 20t-28 30.5t-18 38.5l-70 -41q-43 -25 -69 -49
t-40 -46.5t-18.5 -44t-4.5 -42.5q0 -54 32.5 -87.5t110.5 -33.5h182l-6 -137h-176q-70 0 -121 19t-84 52.5t-49 78.5t-16 97q0 48 10.5 88.5t34.5 77t63 70.5t96 67z" />
    <glyph glyph-name="him.init" unicode="&#x62d;" horiz-adv-x="522" arabic-form="initial" 
d="M286 55q-29 -17 -56 -27.5t-57 -16.5t-65 -8.5t-80 -2.5h-28q-13 0 -17.5 16.5t-4.5 49.5q0 38 4.5 54.5t17.5 16.5h33q37 0 66.5 0.5t54 3.5t46 10t43.5 19l98 56q-6 8 -11 13.5t-12 8.5t-17 4t-26 1h-204l6 138h220q29 0 56.5 -9t51.5 -33.5t44.5 -67.5t34.5 -111z" />
    <glyph glyph-name="him.medi" unicode="&#x62d;" horiz-adv-x="555" arabic-form="medial" 
d="M444 147q12 -8 27.5 -9t34.5 -1h49q13 0 17.5 -16t4.5 -50q0 -37 -4.5 -54t-17.5 -17h-54q-34 0 -58 7t-41 20t-28 30.5t-18 38.5l-70 -41q-29 -17 -56 -27.5t-57 -16.5t-65 -8.5t-80 -2.5h-28q-13 0 -17.5 16.5t-4.5 49.5q0 38 4.5 54.5t17.5 16.5h33q37 0 66.5 0.5
t54 3.5t46 10t43.5 19l98 56q-6 8 -11 13.5t-12 8.5t-17 4t-26 1h-204l6 138h220q29 0 56.5 -9t51.5 -33.5t44.5 -67.5t34.5 -111z" />
    <glyph glyph-name="khe.fina" unicode="&#x62e;" horiz-adv-x="566" arabic-form="final" 
d="M38 0zM352 226q-6 8 -11 13.5t-12 8.5t-17 4t-26 1h-204l6 138h220q29 0 56.5 -9t51.5 -33.5t44.5 -67.5t34.5 -111l-40 -23q12 -8 27.5 -9t34.5 -1h49q13 0 17.5 -16t4.5 -50q0 -37 -4.5 -54t-17.5 -17h-54q-34 0 -58 7t-41 20t-28 30.5t-18 38.5l-70 -41
q-43 -25 -69 -49t-40 -46.5t-18.5 -44t-4.5 -42.5q0 -54 32.5 -87.5t110.5 -33.5h182l-6 -137h-176q-70 0 -121 19t-84 52.5t-49 78.5t-16 97q0 48 10.5 88.5t34.5 77t63 70.5t96 67zM324 490h-132v121h132v-121z" />
    <glyph glyph-name="khe.init" unicode="&#x62e;" horiz-adv-x="522" arabic-form="initial" 
d="M0 0zM286 55q-29 -17 -56 -27.5t-57 -16.5t-65 -8.5t-80 -2.5h-28q-13 0 -17.5 16.5t-4.5 49.5q0 38 4.5 54.5t17.5 16.5h33q37 0 66.5 0.5t54 3.5t46 10t43.5 19l98 56q-6 8 -11 13.5t-12 8.5t-17 4t-26 1h-204l6 138h220q29 0 56.5 -9t51.5 -33.5t44.5 -67.5t34.5 -111
zM314 490h-132v121h132v-121z" />
    <glyph glyph-name="khe.medi" unicode="&#x62e;" horiz-adv-x="555" arabic-form="medial" 
d="M0 0zM444 147q12 -8 27.5 -9t34.5 -1h49q13 0 17.5 -16t4.5 -50q0 -37 -4.5 -54t-17.5 -17h-54q-34 0 -58 7t-41 20t-28 30.5t-18 38.5l-70 -41q-29 -17 -56 -27.5t-57 -16.5t-65 -8.5t-80 -2.5h-28q-13 0 -17.5 16.5t-4.5 49.5q0 38 4.5 54.5t17.5 16.5h33
q37 0 66.5 0.5t54 3.5t46 10t43.5 19l98 56q-6 8 -11 13.5t-12 8.5t-17 4t-26 1h-204l6 138h220q29 0 56.5 -9t51.5 -33.5t44.5 -67.5t34.5 -111zM314 490h-132v121h132v-121z" />
    <glyph glyph-name="dal.fina" unicode="&#x62f;" horiz-adv-x="506" arabic-form="final" 
d="M237 137q29 0 39 10.5t10 22.5q0 6 -2 16.5t-10.5 35.5t-25 71.5t-44.5 124.5l120 50l100 -275q11 -29 24.5 -42.5t46.5 -13.5h11q22 0 22 -66q0 -71 -22 -71h-11q-33 0 -64.5 11.5t-56.5 49.5q-21 -34 -52.5 -47.5t-68.5 -13.5h-215l-5 137h204z" />
    <glyph glyph-name="zal.fina" unicode="&#x630;" horiz-adv-x="506" arabic-form="final" 
d="M33 0zM237 137q29 0 39 10.5t10 22.5q0 6 -2 16.5t-10.5 35.5t-25 71.5t-44.5 124.5l120 50l100 -275q11 -29 24.5 -42.5t46.5 -13.5h11q22 0 22 -66q0 -71 -22 -71h-11q-33 0 -64.5 11.5t-56.5 49.5q-21 -34 -52.5 -47.5t-68.5 -13.5h-215l-5 137h204zM341 517h-132v121
h132v-121z" />
    <glyph glyph-name="re.fina" unicode="&#x631;" horiz-adv-x="275" arabic-form="final" 
d="M198 16q0 -51 -17.5 -98t-49 -82.5t-75 -56.5t-95.5 -21h-66l-5 137h38q42 0 70.5 10.5t46 27.5t25 38.5t7.5 44.5v281h127v-104q0 -29 17.5 -42.5t42.5 -13.5h11q22 0 22 -66q0 -71 -22 -71h-11q-17 0 -34.5 5.5t-31.5 22.5v-12z" />
    <glyph glyph-name="ze.fina" unicode="&#x632;" horiz-adv-x="275" arabic-form="final" 
d="M0 0zM198 16q0 -51 -17.5 -98t-49 -82.5t-75 -56.5t-95.5 -21h-66l-5 137h38q42 0 70.5 10.5t46 27.5t25 38.5t7.5 44.5v281h127v-104q0 -29 17.5 -42.5t42.5 -13.5h11q22 0 22 -66q0 -71 -22 -71h-11q-17 0 -34.5 5.5t-31.5 22.5v-12zM204 407h-132v121h132v-121z" />
    <glyph glyph-name="sin.fina" unicode="&#x633;" horiz-adv-x="1160" arabic-form="final" 
d="M599 193q0 -29 18 -42.5t43 -13.5q33 0 47 13.5t14 42.5v104h126v-104q0 -29 14.5 -42.5t35.5 -13.5q49 0 49 56v104h126v-104q0 -29 18 -42.5t43 -13.5h27q13 0 17.5 -16t4.5 -50q0 -37 -4.5 -54t-17.5 -17h-27q-38 0 -70 11.5t-56 49.5q-25 -38 -55 -49.5t-55 -11.5
q-33 0 -62 11.5t-54 49.5q-25 -38 -56 -49.5t-60 -11.5q-47 0 -71 26v-10q0 -51 -17 -98t-49 -82.5t-78 -56.5t-104 -21h-66q-112 0 -174 69t-62 189v182h126v-176q0 -29 6 -52.5t20.5 -40t39 -25.5t61.5 -9h44q39 0 64.5 10.5t40.5 29t21 42.5t6 51v269h126v-104z" />
    <glyph glyph-name="sin.init" unicode="&#x633;" horiz-adv-x="754" arabic-form="initial" 
d="M50 137q55 0 55 56v104h126v-104q0 -29 17.5 -42.5t42.5 -13.5q33 0 47 13.5t14 42.5v104h127v-104q0 -29 14.5 -42.5t34.5 -13.5q49 0 49 56v104h127v-115q0 -91 -44 -136.5t-127 -45.5q-32 0 -63.5 11.5t-56.5 49.5q-25 -38 -57 -49.5t-65 -11.5q-37 0 -69 11.5
t-57 49.5q-25 -38 -53.5 -49.5t-61.5 -11.5h-50q-13 0 -17.5 16.5t-4.5 49.5q0 38 4.5 54.5t17.5 16.5h50z" />
    <glyph glyph-name="sin.medi" unicode="&#x633;" horiz-adv-x="792" arabic-form="medial" 
d="M50 137q55 0 55 56v104h126v-104q0 -29 17.5 -42.5t42.5 -13.5q33 0 47 13.5t14 42.5v104h127v-104q0 -29 14.5 -42.5t34.5 -13.5q49 0 49 56v104h127v-104q0 -29 18 -42.5t43 -13.5h27q13 0 17.5 -16t4.5 -50q0 -37 -4.5 -54t-17.5 -17h-27q-38 0 -70 11.5t-57 49.5
q-25 -38 -55 -49.5t-55 -11.5q-33 0 -61.5 11.5t-53.5 49.5q-25 -38 -57 -49.5t-65 -11.5q-37 0 -69 11.5t-57 49.5q-25 -38 -53.5 -49.5t-61.5 -11.5h-50q-13 0 -17.5 16.5t-4.5 49.5q0 38 4.5 54.5t17.5 16.5h50z" />
    <glyph glyph-name="shin.fina" unicode="&#x634;" horiz-adv-x="1160" arabic-form="final" 
d="M44 0zM599 193q0 -29 18 -42.5t43 -13.5q33 0 47 13.5t14 42.5v104h126v-104q0 -29 14.5 -42.5t35.5 -13.5q49 0 49 56v104h126v-104q0 -29 18 -42.5t43 -13.5h27q13 0 17.5 -16t4.5 -50q0 -37 -4.5 -54t-17.5 -17h-27q-38 0 -70 11.5t-56 49.5q-25 -38 -55 -49.5
t-55 -11.5q-33 0 -62 11.5t-54 49.5q-25 -38 -56 -49.5t-60 -11.5q-47 0 -71 26v-10q0 -51 -17 -98t-49 -82.5t-78 -56.5t-104 -21h-66q-112 0 -174 69t-62 189v182h126v-176q0 -29 6 -52.5t20.5 -40t39 -25.5t61.5 -9h44q39 0 64.5 10.5t40.5 29t21 42.5t6 51v269h126v-104
zM842 561h-122v115h122v-115zM918 407h-121v116h121v-116zM764 407h-121v116h121v-116z" />
    <glyph glyph-name="shin.init" unicode="&#x634;" horiz-adv-x="754" arabic-form="initial" 
d="M0 0zM50 137q55 0 55 56v104h126v-104q0 -29 17.5 -42.5t42.5 -13.5q33 0 47 13.5t14 42.5v104h127v-104q0 -29 14.5 -42.5t34.5 -13.5q49 0 49 56v104h127v-115q0 -91 -44 -136.5t-127 -45.5q-32 0 -63.5 11.5t-56.5 49.5q-25 -38 -57 -49.5t-65 -11.5q-37 0 -69 11.5
t-57 49.5q-25 -38 -53.5 -49.5t-61.5 -11.5h-50q-13 0 -17.5 16.5t-4.5 49.5q0 38 4.5 54.5t17.5 16.5h50zM474 561h-122v115h122v-115zM550 407h-121v116h121v-116zM396 407h-121v116h121v-116z" />
    <glyph glyph-name="shin.medi" unicode="&#x634;" horiz-adv-x="792" arabic-form="medial" 
d="M0 0zM50 137q55 0 55 56v104h126v-104q0 -29 17.5 -42.5t42.5 -13.5q33 0 47 13.5t14 42.5v104h127v-104q0 -29 14.5 -42.5t34.5 -13.5q49 0 49 56v104h127v-104q0 -29 18 -42.5t43 -13.5h27q13 0 17.5 -16t4.5 -50q0 -37 -4.5 -54t-17.5 -17h-27q-38 0 -70 11.5
t-57 49.5q-25 -38 -55 -49.5t-55 -11.5q-33 0 -61.5 11.5t-53.5 49.5q-25 -38 -57 -49.5t-65 -11.5q-37 0 -69 11.5t-57 49.5q-25 -38 -53.5 -49.5t-61.5 -11.5h-50q-13 0 -17.5 16.5t-4.5 49.5q0 38 4.5 54.5t17.5 16.5h50zM474 561h-122v115h122v-115zM550 407h-121v116
h121v-116zM396 407h-121v116h121v-116z" />
    <glyph glyph-name="sad.fina" unicode="&#x635;" horiz-adv-x="1177" arabic-form="final" 
d="M665 137q70 124 134.5 183.5t130.5 59.5q41 0 73.5 -14.5t55 -40.5t34.5 -61.5t12 -76.5q0 -20 -3 -39q17 -8 33.5 -9.5t30.5 -1.5h11q22 0 22 -66q0 -71 -22 -71h-11q-12 0 -25.5 0.5t-28.5 4.5t-31 13t-34 25q-22 -20 -52.5 -31.5t-70.5 -11.5h-242q-25 0 -49.5 7.5
t-38.5 25.5v-17q0 -51 -17 -98t-49 -82.5t-78 -56.5t-104 -21h-66q-112 0 -174 69t-62 189v182h126v-176q0 -29 6 -52.5t20.5 -40t39 -25.5t61.5 -9h44q39 0 64.5 10.5t40.5 29t21 42.5t6 51v269h126v-77q0 -36 12.5 -59.5t53.5 -23.5zM979 187q0 8 -3 17.5t-10.5 18t-19 14
t-27.5 5.5q-25 0 -55 -23t-72 -82h138q25 0 37 14.5t12 35.5z" />
    <glyph glyph-name="sad.init" unicode="&#x635;" horiz-adv-x="770" arabic-form="initial" 
d="M286 137q70 124 134 183.5t130 59.5q41 0 74 -14.5t55.5 -40.5t34.5 -61.5t12 -76.5q0 -35 -10.5 -68.5t-33 -60t-56.5 -42.5t-82 -16h-264q-37 0 -69 11.5t-57 49.5q-25 -38 -54 -49.5t-62 -11.5h-38q-13 0 -17.5 16.5t-4.5 49.5q0 38 4.5 54.5t17.5 16.5h38q56 0 56 56
v104h126v-104q0 -29 18.5 -42.5t47.5 -13.5zM599 187q0 8 -3 17.5t-10.5 18t-19 14t-27.5 5.5q-25 0 -55 -23.5t-71 -81.5h137q25 0 37 14.5t12 35.5z" />
    <glyph glyph-name="sad.medi" unicode="&#x635;" horiz-adv-x="798" arabic-form="medial" 
d="M286 137q70 124 134 183.5t130 59.5q41 0 74 -14.5t55.5 -40.5t34.5 -61.5t12 -76.5q0 -20 -3 -39q17 -8 33.5 -9.5t30.5 -1.5h11q22 0 22 -66q0 -71 -22 -71h-11q-12 0 -25.5 0.5t-28.5 4.5t-31 13t-34 25q-23 -20 -53.5 -31.5t-70.5 -11.5h-264q-37 0 -69 11.5
t-57 49.5q-25 -38 -54 -49.5t-62 -11.5h-38q-13 0 -17.5 16.5t-4.5 49.5q0 38 4.5 54.5t17.5 16.5h38q56 0 56 56v104h126v-104q0 -29 18.5 -42.5t47.5 -13.5zM599 187q0 8 -3 17.5t-10.5 18t-19 14t-27.5 5.5q-25 0 -55 -23.5t-71 -81.5h137q25 0 37 14.5t12 35.5z" />
    <glyph glyph-name="zad.fina" unicode="&#x636;" horiz-adv-x="1177" arabic-form="final" 
d="M44 0zM665 137q70 124 134.5 183.5t130.5 59.5q41 0 73.5 -14.5t55 -40.5t34.5 -61.5t12 -76.5q0 -20 -3 -39q17 -8 33.5 -9.5t30.5 -1.5h11q22 0 22 -66q0 -71 -22 -71h-11q-12 0 -25.5 0.5t-28.5 4.5t-31 13t-34 25q-22 -20 -52.5 -31.5t-70.5 -11.5h-242
q-25 0 -49.5 7.5t-38.5 25.5v-17q0 -51 -17 -98t-49 -82.5t-78 -56.5t-104 -21h-66q-112 0 -174 69t-62 189v182h126v-176q0 -29 6 -52.5t20.5 -40t39 -25.5t61.5 -9h44q39 0 64.5 10.5t40.5 29t21 42.5t6 51v269h126v-77q0 -36 12.5 -59.5t53.5 -23.5zM979 187q0 8 -3 17.5
t-10.5 18t-19 14t-27.5 5.5q-25 0 -55 -23t-72 -82h138q25 0 37 14.5t12 35.5zM979 484h-132v121h132v-121z" />
    <glyph glyph-name="zad.init" unicode="&#x636;" horiz-adv-x="770" arabic-form="initial" 
d="M0 0zM286 137q70 124 134 183.5t130 59.5q41 0 74 -14.5t55.5 -40.5t34.5 -61.5t12 -76.5q0 -35 -10.5 -68.5t-33 -60t-56.5 -42.5t-82 -16h-264q-37 0 -69 11.5t-57 49.5q-25 -38 -54 -49.5t-62 -11.5h-38q-13 0 -17.5 16.5t-4.5 49.5q0 38 4.5 54.5t17.5 16.5h38
q56 0 56 56v104h126v-104q0 -29 18.5 -42.5t47.5 -13.5zM599 187q0 8 -3 17.5t-10.5 18t-19 14t-27.5 5.5q-25 0 -55 -23.5t-71 -81.5h137q25 0 37 14.5t12 35.5zM599 484h-132v121h132v-121z" />
    <glyph glyph-name="zad.medi" unicode="&#x636;" horiz-adv-x="798" arabic-form="medial" 
d="M0 0zM286 137q70 124 134 183.5t130 59.5q41 0 74 -14.5t55.5 -40.5t34.5 -61.5t12 -76.5q0 -20 -3 -39q17 -8 33.5 -9.5t30.5 -1.5h11q22 0 22 -66q0 -71 -22 -71h-11q-12 0 -25.5 0.5t-28.5 4.5t-31 13t-34 25q-23 -20 -53.5 -31.5t-70.5 -11.5h-264q-37 0 -69 11.5
t-57 49.5q-25 -38 -54 -49.5t-62 -11.5h-38q-13 0 -17.5 16.5t-4.5 49.5q0 38 4.5 54.5t17.5 16.5h38q56 0 56 56v104h126v-104q0 -29 18.5 -42.5t47.5 -13.5zM599 187q0 8 -3 17.5t-10.5 18t-19 14t-27.5 5.5q-25 0 -55 -23.5t-71 -81.5h137q25 0 37 14.5t12 35.5zM599 484
h-132v121h132v-121z" />
    <glyph glyph-name="ta.fina" unicode="&#x637;" horiz-adv-x="649" arabic-form="final" 
d="M127 620h126v-257q0 -21 -0.5 -39t-4.5 -37q38 48 75 70.5t79 22.5q41 0 73.5 -14.5t55 -40.5t34.5 -61.5t12 -76.5q0 -20 -3 -39q17 -8 33.5 -9.5t30.5 -1.5h11q22 0 22 -66q0 -71 -22 -71h-11q-12 0 -25.5 0.5t-28.5 4.5t-31 13t-34 25q-22 -20 -52.5 -31.5
t-70.5 -11.5h-352l-6 137h89v483zM451 187q0 8 -3 17.5t-10.5 18t-19 14t-27.5 5.5q-12 0 -24.5 -4.5t-28 -16.5t-36 -32.5t-49.5 -51.5h149q25 0 37 14.5t12 35.5z" />
    <glyph glyph-name="ta.init" unicode="&#x637;" horiz-adv-x="572" arabic-form="initial" 
d="M77 620h127v-257q0 -21 -0.5 -39t-5.5 -37q38 48 75 70.5t79 22.5q17 0 32 -2.5t29 -7.5q55 -19 85 -68t30 -115q0 -35 -10.5 -68.5t-33 -60t-56.5 -42.5t-82 -16h-346q-13 0 -17.5 16.5t-4.5 49.5q0 38 4.5 54.5t17.5 16.5h77v483zM402 187q0 8 -3.5 17.5t-10.5 18
t-19 14t-28 5.5q-12 0 -24.5 -4.5t-28 -16.5t-36 -32.5t-48.5 -51.5h148q25 0 37.5 14.5t12.5 35.5z" />
    <glyph glyph-name="ta.medi" unicode="&#x637;" horiz-adv-x="599" arabic-form="medial" 
d="M77 620h127v-257q0 -21 -0.5 -39t-5.5 -37q38 48 75 70.5t79 22.5q14 0 27 -2t25 -5q60 -17 92 -67t32 -119q0 -20 -3 -39q17 -8 33 -9.5t30 -1.5h11q13 0 17.5 -16t4.5 -50q0 -37 -4.5 -54t-17.5 -17h-11q-11 0 -24.5 0.5t-28.5 4.5t-31 13t-34 25q-23 -20 -53.5 -31.5
t-70.5 -11.5h-346q-13 0 -17.5 16.5t-4.5 49.5q0 38 4.5 54.5t17.5 16.5h77v483zM402 187q0 8 -3.5 17.5t-10.5 18t-19 14t-28 5.5q-12 0 -24.5 -4.5t-28 -16.5t-36 -32.5t-48.5 -51.5h148q25 0 37.5 14.5t12.5 35.5z" />
    <glyph glyph-name="za.fina" unicode="&#x638;" horiz-adv-x="649" arabic-form="final" 
d="M38 0zM127 620h126v-257q0 -21 -0.5 -39t-4.5 -37q38 48 75 70.5t79 22.5q41 0 73.5 -14.5t55 -40.5t34.5 -61.5t12 -76.5q0 -20 -3 -39q17 -8 33.5 -9.5t30.5 -1.5h11q22 0 22 -66q0 -71 -22 -71h-11q-12 0 -25.5 0.5t-28.5 4.5t-31 13t-34 25q-22 -20 -52.5 -31.5
t-70.5 -11.5h-352l-6 137h89v483zM451 187q0 8 -3 17.5t-10.5 18t-19 14t-27.5 5.5q-12 0 -24.5 -4.5t-28 -16.5t-36 -32.5t-49.5 -51.5h149q25 0 37 14.5t12 35.5zM484 484h-132v121h132v-121z" />
    <glyph glyph-name="za.init" unicode="&#x638;" horiz-adv-x="572" arabic-form="initial" 
d="M0 0zM77 620h127v-257q0 -21 -0.5 -39t-5.5 -37q38 48 75 70.5t79 22.5q17 0 32 -2.5t29 -7.5q55 -19 85 -68t30 -115q0 -35 -10.5 -68.5t-33 -60t-56.5 -42.5t-82 -16h-346q-13 0 -17.5 16.5t-4.5 49.5q0 38 4.5 54.5t17.5 16.5h77v483zM402 187q0 8 -3.5 17.5t-10.5 18
t-19 14t-28 5.5q-12 0 -24.5 -4.5t-28 -16.5t-36 -32.5t-48.5 -51.5h148q25 0 37.5 14.5t12.5 35.5zM435 484h-132v121h132v-121z" />
    <glyph glyph-name="za.medi" unicode="&#x638;" horiz-adv-x="599" arabic-form="medial" 
d="M0 0zM77 620h127v-257q0 -21 -0.5 -39t-5.5 -37q38 48 75 70.5t79 22.5q14 0 27 -2t25 -5q60 -17 92 -67t32 -119q0 -20 -3 -39q17 -8 33 -9.5t30 -1.5h11q13 0 17.5 -16t4.5 -50q0 -37 -4.5 -54t-17.5 -17h-11q-11 0 -24.5 0.5t-28.5 4.5t-31 13t-34 25
q-23 -20 -53.5 -31.5t-70.5 -11.5h-346q-13 0 -17.5 16.5t-4.5 49.5q0 38 4.5 54.5t17.5 16.5h77v483zM402 187q0 8 -3.5 17.5t-10.5 18t-19 14t-28 5.5q-12 0 -24.5 -4.5t-28 -16.5t-36 -32.5t-48.5 -51.5h148q25 0 37.5 14.5t12.5 35.5zM435 484h-132v121h132v-121z" />
    <glyph glyph-name="ein.fina" unicode="&#x639;" horiz-adv-x="572" arabic-form="final" 
d="M286 50q-37 -25 -60 -47.5t-35.5 -44t-16.5 -42.5t-4 -43q0 -25 8 -47t25.5 -38.5t46 -26t69.5 -9.5h165l-5 -137h-160q-72 0 -124 18.5t-85.5 51t-49.5 78t-16 99.5q0 32 5.5 63.5t20.5 64t41 65t67 65.5l-128 166l60 116h264q63 0 95 -32.5t32 -78.5q0 -13 -2.5 -28.5
t-11.5 -34t-25.5 -41t-44.5 -50.5h89h66q22 0 22 -66q0 -71 -22 -71h-93q-58 0 -105 8t-88 42zM363 257q0 18 -28 18h-131l87 -110q42 33 57 56.5t15 35.5z" />
    <glyph glyph-name="ein.init" unicode="&#x639;" horiz-adv-x="462" arabic-form="initial" 
d="M80 137q-9 31 -9 61q0 41 13.5 76t38.5 61t59.5 41t75.5 15q38 0 72 -12.5t72 -37.5l-56 -110q-29 13 -48 17.5t-40 4.5q-28 0 -44 -17t-16 -40q0 -32 22 -45.5t55 -13.5h143l-5 -137h-413q-13 0 -17.5 16.5t-4.5 49.5q0 38 4.5 54.5t17.5 16.5h80z" />
    <glyph glyph-name="ein.medi" unicode="&#x639;" horiz-adv-x="588" arabic-form="medial" 
d="M66 137h54.5t57.5 2l-112 147l61 116h264q50 0 80 -21t41 -54q5 -18 5 -36q0 -13 -2.5 -28.5t-11.5 -34t-25.5 -41t-44.5 -50.5h89h66q13 0 17.5 -16t4.5 -50q0 -37 -4.5 -54t-17.5 -17h-93q-58 0 -104.5 8t-88.5 42q-29 -17 -56 -27t-54.5 -15t-55.5 -6.5t-59 -1.5h-77
q-13 0 -17.5 16.5t-4.5 49.5q0 38 4.5 54.5t17.5 16.5h66zM380 257q0 18 -28 18h-132l88 -110q42 33 57 56.5t15 35.5z" />
    <glyph glyph-name="qein.fina" unicode="&#x63a;" horiz-adv-x="572" arabic-form="final" 
d="M44 0zM286 50q-37 -25 -60 -47.5t-35.5 -44t-16.5 -42.5t-4 -43q0 -25 8 -47t25.5 -38.5t46 -26t69.5 -9.5h165l-5 -137h-160q-72 0 -124 18.5t-85.5 51t-49.5 78t-16 99.5q0 32 5.5 63.5t20.5 64t41 65t67 65.5l-128 166l60 116h264q63 0 95 -32.5t32 -78.5
q0 -13 -2.5 -28.5t-11.5 -34t-25.5 -41t-44.5 -50.5h89h66q22 0 22 -66q0 -71 -22 -71h-93q-58 0 -105 8t-88 42zM363 257q0 18 -28 18h-131l87 -110q42 33 57 56.5t15 35.5zM357 501h-132v121h132v-121z" />
    <glyph glyph-name="qein.init" unicode="&#x63a;" horiz-adv-x="462" arabic-form="initial" 
d="M0 0zM80 137q-9 31 -9 61q0 41 13.5 76t38.5 61t59.5 41t75.5 15q38 0 72 -12.5t72 -37.5l-56 -110q-29 13 -48 17.5t-40 4.5q-28 0 -44 -17t-16 -40q0 -32 22 -45.5t55 -13.5h143l-5 -137h-413q-13 0 -17.5 16.5t-4.5 49.5q0 38 4.5 54.5t17.5 16.5h80zM303 484h-132
v121h132v-121z" />
    <glyph glyph-name="qein.medi" unicode="&#x63a;" horiz-adv-x="588" arabic-form="medial" 
d="M0 0zM66 137h54.5t57.5 2l-112 147l61 116h264q50 0 80 -21t41 -54q5 -18 5 -36q0 -13 -2.5 -28.5t-11.5 -34t-25.5 -41t-44.5 -50.5h89h66q13 0 17.5 -16t4.5 -50q0 -37 -4.5 -54t-17.5 -17h-93q-58 0 -104.5 8t-88.5 42q-29 -17 -56 -27t-54.5 -15t-55.5 -6.5t-59 -1.5
h-77q-13 0 -17.5 16.5t-4.5 49.5q0 38 4.5 54.5t17.5 16.5h66zM380 257q0 18 -28 18h-132l88 -110q42 33 57 56.5t15 35.5zM368 501h-132v121h132v-121z" />
    <glyph glyph-name="fe.fina" unicode="&#x641;" horiz-adv-x="858" arabic-form="final" 
d="M614 286q-23 0 -38 -15t-15 -40q0 -20 13 -40t42 -37q29 17 39 37t10 40q0 25 -14.5 40t-36.5 15zM621 424q42 0 73 -15t51.5 -39t31 -53.5t10.5 -58.5q0 -41 -11 -68.5t-28 -52.5h110q13 0 17.5 -16t4.5 -50q0 -37 -4.5 -54t-17.5 -17h-93q-46 0 -82.5 4.5t-55.5 17.5
q-15 -8 -35 -12.5t-42 -6.5t-42 -2.5t-35 -0.5h-275q-41 0 -70.5 12.5t-48 33.5t-27 49t-8.5 59v148h126v-115q0 -12 1.5 -21.5t7.5 -16t17 -9.5t30 -3h253q-25 34 -32 60.5t-7 55.5q0 33 13 64t36.5 54.5t57 38t74.5 14.5zM682 490h-132v121h132v-121z" />
    <glyph glyph-name="fe.init" unicode="&#x641;" horiz-adv-x="463" arabic-form="initial" 
d="M0 0zM38 137q19 0 31.5 -0.5t23 -2.5t20.5 -5t24 -8q-41 25 -53.5 60t-12.5 88q0 27 10.5 55.5t31.5 51.5t52 38t72 15q39 0 71.5 -10t55.5 -33t36 -61t13 -94v-55q0 -83 -46.5 -129.5t-146.5 -46.5h-220q-13 0 -17.5 16.5t-4.5 49.5q0 38 4.5 54.5t17.5 16.5h38z
M234 291q-27 0 -37 -16t-10 -33q0 -10 3 -19.5t13 -20.5t29.5 -24t51.5 -30q5 8 6 23.5t1 26.5v22q0 14 -2.5 27t-9 22.5t-17.5 15.5t-28 6zM303 501h-132v121h132v-121z" />
    <glyph glyph-name="fe.medi" unicode="&#x641;" horiz-adv-x="490" arabic-form="medial" 
d="M0 0zM110 137q-25 34 -32 60.5t-7 55.5q0 33 13 64t37 54.5t57.5 38t74.5 14.5t72 -15t51.5 -39t31 -53.5t10.5 -58.5q0 -41 -10.5 -68.5t-27.5 -52.5h110q22 0 22 -66q0 -71 -22 -71h-94q-46 0 -82 4.5t-56 17.5q-14 -8 -34.5 -12.5t-42 -6.5t-42 -2.5t-34.5 -0.5h-105
q-13 0 -17.5 16.5t-4.5 49.5q0 38 4.5 54.5t17.5 16.5h110zM245 286q-23 0 -37.5 -15t-14.5 -40q0 -20 13 -40t42 -37q29 17 39 37t10 40q0 25 -14.5 40t-37.5 15zM314 490h-132v121h132v-121z" />
    <glyph glyph-name="qaf.fina" unicode="&#x642;" horiz-adv-x="721" arabic-form="final" 
d="M648 0q-3 -49 -21 -93t-49.5 -77t-76 -52.5t-99.5 -19.5h-122q-112 0 -174 69t-62 189v182h126v-176q0 -29 6 -52.5t20.5 -40t39 -25.5t61.5 -9h99q67 0 96 30.5t34 74.5h-47q-52 0 -85 11t-52 33t-26.5 53.5t-7.5 72.5q0 39 11 74.5t32.5 61.5t54 41.5t75.5 15.5
q34 0 64.5 -11t53.5 -35t36.5 -63t13.5 -95v-22h72q22 0 22 -66q0 -71 -22 -71h-73zM429 180q0 -24 10.5 -33.5t39.5 -9.5h49v28q0 38 -12.5 52t-38.5 14q-48 0 -48 -51zM616 451h-121v116h121v-116zM462 451h-121v116h121v-116z" />
    <glyph glyph-name="qaf.init" unicode="&#x642;" horiz-adv-x="463" arabic-form="initial" 
d="M0 0zM38 137q19 0 31.5 -0.5t23 -2.5t20.5 -5t24 -8q-41 25 -53.5 60t-12.5 88q0 27 10.5 55.5t31.5 51.5t52 38t72 15q39 0 71.5 -10t55.5 -33t36 -61t13 -94v-55q0 -83 -46.5 -129.5t-146.5 -46.5h-220q-13 0 -17.5 16.5t-4.5 49.5q0 38 4.5 54.5t17.5 16.5h38z
M234 291q-27 0 -37 -16t-10 -33q0 -10 3 -19.5t13 -20.5t29.5 -24t51.5 -30q5 8 6 23.5t1 26.5v22q0 14 -2.5 27t-9 22.5t-17.5 15.5t-28 6zM368 506h-121v116h121v-116zM214 506h-121v116h121v-116z" />
    <glyph glyph-name="qaf.medi" unicode="&#x642;" horiz-adv-x="490" arabic-form="medial" 
d="M0 0zM110 137q-25 34 -32 60.5t-7 55.5q0 33 13 64t37 54.5t57.5 38t74.5 14.5t72 -15t51.5 -39t31 -53.5t10.5 -58.5q0 -41 -10.5 -68.5t-27.5 -52.5h110q22 0 22 -66q0 -71 -22 -71h-94q-46 0 -82 4.5t-56 17.5q-14 -8 -34.5 -12.5t-42 -6.5t-42 -2.5t-34.5 -0.5h-105
q-13 0 -17.5 16.5t-4.5 49.5q0 38 4.5 54.5t17.5 16.5h110zM245 286q-23 0 -37.5 -15t-14.5 -40q0 -20 13 -40t42 -37q29 17 39 37t10 40q0 25 -14.5 40t-37.5 15zM385 495h-121v116h121v-116zM231 495h-121v116h121v-116z" />
    <glyph glyph-name="kaf.arab.fina" unicode="&#x643;" horiz-adv-x="776" arabic-form="final" 
d="M391 209v66q0 12 -3 17t-16 5h-129v138q0 58 28.5 89t86.5 31h66l6 -93h-66q-34 0 -34 -38v-33h83q19 0 31.5 -6.5t20 -17.5t11 -25t3.5 -29v-104h-88zM204 0q-41 0 -70.5 12.5t-48 33.5t-27 49t-8.5 59v148h126v-115q0 -12 1.5 -21.5t7.5 -16t17 -9.5t30 -3h280
q55 0 55 56v427h126v-427q0 -29 19 -42.5t48 -13.5h16q13 0 17.5 -16t4.5 -50q0 -37 -4.5 -54t-17.5 -17h-22q-38 0 -70 11.5t-57 49.5q-25 -38 -53.5 -49.5t-61.5 -11.5h-308z" />
    <glyph glyph-name="lam.fina" unicode="&#x644;" horiz-adv-x="671" arabic-form="final" 
d="M660 0q-17 0 -34.5 5.5t-31.5 22.5v-6q0 -56 -17 -104t-49.5 -83.5t-78.5 -56t-103 -20.5h-66q-112 0 -174 69t-62 189v182h126v-176q0 -29 6 -52.5t20.5 -40t39 -25.5t61.5 -9h44q39 0 64.5 10.5t40.5 29t21 42.5t6 51v592h126v-427q0 -29 18 -42.5t43 -13.5h11
q22 0 22 -66q0 -71 -22 -71h-11z" />
    <glyph glyph-name="lam.init" unicode="&#x644;" horiz-adv-x="264" arabic-form="initial" 
d="M22 137q29 0 42 13.5t13 42.5v427h127v-438q0 -91 -44 -136.5t-127 -45.5h-33q-13 0 -17.5 16.5t-4.5 49.5q0 38 4.5 54.5t17.5 16.5h22z" />
    <glyph glyph-name="lam.medi" unicode="&#x644;" horiz-adv-x="286" arabic-form="medial" 
d="M22 137q29 0 42 13.5t13 42.5v427h127v-427q0 -29 18 -42.5t47 -13.5h17q22 0 22 -66q0 -71 -22 -71h-22q-37 0 -69.5 11.5t-57.5 49.5q-24 -38 -53 -49.5t-62 -11.5h-22q-13 0 -17.5 16.5t-4.5 49.5q0 38 4.5 54.5t17.5 16.5h22z" />
    <glyph glyph-name="mim.fina" unicode="&#x645;" horiz-adv-x="649" arabic-form="final" 
d="M578 209q0 -38 17.5 -55t42.5 -17h11q13 0 17.5 -16t4.5 -50q0 -37 -4.5 -54t-17.5 -17h-11q-14 0 -29 1.5t-30 7t-29.5 16.5t-26.5 30q-25 -33 -58.5 -44t-62.5 -11q-71 0 -115 36.5t-44 106.5v44q0 50 16 66h-11q-37 0 -54.5 -13t-17.5 -42v-440h-126v446
q0 35 12.5 67.5t36.5 58t60 40.5t84 15h181q43 0 72.5 -11.5t47.5 -31.5t26 -47t8 -58v-28zM411 137q26 0 36 11t10 28v28q0 20 -9.5 32t-32.5 12h-11q-22 0 -31 -12t-9 -32v-28q0 -17 9 -28t38 -11z" />
    <glyph glyph-name="mim.init" unicode="&#x645;" horiz-adv-x="463" arabic-form="initial" 
d="M5 137q30 0 48 10.5t18 39.5v11q0 39 12 72.5t34 57.5t54 38t71 14q41 0 73 -14t53.5 -38.5t33 -59t11.5 -75.5q0 -92 -46.5 -142.5t-124.5 -50.5q-39 0 -75.5 16t-53.5 45q-19 -34 -49 -47.5t-59 -13.5h-5q-13 0 -17.5 16.5t-4.5 49.5q0 38 4.5 54.5t17.5 16.5h5z
M291 187q0 21 -10 38t-39 17t-39 -17t-10 -38q0 -50 49 -50t49 50z" />
    <glyph glyph-name="mim.medi" unicode="&#x645;" horiz-adv-x="484" arabic-form="medial" 
d="M5 137q30 0 48 10.5t18 39.5v11q0 39 12 72.5t34 57.5t54 38t71 14q41 0 73 -14t53.5 -38t33 -57.5t11.5 -72.5v-11q0 -15 6 -24.5t15 -15t19.5 -8t19.5 -2.5h11q13 0 17.5 -16t4.5 -50q0 -37 -4.5 -54t-17.5 -17h-11q-29 0 -58.5 12.5t-53.5 48.5q-28 -38 -60 -49.5
t-64 -11.5q-39 0 -73 16t-51 45q-19 -34 -49 -47.5t-59 -13.5h-5q-13 0 -17.5 16.5t-4.5 49.5q0 38 4.5 54.5t17.5 16.5h5zM291 187q0 21 -10 38t-39 17t-39 -17t-10 -38q0 -50 49 -50t49 50z" />
    <glyph glyph-name="nun.fina" unicode="&#x646;" horiz-adv-x="671" arabic-form="final" 
d="M660 0q-17 0 -34.5 5.5t-31.5 22.5v-6q0 -56 -17 -104t-49 -83.5t-78 -56t-104 -20.5h-66q-112 0 -174 69t-62 189v182h126v-176q0 -29 6 -52.5t20.5 -40t39 -25.5t61.5 -9h44q39 0 64.5 10.5t40.5 29t21 42.5t6 51v269h126v-104q0 -29 18 -42.5t43 -13.5h11q22 0 22 -66
q0 -71 -22 -71h-11zM368 308h-132v121h132v-121z" />
    <glyph glyph-name="nun.init" unicode="&#x646;" horiz-adv-x="325" arabic-form="initial" 
d="M0 0zM94 137q29 0 41.5 13.5t12.5 42.5v104h127v-115q0 -91 -43.5 -136.5t-126.5 -45.5h-105q-13 0 -17.5 16.5t-4.5 49.5q0 38 4.5 54.5t17.5 16.5h94zM242 407h-132v121h132v-121z" />
    <glyph glyph-name="nun.medi" unicode="&#x646;" horiz-adv-x="335" arabic-form="medial" 
d="M0 0zM66 137q29 0 42 13.5t13 42.5v104h127v-104q0 -29 18 -42.5t47 -13.5h22q23 0 23 -66q0 -71 -23 -71h-27q-38 0 -69.5 11.5t-56.5 49.5q-26 -38 -54.5 -49.5t-61.5 -11.5h-66q-13 0 -17.5 16.5t-4.5 49.5q0 38 4.5 54.5t17.5 16.5h66zM242 407h-132v121h132v-121z
" />
    <glyph glyph-name="he.fina" unicode="&#x647;" horiz-adv-x="468" arabic-form="final" 
d="M219 165q30 0 43 13.5t13 37.5v59h-46q-35 0 -46.5 -17.5t-11.5 -44.5q0 -23 10 -35.5t38 -12.5zM397 187q0 -50 44 -50h27q13 0 17.5 -16t4.5 -50q0 -37 -4.5 -54t-17.5 -17h-27q-54 0 -85 17t-48 54q-25 -25 -55.5 -31.5t-59.5 -6.5q-70 0 -106.5 44t-36.5 127
q0 37 10.5 72.5t31 63.5t51.5 45t72 17h60v66h122v-281z" />
    <glyph glyph-name="he.init" unicode="&#x647;" horiz-adv-x="693" arabic-form="initial" 
d="M240 286q-23 0 -38 -15t-15 -40q0 -20 13 -43t42 -40q29 17 39 40t10 43q0 25 -14.5 40t-36.5 15zM0 0q-13 0 -17.5 16.5t-4.5 49.5q0 38 4.5 54.5t17.5 16.5h110q-21 29 -30 58t-9 58q0 33 12 63t35 52.5t55.5 36t74.5 13.5q41 0 71 -14t49.5 -37t29 -51.5t9.5 -57.5
q0 -37 -10.5 -66.5t-27.5 -54.5h115q26 0 26 19q0 5 -2.5 10t-10.5 16l-156 198l94 88l159 -204q30 -38 42.5 -70t12.5 -62q0 -27 -9.5 -51t-29 -42t-48.5 -28.5t-67 -10.5h-110q-46 0 -81.5 4.5t-55.5 17.5q-15 -8 -35.5 -12.5t-42 -6.5t-42 -2.5t-34.5 -0.5h-94z" />
    <glyph glyph-name="he.medi" unicode="&#x647;" horiz-adv-x="522" arabic-form="medial" 
d="M71 137v45q0 37 7.5 74t26.5 67t52.5 49t84.5 19q37 0 66 -12.5t48.5 -34.5t29.5 -51t10 -62q0 -50 -18 -89t-47.5 -67.5t-67 -46t-76.5 -23.5v-60q0 -41 37 -50l78 94q45 54 73 83.5t49.5 44t43 17.5t54.5 3q13 0 17.5 -16t4.5 -50q0 -37 -4.5 -54t-17.5 -17
q-22 0 -39 -2t-35.5 -13t-42.5 -36t-59 -70l-93 -121q-39 0 -72.5 11t-58 33.5t-38 55t-13.5 76.5v66h-71q-13 0 -17.5 16.5t-4.5 49.5q0 38 4.5 54.5t17.5 16.5h71zM187 132q53 8 73 30t20 47q0 21 -11.5 35t-31.5 14q-25 0 -37.5 -16.5t-12.5 -52.5v-57z" />
    <glyph glyph-name="vav.fina" unicode="&#x648;" horiz-adv-x="468" arabic-form="final" 
d="M143 -105q67 0 96 30.5t34 74.5h-47q-52 0 -85 11t-52 33t-26.5 53.5t-7.5 72.5q0 39 11 74.5t32.5 61.5t54 41.5t75.5 15.5q34 0 64.5 -11t53.5 -35t36.5 -63t13.5 -95v-22h72q22 0 22 -66q0 -71 -22 -71h-73q-3 -49 -21 -93t-49.5 -77t-76.5 -52.5t-100 -19.5h-98
l-6 137h99zM176 180q0 -24 10.5 -33.5t39.5 -9.5h49v28q0 38 -12.5 52t-38.5 14q-48 0 -48 -51z" />
    <glyph glyph-name="alef.maksura.fina" unicode="&#x649;" horiz-adv-x="682" arabic-form="final" 
d="M374 -105q39 0 64.5 3.5t40.5 10.5t21 18.5t6 28.5t-9.5 30.5t-34.5 13.5h-127l6 137h341q22 0 22 -66q0 -71 -22 -71h-77q22 -15 22 -66q0 -27 -12.5 -58t-40 -57t-72.5 -43.5t-111 -17.5h-111q-112 0 -174 69t-62 189v182h126v-176q0 -29 6 -52.5t20.5 -40t39 -25.5
t61.5 -9h77z" />
    <glyph glyph-name="ye.arab.fina" unicode="&#x64a;" horiz-adv-x="682" arabic-form="final" 
d="M44 0zM374 -105q39 0 64.5 3.5t40.5 10.5t21 18.5t6 28.5t-9.5 30.5t-34.5 13.5h-127l6 137h341q22 0 22 -66q0 -71 -22 -71h-77q22 -15 22 -66q0 -27 -12.5 -58t-40 -57t-72.5 -43.5t-111 -17.5h-111q-112 0 -174 69t-62 189v182h126v-176q0 -29 6 -52.5t20.5 -40
t39 -25.5t61.5 -9h77zM467 -445h-121v116h121v-116zM313 -445h-121v116h121v-116z" />
    <glyph glyph-name=".notdef" horiz-adv-x="550" 
d="M462 0h-396v610h396v-610zM187 473v-336h154v336h-154z" />
    <glyph glyph-name=".null" horiz-adv-x="957" 
 />
    <glyph glyph-name="nonmarkingreturn" horiz-adv-x="957" 
 />
    <glyph glyph-name="line_feed" unicode="&#xa;" 
 />
    <glyph glyph-name="carriage_return" unicode="&#xd;" 
 />
    <glyph glyph-name="space" unicode=" " horiz-adv-x="132" 
 />
    <glyph glyph-name="exclam" unicode="!" horiz-adv-x="253" 
d="M187 484q0 -47 -2 -87.5t-5 -76.5t-7 -69t-8 -64h-77q-4 31 -9 63.5t-9 68.5t-6.5 77t-2.5 88v126h126v-126zM127 0q-32 0 -52 16.5t-20 51.5q0 37 20 53t52 16q31 0 51 -16t20 -53q0 -35 -20 -51.5t-51 -16.5z" />
    <glyph glyph-name="quotedbl" unicode="&#x22;" horiz-adv-x="363" 
d="M44 374zM44 610h110v-236h-110v236zM209 610h110v-236h-110v236z" />
    <glyph glyph-name="numbersign" unicode="#" horiz-adv-x="682" 
d="M188 360h-122v108h138l22 131l98 -14l-19 -117h123l23 131l99 -14l-21 -117h109v-108h-125l-22 -126h125v-102h-143l-22 -132l-99 14l20 118h-123l-23 -132l-99 14l20 118h-103v102h122zM391 234l20 126h-123l-21 -126h124z" />
    <glyph glyph-name="dollar" unicode="$" horiz-adv-x="534" 
d="M299 111q77 12 77 83q0 27 -17 42.5t-45 25.5zM256 562q-43 -8 -60.5 -27t-17.5 -42q0 -27 18.5 -43.5t46.5 -29.5zM327 393q33 -10 66 -22.5t59 -32t42 -49.5t16 -74q0 -43 -14.5 -81.5t-43 -68.5t-70 -49t-94.5 -23l-7 -57q-1 -13 -10.5 -24t-26.5 -11h-52l9 97
q-54 8 -102 29.5t-82 53.5l45 65q5 7 14.5 12.5t20.5 5.5t23 -6t25.5 -14t29.5 -16.5t37 -14.5l17 175q-33 9 -66 21.5t-59.5 34t-43 54t-16.5 82.5q0 36 15 70.5t43.5 62.5t70 45.5t95.5 20.5l5 51q2 14 11.5 24t26.5 10h51l-7 -91q51 -10 86 -30t60 -45l-36 -51
q-8 -11 -15.5 -16t-19.5 -5q-13 0 -35.5 11t-51.5 19z" />
    <glyph glyph-name="percent" unicode="%" horiz-adv-x="773" 
d="M354 510q0 -37 -13.5 -67.5t-36 -52.5t-51.5 -34t-61 -12q-35 0 -64 12t-51 34t-34 52.5t-12 67.5q0 38 12 69.5t34 53.5t51 34t64 12q36 0 65.5 -12t51 -34t33.5 -53.5t12 -69.5zM244 510q0 47 -15 63.5t-37 16.5t-36 -16.5t-14 -63.5q0 -45 14 -60.5t36 -15.5
q23 0 37.5 15.5t14.5 60.5zM566 651q7 9 17 15t28 6h104l-507 -651q-8 -10 -18 -15.5t-25 -5.5h-107zM741 159q0 -38 -13.5 -68.5t-35.5 -52.5t-51.5 -34t-60.5 -12q-35 0 -65 12t-51.5 34t-33.5 52.5t-12 68.5t12 69t33.5 53t51.5 34t65 12t64.5 -12t51 -34t33.5 -53
t12 -69zM631 159q0 45 -14.5 62t-36.5 17q-23 0 -37 -17t-14 -62t14 -61.5t37 -16.5q22 0 36.5 16.5t14.5 61.5z" />
    <glyph glyph-name="ampersand" unicode="&#x26;" horiz-adv-x="678" 
d="M219 298q-25 -21 -35.5 -45t-10.5 -52q0 -45 25.5 -71.5t68.5 -26.5q62 0 109 31zM680 0h-141q-22 0 -34.5 4.5t-27.5 20.5l-29 32q-44 -31 -95.5 -47.5t-111.5 -16.5q-40 0 -78.5 13.5t-69 39t-49 62t-18.5 81.5q0 61 36.5 108.5t92.5 76.5q-21 33 -31 65.5t-10 63.5
q0 36 13 68t38.5 56t62.5 38.5t84 14.5q45 0 79.5 -13t58 -35t37 -50t16.5 -58l-92 -18q-25 -5 -37 20q-11 24 -24.5 36.5t-37.5 12.5q-32 0 -48.5 -21.5t-16.5 -49.5q0 -24 9.5 -45.5t35.5 -50.5l167 -175q12 28 19.5 58.5t9.5 62.5q5 27 30 27h90q0 -67 -18 -125t-50 -107
z" />
    <glyph glyph-name="quotesingle" unicode="'" horiz-adv-x="198" 
d="M44 610h110v-236h-110v236z" />
    <glyph glyph-name="parenleft" unicode="(" horiz-adv-x="324" 
d="M44 0zM170 209q0 -54 5 -95t17.5 -76.5t33.5 -69.5t54 -73l-76 -77q-37 35 -66.5 73.5t-50.5 85t-32 103.5t-11 129t11 129t32 103.5t50.5 84.5t66.5 73l76 -77q-33 -39 -54 -72.5t-33.5 -69t-17.5 -76.5t-5 -95z" />
    <glyph glyph-name="parenright" unicode=")" horiz-adv-x="324" 
d="M44 0zM154.011 209.013q0 53.9971 -5 94.9941q-5 40.998 -17.499 76.4951q-12.499 35.498 -33.498 69.4961t-53.9961 72.9951l75.9951 76.9961q36.9971 -34.998 66.4961 -73.4961q29.498 -38.4971 50.4961 -84.9941q20.999 -46.498 31.998 -103.494
q11 -56.9961 11 -128.992q0 -71.9951 -11 -128.992q-10.999 -56.9961 -31.998 -103.493q-20.998 -46.498 -50.4961 -84.4951q-29.499 -37.998 -66.4961 -72.9961l-75.9951 76.9961q32.9971 38.9971 53.9961 72.4951t33.498 68.9961t17.499 76.4951t5 94.9941z" />
    <glyph glyph-name="asterisk" unicode="*" horiz-adv-x="392" 
d="M288 554q-19 -10 -36 -13q25 -6 51 -23.5t52 -32.5l-34 -55l-67 40q-10 6 -17.5 11t-12.5 11q4 -8 5 -17t1 -17v-81h-67v80q0 9 1 18t3 17q-5 -6 -12.5 -11.5t-15.5 -10.5l-68 -38l-33 54l67 40q10 5 18.5 9t17.5 6q-19 3 -36 13l-67 40l33 56l68 -40q8 -5 16 -10.5
t14 -11.5q-4 8 -5 17t-1 18v82h67v-81q0 -10 -1 -19t-5 -17q12 10 30 22l67 39l34 -56z" />
    <glyph glyph-name="plus" unicode="+" horiz-adv-x="490" 
d="M44 137v116h146v143h115v-143h141v-116h-141v-137h-115v137h-146z" />
    <glyph glyph-name="comma" unicode="," horiz-adv-x="222" 
d="M48 -114q-9 11 -9 19q0 5 3 10t7 9q12 12 28.5 32t23.5 46q-6 0 -12 2q-26 7 -42.5 27.5t-16.5 49.5t21.5 49.5t56.5 20.5q42 0 61.5 -26.5t19.5 -62.5q0 -23 -7.5 -49t-22 -52t-36 -51.5t-50.5 -46.5z" />
    <glyph glyph-name="hyphen_minus" unicode="-" horiz-adv-x="490" 
d="M44 137v121h402v-121h-402z" />
    <glyph glyph-name="period" unicode="." horiz-adv-x="275" 
d="M137 0q-37 0 -59.5 20.5t-22.5 61.5q0 42 22.5 62.5t59.5 20.5q38 0 60.5 -20.5t22.5 -62.5q0 -41 -22.5 -61.5t-60.5 -20.5z" />
    <glyph glyph-name="slash" unicode="/" horiz-adv-x="577" 
d="M435 594l98 -66l-390 -605l-99 66z" />
    <glyph glyph-name="zero" unicode="0" horiz-adv-x="536" 
d="M505 320q0 -84 -18 -145.5t-50 -102t-76 -60t-95 -19.5t-94.5 19.5t-75 60t-49 102t-17.5 145.5t17.5 145.5t49 102t75 60.5t94.5 20t95 -20t76 -60.5t50 -102t18 -145.5zM364 320q0 67 -8.5 109.5t-22 67t-31.5 33.5t-36 9t-35.5 -9t-31 -33.5t-21.5 -67t-8 -109.5
q0 -66 8 -108.5t21.5 -67t31 -33.5t35.5 -9t36 9t31.5 33.5t22 67t8.5 108.5z" />
    <glyph glyph-name="one" unicode="1" horiz-adv-x="373" 
d="M300 641v-641h-136v421v27.5t1 27.5l-49 -44q-16 -12 -39 -11.5t-35 15.5l-41 47l186 158h113z" />
    <glyph glyph-name="two" unicode="2" horiz-adv-x="496" 
d="M418 123q22 0 34.5 -12t12.5 -32v-79h-450v44q0 13 5 27t18 27l185 186q48 47 71 87t23 87q0 38 -18 58.5t-56 20.5q-31 0 -51.5 -16t-28.5 -40q-9 -24 -24 -32t-43 -3l-72 12q7 48 26.5 83.5t49.5 59.5t68.5 35.5t82.5 11.5q47 0 85 -14t65 -38.5t41.5 -59t14.5 -74.5
q0 -36 -10 -66t-27.5 -57t-40 -52t-47.5 -52l-126 -127q49 15 92 15h120z" />
    <glyph glyph-name="three" unicode="3" horiz-adv-x="504" 
d="M36 458q7 48 27 83.5t50 59.5t68 35.5t82 11.5q47 0 84 -13.5t62.5 -36t39 -53t13.5 -63.5q0 -62 -24 -94t-71 -48q106 -37 106 -145q0 -51 -18.5 -89t-49.5 -63t-71.5 -37.5t-84.5 -12.5q-92 0 -146 40.5t-84 131.5l60 24q24 9 44.5 5t28.5 -20q38 -71 94 -71
q23 0 40 7.5t28.5 20t17 28t5.5 31.5q0 20 -3 36.5t-16 28.5t-39.5 18.5t-73.5 6.5v95q40 0 64 6t37.5 17t18 26t4.5 34q0 38 -18 58.5t-56 20.5q-30 0 -51 -16t-29 -40q-9 -24 -24 -32t-43 -3z" />
    <glyph glyph-name="four" unicode="4" horiz-adv-x="528" 
d="M313 249v167q0 16 1.5 33t3.5 37l-171 -237h166zM498 249v-76q0 -11 -7 -18.5t-19 -7.5h-40v-147h-119v147h-258q-14 0 -23.5 8t-11.5 20l-15 67l296 398h131v-391h66z" />
    <glyph glyph-name="five" unicode="5" horiz-adv-x="474" 
d="M174 416q18 3 34.5 4t32.5 1q51 0 89.5 -15.5t65 -42t40 -62.5t13.5 -77q0 -51 -18.5 -93.5t-51 -73t-77.5 -47.5t-98 -17q-63 0 -113 24.5t-84 57.5l41 56q13 17 34 17q14 0 25.5 -7t25.5 -15.5t32.5 -15.5t45.5 -7t46.5 9t31.5 25t17.5 36.5t5.5 44.5q0 46 -26 70.5
t-75 24.5q-43 0 -84 -16l-85 23l55 320h328v-56q0 -27 -18 -45t-62 -18h-154z" />
    <glyph glyph-name="six" unicode="6" horiz-adv-x="512" 
d="M254 100q21 0 39 8t31.5 22t21.5 33t8 41q0 49 -28 76t-73 27q-42 0 -68.5 -28t-26.5 -74q0 -48 23 -76.5t73 -28.5zM232 394q16 7 32.5 9.5t36.5 2.5q35 0 69 -11.5t61 -35.5t43.5 -60.5t16.5 -85.5q0 -45 -17 -85t-47.5 -70t-74 -47.5t-95.5 -17.5q-54 0 -96.5 17
t-72 47t-45 72t-15.5 93q0 97 72 193l144 194q10 14 29 22.5t45 8.5h121l-190 -226q-5 -5 -8.5 -9.5t-8.5 -10.5z" />
    <glyph glyph-name="seven" unicode="7" horiz-adv-x="469" 
d="M458 640v-57q0 -25 -6 -40.5t-11 -25.5l-223 -472q-9 -19 -26 -32t-45 -13h-100l229 459q10 18 20 33.5t23 28.5h-282q-11 0 -20.5 9t-9.5 21v89h451z" />
    <glyph glyph-name="eight" unicode="8" horiz-adv-x="516" 
d="M255 96q47 0 67.5 26t20.5 64q0 41 -19 67t-69 26t-69 -26t-19 -67q0 -38 21 -64t67 -26zM255 548q-21 0 -35 -6.5t-23 -17.5t-13 -24.5t-4 -28.5q0 -17 3 -33t11.5 -28t23 -19.5t37.5 -7.5t37.5 7.5t23 19.5t11.5 28t3 33q0 15 -4 28.5t-13 24.5t-23 17.5t-35 6.5z
M376 334q57 -20 82.5 -59t25.5 -92q0 -43 -16.5 -78t-46.5 -60t-72.5 -38.5t-93.5 -13.5t-93 13.5t-72.5 38.5t-47 60t-16.5 78q0 53 25.5 92t82.5 59q-87 40 -87 139q0 37 15.5 69.5t43 55.5t66 36.5t83.5 13.5t83.5 -13.5t66 -36.5t43 -55.5t15.5 -69.5q0 -98 -87 -139z
" />
    <glyph glyph-name="nine" unicode="9" horiz-adv-x="477" 
d="M142 446q0 -96 89 -96q43 0 66.5 25.5t23.5 70.5q0 46 -25 70t-67 24t-64.5 -27t-22.5 -67zM251 243q7 8 12 14.5t11 13.5q-42 -21 -92 -21q-31 0 -62.5 11t-57 34t-41.5 58t-16 82q0 43 16 82t46 68t71.5 46t92.5 17q52 0 92.5 -16t69 -44.5t43.5 -68t15 -86.5
q0 -63 -18.5 -112.5t-50.5 -93.5l-138 -197q-10 -13 -28.5 -21.5t-41.5 -8.5h-127z" />
    <glyph glyph-name="colon" unicode=":" horiz-adv-x="275" 
d="M55 0zM137 242q-37 0 -59.5 20.5t-22.5 61.5q0 42 22.5 62.5t59.5 20.5q38 0 60.5 -20.5t22.5 -62.5q0 -41 -22.5 -61.5t-60.5 -20.5zM137 0q-37 0 -59.5 20.5t-22.5 61.5q0 42 22.5 62.5t59.5 20.5q38 0 60.5 -20.5t22.5 -62.5q0 -41 -22.5 -61.5t-60.5 -20.5z" />
    <glyph glyph-name="semicolon" unicode=";" horiz-adv-x="255" 
d="M68 -114q-10 9 -10 19q0 11 11 19q11 12 27.5 32t23.5 46q-10 0 -16 3q-25 8 -40 28t-15 48q0 29 21.5 49.5t56.5 20.5q42 0 62 -26.5t20 -62.5q0 -23 -7.5 -49t-22 -52t-36.5 -51.5t-50 -46.5zM46 388q0 33 23 55.5t58 22.5t58.5 -22.5t23.5 -55.5q0 -34 -23.5 -56.5
t-58.5 -22.5t-58 22.5t-23 56.5z" />
    <glyph glyph-name="less" unicode="&#x3c;" horiz-adv-x="457" 
d="M413 110l-50 -121l-319 169v117l319 171l50 -122l-226 -107z" />
    <glyph glyph-name="equal" unicode="=" horiz-adv-x="490" 
d="M44 28zM44 28v121h402v-121h-402zM44 247v121h402v-121h-402z" />
    <glyph glyph-name="greater" unicode="&#x3e;" horiz-adv-x="457" 
d="M44 0zM44.0254 110l49.9971 -121l318.98 169v117l-318.98 171l-49.9971 -122l225.986 -107z" />
    <glyph glyph-name="question" unicode="?" horiz-adv-x="435" 
d="M27 612q35 28 81 48t107 20q88 0 138.5 -44.5t50.5 -118.5q0 -53 -20.5 -85t-46 -53.5t-48.5 -38t-28 -37.5l-14 -64h-97l-10 74q-4 23 4.5 39.5t22.5 30.5t32 26.5t34 26.5t26.5 31t10.5 41q0 28 -17.5 44.5t-49.5 16.5q-24 0 -41 -5.5t-29 -11.5t-21 -11.5t-18 -5.5
q-20 0 -28 18zM113 71q0 35 23 57.5t58 22.5t58 -22.5t23 -57.5q0 -33 -23 -55.5t-58 -22.5t-58 22.5t-23 55.5z" />
    <glyph glyph-name="at" unicode="@" horiz-adv-x="783" 
d="M464 363q-5 2 -10.5 2h-12.5q-23 0 -44 -11t-37 -30t-25.5 -44t-9.5 -53q0 -54 40 -54q21 0 39 13.5t28 51.5zM542 253q-12 -50 -2 -67t33 -17q16 0 30.5 11.5t25 32.5t17 49t6.5 61q0 57 -17.5 101t-49 74t-75.5 45t-98 15q-60 0 -110 -22t-86 -60.5t-56 -90t-20 -110.5
q0 -74 22.5 -130t62 -93.5t93.5 -56t118 -18.5q73 0 122 14t77 30q16 8 26.5 4t15.5 -16l19 -50q-46 -30 -110.5 -50.5t-149.5 -20.5q-87 0 -160 27t-126.5 77.5t-83.5 122t-30 160.5q0 73 28.5 140t79 118.5t119 82t149.5 30.5q67 0 128.5 -23t109 -65t76 -101.5
t28.5 -133.5q0 -49 -15 -92.5t-42 -76t-64 -51.5t-81 -19q-29 0 -55 13t-37 44q-28 -31 -58.5 -44t-65.5 -13q-60 0 -90.5 39.5t-30.5 99.5q0 39 15 79.5t45.5 73.5t77.5 53.5t112 20.5q42 0 69 -6t53 -17z" />
    <glyph glyph-name="A" unicode="A" horiz-adv-x="657" 
d="M420 256l-62 185q-7 17 -15.5 41.5t-14.5 50.5q-7 -27 -14.5 -51t-15.5 -41l-61 -185h183zM669 0h-122q-20 0 -32.5 9.5t-17.5 24.5l-40 116h-256l-40 -116q-6 -14 -18.5 -24t-32.5 -10h-122l261 672h159z" />
    <glyph glyph-name="B" unicode="B" horiz-adv-x="616" 
d="M331 118q31 0 50.5 7.5t31 20t15.5 28t4 32.5t-4.5 32t-16 25.5t-31 16.5t-49.5 6h-111v-168h111zM220 556v-165h82q25 0 45.5 3t35.5 12t23 24.5t8 41.5q0 48 -25 66t-77 18h-92zM312 672q69 0 118 -12.5t80 -36t45.5 -57t14.5 -75.5q0 -46 -26 -83t-89 -59
q68 -18 99.5 -53.5t31.5 -92.5q0 -44 -16.5 -81t-49 -64t-79.5 -42.5t-107 -15.5h-269v672h247z" />
    <glyph glyph-name="C" unicode="C" horiz-adv-x="606" 
d="M519 173q7 0 10 -1q3 -2 6.5 -3t5.5 -5l62 -64q-42 -55 -103 -81t-144 -26q-77 0 -138 26t-103.5 72t-65 109t-22.5 136q0 74 24 137t68 109t106 72t137 26q76 0 134.5 -24.5t96.5 -65.5q-20 -28 -33 -45t-21.5 -26.5t-14.5 -12.5t-13 -3q-12 0 -24 6q-33 23 -59.5 33
t-65.5 10q-42 0 -74.5 -16t-55 -44.5t-34 -68t-11.5 -87.5q0 -52 14 -92t38 -67t56.5 -41t70.5 -14q40 0 69 7.5t58 34.5q5 4 11.5 6.5t14.5 2.5z" />
    <glyph glyph-name="D" unicode="D" horiz-adv-x="702" 
d="M675 336q0 -73 -25 -134.5t-71 -106.5t-110.5 -70t-143.5 -25h-260v672h260q80 0 144.5 -25.5t110.5 -70.5t70.5 -106.5t24.5 -133.5zM516 336q0 100 -50 158t-141 58h-103v-432h103q88 0 139.5 56t51.5 160z" />
    <glyph glyph-name="E" unicode="E" horiz-adv-x="522" 
d="M222 552v-157h212v-116h-212v-159h276v-120h-433v672h433v-120h-276z" />
    <glyph glyph-name="F" unicode="F" horiz-adv-x="530" 
d="M222 552v-170h229v-121h-229v-261h-157v672h433v-120h-276z" />
    <glyph glyph-name="G" unicode="G" horiz-adv-x="695" 
d="M388 349h239v-284q-51 -38 -109 -55t-123 -17q-83 0 -151.5 26t-117 72t-75 108.5t-26.5 136.5q0 76 25 139.5t71.5 109t112.5 70.5t147 25q86 0 148.5 -26.5t102.5 -64.5l-45 -68q-11 -17 -28 -20.5t-36 8.5q-18 11 -34.5 19t-33.5 13.5t-36 8t-42 2.5
q-44 0 -79.5 -15.5t-60 -44t-38 -68.5t-13.5 -88q0 -53 15 -94.5t42 -70t64.5 -43.5t83.5 -15q52 0 95 20v101h-67q-14 0 -22.5 8.5t-8.5 19.5v87z" />
    <glyph glyph-name="H" unicode="H" horiz-adv-x="716" 
d="M652 672v-672h-156v285h-274v-285h-157v672h157v-280h274v280h156z" />
    <glyph glyph-name="I" unicode="I" horiz-adv-x="286" 
d="M222 0h-157v672h157v-672z" />
    <glyph glyph-name="J" unicode="J" horiz-adv-x="401" 
d="M344 244q0 -56 -14 -102.5t-42.5 -79.5t-72 -51t-101.5 -18q-26 0 -51.5 2.5t-53.5 8.5l8 90q5 29 33 29q8 0 20 -2.5t29 -2.5q45 0 66.5 26.5t21.5 95.5v432h157v-428z" />
    <glyph glyph-name="K" unicode="K" horiz-adv-x="655" 
d="M220 400h26q36 0 50 23l151 220q14 17 29.5 23t39.5 6h134l-200 -271q-10 -15 -21 -24.5t-24 -16.5q35 -14 59 -48l204 -312h-140q-27 0 -39 7.5t-23 21.5l-152 233q-9 13 -21 19t-35 6h-38v-287h-155v672h155v-272z" />
    <glyph glyph-name="L" unicode="L" horiz-adv-x="484" 
d="M470 125v-125h-405v672h155v-547h250z" />
    <glyph glyph-name="M" unicode="M" horiz-adv-x="885" 
d="M821 672v-672h-137v387q0 28 3 61l-179 -346q-17 -33 -54 -33h-22q-35 0 -54 33l-179 347q2 -17 3 -33t1 -29v-387h-138v672h119q20 0 31.5 -3t19.5 -20l173 -341q11 -17 19 -36.5t16 -39.5q8 21 16 40.5t19 36.5l172 340q10 17 21 20t31 3h119z" />
    <glyph glyph-name="N" unicode="N" horiz-adv-x="716" 
d="M652 672v-672h-82q-17 0 -29 5.5t-24 19.5l-318 402q2 -18 3 -34.5t1 -32.5v-360h-138v672h82q20 0 30 -3.5t21 -19.5l322 -404q-3 19 -3.5 36.5t-0.5 34.5v356h136z" />
    <glyph glyph-name="O" unicode="O" horiz-adv-x="752" 
d="M726 336q0 -73 -25 -135.5t-71 -108.5t-110.5 -72.5t-142.5 -26.5q-79 0 -144 26.5t-111 72.5t-71.5 108.5t-25.5 135.5t25.5 136t71.5 109t111 72.5t144 26.5q78 0 142.5 -26.5t110.5 -73t71 -109t25 -135.5zM566 336q0 101 -49.5 158.5t-139.5 57.5q-91 0 -141 -57.5
t-50 -158.5q0 -102 50 -157.5t141 -55.5q90 0 139.5 55.5t49.5 157.5z" />
    <glyph glyph-name="P" unicode="P" horiz-adv-x="586" 
d="M302 343q61 0 88 28.5t27 81.5q0 48 -27.5 75.5t-87.5 27.5h-82v-213h82zM302 672q71 0 122.5 -17t84.5 -46t48.5 -69.5t15.5 -86.5q0 -50 -16 -92t-49.5 -72.5t-84.5 -47.5t-121 -17h-82v-224h-155v672h237z" />
    <glyph glyph-name="Q" unicode="Q" horiz-adv-x="753" 
d="M187 336q0 -102 49.5 -157.5t140.5 -55.5t140 55.5t49 157.5q0 101 -49 158.5t-140 57.5t-140.5 -57.5t-49.5 -158.5zM764 -127h-129q-28 0 -49.5 7.5t-40.5 27.5l-84 93q-40 -8 -84 -8q-79 0 -143.5 26.5t-110.5 72.5t-71.5 108.5t-25.5 135.5t25.5 136t71.5 109
t110.5 72.5t143.5 26.5q78 0 142.5 -26.5t110.5 -73t71.5 -109t25.5 -135.5q0 -88 -35.5 -158t-98.5 -118z" />
    <glyph glyph-name="R" unicode="R" horiz-adv-x="609" 
d="M285 357q63 0 90 30t27 75t-28.5 69.5t-88.5 24.5h-65v-199h65zM615 0h-141q-40 0 -56 30l-112 194q-8 13 -17.5 19t-27.5 6h-41v-249h-155v672h220q72 0 123.5 -15t83.5 -41.5t47 -62.5t15 -79q0 -66 -34.5 -116.5t-100.5 -76.5q16 -8 29.5 -19.5t23.5 -28.5z" />
    <glyph glyph-name="S" unicode="S" horiz-adv-x="510" 
d="M437 535q-8 -11 -15.5 -16t-18.5 -5t-23.5 6.5t-28 14.5t-35.5 14.5t-45 6.5q-45 0 -65.5 -18.5t-20.5 -50.5q0 -27 22 -42t55.5 -26.5t72.5 -23.5t72.5 -33t55.5 -56t22 -91q0 -47 -16 -87.5t-47 -70.5t-76 -47t-102 -17q-32 0 -64.5 6.5t-63 18t-57 27.5t-46.5 36
l46 73q6 8 14.5 13.5t19.5 5.5q13 0 27.5 -9t32.5 -19.5t41 -19t55 -8.5q42 0 65.5 18.5t23.5 58.5q0 32 -22 48t-55.5 27t-72 22t-72 32t-55.5 58t-22 100q0 38 15.5 74t45 63.5t72.5 44.5t98 17q62 0 115.5 -18.5t90.5 -52.5z" />
    <glyph glyph-name="T" unicode="T" horiz-adv-x="560" 
d="M548 548h-189v-548h-155v548h-190v124h534v-124z" />
    <glyph glyph-name="U" unicode="U" horiz-adv-x="690" 
d="M345 123q63 0 98 40.5t35 111.5v397h157v-397q0 -63 -20 -114.5t-57.5 -89t-91.5 -58t-121 -20.5t-120.5 20.5t-90.5 58t-57 89t-20 114.5v397h155v-397q0 -71 35 -111.5t98 -40.5z" />
    <glyph glyph-name="V" unicode="V" horiz-adv-x="657" 
d="M669 672l-269 -672h-143l-269 672h125q21 0 32.5 -9.5t19.5 -23.5l131 -360q9 -24 18 -51.5t17 -58.5q6 31 13.5 58.5t17.5 51.5l130 360q5 13 18 23t33 10h126z" />
    <glyph glyph-name="W" unicode="W" horiz-adv-x="984" 
d="M982 672l-208 -672h-141l-127 417q-4 9 -7 21t-7 25q-3 -13 -6 -25t-6 -21l-129 -417h-141l-208 672h131q20 0 33.5 -9t18.5 -24l92 -350q4 -17 8.5 -37t7.5 -42q9 44 21 79l109 350q4 13 17.5 23t33.5 10h46q20 0 32.5 -9.5t18.5 -23.5l109 -350q5 -17 10.5 -35t9.5 -39
q7 40 16 74l92 350q4 14 18 23.5t33 9.5h123z" />
    <glyph glyph-name="X" unicode="X" horiz-adv-x="659" 
d="M643 0h-157q-16 0 -25 7.5t-15 17.5l-134 236l-3.5 -10.5t-6.5 -7.5l-125 -218q-6 -10 -14.5 -17.5t-22.5 -7.5h-147l217 346l-208 326h157q25 0 34 -16l134 -228q7 15 12 23l118 203q6 11 13 14.5t17 3.5h150l-210 -318z" />
    <glyph glyph-name="Y" unicode="Y" horiz-adv-x="619" 
d="M387 256v-256h-156v256l-244 416h138q20 0 31.5 -9.5t19.5 -23.5l95 -196q14 -23 23 -43.5t17 -39.5q13 40 37 83l93 196q7 12 19 22.5t32 10.5h139z" />
    <glyph glyph-name="Z" unicode="Z" horiz-adv-x="560" 
d="M543 616q0 -24 -15 -46l-317 -450h321v-120h-519v60q0 10 3 21t10 19l318 452h-305v120h504v-56z" />
    <glyph glyph-name="bracketleft" unicode="[" horiz-adv-x="308" 
d="M264 594v-115h-105v-540h105v-115h-220v770h220z" />
    <glyph glyph-name="backslash" unicode="\" horiz-adv-x="577" 
d="M44 0zM142.026 594l-97.9941 -66l389.977 -605l98.9941 66z" />
    <glyph glyph-name="bracketright" unicode="]" horiz-adv-x="308" 
d="M44 0zM44.0156 594v-115h104.994v-540h-104.994v-115h219.987v770h-219.987z" />
    <glyph glyph-name="underscore" unicode="_" horiz-adv-x="471" 
d="M44 82h383v-93h-383v93z" />
    <glyph glyph-name="a" unicode="a" horiz-adv-x="477" 
d="M296 195q-43 -2 -70.5 -8t-44 -14t-23 -19t-6.5 -23q0 -45 54 -45q28 0 48 10.5t42 31.5v67zM38 413q42 38 95 56t114 18q43 0 78 -14t60 -39t38 -59.5t13 -75.5v-299h-66q-21 0 -31 5t-18 24l-9 26q-36 -31 -69.5 -46.5t-82.5 -15.5q-67 0 -105.5 33t-38.5 99
q0 25 13 52t45 49t86 36.5t136 16.5v20q0 42 -17.5 61t-49.5 19q-25 0 -41.5 -5.5t-29 -12.5t-24.5 -12.5t-29 -5.5q-15 0 -25.5 7t-15.5 17z" />
    <glyph glyph-name="b" unicode="b" horiz-adv-x="530" 
d="M192 130q17 -18 35.5 -24.5t38.5 -6.5q40 0 66 32t26 115q0 72 -21 102.5t-62 30.5q-26 0 -45 -12t-38 -33v-204zM192 427q28 27 60 43t73 16q42 0 75.5 -16.5t57 -47t36 -74t12.5 -96.5q0 -59 -15 -106.5t-42 -81.5t-64.5 -52.5t-82.5 -18.5q-44 0 -70.5 15.5
t-48.5 40.5l-6 -24q-3 -15 -11.5 -20t-22.5 -5h-95v691h144v-264z" />
    <glyph glyph-name="c" unicode="c" horiz-adv-x="447" 
d="M400 365q-6 -8 -12 -12t-17 -4t-19.5 5t-19 11t-25 11t-36.5 5q-53 0 -77 -37.5t-24 -103.5q0 -69 26.5 -105t73.5 -36q25 0 39.5 6t24.5 13.5t18.5 14t21.5 6.5q18 0 26 -13l41 -51q-44 -51 -96 -66.5t-102 -15.5q-44 0 -84 16.5t-70 48t-48 77.5t-18 105q0 52 15.5 97
t45.5 78t74.5 52t103.5 19q57 0 99.5 -17.5t76.5 -52.5z" />
    <glyph glyph-name="d" unicode="d" horiz-adv-x="530" 
d="M339 350q-17 18 -35.5 25t-38.5 7q-41 0 -66.5 -32.5t-25.5 -111.5q0 -38 5.5 -64t15.5 -42t24 -22.5t31 -6.5q31 0 51 11t39 34v202zM485 691l-2 -691h-89q-29 0 -36 24l-10 36q-29 -30 -64 -48.5t-86 -18.5q-37 0 -68.5 16.5t-55 48t-36.5 77t-13 103.5q0 54 14.5 99.5
t41.5 78.5t65 52t84 19q37 0 63 -9.5t46 -28.5l3 242h143z" />
    <glyph glyph-name="e" unicode="e" horiz-adv-x="497" 
d="M346 297q0 17 -4.5 33t-14.5 29t-26 20.5t-39 7.5q-81 0 -93 -90h177zM166 214q7 -60 36 -87t77 -27q25 0 43 6t32 13.5t26 13.5t24 6q16 0 26 -13l42 -51q-22 -26 -47.5 -42t-52.5 -25t-54 -12t-52 -3q-51 0 -95 16.5t-77 48.5t-52 80.5t-19 111.5q0 48 16.5 91t47 75
t74.5 51t99 19q47 0 86.5 -15t68 -43t44.5 -68.5t16 -92.5q0 -32 -6.5 -42.5t-26.5 -10.5h-276z" />
    <glyph glyph-name="f" unicode="f" horiz-adv-x="339" 
d="M84 0v381l-30 6q-18 4 -28 11.5t-10 23.5v56h68v28q0 81 50.5 130.5t141.5 49.5q17 0 31.5 -2.5t31.5 -6.5l-3 -69q-1 -15 -12.5 -21t-22.5 -6q-38 0 -58 -16.5t-20 -63.5v-23h112v-98h-107v-380h-144z" />
    <glyph glyph-name="g" unicode="g" horiz-adv-x="496" 
d="M231 265q35 0 51 17.5t16 45.5q0 29 -16 46t-51 17q-36 0 -51.5 -17t-15.5 -46q0 -27 16 -45t51 -18zM342 -18q0 17 -15.5 24.5t-39.5 10.5t-54.5 4t-60.5 4q-14 -9 -22.5 -20.5t-8.5 -25.5q0 -20 20 -33t77 -13q62 0 83 14t21 35zM483 464v-51q0 -14 -6.5 -20.5
t-22.5 -10.5l-36 -8q4 -10 5.5 -20.5t1.5 -21.5q0 -36 -15 -65t-41.5 -49.5t-62 -31t-75.5 -10.5q-11 0 -22 0.5t-21 1.5q-8 -4 -11.5 -9t-3.5 -10q0 -17 22.5 -21.5t55.5 -6t72.5 -4t72.5 -13.5t55.5 -36t22.5 -71q0 -33 -16 -64t-46.5 -55t-75 -38.5t-101.5 -14.5
q-56 0 -97 10.5t-68 28t-40 40.5t-13 47q0 31 19 52t52 35q-18 11 -28.5 27.5t-10.5 42.5q0 22 15.5 46t48.5 40q-37 19 -58 51.5t-21 76.5q0 36 15 64.5t41.5 48.5t62.5 31t78 11q30 0 57.5 -5.5t50.5 -17.5h144z" />
    <glyph glyph-name="h" unicode="h" horiz-adv-x="527" 
d="M192 437q26 22 56 35.5t72 13.5q39 0 69.5 -14t51.5 -38.5t31.5 -58t10.5 -72.5v-303h-144v303q0 36 -16 56t-48 20q-23 0 -43.5 -10.5t-39.5 -26.5v-342h-144v691h144v-254z" />
    <glyph glyph-name="i" unicode="i" horiz-adv-x="246" 
d="M195 478v-478h-143v478h143zM210 610q0 -17 -7 -32t-19 -26.5t-27.5 -18t-33.5 -6.5q-17 0 -32.5 6.5t-27.5 18t-19 26.5t-7 32q0 18 7 33t19 26.5t27.5 18t32.5 6.5q18 0 33.5 -6.5t27.5 -18t19 -26.5t7 -33z" />
    <glyph glyph-name="j" unicode="j" horiz-adv-x="246" 
d="M195 478v-479q0 -34 -8.5 -63.5t-28.5 -52t-52 -35.5t-80 -13q-34 0 -63 7l4 77q1 10 7 14.5t23 4.5q32 0 43.5 12.5t11.5 48.5v479h143zM210 610q0 -17 -7 -32t-19 -26.5t-27.5 -18t-33.5 -6.5q-17 0 -32.5 6.5t-27.5 18t-19 26.5t-7 32q0 18 7 33t19 26.5t27.5 18
t32.5 6.5q18 0 33.5 -6.5t27.5 -18t19 -26.5t7 -33z" />
    <glyph glyph-name="k" unicode="k" horiz-adv-x="517" 
d="M192 691v-388h20q14 0 21 4.5t14 13.5l90 134q9 12 19 17.5t27 5.5h133l-125 -169q-18 -26 -42 -39q23 -16 36 -41l135 -229h-129q-16 0 -27.5 5t-19.5 19l-91 169q-6 12 -13 15t-21 3h-27v-211h-144v691h144z" />
    <glyph glyph-name="l" unicode="l" horiz-adv-x="237" 
d="M192 691v-691h-144v691h144z" />
    <glyph glyph-name="m" unicode="m" horiz-adv-x="785" 
d="M48 0v478h88q27 0 36 -23l9 -27q23 26 52 42t69 16q45 0 73.5 -22t42.5 -60q24 44 66.5 63t86.5 19q83 0 126.5 -47.5t43.5 -135.5v-303h-143v303q0 76 -64 76q-28 0 -47 -19.5t-19 -56.5v-303h-144v303q0 42 -16 59t-47 17q-20 0 -37.5 -9t-31.5 -24v-346h-144z" />
    <glyph glyph-name="n" unicode="n" horiz-adv-x="527" 
d="M181 427q28 26 59.5 42.5t79.5 16.5q39 0 69.5 -14t51.5 -38.5t31.5 -58t10.5 -72.5v-303h-144v303q0 36 -16 56t-48 20q-23 0 -43.5 -10.5t-39.5 -26.5v-342h-144v478h88q27 0 36 -23z" />
    <glyph glyph-name="o" unicode="o" horiz-adv-x="535" 
d="M269 486q54 0 99 -17t77 -49t49.5 -77.5t17.5 -102.5t-17.5 -102.5t-49.5 -78t-77 -49.5t-99 -17q-55 0 -100 17t-77.5 49.5t-50.5 78t-18 102.5t18 102.5t50.5 77.5t77.5 49t100 17zM269 100q50 0 73 34.5t23 104.5q0 72 -23 106.5t-73 34.5q-51 0 -74.5 -34.5
t-23.5 -106.5q0 -70 23.5 -104.5t74.5 -34.5z" />
    <glyph glyph-name="p" unicode="p" horiz-adv-x="531" 
d="M192 130q17 -18 35 -24.5t39 -6.5q40 0 66 32.5t26 111.5q0 76 -21 106t-56 30q-31 0 -51 -12t-38 -33v-204zM183 419q27 31 63 49.5t86 18.5q37 0 69 -16.5t55.5 -48t36.5 -76.5t13 -103q0 -54 -15 -99.5t-42 -79t-65 -52.5t-84 -19q-37 0 -62.5 10t-45.5 28v-183h-144
v630h88q27 0 36 -23z" />
    <glyph glyph-name="q" unicode="q" horiz-adv-x="530" 
d="M339 350q-17 18 -35.5 25t-38.5 7q-41 0 -66.5 -32.5t-25.5 -111.5q0 -38 5.5 -64t15.5 -42t24 -22.5t31 -6.5q31 0 51 11t39 34v202zM483 478v-630h-144v204q-28 -27 -61 -43t-80 -16q-37 0 -68.5 16.5t-55 48t-36.5 77t-13 103.5q0 54 14.5 99.5t41.5 78.5t65 52t84 19
q44 0 71.5 -14t50.5 -36l6 18q7 23 36 23h89z" />
    <glyph glyph-name="r" unicode="r" horiz-adv-x="352" 
d="M183 404q21 40 50 61.5t66 21.5q34 0 53 -13l-9 -107q-5 -17 -22 -17q-8 0 -22 2t-25 2q-32 0 -50.5 -16.5t-31.5 -46.5v-291h-144v478h85q22 0 30 -7.5t11 -24.5z" />
    <glyph glyph-name="s" unicode="s" horiz-adv-x="412" 
d="M354 374q-12 -16 -29 -16q-10 0 -20 4t-22 9.5t-26.5 9.5t-33.5 4q-57 0 -57 -39q0 -18 16.5 -28t41 -18t53.5 -17t53.5 -25t41 -40.5t16.5 -63.5q0 -71 -51.5 -116t-149.5 -45q-24 0 -48.5 4.5t-47.5 12.5t-42.5 19t-33.5 23l33 52q6 10 14 15t22 5q13 0 23 -5.5
t21.5 -12t26.5 -12t39 -5.5q33 0 46.5 13t13.5 28q0 19 -16.5 29.5t-41.5 19t-54 17.5t-54 25.5t-41.5 43t-16.5 70.5q0 30 11.5 57.5t35 48.5t59 33t83.5 12q53 0 96 -17.5t70 -44.5z" />
    <glyph glyph-name="t" unicode="t" horiz-adv-x="355" 
d="M219 -7q-68 0 -103.5 37.5t-35.5 100.5v249h-41q-11 0 -19 7.5t-8 20.5v56l76 14l29 118q4 21 31 21h75v-139h117v-98h-117v-238q0 -17 7.5 -27.5t23.5 -10.5t22 5t16 5t19 -12l43 -67q-29 -21 -63 -31.5t-72 -10.5z" />
    <glyph glyph-name="u" unicode="u" horiz-adv-x="526" 
d="M478 478v-478h-88q-29 0 -36 24l-9 28q-26 -27 -59 -43t-80 -16q-39 0 -69 13.5t-51 37.5t-31.5 57.5t-10.5 72.5v304h143v-304q0 -73 64 -73q44 0 84 37v340h143z" />
    <glyph glyph-name="v" unicode="v" horiz-adv-x="498" 
d="M500 478l-186 -478h-130l-186 478h120q29 0 39 -24l67 -215q8 -26 15 -51t12 -50q5 25 12 50.5t16 50.5l70 215q8 24 36 24h115z" />
    <glyph glyph-name="w" unicode="w" horiz-adv-x="758" 
d="M753 478l-149 -478h-117q-17 0 -25 24l-68 238q-5 17 -9.5 32t-6.5 31q-4 -16 -7.5 -31t-9.5 -33l-69 -237q-6 -24 -31 -24h-111l-148 478h115q14 0 24.5 -6.5t13.5 -17.5l50 -215l9.5 -47.5t9.5 -45.5q5 23 12 45.5t15 47.5l60 216q4 11 14 18t24 7h64q14 0 24.5 -7
t13.5 -18l58 -216q8 -25 14 -47.5t11 -45.5q5 22 10 45t11 48l51 215q10 24 39 24h108z" />
    <glyph glyph-name="x" unicode="x" horiz-adv-x="503" 
d="M506 0h-137q-15 0 -25 7.5t-15 17.5l-85 147q-3 -8 -5.5 -15.5t-7.5 -12.5l-70 -119q-7 -10 -15.5 -17.5t-22.5 -7.5h-127l159 247l-153 231h138q15 0 22 -3.5t12 -12.5l87 -142q5 15 15 34l61 106q7 11 14 14.5t18 3.5h131l-155 -224z" />
    <glyph glyph-name="y" unicode="y" horiz-adv-x="498" 
d="M504 478l-257 -603q-7 -14 -15.5 -20.5t-28.5 -6.5h-109l93 194l-190 436h126q17 0 25.5 -6.5t13.5 -17.5l78 -207q5 -14 9.5 -28t7.5 -30q7 16 11.5 30.5t10.5 29.5l71 205q5 11 15.5 17.5t22.5 6.5h116z" />
    <glyph glyph-name="z" unicode="z" horiz-adv-x="428" 
d="M404 422q0 -15 -5 -29t-14 -22l-199 -265h214v-106h-379v58q0 8 4 22t14 25l202 267h-206v106h369v-56z" />
    <glyph glyph-name="braceleft" unicode="{" horiz-adv-x="382" 
d="M44 264q30 1 47.5 10.5t26.5 28.5t11.5 48t2.5 69t4.5 72.5t18 55t39.5 34.5t70 12h74v-115h-40q-11 0 -19.5 -2t-14 -9.5t-8.5 -21.5t-3 -39q0 -45 -3.5 -78t-11.5 -56t-21.5 -38.5t-34.5 -25.5q21 -10 34.5 -25.5t21.5 -38.5t11.5 -56t3.5 -78q0 -25 3 -39t8.5 -21.5
t14 -9.5t19.5 -2h40v-115h-74q-44 0 -70 12t-39.5 34.5t-18 54.5t-4.5 73q0 40 -2.5 69t-11.5 48t-26.5 28.5t-47.5 10.5v110z" />
    <glyph glyph-name="bar" unicode="|" horiz-adv-x="215" 
d="M170 -176h-126v770h126v-770z" />
    <glyph glyph-name="braceright" unicode="}" horiz-adv-x="382" 
d="M44 0zM338.003 264q-29.998 1 -47.4971 10.5t-26.499 28.5q-8.99902 19 -11.499 48t-2.5 69t-4.49902 72.5q-4.5 32.5 -17.999 55q-13.5 22.5 -39.498 34.5t-69.9961 12h-73.9951v-115h39.998q10.999 0 19.498 -2q8.5 -2 14 -9.5q5.49902 -7.5 8.49902 -21.5t3 -39
q0 -45 3.5 -78q3.49902 -33 11.499 -56q7.99902 -23 21.499 -38.5q13.499 -15.5 34.4971 -25.5q-20.998 -10 -34.4971 -25.5q-13.5 -15.5 -21.499 -38.5q-8 -23 -11.499 -56q-3.5 -33 -3.5 -78q0 -25 -3 -39t-8.49902 -21.5q-5.5 -7.5 -14 -9.5q-8.49902 -2 -19.498 -2
h-39.998v-115h73.9951q43.998 0 69.9961 12t39.498 34.5q13.499 22.5 17.999 54.5q4.49902 32 4.49902 73q0 40 2.5 69t11.499 48q9 19 26.499 28.5t47.4971 10.5v110z" />
    <glyph glyph-name="nonbreakingspace" unicode="&#xa0;" horiz-adv-x="110" 
 />
    <glyph glyph-name="cent" unicode="&#xa2;" horiz-adv-x="532" 
d="M275 379q-46 -10 -67 -46t-21 -94q0 -99 60 -131zM493 73q-35 -40 -80.5 -57.5t-90.5 -21.5l-6 -58q-2 -13 -11.5 -24t-26.5 -11h-52l9 96q-40 7 -75 26.5t-60.5 50.5t-40 72.5t-14.5 92.5q0 50 15.5 94t46 77t75 52.5t103.5 22.5l6 65q2 12 12 22.5t26 10.5h52l-9 -105
q35 -8 63 -23.5t53 -38.5l-37 -49q-5 -8 -11 -12t-17 -4q-14 0 -27 7.5t-36 15.5l-27 -275q19 2 32.5 8t24 12t19 11t18.5 5q17 0 27 -12z" />
    <glyph glyph-name="sterling" unicode="&#xa3;" horiz-adv-x="533" 
d="M12 316q0 18 11.5 32t35.5 14h40v100q0 44 13.5 83.5t40.5 69.5t68.5 47.5t97.5 17.5q37 0 67.5 -9.5t54 -26.5t41.5 -39.5t32 -49.5l-57 -35q-20 -11 -38.5 -10t-33.5 18q-17 18 -31.5 27t-34.5 9q-38 0 -56 -26t-18 -76v-100h175v-54q0 -14 -11 -25.5t-28 -11.5h-136
v-72q0 -27 -10.5 -49t-27.5 -42q20 4 41 7t42 3h232v-59q0 -21 -16.5 -40t-44.5 -19h-440v85q30 6 54 24.5t24 52.5v109h-87v45z" />
    <glyph glyph-name="currency" unicode="&#xa4;" horiz-adv-x="532" 
d="M268 238q30 0 50.5 21.5t20.5 52.5q0 32 -20.5 52.5t-50.5 20.5q-29 0 -50 -20.5t-21 -52.5q0 -31 21 -52.5t50 -21.5zM423 90l-69 69q-41 -23 -86 -23t-81 19l-72 -69l-71 69l70 71q-11 20 -16.5 40.5t-5.5 45.5q0 21 5.5 42t15.5 41l-71 69l71 69l70 -69q39 22 85 22
q23 0 43 -5.5t38 -15.5l71 70l72 -69l-70 -69q21 -38 21 -85q0 -49 -20 -83l72 -70z" />
    <glyph glyph-name="yen" unicode="&#xa5;" horiz-adv-x="533" 
d="M362 294h116v-75h-139v-42h139v-75h-139v-102h-143v102h-138v75h138v42h-138v75h115l-181 378h119q21 0 33 -9t19 -24l76 -197q11 -23 18 -44t12 -41q5 20 12 41t16 44l75 197q6 13 18.5 23t32.5 10h120z" />
    <glyph glyph-name="brokenbar" unicode="&#xa6;" horiz-adv-x="215" 
d="M170 280h-126v314h126v-314zM170 -176h-126v313h126v-313z" />
    <glyph glyph-name="copyright" unicode="&#xa9;" horiz-adv-x="754" 
d="M469 251q10 0 19 -11l47 -48q-24 -35 -64.5 -52t-93.5 -17q-47 0 -84.5 16.5t-64 46t-41 68.5t-14.5 84q0 47 16.5 86.5t45.5 68t68 44.5t84 16q54 0 92 -18t62 -47l-38 -49q-5 -4 -10 -9t-15 -5q-9 0 -15.5 4t-15 9t-20.5 9t-32 4q-48 0 -71.5 -30t-23.5 -83
q0 -55 23.5 -84.5t60.5 -29.5q22 0 34.5 4t21 9t14.5 9t15 5zM34 336q0 72 27 134.5t73.5 109t109 73.5t133.5 27t134 -27t109.5 -73.5t73.5 -109t27 -134.5q0 -71 -27 -133t-73.5 -109t-109.5 -74t-134 -27t-133.5 27t-109 73.5t-73.5 109t-27 133.5zM110 336
q0 -58 20.5 -109t56.5 -88.5t85 -59t105 -21.5q57 0 106.5 21.5t85.5 59t57 88.5t21 109q0 59 -21 110t-57 89t-85.5 59.5t-106.5 21.5q-56 0 -105 -21.5t-85 -59.5t-56.5 -89t-20.5 -110z" />
    <glyph glyph-name="guillemotleft" unicode="&#xab;" horiz-adv-x="490" 
d="M44 0zM165 209q0 -31 2 -57.5t9 -53t21.5 -54.5t39.5 -61l-78 -66q-37 39 -59.5 76.5t-35 74t-16.5 71.5t-4 70t4 70t16.5 71.5t35 74t59.5 76.5l78 -66q-25 -33 -39.5 -61t-21.5 -54.5t-9 -53t-2 -57.5zM374 209q0 -31 2 -57.5t9 -53t21.5 -54.5t39.5 -61l-78 -66
q-37 39 -59.5 76.5t-35 74t-16.5 71.5t-4 70t4 70t16.5 71.5t35 74t59.5 76.5l78 -66q-25 -33 -39.5 -61t-21.5 -54.5t-9 -53t-2 -57.5z" />
    <glyph glyph-name="logicalnot" unicode="&#xac;" horiz-adv-x="490" 
d="M335 209h-291v115h402v-268h-111v153z" />
    <glyph glyph-name="softHyphen" unicode="&#xad;" horiz-adv-x="429" 
d="M44 137zM44 137v121h341v-121h-341z" />
    <glyph glyph-name="registered" unicode="&#xae;" horiz-adv-x="754" 
d="M369 354q22 0 34.5 3.5t19 10t8 16t1.5 22.5q0 24 -8.5 36.5t-45.5 12.5h-39v-101h30zM579 129h-119q-27 0 -36 19l-43 106q-5 9 -10.5 12t-16.5 3h-15v-140h-124v417h163q93 0 134.5 -32t41.5 -91q0 -39 -18.5 -71t-60.5 -48q14 -5 23 -17t18 -26zM34 336q0 72 27 134.5
t73.5 109t109 73.5t133.5 27t134 -27t109.5 -73.5t73.5 -109t27 -134.5q0 -71 -27 -133t-73.5 -109t-109.5 -74t-134 -27t-133.5 27t-109 73.5t-73.5 109t-27 133.5zM110 336q0 -58 20.5 -109t56.5 -88.5t85 -59t105 -21.5q57 0 106.5 21.5t85.5 59t57 88.5t21 109
q0 59 -21 110t-57 89t-85.5 59.5t-106.5 21.5q-56 0 -105 -21.5t-85 -59.5t-56.5 -89t-20.5 -110z" />
    <glyph glyph-name="degree" unicode="&#xb0;" horiz-adv-x="339" 
d="M44 473q0 26 10 49t27 40t39.5 27t48.5 10t49 -10t40 -27t27 -40t10 -49t-10 -48.5t-27 -39t-40 -26.5t-49 -10t-48.5 10t-39.5 26.5t-27 39t-10 48.5zM132 474q0 -16 10.5 -26.5t26.5 -10.5t27 10.5t11 26.5t-11 27t-27 11t-26.5 -11t-10.5 -27z" />
    <glyph glyph-name="plusminus" unicode="&#xb1;" horiz-adv-x="490" 
d="M44 0zM44 0v121h402v-121h-402zM44 313v116h146v143h115v-143h141v-116h-141v-137h-115v137h-146z" />
    <glyph glyph-name="paragraph" unicode="&#xb6;" horiz-adv-x="528" 
d="M484 0h-110v517h-61v-517h-104v286q-43 0 -74 5.5t-51.5 22t-30 46.5t-9.5 80q0 49 10.5 79.5t31.5 47t53 22t76 5.5h269v-594z" />
    <glyph glyph-name="periodcentered" unicode="&#xb7;" horiz-adv-x="286" 
d="M77 198zM159 198q-37 0 -59.5 20.5t-22.5 61.5q0 42 22.5 62.5t59.5 20.5q38 0 60.5 -20.5t22.5 -62.5q0 -41 -22.5 -61.5t-60.5 -20.5z" />
    <glyph glyph-name="guillemotright" unicode="&#xbb;" horiz-adv-x="490" 
d="M43 0zM115.01 209q0 -31 -2 -57.5q-1.99902 -26.5 -8.99902 -53t-21.499 -54.5t-39.4971 -61l77.9951 -66q36.998 39 59.4961 76.5q22.499 37.5 34.998 74t16.499 71.5t4 70t-4 70t-16.499 71.5t-34.998 74q-22.498 37.5 -59.4961 76.5l-77.9951 -66
q24.998 -33 39.4971 -61t21.499 -54.5t8.99902 -53q2 -26.5 2 -57.5zM325.01 209q0 -31 -2 -57.5q-1.99902 -26.5 -8.99902 -53t-21.499 -54.5t-39.4971 -61l77.9951 -66q36.998 39 59.4961 76.5q22.499 37.5 34.998 74t16.499 71.5t4 70t-4 70t-16.499 71.5t-34.998 74
q-22.498 37.5 -59.4961 76.5l-77.9951 -66q24.998 -33 39.4971 -61t21.499 -54.5t8.99902 -53q2 -26.5 2 -57.5z" />
    <glyph glyph-name="multiply" unicode="&#xd7;" horiz-adv-x="504" 
d="M44 330l81 80l127 -126l126 126l82 -80l-127 -128l127 -127l-82 -81l-126 127l-127 -127l-81 81l126 127z" />
    <glyph glyph-name="divide" unicode="&#xf7;" horiz-adv-x="490" 
d="M174 121h136v-121h-136v121zM174 506h136v-121h-136v121zM44 192v121h402v-121h-402z" />
    <glyph glyph-name="darhezar" unicode="&#x609;" horiz-adv-x="979" 
d="M809 209q25 0 47.5 -10.5t40 -28.5t28 -41t10.5 -47q0 -25 -10.5 -47.5t-28 -40t-40 -28t-47.5 -10.5q-24 0 -47 10.5t-41 28t-28.5 40t-10.5 47.5q0 24 10.5 47t28.5 41t41 28.5t47 10.5zM809 54q10 0 18.5 8.5t8.5 19.5t-8.5 19.5t-18.5 8.5q-11 0 -19.5 -8.5
t-8.5 -19.5t8.5 -19.5t19.5 -8.5zM517 209q25 0 47.5 -10.5t40 -28.5t28 -41t10.5 -47q0 -25 -10.5 -47.5t-28 -40t-40 -28t-47.5 -10.5q-24 0 -47 10.5t-40.5 28t-28 40t-10.5 47.5q0 24 10.5 47t28 41t40.5 28.5t47 10.5zM517 54q10 0 18.5 8.5t8.5 19.5t-8.5 19.5
t-18.5 8.5q-11 0 -19 -8.5t-8 -19.5t8 -19.5t19 -8.5zM170 308q-24 0 -47 10.5t-40.5 28.5t-28 41t-10.5 47q0 25 10.5 47.5t28 40t40.5 28t47 10.5t47 -10.5t41 -28t28.5 -40t10.5 -47.5q0 -24 -10.5 -47t-28.5 -41t-41 -28.5t-47 -10.5zM170 463q-10 0 -18.5 -8.5
t-8.5 -19.5t8.5 -19.5t18.5 -8.5q11 0 19.5 8.5t8.5 19.5t-8.5 19.5t-19.5 8.5zM490 594l98 -66l-390 -605l-99 66z" />
    <glyph glyph-name="darDahezar" unicode="&#x60a;" horiz-adv-x="1270" 
d="M1100 209q25 0 47.5 -10.5t40 -28.5t28 -41t10.5 -47q0 -25 -10.5 -47.5t-28 -40t-40 -28t-47.5 -10.5q-24 0 -47 10.5t-40.5 28t-28 40t-10.5 47.5q0 24 10.5 47t28 41t40.5 28.5t47 10.5zM1100 54q10 0 18.5 8.5t8.5 19.5t-8.5 19.5t-18.5 8.5q-11 0 -19.5 -8.5
t-8.5 -19.5t8.5 -19.5t19.5 -8.5zM809 209q25 0 47.5 -10.5t40 -28.5t28 -41t10.5 -47q0 -25 -10.5 -47.5t-28 -40t-40 -28t-47.5 -10.5q-24 0 -47 10.5t-41 28t-28.5 40t-10.5 47.5q0 24 10.5 47t28.5 41t41 28.5t47 10.5zM809 54q10 0 18.5 8.5t8.5 19.5t-8.5 19.5
t-18.5 8.5q-11 0 -19.5 -8.5t-8.5 -19.5t8.5 -19.5t19.5 -8.5zM517 209q25 0 47.5 -10.5t40 -28.5t28 -41t10.5 -47q0 -25 -10.5 -47.5t-28 -40t-40 -28t-47.5 -10.5q-24 0 -47 10.5t-40.5 28t-28 40t-10.5 47.5q0 24 10.5 47t28 41t40.5 28.5t47 10.5zM517 54
q10 0 18.5 8.5t8.5 19.5t-8.5 19.5t-18.5 8.5q-11 0 -19 -8.5t-8 -19.5t8 -19.5t19 -8.5zM170 308q-24 0 -47 10.5t-40.5 28.5t-28 41t-10.5 47q0 25 10.5 47.5t28 40t40.5 28t47 10.5t47 -10.5t41 -28t28.5 -40t10.5 -47.5q0 -24 -10.5 -47t-28.5 -41t-41 -28.5t-47 -10.5z
M170 463q-10 0 -18.5 -8.5t-8.5 -19.5t8.5 -19.5t18.5 -8.5q11 0 19.5 8.5t8.5 19.5t-8.5 19.5t-19.5 8.5zM490 594l98 -66l-390 -605l-99 66z" />
    <glyph glyph-name="virgul" unicode="&#x60c;" horiz-adv-x="275" 
d="M137 0q-37 0 -59.5 22t-22.5 72q0 60 5.5 98t22 61.5t46.5 34t80 14.5v-71q-25 -4 -39 -8t-21.5 -11t-9.5 -18t-2 -29q38 0 60.5 -18.5t22.5 -64.5q0 -41 -22.5 -61.5t-60.5 -20.5z" />
    <glyph glyph-name="tarikh.sep" unicode="&#x60d;" horiz-adv-x="418" 
d="M269 302l105 -71l-226 -341l-104 71z" />
    <glyph glyph-name="noqte_virgul" unicode="&#x61b;" horiz-adv-x="275" 
d="M55 0zM137 242q-37 0 -59.5 22t-22.5 72q0 60 5.5 98t22 61.5t46.5 34t80 14.5v-71q-25 -4 -39 -8t-21.5 -11t-9.5 -18t-2 -29q38 0 60.5 -18.5t22.5 -64.5q0 -41 -22.5 -61.5t-60.5 -20.5zM137 0q-37 0 -59.5 20.5t-22.5 61.5q0 42 22.5 62.5t59.5 20.5q38 0 60.5 -20.5
t22.5 -62.5q0 -41 -22.5 -61.5t-60.5 -20.5z" />
    <glyph glyph-name="soal" unicode="&#x61f;" horiz-adv-x="429" 
d="M258 413q0 37 -11.5 51.5t-33.5 14.5q-19 0 -28 -10.5t-9 -24.5q0 -15 9.5 -27t34.5 -37q18 -18 28.5 -34t16.5 -37t8 -50t2 -72h-121q0 31 -0.5 49t-5 31.5t-13.5 26t-25 30.5q-29 34 -42 64.5t-13 68.5q0 33 12 61t33 48.5t50.5 32t64.5 11.5q86 0 122.5 -53.5
t36.5 -143.5h-116zM209 0q-32 0 -52 16.5t-20 51.5q0 37 20 53t52 16t51.5 -16t19.5 -53q0 -35 -19.5 -51.5t-51.5 -16.5z" />
    <glyph glyph-name="kashidas" unicode="&#x640;" horiz-adv-x="165" 
d="M165 137q13 0 17.5 -16t4.5 -50q0 -37 -4.5 -54t-17.5 -17h-165q-13 0 -17.5 16.5t-4.5 49.5q0 38 4.5 54.5t17.5 16.5h165z" />
    <glyph glyph-name=".an" unicode="&#x64b;" 
d="M0 0zM112 170l28 -71l-242 -99l-28 71zM102 302l28 -71l-242 -99l-28 71z" />
    <glyph glyph-name=".on" unicode="&#x64c;" 
d="M4 116q-8 8 -16 23.5t-8 36.5t7.5 38t20.5 29t29 18.5t34 6.5q42 0 68 -26.5t26 -71.5q0 -30 -18.5 -55.5t-57.5 -44.5l-175 -70l-31 61v49q0 13 -5 17.5t-13 4.5h-30v72h59q21 0 32.5 -11.5t11.5 -37.5v-64zM48 170q0 -18 23 -33q14 7 19.5 16t5.5 19q0 8 -5.5 15.5
t-19.5 7.5q-13 0 -18 -8t-5 -17z" />
    <glyph glyph-name=".en" unicode="&#x64d;" 
d="M0 0zM112 -132l28 -71l-242 -99l-28 71zM102 0l28 -71l-242 -99l-28 71z" />
    <glyph glyph-name=".a" unicode="&#x64e;" 
d="M107 170l28 -71l-242 -99l-28 71z" />
    <glyph glyph-name=".o" unicode="&#x64f;" 
d="M-143 71l120 45q-8 8 -16 23.5t-8 36.5t7.5 38t20.5 29t29 18.5t34 6.5q42 0 67.5 -26.5t25.5 -71.5q0 -30 -18.5 -55.5t-56.5 -44.5l-175 -70zM21 170q0 -18 23 -33q14 7 19 16t5 19q0 8 -5 15.5t-19 7.5t-18.5 -8t-4.5 -17z" />
    <glyph glyph-name=".e" unicode="&#x650;" 
d="M0 0zM107 0l28 -71l-242 -99l-28 71z" />
    <glyph glyph-name=".shdd" unicode="&#x651;" 
d="M0 22q-6 -7 -16 -14.5t-21 -7.5h-38q-13 0 -28.5 4t-29 16.5t-23 36t-9.5 62.5v61h77v-70q0 -22 10 -27.5t25 -5.5h14v103h77v-103h15q15 0 25 5.5t10 27.5v70h77v-61q0 -39 -10 -62.5t-25 -36t-31.5 -16.5t-29.5 -4h-32q-11 0 -21 7.5t-16 14.5z" />
    <glyph glyph-name=".skn" unicode="&#x652;" 
d="M-103 102q0 46 29 75t74 29q46 0 74.5 -29t28.5 -75q0 -45 -28.5 -73.5t-74.5 -28.5q-45 0 -74 28.5t-29 73.5zM-29 102q0 -11 9 -19t20 -8q12 0 20.5 8t8.5 19q0 13 -8.5 21.5t-20.5 8.5q-11 0 -20 -8.5t-9 -21.5z" />
    <glyph glyph-name=".mad" unicode="&#x653;" 
d="M-17 50q-18 0 -29 -1t-19 -5.5t-17 -14.5t-23 -29l-55 38q21 33 34.5 51.5t28 26.5t34 9.5t52.5 1.5h170l-5 -77h-171z" />
    <glyph glyph-name=".thmz" unicode="&#x654;" 
d="M110 88l-188 -94l-32 67l55 25q-35 31 -35 73t28.5 68t70.5 26h46l-5 -77h-29q-17 0 -25 -7.5t-8 -18.5q0 -10 7 -16.5t18 -6.5q10 0 27 7t40 20z" />
    <glyph glyph-name=".bhmz" unicode="&#x655;" 
d="M0 0zM110 -164l-188 -94l-32 67l55 25q-35 31 -35 73t28.5 68t70.5 26h46l-5 -77h-29q-17 0 -25 -7.5t-8 -18.5q0 -10 7 -16.5t18 -6.5q10 0 27 7t40 20z" />
    <glyph glyph-name=".i" unicode="&#x656;" 
d="M0 0zM-39 1h77v-176h-77v176z" />
    <glyph glyph-name="sefr.arab" unicode="&#x660;" horiz-adv-x="429" 
d="M44 44zM215 385q33 0 63.5 -14.5t54 -38t38 -54t14.5 -63.5t-14.5 -64t-38 -54.5t-54 -38t-63.5 -14.5t-64 14.5t-54.5 38t-38 54.5t-14.5 64t14.5 63.5t38 54t54.5 38t64 14.5zM215 165q20 0 34.5 15t14.5 35t-14.5 34.5t-34.5 14.5t-35 -14.5t-15 -34.5t15 -35t35 -15z
" />
    <glyph glyph-name="yek.arab" unicode="&#x661;" horiz-adv-x="258" 
d="M44 0zM87 -61v243q0 60 -3 102t-8.5 76t-13.5 64.5t-18 65.5l120 43q13 -39 22.5 -74.5t15.5 -75.5t9 -87t3 -109v-248h-127z" />
    <glyph glyph-name="do.arab" unicode="&#x662;" horiz-adv-x="462" 
d="M44 0zM269 226q-38 0 -58 14q2 -17 2.5 -33t0.5 -37v-231h-127v243q0 60 -3 102t-8.5 76t-13.5 64.5t-18 65.5l120 43l14 -52l14 -52q3 -12 7 -24t10.5 -21.5t16.5 -15t27 -5.5q24 0 33.5 11.5t9.5 27.5q0 24 -16 104l121 27q17 -76 17 -137q0 -37 -10 -68.5t-29.5 -54
t-47 -35t-62.5 -12.5z" />
    <glyph glyph-name="se.arab" unicode="&#x663;" horiz-adv-x="665" 
d="M44 0zM401 533q17 -76 17 -137v-9.5t-2 -9.5q11 -8 21 -11t19 -3q25 0 34.5 11.5t9.5 27.5q0 24 -16 104l120 27q17 -76 17 -137q0 -37 -10 -68.5t-29 -54t-46.5 -35t-62.5 -12.5q-27 0 -54.5 9.5t-50.5 32.5q-20 -20 -43.5 -31t-55.5 -11q-38 0 -58 14q2 -17 2.5 -33
t0.5 -37v-231h-127v243q0 60 -3 102t-8.5 76t-13.5 64.5t-18 65.5l120 43l14 -52l14 -52q3 -12 7 -24t10.5 -21.5t16.5 -15t27 -5.5q24 0 33.5 11.5t9.5 27.5q0 24 -16 104l121 27v0z" />
    <glyph glyph-name="char.arab" unicode="&#x664;" horiz-adv-x="391" 
d="M44 61q0 15 3 32t14 36.5t31.5 43.5t55.5 53q-54 17 -79 54.5t-25 88.5q0 33 12.5 63.5t35 54.5t52.5 38t65 14q33 0 59 -7.5t51 -19.5l-33 -121q-17 4 -33 7.5t-33 3.5q-29 0 -39.5 -13t-10.5 -26q0 -17 15 -28t57 -11h60v-120q-43 -31 -68 -50t-38 -29.5t-16.5 -16
t-3.5 -9.5q0 -17 28 -17h148l-6 -137h-159q-70 0 -106.5 31t-36.5 85z" />
    <glyph glyph-name="panj.arab" unicode="&#x665;" horiz-adv-x="512" 
d="M44 99q0 29 6 57.5t21 61t40.5 69.5t64.5 82l-44 44l83 93q76 -70 125 -126t77.5 -102t39.5 -85.5t11 -76.5q0 -46 -15.5 -80t-43.5 -56.5t-66.5 -34t-84.5 -11.5h-21q-96 0 -144.5 45t-48.5 120zM341 132q0 25 -18.5 64t-66.5 84q-35 -37 -60.5 -76t-25.5 -72
q0 -29 19.5 -45t52.5 -16h16q38 0 60.5 16t22.5 45z" />
    <glyph glyph-name="shish.arab" unicode="&#x666;" horiz-adv-x="451" 
d="M374 280q0 -60 3 -102t9 -76t14 -64.5t18 -65.5l-116 -44q-12 39 -22 75t-17 76t-11 87t-4 109v108q0 4 -2.5 7.5t-8.5 3.5q-2 0 -13.5 -1.5t-28 -3t-36.5 -3t-38 -1.5q-29 0 -55.5 7t-43.5 32l33 115q17 -8 36.5 -12.5t45.5 -4.5q19 0 43.5 1.5t48.5 3t45.5 3t33.5 1.5
q33 0 49.5 -21t16.5 -50v-180z" />
    <glyph glyph-name="haft.arab" unicode="&#x667;" horiz-adv-x="561" 
d="M44 0zM281 159q8 52 16 95.5t21.5 87.5t35.5 92t59 110l105 -65q-39 -68 -67.5 -125.5t-50 -117.5t-39.5 -131t-36 -166h-88q-19 95 -36.5 166t-39.5 131t-50 117.5t-67 125.5l105 65q37 -62 59 -110t35.5 -92t21.5 -87.5t16 -95.5z" />
    <glyph glyph-name="hasht.arab" unicode="&#x668;" horiz-adv-x="561" 
d="M44 0zM281 313q-8 -51 -16 -94.5t-21.5 -87t-35.5 -92.5t-59 -111l-105 66q39 68 67 125.5t50 117.5t39.5 130.5t36.5 165.5h88q18 -95 36 -165.5t39.5 -130.5t50 -117.5t67.5 -125.5l-105 -66q-37 62 -59 111t-35.5 92.5t-21.5 87t-16 94.5z" />
    <glyph glyph-name="noh.arab" unicode="&#x669;" horiz-adv-x="429" 
d="M43 0zM263 -61v246q-15 -4 -31.5 -6.5t-39.5 -2.5q-39 0 -67.5 12.5t-46.5 34.5t-26.5 50.5t-8.5 61.5q0 39 13 76t36 65.5t56 45.5t72 17q45 0 76.5 -20t51 -53.5t28.5 -77t9 -91.5v-358h-122zM263 330q0 12 -3 25.5t-9.5 25t-16.5 19t-23 7.5q-23 0 -35 -16.5
t-12 -34.5q0 -20 12 -28.5t33 -8.5q17 0 28.5 2.5t25.5 8.5z" />
    <glyph glyph-name="darsad" unicode="&#x66a;" horiz-adv-x="687" 
d="M517 209q25 0 47.5 -10.5t40 -28.5t28 -41t10.5 -47q0 -25 -10.5 -47.5t-28 -40t-40 -28t-47.5 -10.5q-24 0 -47 10.5t-40.5 28t-28 40t-10.5 47.5q0 24 10.5 47t28 41t40.5 28.5t47 10.5zM517 54q10 0 18.5 8.5t8.5 19.5t-8.5 19.5t-18.5 8.5q-11 0 -19 -8.5t-8 -19.5
t8 -19.5t19 -8.5zM170 308q-24 0 -47 10.5t-40.5 28.5t-28 41t-10.5 47q0 25 10.5 47.5t28 40t40.5 28t47 10.5t47 -10.5t41 -28t28.5 -40t10.5 -47.5q0 -24 -10.5 -47t-28.5 -41t-41 -28.5t-47 -10.5zM170 463q-10 0 -18.5 -8.5t-8.5 -19.5t8.5 -19.5t18.5 -8.5
q11 0 19.5 8.5t8.5 19.5t-8.5 19.5t-19.5 8.5zM490 594l98 -66l-390 -605l-99 66z" />
    <glyph glyph-name="sad.sep" unicode="&#x66b;" horiz-adv-x="418" 
d="M44 0zM269 302l105 -71l-226 -341l-104 71z" />
    <glyph glyph-name="hezar.sep" unicode="&#x66c;" horiz-adv-x="253" 
d="M44 0zM127.009 165q36.9971 0 59.4961 -21.999q22.498 -21.998 22.498 -71.9951q0 -59.9961 -5.49902 -97.9941q-5.5 -37.998 -21.999 -61.4961q-16.499 -23.499 -46.4971 -33.998t-79.9951 -14.499v70.9951q24.999 4 38.998 8t21.498 10.999q7.5 7 9.5 17.999t2 28.998
q-37.998 0 -60.4971 18.499q-22.498 18.499 -22.498 64.4961q0 40.998 22.498 61.4961q22.499 20.499 60.4971 20.499z" />
    <glyph glyph-name="setare" unicode="&#x66d;" horiz-adv-x="505" 
d="M167 1l-81 65l90 106l-132 48l42 96l120 -56l-6 142h105l-6 -142l120 56l42 -96l-132 -48l90 -106l-81 -65l-85 115z" />
    <glyph glyph-name=".aa" unicode="&#x670;" 
d="M-39 176h77v-176h-77v176z" />
    <glyph glyph-name="re.bv" unicode="&#x695;" horiz-adv-x="254" 
d="M0 0zM204 16q0 -51 -18.5 -98t-51 -82.5t-77 -56.5t-96.5 -21h-66l-5 137h38q42 0 70.5 10.5t46 27.5t25 38.5t7.5 44.5v281h127v-281v0zM160 -279l60 -39l-88 -176h-66l-88 176l60 39l61 -127z" />
    <glyph glyph-name="lam.tv" unicode="&#x6b5;" horiz-adv-x="659" 
d="M44 0zM599 28q0 -58 -17.5 -107.5t-50.5 -85.5t-80 -56.5t-105 -20.5h-66q-112 0 -174 69t-62 189v182h126v-176q0 -29 6 -52.5t20.5 -40t39 -25.5t61.5 -9h44q39 0 64.5 10.5t40.5 29t21 42.5t6 51v592h126v-592zM358 622l60 -39l-88 -176h-66l-88 176l60 39l61 -127z
" />
    <glyph glyph-name="he.dochashmi" unicode="&#x6be;" horiz-adv-x="676" 
d="M22 0zM50 237q0 39 13 72t36.5 57.5t57 38t74.5 13.5t71.5 -14t50 -37t29 -51.5t9.5 -57.5q0 -37 -11 -66.5t-28 -54.5h116q26 0 26 19q0 5 -2.5 10t-10.5 16l-157 198l94 88l159 -204q30 -38 42.5 -70t12.5 -62q0 -27 -9.5 -51t-28.5 -42t-48 -28.5t-67 -10.5h-133
q-22 0 -44 1t-44 4q-35 -33 -72.5 -66t-80.5 -66l-83 99q35 25 61 42.5t54 40.5q-29 27 -46 52t-26 47.5t-12 43t-3 39.5zM223 286q-23 0 -40.5 -15t-17.5 -40q0 -20 14 -43t47 -40q29 17 39 40t10 43q0 25 -14.5 40t-37.5 15z" />
    <glyph glyph-name="he.thmz.goal" unicode="&#x6c2;" horiz-adv-x="446" 
d="M44 0zM44 154q0 29 7 54.5t20.5 49.5t32.5 48.5t44 51.5l-46 46l85 91q62 -60 103.5 -105t66 -82t35 -70t10.5 -68q0 -37 -14 -68.5t-38 -54t-57.5 -35t-72.5 -12.5t-71.5 11t-55.5 31t-36 48.5t-13 63.5zM275 183q0 7 -1.5 14t-6.5 16.5t-15.5 23t-29.5 32.5
q-35 -35 -43.5 -54.5t-8.5 -32.5q0 -17 12.5 -31t40.5 -14t40 14t12 32zM325 643l-188 -94l-32 67l55 25q-35 31 -35 73t28.5 68t70.5 26h46l-5 -77h-29q-17 0 -25 -7.5t-8 -18.5q0 -10 7 -16.5t18 -6.5q10 0 27 7t40 20z" />
    <glyph glyph-name="vav.t2p" unicode="&#x6ca;" horiz-adv-x="446" 
d="M44 0zM143 -105q67 0 96 30.5t34 74.5h-47q-52 0 -85 11t-52 33t-26.5 53.5t-7.5 72.5q0 39 11 74.5t32.5 61.5t54 41.5t75.5 15.5q34 0 64.5 -11t53.5 -35t36.5 -63t13.5 -95v-143q0 -51 -17 -98t-49 -82.5t-78 -56.5t-104 -21h-98l-6 137h99zM176 180q0 -24 10.5 -33.5
t39.5 -9.5h49v28q0 38 -12.5 52t-38.5 14q-48 0 -48 -51zM363 451h-121v116h121v-116zM209 451h-121v116h121v-116z" />
    <glyph glyph-name="ye.tv" unicode="&#x6ce;" horiz-adv-x="676" 
d="M44 0zM352 -105q79 0 116.5 19.5t37.5 52.5t-33 33h-171v204q0 39 12 72t35 57.5t56 38t74 13.5h115l5 -137h-120q-50 0 -50 -50v-61h66q78 0 107.5 -39t29.5 -109q0 -50 -19.5 -92t-54.5 -73t-83.5 -48.5t-105.5 -17.5h-89q-112 0 -174 69t-62 189v182h126v-176
q0 -29 6 -52.5t20.5 -40t39 -25.5t61.5 -9h55zM226 512l60 -39l-88 -176h-66l-88 176l60 39l61 -127z" />
    <glyph glyph-name="ae" unicode="&#x6d5;" horiz-adv-x="446" 
d="M44 0zM44 154q0 29 7 54.5t20.5 49.5t32.5 48.5t44 51.5l-46 46l85 91q62 -60 103.5 -105t66 -82t35 -70t10.5 -68q0 -37 -14 -68.5t-38 -54t-57.5 -35t-72.5 -12.5t-71.5 11t-55.5 31t-36 48.5t-13 63.5zM275 183q0 7 -1.5 14t-6.5 16.5t-15.5 23t-29.5 32.5
q-35 -35 -43.5 -54.5t-8.5 -32.5q0 -17 12.5 -31t40.5 -14t40 14t12 32z" />
    <glyph glyph-name="sefr" unicode="&#x6f0;" horiz-adv-x="429" 
d="M215 385q33 0 63.5 -14.5t54 -38t38 -54t14.5 -63.5t-14.5 -64t-38 -54.5t-54 -38t-63.5 -14.5t-64 14.5t-54.5 38t-38 54.5t-14.5 64t14.5 63.5t38 54t54.5 38t64 14.5zM215 165q20 0 34.5 15t14.5 35t-14.5 34.5t-34.5 14.5t-35 -14.5t-15 -34.5t15 -35t35 -15z" />
    <glyph glyph-name="yek" unicode="&#x6f1;" horiz-adv-x="242" 
d="M71 -61v243q0 60 -3 102t-8.5 76t-13.5 64.5t-18 65.5l120 43q13 -39 22.5 -74.5t15.5 -75.5t9 -87t3 -109v-248h-127z" />
    <glyph glyph-name="do" unicode="&#x6f2;" horiz-adv-x="440" 
d="M253 226q-38 0 -58 14q2 -17 2.5 -33t0.5 -37v-231h-127v243q0 60 -3 102t-8.5 76t-13.5 64.5t-18 65.5l120 43l14 -52l14 -52q3 -12 7 -24t10.5 -21.5t16.5 -15t27 -5.5q24 0 33.5 11.5t9.5 27.5q0 24 -16 104l121 27q17 -76 17 -137q0 -37 -10 -68.5t-29.5 -54t-47 -35
t-62.5 -12.5z" />
    <glyph glyph-name="se" unicode="&#x6f3;" horiz-adv-x="643" 
d="M385 533q17 -76 17 -137v-9.5t-2 -9.5q11 -8 21 -11t19 -3q25 0 34.5 11.5t9.5 27.5q0 24 -16 104l120 27q17 -76 17 -137q0 -37 -10 -68.5t-29 -54t-46.5 -35t-62.5 -12.5q-27 0 -54.5 9.5t-50.5 32.5q-20 -20 -43.5 -31t-55.5 -11q-38 0 -58 14q2 -17 2.5 -33t0.5 -37
v-231h-127v243q0 60 -3 102t-8.5 76t-13.5 64.5t-18 65.5l120 43l14 -52l14 -52q3 -12 7 -24t10.5 -21.5t16.5 -15t27 -5.5q24 0 33.5 11.5t9.5 27.5q0 24 -16 104l121 27v0z" />
    <glyph glyph-name="char" unicode="&#x6f4;" horiz-adv-x="555" 
d="M341 187q-41 0 -79.5 8t-64.5 26q0 -12 0.5 -25.5t0.5 -25.5v-231h-127v243q0 60 -3 102t-8.5 76t-13.5 64.5t-18 65.5l120 43q13 -45 21 -80t18 -68q7 -25 15.5 -36t28.5 -19q-8 17 -9.5 32.5t-1.5 28.5q0 29 12.5 55.5t34.5 47t52.5 33t65.5 12.5q25 0 51 -5t59 -17
l-36 -124q-26 8 -41.5 11t-32.5 3q-20 0 -35 -11.5t-15 -32.5t12 -32.5t33 -11.5q25 0 51 7.5t59 19.5l32 -115q-54 -25 -96.5 -34.5t-84.5 -9.5z" />
    <glyph glyph-name="panj" unicode="&#x6f5;" horiz-adv-x="616" 
d="M44 88q0 31 7.5 64t27 72.5t53.5 88.5t88 111l-38 33l76 93q99 -81 160.5 -145t95.5 -117t46 -97.5t12 -85.5q0 -42 -13.5 -74t-36 -53.5t-50.5 -32.5t-57 -11q-38 0 -64 12t-46 37q-21 -25 -51 -37t-59 -12q-71 0 -111 41.5t-40 112.5zM451 110q0 16 -4.5 38.5t-20 51
t-45 65t-79.5 81.5q-74 -82 -105.5 -137.5t-31.5 -92.5q0 -17 9.5 -31t34.5 -14q21 0 35 11t14 45v55h111v-39q0 -17 -1.5 -29.5t-4.5 -25.5q8 -8 20 -12.5t24 -4.5q21 0 32.5 11t11.5 28z" />
    <glyph glyph-name="shish" unicode="&#x6f6;" horiz-adv-x="418" 
d="M280 396q-12 5 -27 8t-27 3q-25 0 -40.5 -11.5t-15.5 -32.5q0 -17 12.5 -30.5t37.5 -13.5t53 7.5t57 19.5l61 -92q-39 -38 -72 -74.5t-62.5 -76t-57 -82.5t-56.5 -93l-105 72q38 62 72.5 109t76.5 89q-16 2 -30 6t-25 9q-48 21 -68 59.5t-20 85.5q0 35 12 67.5t34 58
t52.5 40.5t67.5 15q25 0 51 -5.5t58 -21.5z" />
    <glyph glyph-name="haft" unicode="&#x6f7;" horiz-adv-x="506" 
d="M253 159q8 52 16 95.5t21.5 87.5t35.5 92t59 110l105 -65q-39 -68 -67.5 -125.5t-50 -117.5t-39.5 -131t-36 -166h-88q-19 95 -36.5 166t-39.5 131t-50 117.5t-67 125.5l105 65q37 -62 59 -110t35.5 -92t21.5 -87.5t16 -95.5z" />
    <glyph glyph-name="hasht" unicode="&#x6f8;" horiz-adv-x="506" 
d="M253 313q-8 -51 -16 -94.5t-21.5 -87t-35.5 -92.5t-59 -111l-105 66q39 68 67 125.5t50 117.5t39.5 130.5t36.5 165.5h88q18 -95 36 -165.5t39.5 -130.5t50 -117.5t67.5 -125.5l-105 -66q-37 62 -59 111t-35.5 92.5t-21.5 87t-16 94.5z" />
    <glyph glyph-name="noh" unicode="&#x6f9;" horiz-adv-x="429" 
d="M258 -61v246q-15 -4 -31.5 -6.5t-39.5 -2.5q-39 0 -67.5 12.5t-46.5 34.5t-26.5 50.5t-8.5 61.5q0 39 13 76t36 65.5t56 45.5t72 17q45 0 76.5 -20t51 -53.5t28.5 -77t9 -91.5v-358h-122zM258 330q0 12 -3 25.5t-9.5 25t-16.5 19t-23 7.5q-23 0 -35 -16.5t-12 -34.5
q0 -20 12 -28.5t33 -8.5q17 0 28.5 2.5t25.5 8.5z" />
    <glyph glyph-name="enQuad_Space" unicode="&#x2000;" horiz-adv-x="550" 
 />
    <glyph glyph-name="enQuad_Space" unicode="&#x2002;" horiz-adv-x="550" 
 />
    <glyph glyph-name="emQuad_Space" unicode="&#x2001;" horiz-adv-x="1100" 
 />
    <glyph glyph-name="emQuad_Space" unicode="&#x2003;" horiz-adv-x="1100" 
 />
    <glyph glyph-name="3_Mspace" unicode="&#x2004;" horiz-adv-x="330" 
 />
    <glyph glyph-name="4_Mspace" unicode="&#x2005;" horiz-adv-x="275" 
 />
    <glyph glyph-name="6_Mspace" unicode="&#x2006;" horiz-adv-x="165" 
 />
    <glyph glyph-name="figureSpace" unicode="&#x2007;" horiz-adv-x="605" 
 />
    <glyph glyph-name="punctuationSpace" unicode="&#x2008;" horiz-adv-x="165" 
 />
    <glyph glyph-name="thin_hairSpace" unicode="&#x2009;" horiz-adv-x="165" 
 />
    <glyph glyph-name="thin_hairSpace" unicode="&#x200a;" horiz-adv-x="165" 
 />
    <glyph glyph-name="zwspace" unicode="&#x200b;" 
 />
    <glyph glyph-name="zwNONjoiner" unicode="&#x200c;" 
d="M22 490v-600h-44v600h44z" />
    <glyph glyph-name="zwjoiner" unicode="&#x200d;" 
d="M22 -109h-44v448l-59 -60l-29 29l79 79l-79 77l31 31l79 -80l79 80l31 -31l-79 -77l79 -79l-29 -29l-59 60v-448z" />
    <glyph glyph-name="LTR_mark" unicode="&#x200e;" horiz-adv-x="385" 
d="M77 0zM199.012 599l-26.999 -28l58.9971 -57h-153.991v-624h39.998v580h113.993l-58.9971 -59l26.999 -28l108.993 109z" />
    <glyph glyph-name="RTL_mark" unicode="&#x200f;" horiz-adv-x="385" 
d="M186 599l27 -28l-59 -57h154v-624h-40v580h-114l59 -59l-27 -28l-109 109z" />
    <glyph glyph-name="hyphen" unicode="&#x2010;" horiz-adv-x="429" 
d="M44 137v121h341v-121h-341z" />
    <glyph glyph-name="nb_hyphen" unicode="&#x2011;" horiz-adv-x="429" 
d="M44 137zM44 137v121h341v-121h-341z" />
    <glyph glyph-name="figuredash" unicode="&#x2012;" horiz-adv-x="539" 
d="M44 137zM44 137v121h451v-121h-451z" />
    <glyph glyph-name="endash" unicode="&#x2013;" horiz-adv-x="539" 
d="M44 137v121h451v-121h-451z" />
    <glyph glyph-name="emdash" unicode="&#x2014;" horiz-adv-x="1001" 
d="M44 137v121h913v-121h-913z" />
    <glyph glyph-name="horizontal_bar" unicode="&#x2015;" horiz-adv-x="1001" 
d="M44 137zM44 137v121h913v-121h-913z" />
    <glyph glyph-name="quoteleft" unicode="&#x2018;" horiz-adv-x="253" 
d="M45 313zM127 313q-37 0 -59.5 22t-22.5 72q0 60 5.5 98t22 61.5t46.5 34t80 14.5v-71q-25 -4 -39 -8t-21.5 -11t-9.5 -18t-2 -29q38 0 60.5 -18.5t22.5 -64.5q0 -41 -22.5 -61.5t-60.5 -20.5z" />
    <glyph glyph-name="quoteright" unicode="&#x2019;" horiz-adv-x="253" 
d="M44 308zM127.009 610q36.9971 0 59.4961 -21.999q22.498 -21.998 22.498 -71.9951q0 -59.9961 -5.49902 -97.9941q-5.5 -37.998 -21.999 -61.4961q-16.499 -23.499 -46.4971 -33.998t-79.9951 -14.499v70.9951q24.999 4 38.998 8t21.498 10.999q7.5 7 9.5 17.999
t2 28.998q-37.998 0 -60.4971 18.499q-22.498 18.499 -22.498 64.4961q0 40.998 22.498 61.4961q22.499 20.499 60.4971 20.499z" />
    <glyph glyph-name="quotedblleft" unicode="&#x201c;" horiz-adv-x="462" 
d="M45 313zM127 313q-37 0 -59.5 22t-22.5 72q0 60 5.5 98t22 61.5t46.5 34t80 14.5v-71q-25 -4 -39 -8t-21.5 -11t-9.5 -18t-2 -29q38 0 60.5 -18.5t22.5 -64.5q0 -41 -22.5 -61.5t-60.5 -20.5zM335 313q-37 0 -59.5 22t-22.5 72q0 60 5.5 98t22 61.5t46.5 34t80 14.5v-71
q-25 -4 -39 -8t-21.5 -11t-9.5 -18t-2 -29q38 0 60.5 -18.5t22.5 -64.5q0 -41 -22.5 -61.5t-60.5 -20.5z" />
    <glyph glyph-name="quotedblright" unicode="&#x201d;" horiz-adv-x="462" 
d="M44 308zM127.009 610q36.9971 0 59.4961 -21.999q22.498 -21.998 22.498 -71.9951q0 -59.9961 -5.49902 -97.9941q-5.5 -37.998 -21.999 -61.4961q-16.499 -23.499 -46.4971 -33.998t-79.9951 -14.499v70.9951q24.999 4 38.998 8t21.498 10.999q7.5 7 9.5 17.999
t2 28.998q-37.998 0 -60.4971 18.499q-22.498 18.499 -22.498 64.4961q0 40.998 22.498 61.4961q22.499 20.499 60.4971 20.499zM336.009 610q36.9971 0 59.4961 -21.999q22.498 -21.998 22.498 -71.9951q0 -59.9961 -5.49902 -97.9941q-5.5 -37.998 -21.999 -61.4961
q-16.499 -23.499 -46.4971 -33.998t-79.9951 -14.499v70.9951q24.999 4 38.998 8t21.498 10.999q7.5 7 9.5 17.999t2 28.998q-37.998 0 -60.4971 18.499q-22.498 18.499 -22.498 64.4961q0 40.998 22.498 61.4961q22.499 20.499 60.4971 20.499z" />
    <glyph glyph-name="bullet" unicode="&#x2022;" horiz-adv-x="382" 
d="M190 0q-30 0 -57 11.5t-46.5 31t-31 46.5t-11.5 57t11.5 57t31 47t46.5 31.5t57 11.5t57 -11.5t47.5 -31.5t32 -47t11.5 -57t-11.5 -57t-32 -46.5t-47.5 -31t-57 -11.5z" />
    <glyph glyph-name="ellipsis" unicode="&#x2026;" horiz-adv-x="693" 
d="M45 0zM346 0q-37 0 -59.5 20.5t-22.5 61.5q0 42 22.5 62.5t59.5 20.5q38 0 60.5 -20.5t22.5 -62.5q0 -41 -22.5 -61.5t-60.5 -20.5zM566 0q-37 0 -59.5 20.5t-22.5 61.5q0 42 22.5 62.5t59.5 20.5q38 0 60.5 -20.5t22.5 -62.5q0 -41 -22.5 -61.5t-60.5 -20.5zM127 0
q-37 0 -59.5 20.5t-22.5 61.5q0 42 22.5 62.5t59.5 20.5q38 0 60.5 -20.5t22.5 -62.5q0 -41 -22.5 -61.5t-60.5 -20.5z" />
    <glyph glyph-name="line_seperator" unicode="&#x2028;" 
 />
    <glyph glyph-name="paragraph_seperator" unicode="&#x2029;" 
 />
    <glyph glyph-name="LTRembedding" unicode="&#x202a;" 
d="M-32 516h-62v27h62v-27zM-6 543h46l-37 37l19 19l72 -71l-72 -70l-19 21l37 37h-46v27z" />
    <glyph glyph-name="RTLembedding" unicode="&#x202b;" 
d="M0 458zM31.998 516h61.9961v27h-61.9961v-27zM6 543h-45.998l36.998 37l-18.999 19l-71.9951 -71l71.9951 -70l18.999 21l-36.998 37h45.998v27z" />
    <glyph glyph-name="pop.directional.formatting_PDF" unicode="&#x202c;" 
d="M-51 509l-21 19l72 71l71 -71l-20 -19l-37 37v-95h-28v93z" />
    <glyph glyph-name="LTRoverride" unicode="&#x202d;" 
d="M-52 580l20 19l70 -71l-70 -70l-20 21l38 37h-102v27h102zM25 580l19 19l72 -71l-72 -70l-19 21l51 49z" />
    <glyph glyph-name="RTLoverride" unicode="&#x202e;" 
d="M0 458zM51.9971 580l-19.999 19l-69.9961 -71l69.9961 -70l19.999 21l-37.998 37h101.994v27h-101.994zM-24.998 580l-18.999 19l-71.9961 -71l71.9961 -70l18.999 21l-50.9971 49z" />
    <glyph glyph-name="narrow_nbspace" unicode="&#x202f;" horiz-adv-x="55" 
 />
    <glyph glyph-name="guilsinglleft" unicode="&#x2039;" horiz-adv-x="280" 
d="M165 209q0 -31 2 -57.5t9 -53t21.5 -54.5t39.5 -61l-78 -66q-37 39 -59.5 76.5t-35 74t-16.5 71.5t-4 70t4 70t16.5 71.5t35 74t59.5 76.5l78 -66q-25 -33 -39.5 -61t-21.5 -54.5t-9 -53t-2 -57.5z" />
    <glyph glyph-name="guilsinglright" unicode="&#x203a;" horiz-adv-x="280" 
d="M43 0zM115.01 209q0 -31 -2 -57.5q-1.99902 -26.5 -8.99902 -53t-21.499 -54.5t-39.4971 -61l77.9951 -66q36.998 39 59.4961 76.5q22.499 37.5 34.998 74t16.499 71.5t4 70t-4 70t-16.499 71.5t-34.998 74q-22.498 37.5 -59.4961 76.5l-77.9951 -66
q24.998 -33 39.4971 -61t21.499 -54.5t8.99902 -53q2 -26.5 2 -57.5z" />
    <glyph glyph-name="fraction" unicode="&#x2044;" horiz-adv-x="577" 
d="M44 0zM435 594l98 -66l-390 -605l-99 66z" />
    <glyph glyph-name="reversed_pilcrow_paragraph" unicode="&#x204b;" horiz-adv-x="528" 
d="M44 0zM44.0293 0h109.993v517h60.9971v-517h103.993v286q42.9971 0 73.9951 5.5t51.4971 22t29.998 46.5q9.5 30 9.5 80q0 49 -10.5 79.5q-10.499 30.5 -31.498 47q-20.998 16.5 -52.9961 22t-75.9961 5.5h-268.983v-594z" />
    <glyph glyph-name="word_joiner" unicode="&#x2060;" horiz-adv-x="880" 
 />
    <glyph glyph-name="Euro" unicode="&#x20ac;" horiz-adv-x="534" 
d="M13 439h55q12 55 36 99t57.5 75.5t76 48.5t91.5 17q66 0 114 -26t77 -68l-51 -54q-6 -6 -12.5 -10.5t-17.5 -4.5q-12 0 -19.5 7t-17.5 15t-25.5 15t-41.5 7q-43 0 -74 -30.5t-45 -90.5h212v-43q0 -12 -10 -23t-27 -11h-184q-1 -6 -1 -12.5v-13.5v-15h178v-43
q0 -13 -10 -23.5t-29 -10.5h-131q12 -68 41.5 -99.5t73.5 -31.5q29 0 45.5 8t27 17.5t18.5 17.5t20 8q7 0 11 -1.5t9 -8.5l63 -54q-32 -53 -83 -80t-119 -27q-55 0 -98.5 18t-75.5 51t-52 79.5t-29 102.5h-53v77h45v15v13.5t1 12.5h-46v77z" />
    <glyph glyph-name="trademark" unicode="&#x2122;" horiz-adv-x="701" 
d="M35 672h235v-78h-69v-203h-97v203h-69v78zM648 672v-281h-86v115l6 53l-58 -124q-10 -21 -33 -21h-14q-23 0 -34 21l-55 121l6 -50v-115h-87v281h86q12 0 18 -2t14 -12l43 -100q5 -10 8 -19.5t7 -18.5q4 10 7.5 19.5t8.5 18.5l46 100q8 10 13.5 12t18.5 2h85z" />
    <glyph glyph-name="estimated" unicode="&#x212e;" horiz-adv-x="750" 
d="M527 416q0 89 -35.5 133t-103.5 44q-64 0 -103 -45t-39 -132h281zM246 253q0 -37 12 -68.5t34.5 -54.5t54.5 -36t72 -13q57 0 106 23t86 80l76 -54q-22 -33 -49.5 -59.5t-63.5 -44.5t-82.5 -28t-104.5 -10q-80 0 -145 25t-110.5 70t-70 108t-24.5 140q0 72 25.5 135.5
t71.5 110.5t109 74t138 27q87 0 149.5 -29t104 -77.5t62 -111t22.5 -129.5h-473v-78z" />
    <glyph glyph-name="infinity" unicode="&#x221e;" horiz-adv-x="847" 
d="M424 121q-54 -58 -101.5 -89.5t-107.5 -31.5q-35 0 -66.5 12.5t-54.5 36.5t-36.5 60t-13.5 84q0 47 13.5 83t36.5 60t54.5 36.5t66.5 12.5q60 0 107.5 -31.5t101.5 -89.5q53 58 100.5 89.5t107.5 31.5q35 0 66 -12.5t54.5 -36.5t37 -60t13.5 -83q0 -48 -13.5 -84t-37 -60
t-54.5 -36.5t-66 -12.5q-60 0 -107.5 31.5t-100.5 89.5zM501 193q63 -66 115 -66q29 0 47.5 16t18.5 50q0 33 -18.5 49t-47.5 16q-51 0 -115 -65zM346 193q-65 65 -115 65q-29 0 -47.5 -16t-18.5 -49q0 -34 18.5 -50t47.5 -16q50 0 115 66z" />
    <glyph glyph-name="approxequal" unicode="&#x2248;" horiz-adv-x="490" 
d="M144 407q33 0 55.5 -11.5t43.5 -25t44 -24.5t58 -11q23 0 47.5 8.5t45.5 17.5l8 -112q-24 -11 -50.5 -20t-50.5 -9q-35 0 -58.5 11t-44 24.5t-43 24.5t-55.5 11q-23 0 -45.5 -8t-48.5 -19l-6 112q26 12 51.5 21.5t48.5 9.5zM144 193q33 0 55.5 -11.5t43.5 -25t44 -24.5
t58 -11q23 0 47 7.5t47 16.5l7 -111q-23 -10 -49.5 -19.5t-51.5 -9.5q-35 0 -58.5 11t-44 24.5t-43 25t-55.5 11.5q-21 0 -44.5 -8t-48.5 -19l-7 112q26 11 52.5 21t47.5 10z" />
    <glyph glyph-name="notequal" unicode="&#x2260;" horiz-adv-x="490" 
d="M235 33l-41 -112l-95 40l26 72h-81v110h123l42 110h-165v110h207l45 117l95 -40l-30 -77h85v-110h-127l-42 -110h169v-110h-211z" />
    <glyph glyph-name="lessequal" unicode="&#x2264;" horiz-adv-x="490" 
d="M44 0zM429 275l-50 -121l-319 169v117l319 171l50 -122l-226 -107zM44 0v121h402v-121h-402z" />
    <glyph glyph-name="greaterequal" unicode="&#x2265;" horiz-adv-x="490" 
d="M44 0zM60.0254 275l49.9971 -121l318.98 169v117l-318.98 171l-49.9971 -122l225.986 -107zM44 0v121h402v-121h-402z" />
    <glyph glyph-name="black_small_square" unicode="&#x25aa;" horiz-adv-x="348" 
d="M304 260v-260h-260v260h260z" />
    <glyph glyph-name="white_small_square" unicode="&#x25ab;" horiz-adv-x="348" 
d="M304 260v-260h-260v260h260zM151 106h46v47h-46v-47z" />
    <glyph glyph-name="black_upsmall_triangle" unicode="&#x25b4;" horiz-adv-x="427" 
d="M383 0h-339l169 294z" />
    <glyph glyph-name="white_upsmall_triangle" unicode="&#x25b5;" horiz-adv-x="427" 
d="M383 0h-339l169 294zM191 87h44l-22 40z" />
    <glyph glyph-name="black_rightsmall_triangle" unicode="&#x25b8;" horiz-adv-x="383" 
d="M44 -7v339l295 -169z" />
    <glyph glyph-name="white_rightsmall_triangle" unicode="&#x25b9;" horiz-adv-x="382" 
d="M338 163l-294 -170v339zM170 163l-39 22v-44z" />
    <glyph glyph-name="black_downsmall_triangle" unicode="&#x25be;" horiz-adv-x="427" 
d="M44 287h339l-170 -294z" />
    <glyph glyph-name="white_downsmall_triangle" unicode="&#x25bf;" horiz-adv-x="427" 
d="M383 287l-170 -294l-169 294h339zM213 161l22 39h-44z" />
    <glyph glyph-name="black_leftsmall_triangle" unicode="&#x25c2;" horiz-adv-x="382" 
d="M338 332v-339l-294 170z" />
    <glyph glyph-name="white_leftsmall_triangle" unicode="&#x25c3;" horiz-adv-x="382" 
d="M338 332v-339l-294 170zM251 141v44l-40 -22z" />
    <glyph glyph-name="dotted.ring" unicode="&#x25cc;" horiz-adv-x="627" 
d="M159 121h121v-121h-121v121zM346 121h122v-121h-122v121zM159 484h121v-121h-121v121zM346 484h122v-121h-122v121zM462 302h121v-120h-121v120zM44 302h121v-120h-121v120z" />
    <glyph glyph-name="white_bullet" unicode="&#x25e6;" horiz-adv-x="382" 
d="M44 146q0 30 11.5 57t31.5 47t46.5 31.5t56.5 11.5t57 -11.5t47.5 -31.5t32 -47t11.5 -57t-11.5 -57t-32 -46.5t-47.5 -31t-57 -11.5t-56.5 11.5t-46.5 31t-31.5 46.5t-11.5 57zM158 146q0 -13 9.5 -23t23.5 -10t23 10t9 23q0 14 -9 23.5t-23 9.5t-23.5 -9.5t-9.5 -23.5z
" />
    <glyph glyph-name="t1p" unicode="&#xfbb2;" 
d="M66 0h-132v121h132v-121z" />
    <glyph glyph-name="b1p" unicode="&#xfbb3;" 
d="M66 -121h-132v121h132v-121z" />
    <glyph glyph-name="t2p" unicode="&#xfbb4;" 
d="M137 0h-121v116h121v-116zM-17 0h-121v116h121v-116z" />
    <glyph glyph-name="b2p" unicode="&#xfbb5;" 
d="M137 -116h-121v116h121v-116zM-17 -116h-121v116h121v-116z" />
    <glyph glyph-name="t3p" unicode="&#xfbb6;" 
d="M61 154h-122v115h122v-115zM137 0h-121v116h121v-116zM-17 0h-121v116h121v-116z" />
    <glyph glyph-name="b3p" unicode="&#xfbb9;" 
d="M61 -270h-122v116h122v-116zM137 -116h-121v116h121v-116zM-17 -116h-121v116h121v-116z" />
    <glyph glyph-name="parantez_left" unicode="&#xfd3e;" horiz-adv-x="324" 
d="M170 209q0 -54 5 -95t17.5 -76.5t33.5 -69.5t54 -73l-76 -77q-37 35 -66.5 73.5t-50.5 85t-32 103.5t-11 129t11 129t32 103.5t50.5 84.5t66.5 73l76 -77q-33 -39 -54 -72.5t-33.5 -69t-17.5 -76.5t-5 -95z" />
    <glyph glyph-name="parantez_right" unicode="&#xfd3f;" horiz-adv-x="324" 
d="M44 0zM154.011 209.013q0 53.9971 -5 94.9941q-5 40.998 -17.499 76.4951q-12.499 35.498 -33.498 69.4961t-53.9961 72.9951l75.9951 76.9961q36.9971 -34.998 66.4961 -73.4961q29.498 -38.4971 50.4961 -84.9941q20.999 -46.498 31.998 -103.494
q11 -56.9961 11 -128.992q0 -71.9951 -11 -128.992q-10.999 -56.9961 -31.998 -103.493q-20.998 -46.498 -50.4961 -84.4951q-29.499 -37.998 -66.4961 -72.9961l-75.9951 76.9961q32.9971 38.9971 53.9961 72.4951t33.498 68.9961t17.499 76.4951t5 94.9941z" />
    <glyph glyph-name="zwnbspace" unicode="&#xfeff;" 
 />
    <glyph glyph-name="obj" unicode="&#xfffc;" horiz-adv-x="869" 
d="M847 555h-132v39h132v-39zM616 555h-129v39h129v-39zM847 342h-40v130h40v-130zM704 253q0 -50 -21 -74t-60 -24h-26v44h26q20 0 29 11t9 40v189h43v-186zM385 555h-131v39h131v-39zM847 0h-132v40h132v-40zM563 239q0 -38 -19.5 -61t-74.5 -23h-78v284h83q50 0 65.5 -21
t15.5 -54q0 -18 -8 -34.5t-25 -24.5q23 -9 32 -27t9 -39zM154 555h-132v39h132v-39zM616 0h-129v40h129v-40zM341 297q0 -72 -19.5 -109.5t-77.5 -37.5q-29 0 -47 9.5t-28 28t-13.5 46t-3.5 63.5q0 35 3.5 62.5t13.5 46t28 28.5t47 10q31 0 50 -10t29.5 -28.5t14 -46
t3.5 -62.5zM63 342h-41v130h41v-130zM385 0h-131v40h131v-40zM154 0h-132v40h132v-40zM517 361q0 19 -8.5 29t-42.5 10h-40v-79h39q32 0 42 9.5t10 30.5zM524 239q0 22 -12 33t-47 11h-39v-92h43q37 0 46 12.5t9 35.5zM297 297q0 27 -1 47.5t-6.5 34t-16 20t-29.5 6.5
q-36 0 -43.5 -26.5t-7.5 -81.5q0 -53 7.5 -80.5t43.5 -27.5q19 0 29.5 7t16 20.5t6.5 34t1 46.5zM847 122h-40v131h40v-131zM63 122h-41v131h41v-131z" />
    <glyph glyph-name="kashidas.Narrow" horiz-adv-x="82" 
d="M-22 66q0 38 4.5 54.5t17.5 16.5h82q23 0 23 -66q0 -71 -23 -71h-82q-13 0 -17.5 16.5t-4.5 49.5z" />
    <glyph glyph-name="kashidas.Wide" horiz-adv-x="248" 
d="M248 137q12 0 16.5 -16t4.5 -50q0 -37 -4.5 -54t-16.5 -17h-248q-13 0 -17.5 16.5t-4.5 49.5q0 38 4.5 54.5t17.5 16.5h248z" />
    <glyph glyph-name="he.arab.isol" horiz-adv-x="676" 
d="M50 237q0 39 13 72t36.5 57.5t57 38t74.5 13.5t71.5 -14t50 -37t29 -51.5t9.5 -57.5q0 -37 -11 -66.5t-28 -54.5h116q26 0 26 19q0 5 -2.5 10t-10.5 16l-157 198l94 88l159 -204q30 -38 42.5 -70t12.5 -62q0 -27 -9.5 -51t-28.5 -42t-48 -28.5t-67 -10.5h-133
q-22 0 -44 1t-44 4q-35 -33 -72.5 -66t-80.5 -66l-83 99q35 25 61 42.5t54 40.5q-29 27 -46 52t-26 47.5t-12 43t-3 39.5zM223 286q-23 0 -40.5 -15t-17.5 -40q0 -20 14 -43t47 -40q29 17 39 40t10 43q0 25 -14.5 40t-37.5 15z" />
    <glyph glyph-name=".seperator" horiz-adv-x="506" 
d="M330 297l-154 -160h154v160zM330 473h-154v-160zM451 0h-396v610h396v-610z" />
    <glyph glyph-name="sefr.tnum" horiz-adv-x="605" 
d="M132 44zM303 385q33 0 63.5 -14.5t54 -38t38 -54t14.5 -63.5t-14.5 -64t-38 -54.5t-54 -38t-63.5 -14.5t-64 14.5t-54.5 38t-38 54.5t-14.5 64t14.5 63.5t38 54t54.5 38t64 14.5zM303 165q20 0 34.5 15t14.5 35t-14.5 34.5t-34.5 14.5t-35 -14.5t-15 -34.5t15 -35t35 -15
z" />
    <glyph glyph-name="yek.tnum" horiz-adv-x="605" 
d="M217 0zM260 -61v243q0 60 -3 102t-8.5 76t-13.5 64.5t-18 65.5l120 43q13 -39 22.5 -74.5t15.5 -75.5t9 -87t3 -109v-248h-127z" />
    <glyph glyph-name="do.tnum" horiz-adv-x="605" 
d="M116 0zM341 226q-38 0 -58 14q2 -17 2.5 -33t0.5 -37v-231h-127v243q0 60 -3 102t-8.5 76t-13.5 64.5t-18 65.5l120 43l14 -52l14 -52q3 -12 7 -24t10.5 -21.5t16.5 -15t27 -5.5q24 0 33.5 11.5t9.5 27.5q0 24 -16 104l121 27q17 -76 17 -137q0 -37 -10 -68.5t-29.5 -54
t-47 -35t-62.5 -12.5z" />
    <glyph glyph-name="se.tnum" horiz-adv-x="605" 
d="M15 0zM372 533q17 -76 17 -137v-9.5t-2 -9.5q11 -8 21 -11t19 -3q25 0 34.5 11.5t9.5 27.5q0 24 -16 104l120 27q17 -76 17 -137q0 -37 -10 -68.5t-29 -54t-46.5 -35t-62.5 -12.5q-27 0 -54.5 9.5t-50.5 32.5q-20 -20 -43.5 -31t-55.5 -11q-38 0 -58 14q2 -17 2.5 -33
t0.5 -37v-231h-127v243q0 60 -3 102t-8.5 76t-13.5 64.5t-18 65.5l120 43l14 -52l14 -52q3 -12 7 -24t10.5 -21.5t16.5 -15t27 -5.5q24 0 33.5 11.5t9.5 27.5q0 24 -16 104l121 27v0z" />
    <glyph glyph-name="char.tnum" horiz-adv-x="605" 
d="M56 0zM369 187q-41 0 -79.5 8t-64.5 26q0 -12 0.5 -25.5t0.5 -25.5v-231h-127v243q0 60 -3 102t-8.5 76t-13.5 64.5t-18 65.5l120 43q13 -45 21 -80t18 -68q7 -25 15.5 -36t28.5 -19q-8 17 -9.5 32.5t-1.5 28.5q0 29 12.5 55.5t34.5 47t52.5 33t65.5 12.5q25 0 51 -5
t59 -17l-36 -124q-26 8 -41.5 11t-32.5 3q-20 0 -35 -11.5t-15 -32.5t12 -32.5t33 -11.5q25 0 51 7.5t59 19.5l32 -115q-54 -25 -96.5 -34.5t-84.5 -9.5z" />
    <glyph glyph-name="panj.tnum" horiz-adv-x="605" 
d="M39 0zM39 88q0 31 7.5 64t27 72.5t53.5 88.5t88 111l-38 33l76 93q99 -81 160.5 -145t95.5 -117t46 -97.5t12 -85.5q0 -42 -13.5 -74t-36 -53.5t-50.5 -32.5t-57 -11q-38 0 -64 12t-46 37q-21 -25 -51 -37t-59 -12q-71 0 -111 41.5t-40 112.5zM446 110q0 16 -4.5 38.5
t-20 51t-45 65t-79.5 81.5q-74 -82 -105.5 -137.5t-31.5 -92.5q0 -17 9.5 -31t34.5 -14q21 0 35 11t14 45v55h111v-39q0 -17 -1.5 -29.5t-4.5 -25.5q8 -8 20 -12.5t24 -4.5q21 0 32.5 11t11.5 28z" />
    <glyph glyph-name="shish.tnum" horiz-adv-x="605" 
d="M126 0zM368 396q-12 5 -27 8t-27 3q-25 0 -40.5 -11.5t-15.5 -32.5q0 -17 12.5 -30.5t37.5 -13.5t53 7.5t57 19.5l61 -92q-39 -38 -72 -74.5t-62.5 -76t-57 -82.5t-56.5 -93l-105 72q38 62 72.5 109t76.5 89q-16 2 -30 6t-25 9q-48 21 -68 59.5t-20 85.5q0 35 12 67.5
t34 58t52.5 40.5t67.5 15q25 0 51 -5.5t58 -21.5z" />
    <glyph glyph-name="haft.tnum" horiz-adv-x="605" 
d="M66 0zM303 159q8 52 16 95.5t21.5 87.5t35.5 92t59 110l105 -65q-39 -68 -67.5 -125.5t-50 -117.5t-39.5 -131t-36 -166h-88q-19 95 -36.5 166t-39.5 131t-50 117.5t-67 125.5l105 65q37 -62 59 -110t35.5 -92t21.5 -87.5t16 -95.5z" />
    <glyph glyph-name="hasht.tnum" horiz-adv-x="605" 
d="M66 0zM303 313q-8 -51 -16 -94.5t-21.5 -87t-35.5 -92.5t-59 -111l-105 66q39 68 67 125.5t50 117.5t39.5 130.5t36.5 165.5h88q18 -95 36 -165.5t39.5 -130.5t50 -117.5t67.5 -125.5l-105 -66q-37 62 -59 111t-35.5 92.5t-21.5 87t-16 94.5z" />
    <glyph glyph-name="noh.tnum" horiz-adv-x="605" 
d="M132 0zM352 -61v246q-15 -4 -31.5 -6.5t-39.5 -2.5q-39 0 -67.5 12.5t-46.5 34.5t-26.5 50.5t-8.5 61.5q0 39 13 76t36 65.5t56 45.5t72 17q45 0 76.5 -20t51 -53.5t28.5 -77t9 -91.5v-358h-122zM352 330q0 12 -3 25.5t-9.5 25t-16.5 19t-23 7.5q-23 0 -35 -16.5
t-12 -34.5q0 -20 12 -28.5t33 -8.5q17 0 28.5 2.5t25.5 8.5z" />
    <glyph glyph-name="sefr.arab.tnum" horiz-adv-x="605" 
d="M132 44zM303 385q33 0 63.5 -14.5t54 -38t38 -54t14.5 -63.5t-14.5 -64t-38 -54.5t-54 -38t-63.5 -14.5t-64 14.5t-54.5 38t-38 54.5t-14.5 64t14.5 63.5t38 54t54.5 38t64 14.5zM303 165q20 0 34.5 15t14.5 35t-14.5 34.5t-34.5 14.5t-35 -14.5t-15 -34.5t15 -35t35 -15
z" />
    <glyph glyph-name="yek.arab.tnum" horiz-adv-x="605" 
d="M217 0zM260 -61v243q0 60 -3 102t-8.5 76t-13.5 64.5t-18 65.5l120 43q13 -39 22.5 -74.5t15.5 -75.5t9 -87t3 -109v-248h-127z" />
    <glyph glyph-name="do.arab.tnum" horiz-adv-x="605" 
d="M116 0zM341 226q-38 0 -58 14q2 -17 2.5 -33t0.5 -37v-231h-127v243q0 60 -3 102t-8.5 76t-13.5 64.5t-18 65.5l120 43l14 -52l14 -52q3 -12 7 -24t10.5 -21.5t16.5 -15t27 -5.5q24 0 33.5 11.5t9.5 27.5q0 24 -16 104l121 27q17 -76 17 -137q0 -37 -10 -68.5t-29.5 -54
t-47 -35t-62.5 -12.5z" />
    <glyph glyph-name="se.arab.tnum" horiz-adv-x="605" 
d="M15 0zM372 533q17 -76 17 -137v-9.5t-2 -9.5q11 -8 21 -11t19 -3q25 0 34.5 11.5t9.5 27.5q0 24 -16 104l120 27q17 -76 17 -137q0 -37 -10 -68.5t-29 -54t-46.5 -35t-62.5 -12.5q-27 0 -54.5 9.5t-50.5 32.5q-20 -20 -43.5 -31t-55.5 -11q-38 0 -58 14q2 -17 2.5 -33
t0.5 -37v-231h-127v243q0 60 -3 102t-8.5 76t-13.5 64.5t-18 65.5l120 43l14 -52l14 -52q3 -12 7 -24t10.5 -21.5t16.5 -15t27 -5.5q24 0 33.5 11.5t9.5 27.5q0 24 -16 104l121 27v0z" />
    <glyph glyph-name="char.arab.tnum" horiz-adv-x="605" 
d="M149 0zM149 61q0 15 3 32t14 36.5t31.5 43.5t55.5 53q-54 17 -79 54.5t-25 88.5q0 33 12.5 63.5t35 54.5t52.5 38t65 14q33 0 59 -7.5t51 -19.5l-33 -121q-17 4 -33 7.5t-33 3.5q-29 0 -39.5 -13t-10.5 -26q0 -17 15 -28t57 -11h60v-120q-43 -31 -68 -50t-38 -29.5
t-16.5 -16t-3.5 -9.5q0 -17 28 -17h148l-6 -137h-159q-70 0 -106.5 31t-36.5 85z" />
    <glyph glyph-name="panj.arab.tnum" horiz-adv-x="605" 
d="M90 0zM90 99q0 29 6 57.5t21 61t40.5 69.5t64.5 82l-44 44l83 93q76 -70 125 -126t77.5 -102t39.5 -85.5t11 -76.5q0 -46 -15.5 -80t-43.5 -56.5t-66.5 -34t-84.5 -11.5h-21q-96 0 -144.5 45t-48.5 120zM387 132q0 25 -18.5 64t-66.5 84q-35 -37 -60.5 -76t-25.5 -72
q0 -29 19.5 -45t52.5 -16h16q38 0 60.5 16t22.5 45z" />
    <glyph glyph-name="shish.arab.tnum" horiz-adv-x="605" 
d="M104 0zM456 280q0 -60 3 -102t9 -76t14 -64.5t18 -65.5l-116 -44q-12 39 -22 75t-17 76t-11 87t-4 109v108q0 4 -2.5 7.5t-8.5 3.5q-2 0 -13.5 -1.5t-28 -3t-36.5 -3t-38 -1.5q-29 0 -55.5 7t-43.5 32l33 115q17 -8 36.5 -12.5t45.5 -4.5q19 0 43.5 1.5t48.5 3t45.5 3
t33.5 1.5q33 0 49.5 -21t16.5 -50v-180z" />
    <glyph glyph-name="haft.arab.tnum" horiz-adv-x="605" 
d="M66 0zM303 159q8 52 16 95.5t21.5 87.5t35.5 92t59 110l105 -65q-39 -68 -67.5 -125.5t-50 -117.5t-39.5 -131t-36 -166h-88q-19 95 -36.5 166t-39.5 131t-50 117.5t-67 125.5l105 65q37 -62 59 -110t35.5 -92t21.5 -87.5t16 -95.5z" />
    <glyph glyph-name="hasht.arab.tnum" horiz-adv-x="605" 
d="M66 0zM303 313q-8 -51 -16 -94.5t-21.5 -87t-35.5 -92.5t-59 -111l-105 66q39 68 67 125.5t50 117.5t39.5 130.5t36.5 165.5h88q18 -95 36 -165.5t39.5 -130.5t50 -117.5t67.5 -125.5l-105 -66q-37 62 -59 111t-35.5 92.5t-21.5 87t-16 94.5z" />
    <glyph glyph-name="noh.arab.tnum" horiz-adv-x="605" 
d="M132 0zM352 -61v246q-15 -4 -31.5 -6.5t-39.5 -2.5q-39 0 -67.5 12.5t-46.5 34.5t-26.5 50.5t-8.5 61.5q0 39 13 76t36 65.5t56 45.5t72 17q45 0 76.5 -20t51 -53.5t28.5 -77t9 -91.5v-358h-122zM352 330q0 12 -3 25.5t-9.5 25t-16.5 19t-23 7.5q-23 0 -35 -16.5
t-12 -34.5q0 -20 12 -28.5t33 -8.5q17 0 28.5 2.5t25.5 8.5z" />
    <glyph glyph-name="Tvasla" 
d="M-79 71q35 68 67.5 97.5t69.5 29.5q33 0 57.5 -26t24.5 -67q0 -17 -6 -35t-19 -34t-34 -26t-51 -10h-131l-39 33v86l61 5v-53zM36 71q39 0 39 30q0 11 -6.5 18.5t-18.5 7.5q-13 0 -29.5 -11t-37.5 -45h53z" />
    <glyph glyph-name=".kolah" 
d="M-46 66q-21 0 -31.5 -4.5t-18.5 -23.5l-22 -47l-78 38l34 76q10 21 19 35.5t21 24t28.5 13.5t41.5 4h215l-6 -116h-203z" />
    <glyph glyph-name=".shdd.an" 
d="M0 0zM0 22q-6 -7 -16 -14.5t-21 -7.5h-38q-13 0 -28.5 4t-29 16.5t-23 36t-9.5 62.5v61h77v-70q0 -22 10 -27.5t25 -5.5h14v103h77v-103h15q15 0 25 5.5t10 27.5v70h77v-61q0 -39 -10 -62.5t-25 -36t-31.5 -16.5t-29.5 -4h-32q-11 0 -21 7.5t-16 14.5zM107 385l28 -71
l-242 -99l-28 71zM107 511l28 -71l-242 -99l-28 71z" />
    <glyph glyph-name="be.dls" horiz-adv-x="760" 
d="M204 0q-41 0 -70.5 12.5t-48 33.5t-27 49t-8.5 59v148h126v-115q0 -12 1.5 -21.5t7.5 -16t17 -9.5t30 -3h296q33 0 44 13.5t11 42.5v104h127v-138q0 -41 -14 -71t-37 -49.5t-51.5 -29t-57.5 -9.5h-346z" />
    <glyph glyph-name="be.dls.fina" horiz-adv-x="798" 
d="M528 137q29 0 42 13.5t13 42.5v104h127v-104q0 -29 18.5 -42.5t47.5 -13.5h22q13 0 17.5 -16t4.5 -50q0 -37 -4.5 -54t-17.5 -17h-27q-38 0 -70 11.5t-57 49.5q-25 -38 -54 -49.5t-62 -11.5h-324q-41 0 -70.5 12.5t-48 33.5t-27 49t-8.5 59v148h126v-115q0 -12 1.5 -21.5
t7.5 -16t17 -9.5t30 -3h296z" />
    <glyph glyph-name="fe.dls.medi" horiz-adv-x="490" 
d="M110 137q-25 34 -32 60.5t-7 55.5q0 33 13 64t37 54.5t57.5 38t74.5 14.5t72 -15t51.5 -39t31 -53.5t10.5 -58.5q0 -41 -10.5 -68.5t-27.5 -52.5h110q22 0 22 -66q0 -71 -22 -71h-94q-46 0 -82 4.5t-56 17.5q-14 -8 -34.5 -12.5t-42 -6.5t-42 -2.5t-34.5 -0.5h-105
q-13 0 -17.5 16.5t-4.5 49.5q0 38 4.5 54.5t17.5 16.5h110zM245 286q-23 0 -37.5 -15t-14.5 -40q0 -20 13 -40t42 -37q29 17 39 37t10 40q0 25 -14.5 40t-37.5 15z" />
    <glyph glyph-name="fe.dls.init" horiz-adv-x="463" 
d="M38 137q19 0 31.5 -0.5t23 -2.5t20.5 -5t24 -8q-41 25 -53.5 60t-12.5 88q0 27 10.5 55.5t31.5 51.5t52 38t72 15q39 0 71.5 -10t55.5 -33t36 -61t13 -94v-55q0 -83 -46.5 -129.5t-146.5 -46.5h-220q-13 0 -17.5 16.5t-4.5 49.5q0 38 4.5 54.5t17.5 16.5h38zM234 291
q-27 0 -37 -16t-10 -33q0 -10 3 -19.5t13 -20.5t29.5 -24t51.5 -30q5 8 6 23.5t1 26.5v22q0 14 -2.5 27t-9 22.5t-17.5 15.5t-28 6z" />
    <glyph glyph-name="hezar.sep.up" horiz-adv-x="253" 
d="M44 308zM127.009 610q36.9971 0 59.4961 -21.999q22.498 -21.998 22.498 -71.9951q0 -59.9961 -5.49902 -97.9941q-5.5 -37.998 -21.999 -61.4961q-16.499 -23.499 -46.4971 -33.998t-79.9951 -14.499v70.9951q24.999 4 38.998 8t21.498 10.999q7.5 7 9.5 17.999
t2 28.998q-37.998 0 -60.4971 18.499q-22.498 18.499 -22.498 64.4961q0 40.998 22.498 61.4961q22.499 20.499 60.4971 20.499z" />
    <glyph glyph-name="asteris" horiz-adv-x="505" 
d="M44 210zM167 210l-81 65l90 106l-132 48l42 96l120 -56l-6 142h105l-6 -142l120 56l42 -96l-132 -48l90 -106l-81 -65l-85 115z" />
    <glyph glyph-name="tooth.k.medi" horiz-adv-x="435" 
d="M0 0q-13 0 -17.5 16.5t-4.5 49.5q0 38 4.5 54.5t17.5 16.5h165q29 0 42 13.5t13 42.5v104h126v-104q0 -29 19 -42.5t48 -13.5h22q22 0 22 -66q0 -71 -22 -71h-28q-37 0 -69.5 11.5t-57.5 49.5q-24 -38 -53 -49.5t-62 -11.5h-165z" />
    <glyph glyph-name="be.k.medi" horiz-adv-x="435" 
d="M0 0zM0 0q-13 0 -17.5 16.5t-4.5 49.5q0 38 4.5 54.5t17.5 16.5h165q29 0 42 13.5t13 42.5v104h126v-104q0 -29 19 -42.5t48 -13.5h22q22 0 22 -66q0 -71 -22 -71h-28q-37 0 -69.5 11.5t-57.5 49.5q-24 -38 -53 -49.5t-62 -11.5h-165zM253 -230h-132v121h132v-121z" />
    <glyph glyph-name="pe.k.medi" horiz-adv-x="435" 
d="M0 0zM0 0q-13 0 -17.5 16.5t-4.5 49.5q0 38 4.5 54.5t17.5 16.5h165q29 0 42 13.5t13 42.5v104h126v-104q0 -29 19 -42.5t48 -13.5h22q22 0 22 -66q0 -71 -22 -71h-28q-37 0 -69.5 11.5t-57.5 49.5q-24 -38 -53 -49.5t-62 -11.5h-165zM259 -379h-122v116h122v-116z
M335 -225h-121v116h121v-116zM181 -225h-121v116h121v-116z" />
    <glyph glyph-name="te.k.medi" horiz-adv-x="435" 
d="M0 0zM0 0q-13 0 -17.5 16.5t-4.5 49.5q0 38 4.5 54.5t17.5 16.5h165q29 0 42 13.5t13 42.5v104h126v-104q0 -29 19 -42.5t48 -13.5h22q22 0 22 -66q0 -71 -22 -71h-28q-37 0 -69.5 11.5t-57.5 49.5q-24 -38 -53 -49.5t-62 -11.5h-165zM341 407h-121v116h121v-116z
M187 407h-121v116h121v-116z" />
    <glyph glyph-name="the.k.medi" horiz-adv-x="435" 
d="M0 0zM0 0q-13 0 -17.5 16.5t-4.5 49.5q0 38 4.5 54.5t17.5 16.5h165q29 0 42 13.5t13 42.5v104h126v-104q0 -29 19 -42.5t48 -13.5h22q22 0 22 -66q0 -71 -22 -71h-28q-37 0 -69.5 11.5t-57.5 49.5q-24 -38 -53 -49.5t-62 -11.5h-165zM265 561h-122v115h122v-115z
M341 407h-121v116h121v-116zM187 407h-121v116h121v-116z" />
    <glyph glyph-name="nun.k.medi" horiz-adv-x="435" 
d="M0 0zM0 0q-13 0 -17.5 16.5t-4.5 49.5q0 38 4.5 54.5t17.5 16.5h165q29 0 42 13.5t13 42.5v104h126v-104q0 -29 19 -42.5t48 -13.5h22q22 0 22 -66q0 -71 -22 -71h-28q-37 0 -69.5 11.5t-57.5 49.5q-24 -38 -53 -49.5t-62 -11.5h-165zM341 407h-132v121h132v-121z" />
    <glyph glyph-name="ye.k.medi" horiz-adv-x="435" 
d="M0 0zM0 0q-13 0 -17.5 16.5t-4.5 49.5q0 38 4.5 54.5t17.5 16.5h165q29 0 42 13.5t13 42.5v104h126v-104q0 -29 19 -42.5t48 -13.5h22q22 0 22 -66q0 -71 -22 -71h-28q-37 0 -69.5 11.5t-57.5 49.5q-24 -38 -53 -49.5t-62 -11.5h-165zM335 -225h-121v116h121v-116z
M181 -225h-121v116h121v-116z" />
    <glyph glyph-name="ie.k.medi" horiz-adv-x="435" 
d="M0 0zM0 0q-13 0 -17.5 16.5t-4.5 49.5q0 38 4.5 54.5t17.5 16.5h165q29 0 42 13.5t13 42.5v104h126v-104q0 -29 19 -42.5t48 -13.5h22q22 0 22 -66q0 -71 -22 -71h-28q-37 0 -69.5 11.5t-57.5 49.5q-24 -38 -53 -49.5t-62 -11.5h-165zM336 429l-188 -94l-32 67l55 25
q-35 31 -35 73t28.5 68t70.5 26h46l-5 -77h-29q-17 0 -25 -7.5t-8 -18.5q0 -10 7 -16.5t18 -6.5q10 0 27 7t40 20z" />
    <glyph glyph-name="tooth.k.init" horiz-adv-x="463" 
d="M0 0q-13 0 -17.5 16.5t-4.5 49.5q0 38 4.5 54.5t17.5 16.5h231q55 0 55 56v104h127v-115q0 -91 -44 -136.5t-127 -45.5h-242z" />
    <glyph glyph-name="be.k.init" horiz-adv-x="463" 
d="M0 0zM0 0q-13 0 -17.5 16.5t-4.5 49.5q0 38 4.5 54.5t17.5 16.5h231q55 0 55 56v104h127v-115q0 -91 -44 -136.5t-127 -45.5h-242zM214 -230h-132v121h132v-121z" />
    <glyph glyph-name="pe.k.init" horiz-adv-x="463" 
d="M0 0zM0 0q-13 0 -17.5 16.5t-4.5 49.5q0 38 4.5 54.5t17.5 16.5h231q55 0 55 56v104h127v-115q0 -91 -44 -136.5t-127 -45.5h-242zM204 -379h-122v116h122v-116zM280 -225h-121v116h121v-116zM126 -225h-121v116h121v-116z" />
    <glyph glyph-name="te.k.init" horiz-adv-x="463" 
d="M0 0zM0 0q-13 0 -17.5 16.5t-4.5 49.5q0 38 4.5 54.5t17.5 16.5h231q55 0 55 56v104h127v-115q0 -91 -44 -136.5t-127 -45.5h-242zM352 407h-121v116h121v-116zM198 407h-121v116h121v-116z" />
    <glyph glyph-name="the.k.init" horiz-adv-x="463" 
d="M0 0zM0 0q-13 0 -17.5 16.5t-4.5 49.5q0 38 4.5 54.5t17.5 16.5h231q55 0 55 56v104h127v-115q0 -91 -44 -136.5t-127 -45.5h-242zM276 561h-122v115h122v-115zM352 407h-121v116h121v-116zM198 407h-121v116h121v-116z" />
    <glyph glyph-name="nun.k.init" horiz-adv-x="463" 
d="M0 0zM0 0q-13 0 -17.5 16.5t-4.5 49.5q0 38 4.5 54.5t17.5 16.5h231q55 0 55 56v104h127v-115q0 -91 -44 -136.5t-127 -45.5h-242zM352 407h-132v121h132v-121z" />
    <glyph glyph-name="ye.k.init" horiz-adv-x="463" 
d="M0 0zM0 0q-13 0 -17.5 16.5t-4.5 49.5q0 38 4.5 54.5t17.5 16.5h231q55 0 55 56v104h127v-115q0 -91 -44 -136.5t-127 -45.5h-242zM280 -225h-121v116h121v-116zM126 -225h-121v116h121v-116z" />
    <glyph glyph-name="ie.k.init" horiz-adv-x="463" 
d="M0 0zM0 0q-13 0 -17.5 16.5t-4.5 49.5q0 38 4.5 54.5t17.5 16.5h231q55 0 55 56v104h127v-115q0 -91 -44 -136.5t-127 -45.5h-242zM363 429l-188 -94l-32 67l55 25q-35 31 -35 73t28.5 68t70.5 26h46l-5 -77h-29q-17 0 -25 -7.5t-8 -18.5q0 -10 7 -16.5t18 -6.5
q10 0 27 7t40 20z" />
    <glyph glyph-name="re.c.fina" horiz-adv-x="274" 
d="M203 193q0 -29 17.5 -42.5t42.5 -13.5h11q22 0 22 -66q0 -71 -22 -71h-11q-17 0 -34.5 5.5t-31.5 22.5v-12q0 -51 -17.5 -98t-49 -82.5t-75 -56.5t-95.5 -21h-25l-10 137h13q37 0 63.5 10.5t43 27.5t24 38.5t7.5 44.5v281h127v-104z" />
    <glyph glyph-name="re.c" horiz-adv-x="253" 
d="M-73 -105h11q37 0 63.5 10.5t43 27.5t24 38.5t7.5 44.5v281h127v-281q0 -51 -18.5 -98t-51 -82.5t-77 -56.5t-96.5 -21h-27z" />
    <glyph glyph-name="ze.c.fina" horiz-adv-x="274" 
d="M0 0zM203 193q0 -29 17.5 -42.5t42.5 -13.5h11q22 0 22 -66q0 -71 -22 -71h-11q-17 0 -34.5 5.5t-31.5 22.5v-12q0 -51 -17.5 -98t-49 -82.5t-75 -56.5t-95.5 -21h-25l-10 137h13q37 0 63.5 10.5t43 27.5t24 38.5t7.5 44.5v281h127v-104zM187 407h-132v121h132v-121z" />
    <glyph glyph-name="ze.c" horiz-adv-x="253" 
d="M0 0zM-73 -105h11q37 0 63.5 10.5t43 27.5t24 38.5t7.5 44.5v281h127v-281q0 -51 -18.5 -98t-51 -82.5t-77 -56.5t-96.5 -21h-27zM187 407h-132v121h132v-121z" />
    <glyph glyph-name="je.c.fina" horiz-adv-x="274" 
d="M0 0zM203 193q0 -29 17.5 -42.5t42.5 -13.5h11q22 0 22 -66q0 -71 -22 -71h-11q-17 0 -34.5 5.5t-31.5 22.5v-12q0 -51 -17.5 -98t-49 -82.5t-75 -56.5t-95.5 -21h-25l-10 137h13q37 0 63.5 10.5t43 27.5t24 38.5t7.5 44.5v281h127v-104zM188 561h-122v115h122v-115z
M264 407h-121v116h121v-116zM110 407h-121v116h121v-116z" />
    <glyph glyph-name="je.c" horiz-adv-x="253" 
d="M0 0zM-73 -105h11q37 0 63.5 10.5t43 27.5t24 38.5t7.5 44.5v281h127v-281q0 -51 -18.5 -98t-51 -82.5t-77 -56.5t-96.5 -21h-27zM188 561h-122v115h122v-115zM264 407h-121v116h121v-116zM110 407h-121v116h121v-116z" />
    <glyph glyph-name=".tv" 
d="M61 215l60 -39l-88 -176h-66l-88 176l60 39l61 -127z" />
    <glyph glyph-name="la.tv" horiz-adv-x="489" 
d="M60 0zM60 620h127v-483h71q25 0 34.5 9t9.5 30v444h127v-466q0 -39 -12.5 -68t-34 -48t-49.5 -28.5t-59 -9.5h-214v620zM303 858l60 -39l-88 -176h-66l-88 176l60 39l61 -127z" />
    <glyph glyph-name="la.tv.fina" horiz-adv-x="511" 
d="M60 0zM60 0v620h127v-483h60q55 0 55 56v427h127v-427q0 -29 18.5 -42.5t47.5 -13.5h16q22 0 22 -66q0 -71 -22 -71h-22q-37 0 -69 11.5t-57 49.5q-26 -38 -54.5 -49.5t-61.5 -11.5h-187zM303 858l60 -39l-88 -176h-66l-88 176l60 39l61 -127z" />
    <glyph glyph-name="ye.tv.k.medi" horiz-adv-x="435" 
d="M0 0zM0 0q-13 0 -17.5 16.5t-4.5 49.5q0 38 4.5 54.5t17.5 16.5h165q29 0 42 13.5t13 42.5v104h126v-104q0 -29 19 -42.5t48 -13.5h22q22 0 22 -66q0 -71 -22 -71h-28q-37 0 -69.5 11.5t-57.5 49.5q-24 -38 -53 -49.5t-62 -11.5h-165zM335 -225h-121v116h121v-116z
M181 -225h-121v116h121v-116zM265 600l60 -39l-88 -176h-66l-88 176l60 39l61 -127z" />
    <glyph glyph-name="ye.tv.k.init" horiz-adv-x="463" 
d="M0 0zM0 0q-13 0 -17.5 16.5t-4.5 49.5q0 38 4.5 54.5t17.5 16.5h231q55 0 55 56v104h127v-115q0 -91 -44 -136.5t-127 -45.5h-242zM280 -225h-121v116h121v-116zM126 -225h-121v116h121v-116zM265 600l60 -39l-88 -176h-66l-88 176l60 39l61 -127z" />
    <glyph glyph-name="re.bv.c.fina" horiz-adv-x="274" 
d="M0 0zM203 193q0 -29 17.5 -42.5t42.5 -13.5h11q22 0 22 -66q0 -71 -22 -71h-11q-17 0 -34.5 5.5t-31.5 22.5v-12q0 -51 -17.5 -98t-49 -82.5t-75 -56.5t-95.5 -21h-25l-10 137h13q37 0 63.5 10.5t43 27.5t24 38.5t7.5 44.5v281h127v-104zM149 -279l60 -39l-88 -176h-66
l-88 176l60 39l61 -127z" />
    <glyph glyph-name="re.bv.c" horiz-adv-x="253" 
d="M0 0zM-73 -105h11q37 0 63.5 10.5t43 27.5t24 38.5t7.5 44.5v281h127v-281q0 -51 -18.5 -98t-51 -82.5t-77 -56.5t-96.5 -21h-27zM149 -279l60 -39l-88 -176h-66l-88 176l60 39l61 -127z" />
    <glyph glyph-name="zero.onum" horiz-adv-x="589" 
d="M553 266q0 -63 -20.5 -113.5t-55.5 -86t-82 -54.5t-101 -19q-53 0 -100 19t-81.5 54.5t-54.5 86t-20 113.5t20 114t54.5 86t81.5 54t100 19q54 0 101 -19t82 -54t55.5 -86t20.5 -114zM412 266q0 45 -10.5 76t-27.5 50t-38 27t-42 8q-20 0 -40 -8t-36.5 -27t-26.5 -50
t-10 -76t10 -76t26.5 -50t36.5 -27.5t40 -8.5q21 0 42 8.5t38 27.5t27.5 50t10.5 76z" />
    <glyph glyph-name="one.onum" horiz-adv-x="379" 
d="M311 529v-529h-139v313q0 14 0.5 28.5t0.5 30.5l-59 -49q-37 -26 -65 6l-48 62l195 138h115z" />
    <glyph glyph-name="two.onum" horiz-adv-x="501" 
d="M408 123q24 0 38 -14.5t14 -33.5v-75h-425v77l189 156q44 37 67 66t23 63q0 26 -16.5 44.5t-45.5 18.5q-35 0 -51 -19t-25 -45q-5 -13 -12 -19.5t-23 -6.5q-9 0 -17 2l-84 14q6 40 23.5 74.5t45.5 59.5t65.5 39t83.5 14q43 0 77.5 -13t59 -36t38 -54t13.5 -68
q0 -57 -31 -98.5t-81 -81.5l-103 -82q30 9 60.5 13.5t51.5 4.5h65z" />
    <glyph glyph-name="three.onum" horiz-adv-x="498" 
d="M39 351q6 40 23.5 74.5t45 59.5t65 39t83.5 14q47 0 83 -13.5t61 -36.5t37.5 -52.5t12.5 -62.5q0 -49 -22 -83t-73 -53q54 -20 80 -57t26 -99q0 -36 -14.5 -69.5t-42.5 -59.5t-67.5 -42t-90.5 -16q-42 0 -76.5 8.5t-62 27.5t-48.5 49.5t-35 74.5l66 27q26 11 43 5t26 -22
q13 -32 38 -48.5t48 -16.5q40 0 63 22.5t23 61.5q0 50 -29 70.5t-101 20.5v95q24 0 46 5t38.5 15t26.5 27t10 41q0 30 -18 49t-51 19q-35 0 -52 -19t-27 -45q-5 -13 -12 -19.5t-22 -6.5q-9 0 -17 2z" />
    <glyph glyph-name="four.onum" horiz-adv-x="519" 
d="M302 153v148q0 17 1.5 35t6.5 37l-160 -220h152zM496 153v-72q0 -14 -9.5 -23t-24.5 -9h-39v-149h-121v149h-241q-13 0 -26.5 10.5t-15.5 25.5l-12 61l285 383h131v-376h73z" />
    <glyph glyph-name="five.onum" horiz-adv-x="469" 
d="M176 302q17 5 33.5 6.5t33.5 1.5q48 0 85 -14.5t62 -40t38 -60.5t13 -75q0 -50 -17.5 -92t-48.5 -72t-75 -47t-96 -17q-63 0 -112 24.5t-83 57.5l40 53q11 14 28.5 18.5t33.5 -6.5q24 -17 47.5 -28t51.5 -11q53 0 76.5 32t23.5 81q0 45 -27.5 68.5t-72.5 23.5
q-20 0 -41 -5t-40 -11l-84 23l54 317h324v-69q0 -23 -13.5 -37.5t-40.5 -14.5h-174z" />
    <glyph glyph-name="six.onum" horiz-adv-x="518" 
d="M261 100q45 0 70.5 31.5t25.5 74.5q0 48 -27 74t-70 26q-45 0 -71 -29t-26 -71q0 -47 24.5 -76.5t73.5 -29.5zM238 392q14 5 30.5 7.5t33.5 2.5q34 0 67.5 -11.5t60 -34.5t43 -59.5t16.5 -85.5q0 -44 -16.5 -83.5t-47 -69.5t-73 -47.5t-94.5 -17.5q-54 0 -96 16.5
t-71.5 46.5t-45 72t-15.5 92q0 49 18.5 95.5t53.5 95.5l135 182q14 20 33.5 31t45.5 11h125l-188 -224q-3 -5 -7 -9.5t-8 -9.5z" />
    <glyph glyph-name="seven.onum" horiz-adv-x="459" 
d="M454 529v-66q0 -26 -13 -52l-231 -470q-8 -17 -26 -29t-38 -12h-107l232 442q11 19 22.5 36t25.5 30h-263q-17 0 -29 10t-12 29v82h439z" />
    <glyph glyph-name="eight.onum" horiz-adv-x="507" 
d="M254 97q43 0 63 25.5t20 62.5q0 40 -17 65t-66 25q-47 0 -64.5 -25t-17.5 -65q0 -37 20 -62.5t62 -25.5zM254 539q-36 0 -53 -22.5t-17 -52.5q0 -16 3 -31t11 -27t21.5 -19t34.5 -7t34.5 7t22 19t11.5 27t3 31q0 30 -17 52.5t-54 22.5zM374 331q54 -22 77.5 -59.5
t23.5 -88.5q0 -44 -16 -79t-45.5 -59.5t-70 -38t-89.5 -13.5t-89.5 13.5t-69 38t-44.5 59.5t-16 79q0 51 22.5 88.5t78.5 59.5q-81 38 -81 137q0 37 15 68t41.5 54t63 36t79.5 13q44 0 81 -13t63.5 -36t41.5 -54t15 -68q0 -97 -81 -137z" />
    <glyph glyph-name="nine.onum" horiz-adv-x="498" 
d="M162 337q0 -93 87 -93q41 0 63.5 24.5t22.5 68.5q0 45 -25 68t-64 23q-40 0 -62 -25.5t-22 -65.5zM268 136q7 9 13.5 17.5t11.5 16.5q-19 -13 -43 -20t-53 -7q-30 0 -60.5 11t-55.5 33.5t-41 56.5t-16 81q0 43 16 82t45 68.5t70.5 46.5t91.5 17q51 0 92 -16t69 -44.5
t43 -67.5t15 -86q0 -62 -21 -115.5t-60 -106.5l-119 -168q-12 -15 -29 -25t-42 -10h-124z" />
    <glyph glyph-name="zero.tnum" horiz-adv-x="533" 
d="M518 336q0 -88 -19 -152.5t-52.5 -107t-79.5 -63t-100 -20.5t-99.5 20.5t-78.5 63t-51.5 107t-18.5 152.5t18.5 153t51.5 107.5t78.5 63t99.5 20.5t100 -20.5t79.5 -63t52.5 -107.5t19 -153zM370 336q0 70 -9 115t-23.5 70.5t-33 35t-37.5 9.5t-37 -9.5t-32.5 -35
t-23 -70.5t-8.5 -115t8.5 -114.5t23 -70t32.5 -35t37 -9.5t37.5 9.5t33 35t23.5 70t9 114.5z" />
    <glyph glyph-name="one.tnum" horiz-adv-x="533" 
d="M485 104v-104h-383v104h129v338q0 14 0.5 27t1.5 27l-78 -64q-19 -15 -37.5 -9.5t-26.5 14.5l-45 60l210 176h118v-569h111z" />
    <glyph glyph-name="two.tnum" horiz-adv-x="535" 
d="M450 129q24 0 37.5 -12.5t13.5 -33.5v-83h-474v46q0 14 6.5 28.5t20.5 28.5l193 195q50 49 73.5 91.5t23.5 91.5q0 39 -19 61t-58 22q-32 0 -54 -16.5t-30 -42.5q-10 -26 -25.5 -34t-44.5 -3l-76 13q7 50 28 87.5t52.5 62t71.5 37t86 12.5q50 0 90 -14.5t68.5 -40.5
t43.5 -62t15 -78q0 -38 -10.5 -69t-28.5 -59.5t-42 -55t-51 -54.5l-131 -134q25 8 50 12t46 4h125z" />
    <glyph glyph-name="three.tnum" horiz-adv-x="535" 
d="M40 481q7 50 28 87.5t52.5 62t71.5 37t87 12.5q50 0 89 -14t65.5 -38t40 -55.5t13.5 -66.5q0 -65 -25 -98.5t-74 -50.5q112 -39 112 -152q0 -54 -19.5 -93.5t-52 -66t-75.5 -39.5t-89 -13q-96 0 -152.5 42.5t-89.5 137.5l63 25q26 10 47 6t31 -21q21 -39 43.5 -57
t54.5 -18q24 0 42 8t30 21t18 29t6 33q0 21 -3 38.5t-17 30t-42 19.5t-78 7v100q43 0 69 6t40 17.5t18.5 27.5t4.5 36q0 39 -20 61t-59 22q-31 0 -53 -16.5t-30 -42.5q-11 -26 -26.5 -34t-43.5 -3z" />
    <glyph glyph-name="four.tnum" horiz-adv-x="535" 
d="M321 261v176q0 17 1 35t3 38l-177 -249h173zM516 261v-79q0 -12 -7.5 -20t-21.5 -8h-41v-154h-125v154h-272q-12 0 -23 8.5t-14 21.5l-14 70l311 418h137v-411h70z" />
    <glyph glyph-name="five.tnum" horiz-adv-x="535" 
d="M206 437q18 3 35 4t34 1q54 0 94.5 -16t68 -44t41.5 -66t14 -81q0 -54 -19 -98.5t-53.5 -76.5t-82 -49.5t-103.5 -17.5q-66 0 -118 25.5t-88 60.5l43 59q14 17 36 17q15 0 27.5 -7.5t27 -16t34 -16t47.5 -7.5q29 0 49 9.5t33 26t18.5 38.5t5.5 47q0 48 -27.5 74t-78.5 26
q-42 0 -90 -17l-87 24l57 336h345v-59q0 -29 -19 -47.5t-66 -18.5h-160z" />
    <glyph glyph-name="six.tnum" horiz-adv-x="535" 
d="M267 105q44 0 74.5 31t30.5 78q0 51 -29 79.5t-77 28.5q-44 0 -72 -29.5t-28 -77.5q0 -51 24 -80.5t77 -29.5zM244 414q17 7 34.5 9.5t37.5 2.5q37 0 72.5 -12t64 -37t46 -63t17.5 -90q0 -47 -18 -89t-50 -73.5t-77.5 -50t-100.5 -18.5q-57 0 -101.5 17.5t-75.5 49
t-47.5 76t-16.5 97.5q0 100 76 203l151 203q11 14 31 23.5t47 9.5h127l-200 -237q-5 -6 -8.5 -10.5t-8.5 -10.5z" />
    <glyph glyph-name="seven.tnum" horiz-adv-x="535" 
d="M509 672v-60q0 -26 -6 -42.5t-11 -26.5l-235 -496q-9 -20 -26.5 -33.5t-47.5 -13.5h-104l240 482q11 19 21.5 35t24.5 30h-297q-12 0 -22 9.5t-10 22.5v93h473z" />
    <glyph glyph-name="eight.tnum" horiz-adv-x="535" 
d="M268 101q49 0 70.5 27t21.5 67q0 22 -4.5 40t-15 31t-28.5 20t-44 7q-53 0 -73 -27.5t-20 -70.5q0 -40 22.5 -67t70.5 -27zM268 575q-22 0 -37 -7t-24.5 -18t-13.5 -25.5t-4 -29.5q0 -18 3.5 -35t12 -29.5t24 -20.5t39.5 -8t39 8t24 20.5t12 29.5t3 35q0 30 -17.5 55
t-60.5 25zM395 351q60 -22 86.5 -62.5t26.5 -96.5q0 -45 -17.5 -82t-49 -63t-75.5 -40t-98 -14t-98 14t-76 40t-49.5 63t-17.5 82q0 56 27 96.5t87 62.5q-92 42 -92 146q0 39 16.5 72.5t45.5 58t69 38.5t88 14t88 -14t69 -38.5t45 -58t16 -72.5q0 -104 -91 -146z" />
    <glyph glyph-name="nine.tnum" horiz-adv-x="535" 
d="M172 468q0 -101 94 -101q45 0 69.5 27t24.5 74q0 48 -26.5 73.5t-69.5 25.5q-44 0 -68 -28.5t-24 -70.5zM287 255q7 8 12 15t12 15q-23 -11 -46.5 -17t-50.5 -6q-33 0 -66 12t-59.5 36t-43 60.5t-16.5 86.5q0 46 17 86.5t48 71t74.5 48t97.5 17.5t97 -16.5t73 -46.5
t45.5 -71.5t15.5 -90.5q0 -67 -19.5 -119t-53.5 -98l-145 -207q-10 -13 -29.5 -22t-43.5 -9h-134z" />
    <glyph glyph-name=".ttfautohint" horiz-adv-x="750" 
d="M0 0z" />
  </font>
</defs>
</svg>
